M48
; DRILL file {KiCad (5.1.10)-1} date 12/17/21 22:33:17
; FORMAT={-:-/ absolute / inch / decimal}
; #@! TF.CreationDate,2021-12-17T22:33:17-07:00
; #@! TF.GenerationSoftware,Kicad,Pcbnew,(5.1.10)-1
; #@! TF.FileFunction,Plated,1,2,PTH
FMAT,2
INCH
T1C0.0157
T2C0.0315
T3C0.0394
%
G90
G05
T1
X4.1Y-3.0
X4.2Y-3.25
X4.3Y-3.0
X4.3Y-3.15
X4.3Y-3.95
X4.35Y-3.35
X4.5Y-3.0
X4.55Y-3.55
X4.5763Y-3.4682
X4.6Y-3.25
X4.6027Y-3.4417
X4.65Y-3.2
X4.65Y-3.55
X4.65Y-3.65
X4.6945Y-3.4291
X4.7Y-3.1
X4.7Y-3.55
X4.7Y-3.7
X4.7209Y-3.4555
X4.75Y-3.2
X4.8Y-3.0
X4.85Y-3.7
X4.85Y-3.95
X4.9Y-3.2
X4.9Y-3.45
X4.9Y-3.6
X4.95Y-3.45
X4.95Y-3.6495
X4.95Y-3.6849
X5.0Y-3.0
X5.05Y-3.45
X5.05Y-3.55
X5.1Y-3.45
X5.1Y-3.95
X5.15Y-3.0
X5.2Y-3.25
X5.3Y-3.65
X5.35Y-3.0
X5.35Y-3.7
X5.35Y-3.7
X5.35Y-3.75
X5.35Y-3.85
X5.4Y-3.6
X5.4592Y-3.7908
X5.6Y-3.2
X5.6Y-3.5
X5.65Y-3.0
X5.7Y-3.35
X5.75Y-3.0
T2
X4.1Y-3.25
X4.3Y-3.25
T3
X5.2Y-3.4
X5.2Y-3.5
X5.2Y-3.6
X5.65Y-3.65
X5.65Y-3.75
X5.65Y-3.85
T0
M30
