G04 #@! TF.GenerationSoftware,KiCad,Pcbnew,(5.1.10)-1*
G04 #@! TF.CreationDate,2021-12-17T22:33:09-07:00*
G04 #@! TF.ProjectId,ultimate-uart-bridge,756c7469-6d61-4746-952d-756172742d62,rev?*
G04 #@! TF.SameCoordinates,Original*
G04 #@! TF.FileFunction,Paste,Top*
G04 #@! TF.FilePolarity,Positive*
%FSLAX46Y46*%
G04 Gerber Fmt 4.6, Leading zero omitted, Abs format (unit mm)*
G04 Created by KiCad (PCBNEW (5.1.10)-1) date 2021-12-17 22:33:09*
%MOMM*%
%LPD*%
G01*
G04 APERTURE LIST*
%ADD10R,1.200000X0.400000*%
%ADD11R,1.900000X1.000000*%
%ADD12R,1.900000X1.800000*%
%ADD13R,1.300000X1.650000*%
%ADD14R,1.550000X1.425000*%
%ADD15R,1.380000X0.450000*%
%ADD16R,0.508000X0.977900*%
G04 APERTURE END LIST*
D10*
X121860000Y-95567500D03*
X121860000Y-94932500D03*
X121860000Y-94297500D03*
X121860000Y-93662500D03*
X121860000Y-93027500D03*
X121860000Y-92392500D03*
X121860000Y-91757500D03*
X121860000Y-91122500D03*
X121860000Y-90487500D03*
X121860000Y-89852500D03*
X127060000Y-89852500D03*
X127060000Y-90487500D03*
X127060000Y-91122500D03*
X127060000Y-91757500D03*
X127060000Y-92392500D03*
X127060000Y-93027500D03*
X127060000Y-93662500D03*
X127060000Y-94297500D03*
X127060000Y-94932500D03*
X127060000Y-95567500D03*
G36*
G01*
X139249999Y-90570000D02*
X140150001Y-90570000D01*
G75*
G02*
X140400000Y-90819999I0J-249999D01*
G01*
X140400000Y-91520001D01*
G75*
G02*
X140150001Y-91770000I-249999J0D01*
G01*
X139249999Y-91770000D01*
G75*
G02*
X139000000Y-91520001I0J249999D01*
G01*
X139000000Y-90819999D01*
G75*
G02*
X139249999Y-90570000I249999J0D01*
G01*
G37*
G36*
G01*
X139249999Y-88570000D02*
X140150001Y-88570000D01*
G75*
G02*
X140400000Y-88819999I0J-249999D01*
G01*
X140400000Y-89520001D01*
G75*
G02*
X140150001Y-89770000I-249999J0D01*
G01*
X139249999Y-89770000D01*
G75*
G02*
X139000000Y-89520001I0J249999D01*
G01*
X139000000Y-88819999D01*
G75*
G02*
X139249999Y-88570000I249999J0D01*
G01*
G37*
G36*
G01*
X135439999Y-90300000D02*
X136340001Y-90300000D01*
G75*
G02*
X136590000Y-90549999I0J-249999D01*
G01*
X136590000Y-91250001D01*
G75*
G02*
X136340001Y-91500000I-249999J0D01*
G01*
X135439999Y-91500000D01*
G75*
G02*
X135190000Y-91250001I0J249999D01*
G01*
X135190000Y-90549999D01*
G75*
G02*
X135439999Y-90300000I249999J0D01*
G01*
G37*
G36*
G01*
X135439999Y-88300000D02*
X136340001Y-88300000D01*
G75*
G02*
X136590000Y-88549999I0J-249999D01*
G01*
X136590000Y-89250001D01*
G75*
G02*
X136340001Y-89500000I-249999J0D01*
G01*
X135439999Y-89500000D01*
G75*
G02*
X135190000Y-89250001I0J249999D01*
G01*
X135190000Y-88549999D01*
G75*
G02*
X135439999Y-88300000I249999J0D01*
G01*
G37*
G36*
G01*
X113430000Y-90620001D02*
X113430000Y-89719999D01*
G75*
G02*
X113679999Y-89470000I249999J0D01*
G01*
X114380001Y-89470000D01*
G75*
G02*
X114630000Y-89719999I0J-249999D01*
G01*
X114630000Y-90620001D01*
G75*
G02*
X114380001Y-90870000I-249999J0D01*
G01*
X113679999Y-90870000D01*
G75*
G02*
X113430000Y-90620001I0J249999D01*
G01*
G37*
G36*
G01*
X111430000Y-90620001D02*
X111430000Y-89719999D01*
G75*
G02*
X111679999Y-89470000I249999J0D01*
G01*
X112380001Y-89470000D01*
G75*
G02*
X112630000Y-89719999I0J-249999D01*
G01*
X112630000Y-90620001D01*
G75*
G02*
X112380001Y-90870000I-249999J0D01*
G01*
X111679999Y-90870000D01*
G75*
G02*
X111430000Y-90620001I0J249999D01*
G01*
G37*
G36*
G01*
X113430000Y-94430001D02*
X113430000Y-93529999D01*
G75*
G02*
X113679999Y-93280000I249999J0D01*
G01*
X114380001Y-93280000D01*
G75*
G02*
X114630000Y-93529999I0J-249999D01*
G01*
X114630000Y-94430001D01*
G75*
G02*
X114380001Y-94680000I-249999J0D01*
G01*
X113679999Y-94680000D01*
G75*
G02*
X113430000Y-94430001I0J249999D01*
G01*
G37*
G36*
G01*
X111430000Y-94430001D02*
X111430000Y-93529999D01*
G75*
G02*
X111679999Y-93280000I249999J0D01*
G01*
X112380001Y-93280000D01*
G75*
G02*
X112630000Y-93529999I0J-249999D01*
G01*
X112630000Y-94430001D01*
G75*
G02*
X112380001Y-94680000I-249999J0D01*
G01*
X111679999Y-94680000D01*
G75*
G02*
X111430000Y-94430001I0J249999D01*
G01*
G37*
D11*
X104105000Y-94207500D03*
D12*
X104105000Y-91507500D03*
D13*
X104105000Y-96032500D03*
X104105000Y-89282500D03*
D14*
X106680000Y-95145000D03*
X106680000Y-90170000D03*
D15*
X106765000Y-93957500D03*
X106765000Y-93307500D03*
X106765000Y-92657500D03*
X106765000Y-92007500D03*
X106765000Y-91357500D03*
D16*
X124140001Y-85185250D03*
X122239999Y-85185250D03*
X122239999Y-82454750D03*
X123190000Y-82454750D03*
X124140001Y-82454750D03*
G36*
G01*
X140150001Y-84395000D02*
X139249999Y-84395000D01*
G75*
G02*
X139000000Y-84145001I0J249999D01*
G01*
X139000000Y-83494999D01*
G75*
G02*
X139249999Y-83245000I249999J0D01*
G01*
X140150001Y-83245000D01*
G75*
G02*
X140400000Y-83494999I0J-249999D01*
G01*
X140400000Y-84145001D01*
G75*
G02*
X140150001Y-84395000I-249999J0D01*
G01*
G37*
G36*
G01*
X140150001Y-86445000D02*
X139249999Y-86445000D01*
G75*
G02*
X139000000Y-86195001I0J249999D01*
G01*
X139000000Y-85544999D01*
G75*
G02*
X139249999Y-85295000I249999J0D01*
G01*
X140150001Y-85295000D01*
G75*
G02*
X140400000Y-85544999I0J-249999D01*
G01*
X140400000Y-86195001D01*
G75*
G02*
X140150001Y-86445000I-249999J0D01*
G01*
G37*
G36*
G01*
X136340001Y-84395000D02*
X135439999Y-84395000D01*
G75*
G02*
X135190000Y-84145001I0J249999D01*
G01*
X135190000Y-83494999D01*
G75*
G02*
X135439999Y-83245000I249999J0D01*
G01*
X136340001Y-83245000D01*
G75*
G02*
X136590000Y-83494999I0J-249999D01*
G01*
X136590000Y-84145001D01*
G75*
G02*
X136340001Y-84395000I-249999J0D01*
G01*
G37*
G36*
G01*
X136340001Y-86445000D02*
X135439999Y-86445000D01*
G75*
G02*
X135190000Y-86195001I0J249999D01*
G01*
X135190000Y-85544999D01*
G75*
G02*
X135439999Y-85295000I249999J0D01*
G01*
X136340001Y-85295000D01*
G75*
G02*
X136590000Y-85544999I0J-249999D01*
G01*
X136590000Y-86195001D01*
G75*
G02*
X136340001Y-86445000I-249999J0D01*
G01*
G37*
G36*
G01*
X117660000Y-98585000D02*
X117660000Y-99535000D01*
G75*
G02*
X117410000Y-99785000I-250000J0D01*
G01*
X116735000Y-99785000D01*
G75*
G02*
X116485000Y-99535000I0J250000D01*
G01*
X116485000Y-98585000D01*
G75*
G02*
X116735000Y-98335000I250000J0D01*
G01*
X117410000Y-98335000D01*
G75*
G02*
X117660000Y-98585000I0J-250000D01*
G01*
G37*
G36*
G01*
X119735000Y-98585000D02*
X119735000Y-99535000D01*
G75*
G02*
X119485000Y-99785000I-250000J0D01*
G01*
X118810000Y-99785000D01*
G75*
G02*
X118560000Y-99535000I0J250000D01*
G01*
X118560000Y-98585000D01*
G75*
G02*
X118810000Y-98335000I250000J0D01*
G01*
X119485000Y-98335000D01*
G75*
G02*
X119735000Y-98585000I0J-250000D01*
G01*
G37*
G36*
G01*
X114750000Y-79215000D02*
X114750000Y-78265000D01*
G75*
G02*
X115000000Y-78015000I250000J0D01*
G01*
X115675000Y-78015000D01*
G75*
G02*
X115925000Y-78265000I0J-250000D01*
G01*
X115925000Y-79215000D01*
G75*
G02*
X115675000Y-79465000I-250000J0D01*
G01*
X115000000Y-79465000D01*
G75*
G02*
X114750000Y-79215000I0J250000D01*
G01*
G37*
G36*
G01*
X112675000Y-79215000D02*
X112675000Y-78265000D01*
G75*
G02*
X112925000Y-78015000I250000J0D01*
G01*
X113600000Y-78015000D01*
G75*
G02*
X113850000Y-78265000I0J-250000D01*
G01*
X113850000Y-79215000D01*
G75*
G02*
X113600000Y-79465000I-250000J0D01*
G01*
X112925000Y-79465000D01*
G75*
G02*
X112675000Y-79215000I0J250000D01*
G01*
G37*
G36*
G01*
X117660000Y-96045000D02*
X117660000Y-96995000D01*
G75*
G02*
X117410000Y-97245000I-250000J0D01*
G01*
X116735000Y-97245000D01*
G75*
G02*
X116485000Y-96995000I0J250000D01*
G01*
X116485000Y-96045000D01*
G75*
G02*
X116735000Y-95795000I250000J0D01*
G01*
X117410000Y-95795000D01*
G75*
G02*
X117660000Y-96045000I0J-250000D01*
G01*
G37*
G36*
G01*
X119735000Y-96045000D02*
X119735000Y-96995000D01*
G75*
G02*
X119485000Y-97245000I-250000J0D01*
G01*
X118810000Y-97245000D01*
G75*
G02*
X118560000Y-96995000I0J250000D01*
G01*
X118560000Y-96045000D01*
G75*
G02*
X118810000Y-95795000I250000J0D01*
G01*
X119485000Y-95795000D01*
G75*
G02*
X119735000Y-96045000I0J-250000D01*
G01*
G37*
G36*
G01*
X132555000Y-94800000D02*
X131605000Y-94800000D01*
G75*
G02*
X131355000Y-94550000I0J250000D01*
G01*
X131355000Y-93875000D01*
G75*
G02*
X131605000Y-93625000I250000J0D01*
G01*
X132555000Y-93625000D01*
G75*
G02*
X132805000Y-93875000I0J-250000D01*
G01*
X132805000Y-94550000D01*
G75*
G02*
X132555000Y-94800000I-250000J0D01*
G01*
G37*
G36*
G01*
X132555000Y-96875000D02*
X131605000Y-96875000D01*
G75*
G02*
X131355000Y-96625000I0J250000D01*
G01*
X131355000Y-95950000D01*
G75*
G02*
X131605000Y-95700000I250000J0D01*
G01*
X132555000Y-95700000D01*
G75*
G02*
X132805000Y-95950000I0J-250000D01*
G01*
X132805000Y-96625000D01*
G75*
G02*
X132555000Y-96875000I-250000J0D01*
G01*
G37*
G36*
G01*
X113480000Y-88105000D02*
X113480000Y-87155000D01*
G75*
G02*
X113730000Y-86905000I250000J0D01*
G01*
X114405000Y-86905000D01*
G75*
G02*
X114655000Y-87155000I0J-250000D01*
G01*
X114655000Y-88105000D01*
G75*
G02*
X114405000Y-88355000I-250000J0D01*
G01*
X113730000Y-88355000D01*
G75*
G02*
X113480000Y-88105000I0J250000D01*
G01*
G37*
G36*
G01*
X111405000Y-88105000D02*
X111405000Y-87155000D01*
G75*
G02*
X111655000Y-86905000I250000J0D01*
G01*
X112330000Y-86905000D01*
G75*
G02*
X112580000Y-87155000I0J-250000D01*
G01*
X112580000Y-88105000D01*
G75*
G02*
X112330000Y-88355000I-250000J0D01*
G01*
X111655000Y-88355000D01*
G75*
G02*
X111405000Y-88105000I0J250000D01*
G01*
G37*
G36*
G01*
X113480000Y-96995000D02*
X113480000Y-96045000D01*
G75*
G02*
X113730000Y-95795000I250000J0D01*
G01*
X114405000Y-95795000D01*
G75*
G02*
X114655000Y-96045000I0J-250000D01*
G01*
X114655000Y-96995000D01*
G75*
G02*
X114405000Y-97245000I-250000J0D01*
G01*
X113730000Y-97245000D01*
G75*
G02*
X113480000Y-96995000I0J250000D01*
G01*
G37*
G36*
G01*
X111405000Y-96995000D02*
X111405000Y-96045000D01*
G75*
G02*
X111655000Y-95795000I250000J0D01*
G01*
X112330000Y-95795000D01*
G75*
G02*
X112580000Y-96045000I0J-250000D01*
G01*
X112580000Y-96995000D01*
G75*
G02*
X112330000Y-97245000I-250000J0D01*
G01*
X111655000Y-97245000D01*
G75*
G02*
X111405000Y-96995000I0J250000D01*
G01*
G37*
G36*
G01*
X128745000Y-83602500D02*
X127795000Y-83602500D01*
G75*
G02*
X127545000Y-83352500I0J250000D01*
G01*
X127545000Y-82677500D01*
G75*
G02*
X127795000Y-82427500I250000J0D01*
G01*
X128745000Y-82427500D01*
G75*
G02*
X128995000Y-82677500I0J-250000D01*
G01*
X128995000Y-83352500D01*
G75*
G02*
X128745000Y-83602500I-250000J0D01*
G01*
G37*
G36*
G01*
X128745000Y-85677500D02*
X127795000Y-85677500D01*
G75*
G02*
X127545000Y-85427500I0J250000D01*
G01*
X127545000Y-84752500D01*
G75*
G02*
X127795000Y-84502500I250000J0D01*
G01*
X128745000Y-84502500D01*
G75*
G02*
X128995000Y-84752500I0J-250000D01*
G01*
X128995000Y-85427500D01*
G75*
G02*
X128745000Y-85677500I-250000J0D01*
G01*
G37*
G36*
G01*
X114750000Y-83025000D02*
X114750000Y-82075000D01*
G75*
G02*
X115000000Y-81825000I250000J0D01*
G01*
X115675000Y-81825000D01*
G75*
G02*
X115925000Y-82075000I0J-250000D01*
G01*
X115925000Y-83025000D01*
G75*
G02*
X115675000Y-83275000I-250000J0D01*
G01*
X115000000Y-83275000D01*
G75*
G02*
X114750000Y-83025000I0J250000D01*
G01*
G37*
G36*
G01*
X112675000Y-83025000D02*
X112675000Y-82075000D01*
G75*
G02*
X112925000Y-81825000I250000J0D01*
G01*
X113600000Y-81825000D01*
G75*
G02*
X113850000Y-82075000I0J-250000D01*
G01*
X113850000Y-83025000D01*
G75*
G02*
X113600000Y-83275000I-250000J0D01*
G01*
X112925000Y-83275000D01*
G75*
G02*
X112675000Y-83025000I0J250000D01*
G01*
G37*
M02*
