G04 #@! TF.GenerationSoftware,KiCad,Pcbnew,(5.1.10)-1*
G04 #@! TF.CreationDate,2021-12-17T22:33:09-07:00*
G04 #@! TF.ProjectId,ultimate-uart-bridge,756c7469-6d61-4746-952d-756172742d62,rev?*
G04 #@! TF.SameCoordinates,Original*
G04 #@! TF.FileFunction,Copper,L2,Bot*
G04 #@! TF.FilePolarity,Positive*
%FSLAX46Y46*%
G04 Gerber Fmt 4.6, Leading zero omitted, Abs format (unit mm)*
G04 Created by KiCad (PCBNEW (5.1.10)-1) date 2021-12-17 22:33:09*
%MOMM*%
%LPD*%
G01*
G04 APERTURE LIST*
G04 #@! TA.AperFunction,ComponentPad*
%ADD10C,2.000000*%
G04 #@! TD*
G04 #@! TA.AperFunction,ComponentPad*
%ADD11O,1.700000X1.700000*%
G04 #@! TD*
G04 #@! TA.AperFunction,ComponentPad*
%ADD12R,1.700000X1.700000*%
G04 #@! TD*
G04 #@! TA.AperFunction,ViaPad*
%ADD13C,0.700000*%
G04 #@! TD*
G04 #@! TA.AperFunction,Conductor*
%ADD14C,0.300000*%
G04 #@! TD*
G04 #@! TA.AperFunction,Conductor*
%ADD15C,0.200000*%
G04 #@! TD*
G04 #@! TA.AperFunction,Conductor*
%ADD16C,0.254000*%
G04 #@! TD*
G04 #@! TA.AperFunction,Conductor*
%ADD17C,0.100000*%
G04 #@! TD*
G04 APERTURE END LIST*
D10*
X109220000Y-82550000D03*
X104140000Y-82550000D03*
D11*
X143510000Y-97790000D03*
X143510000Y-95250000D03*
D12*
X143510000Y-92710000D03*
D11*
X132080000Y-91440000D03*
X132080000Y-88900000D03*
D12*
X132080000Y-86360000D03*
D13*
X128270000Y-90170000D03*
X104140000Y-76200000D03*
X109220000Y-76200000D03*
X121920000Y-76200000D03*
X127000000Y-76200000D03*
X114300000Y-76200000D03*
X146050000Y-76200000D03*
X143510000Y-76200000D03*
X130810000Y-76200000D03*
X125730000Y-87630000D03*
X128270000Y-87630000D03*
X132080000Y-82550000D03*
X124460000Y-81280000D03*
X119380000Y-78740000D03*
X118110000Y-81280000D03*
X116840000Y-82550000D03*
X120650000Y-81280000D03*
X109220000Y-80010000D03*
X106680000Y-82550000D03*
X110490000Y-85090000D03*
X118110000Y-92710000D03*
X124460000Y-87630000D03*
X135890000Y-95250000D03*
X138662500Y-96287500D03*
X142240000Y-88900000D03*
X144780000Y-85090000D03*
X142240000Y-81280000D03*
X135890000Y-76200000D03*
X129540000Y-87630000D03*
X129540000Y-100330000D03*
X123190000Y-100330000D03*
X109220000Y-100330000D03*
X119380000Y-90170000D03*
X119380000Y-93980000D03*
X124460000Y-91440000D03*
X135890000Y-97790000D03*
X137160000Y-91440000D03*
X123190000Y-93980000D03*
X134620000Y-92710000D03*
X125730000Y-92697497D03*
X125730000Y-93597500D03*
X135890000Y-93980000D03*
X135890000Y-93980000D03*
X115570000Y-90170000D03*
X118110000Y-90170000D03*
X116909716Y-87419666D03*
X119239975Y-87098273D03*
X116237964Y-88091418D03*
X119911727Y-87770025D03*
D14*
X119380000Y-90170000D02*
X119380000Y-93980000D01*
X124460000Y-91440000D02*
X132080000Y-91440000D01*
D15*
X137160000Y-91440000D02*
X137160000Y-99060000D01*
X137160000Y-99060000D02*
X128270000Y-99060000D01*
X128270000Y-99060000D02*
X123190000Y-93980000D01*
X125742503Y-92710000D02*
X125730000Y-92697497D01*
X134620000Y-92710000D02*
X125742503Y-92710000D01*
D14*
X125730000Y-93597500D02*
X126112500Y-93980000D01*
X134620000Y-93980000D02*
X135890000Y-93980000D01*
X126112500Y-93980000D02*
X134620000Y-93980000D01*
X115570000Y-90170000D02*
X118110000Y-90170000D01*
D15*
X119050383Y-87641418D02*
X119239975Y-87451826D01*
X117131468Y-87641418D02*
X119050383Y-87641418D01*
X119239975Y-87451826D02*
X119239975Y-87098273D01*
X116909716Y-87419666D02*
X117131468Y-87641418D01*
X119236781Y-88091418D02*
X119558174Y-87770025D01*
X119558174Y-87770025D02*
X119911727Y-87770025D01*
X116237964Y-88091418D02*
X119236781Y-88091418D01*
D16*
X146660000Y-102210000D02*
X102260000Y-102210000D01*
X102260000Y-90072986D01*
X114585000Y-90072986D01*
X114585000Y-90267014D01*
X114622853Y-90457314D01*
X114697104Y-90636572D01*
X114804901Y-90797901D01*
X114942099Y-90935099D01*
X115103428Y-91042896D01*
X115282686Y-91117147D01*
X115472986Y-91155000D01*
X115667014Y-91155000D01*
X115857314Y-91117147D01*
X116036572Y-91042896D01*
X116168117Y-90955000D01*
X117511883Y-90955000D01*
X117643428Y-91042896D01*
X117822686Y-91117147D01*
X118012986Y-91155000D01*
X118207014Y-91155000D01*
X118397314Y-91117147D01*
X118576572Y-91042896D01*
X118595000Y-91030583D01*
X118595001Y-93381882D01*
X118507104Y-93513428D01*
X118432853Y-93692686D01*
X118395000Y-93882986D01*
X118395000Y-94077014D01*
X118432853Y-94267314D01*
X118507104Y-94446572D01*
X118614901Y-94607901D01*
X118752099Y-94745099D01*
X118913428Y-94852896D01*
X119092686Y-94927147D01*
X119282986Y-94965000D01*
X119477014Y-94965000D01*
X119667314Y-94927147D01*
X119846572Y-94852896D01*
X120007901Y-94745099D01*
X120145099Y-94607901D01*
X120252896Y-94446572D01*
X120327147Y-94267314D01*
X120365000Y-94077014D01*
X120365000Y-93882986D01*
X122205000Y-93882986D01*
X122205000Y-94077014D01*
X122242853Y-94267314D01*
X122317104Y-94446572D01*
X122424901Y-94607901D01*
X122562099Y-94745099D01*
X122723428Y-94852896D01*
X122902686Y-94927147D01*
X123092986Y-94965000D01*
X123135554Y-94965000D01*
X127724746Y-99554193D01*
X127747762Y-99582238D01*
X127859680Y-99674087D01*
X127987367Y-99742337D01*
X128125915Y-99784365D01*
X128270000Y-99798556D01*
X128306105Y-99795000D01*
X137123895Y-99795000D01*
X137160000Y-99798556D01*
X137196105Y-99795000D01*
X137304085Y-99784365D01*
X137442633Y-99742337D01*
X137570320Y-99674087D01*
X137682238Y-99582238D01*
X137774087Y-99470320D01*
X137842337Y-99342633D01*
X137884365Y-99204085D01*
X137898556Y-99060000D01*
X137895000Y-99023895D01*
X137895000Y-98146890D01*
X142068524Y-98146890D01*
X142113175Y-98294099D01*
X142238359Y-98556920D01*
X142412412Y-98790269D01*
X142628645Y-98985178D01*
X142878748Y-99134157D01*
X143153109Y-99231481D01*
X143383000Y-99110814D01*
X143383000Y-97917000D01*
X143637000Y-97917000D01*
X143637000Y-99110814D01*
X143866891Y-99231481D01*
X144141252Y-99134157D01*
X144391355Y-98985178D01*
X144607588Y-98790269D01*
X144781641Y-98556920D01*
X144906825Y-98294099D01*
X144951476Y-98146890D01*
X144830155Y-97917000D01*
X143637000Y-97917000D01*
X143383000Y-97917000D01*
X142189845Y-97917000D01*
X142068524Y-98146890D01*
X137895000Y-98146890D01*
X137895000Y-92098000D01*
X137925099Y-92067901D01*
X138032896Y-91906572D01*
X138052186Y-91860000D01*
X142021928Y-91860000D01*
X142021928Y-93560000D01*
X142034188Y-93684482D01*
X142070498Y-93804180D01*
X142129463Y-93914494D01*
X142208815Y-94011185D01*
X142305506Y-94090537D01*
X142415820Y-94149502D01*
X142488380Y-94171513D01*
X142356525Y-94303368D01*
X142194010Y-94546589D01*
X142082068Y-94816842D01*
X142025000Y-95103740D01*
X142025000Y-95396260D01*
X142082068Y-95683158D01*
X142194010Y-95953411D01*
X142356525Y-96196632D01*
X142563368Y-96403475D01*
X142745534Y-96525195D01*
X142628645Y-96594822D01*
X142412412Y-96789731D01*
X142238359Y-97023080D01*
X142113175Y-97285901D01*
X142068524Y-97433110D01*
X142189845Y-97663000D01*
X143383000Y-97663000D01*
X143383000Y-97643000D01*
X143637000Y-97643000D01*
X143637000Y-97663000D01*
X144830155Y-97663000D01*
X144951476Y-97433110D01*
X144906825Y-97285901D01*
X144781641Y-97023080D01*
X144607588Y-96789731D01*
X144391355Y-96594822D01*
X144274466Y-96525195D01*
X144456632Y-96403475D01*
X144663475Y-96196632D01*
X144825990Y-95953411D01*
X144937932Y-95683158D01*
X144995000Y-95396260D01*
X144995000Y-95103740D01*
X144937932Y-94816842D01*
X144825990Y-94546589D01*
X144663475Y-94303368D01*
X144531620Y-94171513D01*
X144604180Y-94149502D01*
X144714494Y-94090537D01*
X144811185Y-94011185D01*
X144890537Y-93914494D01*
X144949502Y-93804180D01*
X144985812Y-93684482D01*
X144998072Y-93560000D01*
X144998072Y-91860000D01*
X144985812Y-91735518D01*
X144949502Y-91615820D01*
X144890537Y-91505506D01*
X144811185Y-91408815D01*
X144714494Y-91329463D01*
X144604180Y-91270498D01*
X144484482Y-91234188D01*
X144360000Y-91221928D01*
X142660000Y-91221928D01*
X142535518Y-91234188D01*
X142415820Y-91270498D01*
X142305506Y-91329463D01*
X142208815Y-91408815D01*
X142129463Y-91505506D01*
X142070498Y-91615820D01*
X142034188Y-91735518D01*
X142021928Y-91860000D01*
X138052186Y-91860000D01*
X138107147Y-91727314D01*
X138145000Y-91537014D01*
X138145000Y-91342986D01*
X138107147Y-91152686D01*
X138032896Y-90973428D01*
X137925099Y-90812099D01*
X137787901Y-90674901D01*
X137626572Y-90567104D01*
X137447314Y-90492853D01*
X137257014Y-90455000D01*
X137062986Y-90455000D01*
X136872686Y-90492853D01*
X136693428Y-90567104D01*
X136532099Y-90674901D01*
X136394901Y-90812099D01*
X136287104Y-90973428D01*
X136212853Y-91152686D01*
X136175000Y-91342986D01*
X136175000Y-91537014D01*
X136212853Y-91727314D01*
X136287104Y-91906572D01*
X136394901Y-92067901D01*
X136425000Y-92098000D01*
X136425000Y-93152826D01*
X136356572Y-93107104D01*
X136177314Y-93032853D01*
X135987014Y-92995000D01*
X135792986Y-92995000D01*
X135602686Y-93032853D01*
X135542017Y-93057983D01*
X135567147Y-92997314D01*
X135605000Y-92807014D01*
X135605000Y-92612986D01*
X135567147Y-92422686D01*
X135492896Y-92243428D01*
X135385099Y-92082099D01*
X135247901Y-91944901D01*
X135086572Y-91837104D01*
X134907314Y-91762853D01*
X134717014Y-91725000D01*
X134522986Y-91725000D01*
X134332686Y-91762853D01*
X134153428Y-91837104D01*
X133992099Y-91944901D01*
X133962000Y-91975000D01*
X133465748Y-91975000D01*
X133507932Y-91873158D01*
X133565000Y-91586260D01*
X133565000Y-91293740D01*
X133507932Y-91006842D01*
X133395990Y-90736589D01*
X133233475Y-90493368D01*
X133026632Y-90286525D01*
X132852240Y-90170000D01*
X133026632Y-90053475D01*
X133233475Y-89846632D01*
X133395990Y-89603411D01*
X133507932Y-89333158D01*
X133565000Y-89046260D01*
X133565000Y-88753740D01*
X133507932Y-88466842D01*
X133395990Y-88196589D01*
X133233475Y-87953368D01*
X133101620Y-87821513D01*
X133174180Y-87799502D01*
X133284494Y-87740537D01*
X133381185Y-87661185D01*
X133460537Y-87564494D01*
X133519502Y-87454180D01*
X133555812Y-87334482D01*
X133568072Y-87210000D01*
X133568072Y-85510000D01*
X133555812Y-85385518D01*
X133519502Y-85265820D01*
X133460537Y-85155506D01*
X133381185Y-85058815D01*
X133284494Y-84979463D01*
X133174180Y-84920498D01*
X133054482Y-84884188D01*
X132930000Y-84871928D01*
X131230000Y-84871928D01*
X131105518Y-84884188D01*
X130985820Y-84920498D01*
X130875506Y-84979463D01*
X130778815Y-85058815D01*
X130699463Y-85155506D01*
X130640498Y-85265820D01*
X130604188Y-85385518D01*
X130591928Y-85510000D01*
X130591928Y-87210000D01*
X130604188Y-87334482D01*
X130640498Y-87454180D01*
X130699463Y-87564494D01*
X130778815Y-87661185D01*
X130875506Y-87740537D01*
X130985820Y-87799502D01*
X131058380Y-87821513D01*
X130926525Y-87953368D01*
X130764010Y-88196589D01*
X130652068Y-88466842D01*
X130595000Y-88753740D01*
X130595000Y-89046260D01*
X130652068Y-89333158D01*
X130764010Y-89603411D01*
X130926525Y-89846632D01*
X131133368Y-90053475D01*
X131307760Y-90170000D01*
X131133368Y-90286525D01*
X130926525Y-90493368D01*
X130818526Y-90655000D01*
X125058117Y-90655000D01*
X124926572Y-90567104D01*
X124747314Y-90492853D01*
X124557014Y-90455000D01*
X124362986Y-90455000D01*
X124172686Y-90492853D01*
X123993428Y-90567104D01*
X123832099Y-90674901D01*
X123694901Y-90812099D01*
X123587104Y-90973428D01*
X123512853Y-91152686D01*
X123475000Y-91342986D01*
X123475000Y-91537014D01*
X123512853Y-91727314D01*
X123587104Y-91906572D01*
X123694901Y-92067901D01*
X123832099Y-92205099D01*
X123993428Y-92312896D01*
X124172686Y-92387147D01*
X124362986Y-92425000D01*
X124557014Y-92425000D01*
X124747314Y-92387147D01*
X124801731Y-92364607D01*
X124782853Y-92410183D01*
X124745000Y-92600483D01*
X124745000Y-92794511D01*
X124782853Y-92984811D01*
X124850240Y-93147499D01*
X124782853Y-93310186D01*
X124745000Y-93500486D01*
X124745000Y-93694514D01*
X124782853Y-93884814D01*
X124857104Y-94064072D01*
X124964901Y-94225401D01*
X125102099Y-94362599D01*
X125263428Y-94470396D01*
X125442686Y-94544647D01*
X125601652Y-94576267D01*
X125674267Y-94635862D01*
X125810640Y-94708754D01*
X125958613Y-94753642D01*
X126033526Y-94761020D01*
X126073939Y-94765000D01*
X126073944Y-94765000D01*
X126112500Y-94768797D01*
X126151056Y-94765000D01*
X135291883Y-94765000D01*
X135423428Y-94852896D01*
X135602686Y-94927147D01*
X135792986Y-94965000D01*
X135987014Y-94965000D01*
X136177314Y-94927147D01*
X136356572Y-94852896D01*
X136425000Y-94807173D01*
X136425001Y-96962827D01*
X136356572Y-96917104D01*
X136177314Y-96842853D01*
X135987014Y-96805000D01*
X135792986Y-96805000D01*
X135602686Y-96842853D01*
X135423428Y-96917104D01*
X135262099Y-97024901D01*
X135124901Y-97162099D01*
X135017104Y-97323428D01*
X134942853Y-97502686D01*
X134905000Y-97692986D01*
X134905000Y-97887014D01*
X134942853Y-98077314D01*
X135017104Y-98256572D01*
X135062826Y-98325000D01*
X128574447Y-98325000D01*
X124175000Y-93925554D01*
X124175000Y-93882986D01*
X124137147Y-93692686D01*
X124062896Y-93513428D01*
X123955099Y-93352099D01*
X123817901Y-93214901D01*
X123656572Y-93107104D01*
X123477314Y-93032853D01*
X123287014Y-92995000D01*
X123092986Y-92995000D01*
X122902686Y-93032853D01*
X122723428Y-93107104D01*
X122562099Y-93214901D01*
X122424901Y-93352099D01*
X122317104Y-93513428D01*
X122242853Y-93692686D01*
X122205000Y-93882986D01*
X120365000Y-93882986D01*
X120327147Y-93692686D01*
X120252896Y-93513428D01*
X120165000Y-93381883D01*
X120165000Y-90768117D01*
X120252896Y-90636572D01*
X120327147Y-90457314D01*
X120365000Y-90267014D01*
X120365000Y-90072986D01*
X120327147Y-89882686D01*
X120252896Y-89703428D01*
X120145099Y-89542099D01*
X120007901Y-89404901D01*
X119846572Y-89297104D01*
X119667314Y-89222853D01*
X119477014Y-89185000D01*
X119282986Y-89185000D01*
X119092686Y-89222853D01*
X118913428Y-89297104D01*
X118752099Y-89404901D01*
X118745000Y-89412000D01*
X118737901Y-89404901D01*
X118576572Y-89297104D01*
X118397314Y-89222853D01*
X118207014Y-89185000D01*
X118012986Y-89185000D01*
X117822686Y-89222853D01*
X117643428Y-89297104D01*
X117511883Y-89385000D01*
X116168117Y-89385000D01*
X116036572Y-89297104D01*
X115857314Y-89222853D01*
X115667014Y-89185000D01*
X115472986Y-89185000D01*
X115282686Y-89222853D01*
X115103428Y-89297104D01*
X114942099Y-89404901D01*
X114804901Y-89542099D01*
X114697104Y-89703428D01*
X114622853Y-89882686D01*
X114585000Y-90072986D01*
X102260000Y-90072986D01*
X102260000Y-87994404D01*
X115252964Y-87994404D01*
X115252964Y-88188432D01*
X115290817Y-88378732D01*
X115365068Y-88557990D01*
X115472865Y-88719319D01*
X115610063Y-88856517D01*
X115771392Y-88964314D01*
X115950650Y-89038565D01*
X116140950Y-89076418D01*
X116334978Y-89076418D01*
X116525278Y-89038565D01*
X116704536Y-88964314D01*
X116865865Y-88856517D01*
X116895964Y-88826418D01*
X119200676Y-88826418D01*
X119236781Y-88829974D01*
X119272886Y-88826418D01*
X119380866Y-88815783D01*
X119519414Y-88773755D01*
X119625040Y-88717297D01*
X119814713Y-88755025D01*
X120008741Y-88755025D01*
X120199041Y-88717172D01*
X120378299Y-88642921D01*
X120539628Y-88535124D01*
X120676826Y-88397926D01*
X120784623Y-88236597D01*
X120858874Y-88057339D01*
X120896727Y-87867039D01*
X120896727Y-87673011D01*
X120858874Y-87482711D01*
X120784623Y-87303453D01*
X120676826Y-87142124D01*
X120539628Y-87004926D01*
X120378299Y-86897129D01*
X120199041Y-86822878D01*
X120189099Y-86820901D01*
X120187122Y-86810959D01*
X120112871Y-86631701D01*
X120005074Y-86470372D01*
X119867876Y-86333174D01*
X119706547Y-86225377D01*
X119527289Y-86151126D01*
X119336989Y-86113273D01*
X119142961Y-86113273D01*
X118952661Y-86151126D01*
X118773403Y-86225377D01*
X118612074Y-86333174D01*
X118474876Y-86470372D01*
X118367079Y-86631701D01*
X118292828Y-86810959D01*
X118273840Y-86906418D01*
X117751424Y-86906418D01*
X117674815Y-86791765D01*
X117537617Y-86654567D01*
X117376288Y-86546770D01*
X117197030Y-86472519D01*
X117006730Y-86434666D01*
X116812702Y-86434666D01*
X116622402Y-86472519D01*
X116443144Y-86546770D01*
X116281815Y-86654567D01*
X116144617Y-86791765D01*
X116036820Y-86953094D01*
X115962569Y-87132352D01*
X115960592Y-87142294D01*
X115950650Y-87144271D01*
X115771392Y-87218522D01*
X115610063Y-87326319D01*
X115472865Y-87463517D01*
X115365068Y-87624846D01*
X115290817Y-87804104D01*
X115252964Y-87994404D01*
X102260000Y-87994404D01*
X102260000Y-82388967D01*
X102505000Y-82388967D01*
X102505000Y-82711033D01*
X102567832Y-83026912D01*
X102691082Y-83324463D01*
X102870013Y-83592252D01*
X103097748Y-83819987D01*
X103365537Y-83998918D01*
X103663088Y-84122168D01*
X103978967Y-84185000D01*
X104301033Y-84185000D01*
X104616912Y-84122168D01*
X104914463Y-83998918D01*
X105182252Y-83819987D01*
X105409987Y-83592252D01*
X105588918Y-83324463D01*
X105712168Y-83026912D01*
X105775000Y-82711033D01*
X105775000Y-82388967D01*
X107585000Y-82388967D01*
X107585000Y-82711033D01*
X107647832Y-83026912D01*
X107771082Y-83324463D01*
X107950013Y-83592252D01*
X108177748Y-83819987D01*
X108445537Y-83998918D01*
X108743088Y-84122168D01*
X109058967Y-84185000D01*
X109381033Y-84185000D01*
X109696912Y-84122168D01*
X109994463Y-83998918D01*
X110262252Y-83819987D01*
X110489987Y-83592252D01*
X110668918Y-83324463D01*
X110792168Y-83026912D01*
X110855000Y-82711033D01*
X110855000Y-82388967D01*
X110792168Y-82073088D01*
X110668918Y-81775537D01*
X110489987Y-81507748D01*
X110262252Y-81280013D01*
X109994463Y-81101082D01*
X109696912Y-80977832D01*
X109381033Y-80915000D01*
X109058967Y-80915000D01*
X108743088Y-80977832D01*
X108445537Y-81101082D01*
X108177748Y-81280013D01*
X107950013Y-81507748D01*
X107771082Y-81775537D01*
X107647832Y-82073088D01*
X107585000Y-82388967D01*
X105775000Y-82388967D01*
X105712168Y-82073088D01*
X105588918Y-81775537D01*
X105409987Y-81507748D01*
X105182252Y-81280013D01*
X104914463Y-81101082D01*
X104616912Y-80977832D01*
X104301033Y-80915000D01*
X103978967Y-80915000D01*
X103663088Y-80977832D01*
X103365537Y-81101082D01*
X103097748Y-81280013D01*
X102870013Y-81507748D01*
X102691082Y-81775537D01*
X102567832Y-82073088D01*
X102505000Y-82388967D01*
X102260000Y-82388967D01*
X102260000Y-74320000D01*
X146660001Y-74320000D01*
X146660000Y-102210000D01*
G04 #@! TA.AperFunction,Conductor*
D17*
G36*
X146660000Y-102210000D02*
G01*
X102260000Y-102210000D01*
X102260000Y-90072986D01*
X114585000Y-90072986D01*
X114585000Y-90267014D01*
X114622853Y-90457314D01*
X114697104Y-90636572D01*
X114804901Y-90797901D01*
X114942099Y-90935099D01*
X115103428Y-91042896D01*
X115282686Y-91117147D01*
X115472986Y-91155000D01*
X115667014Y-91155000D01*
X115857314Y-91117147D01*
X116036572Y-91042896D01*
X116168117Y-90955000D01*
X117511883Y-90955000D01*
X117643428Y-91042896D01*
X117822686Y-91117147D01*
X118012986Y-91155000D01*
X118207014Y-91155000D01*
X118397314Y-91117147D01*
X118576572Y-91042896D01*
X118595000Y-91030583D01*
X118595001Y-93381882D01*
X118507104Y-93513428D01*
X118432853Y-93692686D01*
X118395000Y-93882986D01*
X118395000Y-94077014D01*
X118432853Y-94267314D01*
X118507104Y-94446572D01*
X118614901Y-94607901D01*
X118752099Y-94745099D01*
X118913428Y-94852896D01*
X119092686Y-94927147D01*
X119282986Y-94965000D01*
X119477014Y-94965000D01*
X119667314Y-94927147D01*
X119846572Y-94852896D01*
X120007901Y-94745099D01*
X120145099Y-94607901D01*
X120252896Y-94446572D01*
X120327147Y-94267314D01*
X120365000Y-94077014D01*
X120365000Y-93882986D01*
X122205000Y-93882986D01*
X122205000Y-94077014D01*
X122242853Y-94267314D01*
X122317104Y-94446572D01*
X122424901Y-94607901D01*
X122562099Y-94745099D01*
X122723428Y-94852896D01*
X122902686Y-94927147D01*
X123092986Y-94965000D01*
X123135554Y-94965000D01*
X127724746Y-99554193D01*
X127747762Y-99582238D01*
X127859680Y-99674087D01*
X127987367Y-99742337D01*
X128125915Y-99784365D01*
X128270000Y-99798556D01*
X128306105Y-99795000D01*
X137123895Y-99795000D01*
X137160000Y-99798556D01*
X137196105Y-99795000D01*
X137304085Y-99784365D01*
X137442633Y-99742337D01*
X137570320Y-99674087D01*
X137682238Y-99582238D01*
X137774087Y-99470320D01*
X137842337Y-99342633D01*
X137884365Y-99204085D01*
X137898556Y-99060000D01*
X137895000Y-99023895D01*
X137895000Y-98146890D01*
X142068524Y-98146890D01*
X142113175Y-98294099D01*
X142238359Y-98556920D01*
X142412412Y-98790269D01*
X142628645Y-98985178D01*
X142878748Y-99134157D01*
X143153109Y-99231481D01*
X143383000Y-99110814D01*
X143383000Y-97917000D01*
X143637000Y-97917000D01*
X143637000Y-99110814D01*
X143866891Y-99231481D01*
X144141252Y-99134157D01*
X144391355Y-98985178D01*
X144607588Y-98790269D01*
X144781641Y-98556920D01*
X144906825Y-98294099D01*
X144951476Y-98146890D01*
X144830155Y-97917000D01*
X143637000Y-97917000D01*
X143383000Y-97917000D01*
X142189845Y-97917000D01*
X142068524Y-98146890D01*
X137895000Y-98146890D01*
X137895000Y-92098000D01*
X137925099Y-92067901D01*
X138032896Y-91906572D01*
X138052186Y-91860000D01*
X142021928Y-91860000D01*
X142021928Y-93560000D01*
X142034188Y-93684482D01*
X142070498Y-93804180D01*
X142129463Y-93914494D01*
X142208815Y-94011185D01*
X142305506Y-94090537D01*
X142415820Y-94149502D01*
X142488380Y-94171513D01*
X142356525Y-94303368D01*
X142194010Y-94546589D01*
X142082068Y-94816842D01*
X142025000Y-95103740D01*
X142025000Y-95396260D01*
X142082068Y-95683158D01*
X142194010Y-95953411D01*
X142356525Y-96196632D01*
X142563368Y-96403475D01*
X142745534Y-96525195D01*
X142628645Y-96594822D01*
X142412412Y-96789731D01*
X142238359Y-97023080D01*
X142113175Y-97285901D01*
X142068524Y-97433110D01*
X142189845Y-97663000D01*
X143383000Y-97663000D01*
X143383000Y-97643000D01*
X143637000Y-97643000D01*
X143637000Y-97663000D01*
X144830155Y-97663000D01*
X144951476Y-97433110D01*
X144906825Y-97285901D01*
X144781641Y-97023080D01*
X144607588Y-96789731D01*
X144391355Y-96594822D01*
X144274466Y-96525195D01*
X144456632Y-96403475D01*
X144663475Y-96196632D01*
X144825990Y-95953411D01*
X144937932Y-95683158D01*
X144995000Y-95396260D01*
X144995000Y-95103740D01*
X144937932Y-94816842D01*
X144825990Y-94546589D01*
X144663475Y-94303368D01*
X144531620Y-94171513D01*
X144604180Y-94149502D01*
X144714494Y-94090537D01*
X144811185Y-94011185D01*
X144890537Y-93914494D01*
X144949502Y-93804180D01*
X144985812Y-93684482D01*
X144998072Y-93560000D01*
X144998072Y-91860000D01*
X144985812Y-91735518D01*
X144949502Y-91615820D01*
X144890537Y-91505506D01*
X144811185Y-91408815D01*
X144714494Y-91329463D01*
X144604180Y-91270498D01*
X144484482Y-91234188D01*
X144360000Y-91221928D01*
X142660000Y-91221928D01*
X142535518Y-91234188D01*
X142415820Y-91270498D01*
X142305506Y-91329463D01*
X142208815Y-91408815D01*
X142129463Y-91505506D01*
X142070498Y-91615820D01*
X142034188Y-91735518D01*
X142021928Y-91860000D01*
X138052186Y-91860000D01*
X138107147Y-91727314D01*
X138145000Y-91537014D01*
X138145000Y-91342986D01*
X138107147Y-91152686D01*
X138032896Y-90973428D01*
X137925099Y-90812099D01*
X137787901Y-90674901D01*
X137626572Y-90567104D01*
X137447314Y-90492853D01*
X137257014Y-90455000D01*
X137062986Y-90455000D01*
X136872686Y-90492853D01*
X136693428Y-90567104D01*
X136532099Y-90674901D01*
X136394901Y-90812099D01*
X136287104Y-90973428D01*
X136212853Y-91152686D01*
X136175000Y-91342986D01*
X136175000Y-91537014D01*
X136212853Y-91727314D01*
X136287104Y-91906572D01*
X136394901Y-92067901D01*
X136425000Y-92098000D01*
X136425000Y-93152826D01*
X136356572Y-93107104D01*
X136177314Y-93032853D01*
X135987014Y-92995000D01*
X135792986Y-92995000D01*
X135602686Y-93032853D01*
X135542017Y-93057983D01*
X135567147Y-92997314D01*
X135605000Y-92807014D01*
X135605000Y-92612986D01*
X135567147Y-92422686D01*
X135492896Y-92243428D01*
X135385099Y-92082099D01*
X135247901Y-91944901D01*
X135086572Y-91837104D01*
X134907314Y-91762853D01*
X134717014Y-91725000D01*
X134522986Y-91725000D01*
X134332686Y-91762853D01*
X134153428Y-91837104D01*
X133992099Y-91944901D01*
X133962000Y-91975000D01*
X133465748Y-91975000D01*
X133507932Y-91873158D01*
X133565000Y-91586260D01*
X133565000Y-91293740D01*
X133507932Y-91006842D01*
X133395990Y-90736589D01*
X133233475Y-90493368D01*
X133026632Y-90286525D01*
X132852240Y-90170000D01*
X133026632Y-90053475D01*
X133233475Y-89846632D01*
X133395990Y-89603411D01*
X133507932Y-89333158D01*
X133565000Y-89046260D01*
X133565000Y-88753740D01*
X133507932Y-88466842D01*
X133395990Y-88196589D01*
X133233475Y-87953368D01*
X133101620Y-87821513D01*
X133174180Y-87799502D01*
X133284494Y-87740537D01*
X133381185Y-87661185D01*
X133460537Y-87564494D01*
X133519502Y-87454180D01*
X133555812Y-87334482D01*
X133568072Y-87210000D01*
X133568072Y-85510000D01*
X133555812Y-85385518D01*
X133519502Y-85265820D01*
X133460537Y-85155506D01*
X133381185Y-85058815D01*
X133284494Y-84979463D01*
X133174180Y-84920498D01*
X133054482Y-84884188D01*
X132930000Y-84871928D01*
X131230000Y-84871928D01*
X131105518Y-84884188D01*
X130985820Y-84920498D01*
X130875506Y-84979463D01*
X130778815Y-85058815D01*
X130699463Y-85155506D01*
X130640498Y-85265820D01*
X130604188Y-85385518D01*
X130591928Y-85510000D01*
X130591928Y-87210000D01*
X130604188Y-87334482D01*
X130640498Y-87454180D01*
X130699463Y-87564494D01*
X130778815Y-87661185D01*
X130875506Y-87740537D01*
X130985820Y-87799502D01*
X131058380Y-87821513D01*
X130926525Y-87953368D01*
X130764010Y-88196589D01*
X130652068Y-88466842D01*
X130595000Y-88753740D01*
X130595000Y-89046260D01*
X130652068Y-89333158D01*
X130764010Y-89603411D01*
X130926525Y-89846632D01*
X131133368Y-90053475D01*
X131307760Y-90170000D01*
X131133368Y-90286525D01*
X130926525Y-90493368D01*
X130818526Y-90655000D01*
X125058117Y-90655000D01*
X124926572Y-90567104D01*
X124747314Y-90492853D01*
X124557014Y-90455000D01*
X124362986Y-90455000D01*
X124172686Y-90492853D01*
X123993428Y-90567104D01*
X123832099Y-90674901D01*
X123694901Y-90812099D01*
X123587104Y-90973428D01*
X123512853Y-91152686D01*
X123475000Y-91342986D01*
X123475000Y-91537014D01*
X123512853Y-91727314D01*
X123587104Y-91906572D01*
X123694901Y-92067901D01*
X123832099Y-92205099D01*
X123993428Y-92312896D01*
X124172686Y-92387147D01*
X124362986Y-92425000D01*
X124557014Y-92425000D01*
X124747314Y-92387147D01*
X124801731Y-92364607D01*
X124782853Y-92410183D01*
X124745000Y-92600483D01*
X124745000Y-92794511D01*
X124782853Y-92984811D01*
X124850240Y-93147499D01*
X124782853Y-93310186D01*
X124745000Y-93500486D01*
X124745000Y-93694514D01*
X124782853Y-93884814D01*
X124857104Y-94064072D01*
X124964901Y-94225401D01*
X125102099Y-94362599D01*
X125263428Y-94470396D01*
X125442686Y-94544647D01*
X125601652Y-94576267D01*
X125674267Y-94635862D01*
X125810640Y-94708754D01*
X125958613Y-94753642D01*
X126033526Y-94761020D01*
X126073939Y-94765000D01*
X126073944Y-94765000D01*
X126112500Y-94768797D01*
X126151056Y-94765000D01*
X135291883Y-94765000D01*
X135423428Y-94852896D01*
X135602686Y-94927147D01*
X135792986Y-94965000D01*
X135987014Y-94965000D01*
X136177314Y-94927147D01*
X136356572Y-94852896D01*
X136425000Y-94807173D01*
X136425001Y-96962827D01*
X136356572Y-96917104D01*
X136177314Y-96842853D01*
X135987014Y-96805000D01*
X135792986Y-96805000D01*
X135602686Y-96842853D01*
X135423428Y-96917104D01*
X135262099Y-97024901D01*
X135124901Y-97162099D01*
X135017104Y-97323428D01*
X134942853Y-97502686D01*
X134905000Y-97692986D01*
X134905000Y-97887014D01*
X134942853Y-98077314D01*
X135017104Y-98256572D01*
X135062826Y-98325000D01*
X128574447Y-98325000D01*
X124175000Y-93925554D01*
X124175000Y-93882986D01*
X124137147Y-93692686D01*
X124062896Y-93513428D01*
X123955099Y-93352099D01*
X123817901Y-93214901D01*
X123656572Y-93107104D01*
X123477314Y-93032853D01*
X123287014Y-92995000D01*
X123092986Y-92995000D01*
X122902686Y-93032853D01*
X122723428Y-93107104D01*
X122562099Y-93214901D01*
X122424901Y-93352099D01*
X122317104Y-93513428D01*
X122242853Y-93692686D01*
X122205000Y-93882986D01*
X120365000Y-93882986D01*
X120327147Y-93692686D01*
X120252896Y-93513428D01*
X120165000Y-93381883D01*
X120165000Y-90768117D01*
X120252896Y-90636572D01*
X120327147Y-90457314D01*
X120365000Y-90267014D01*
X120365000Y-90072986D01*
X120327147Y-89882686D01*
X120252896Y-89703428D01*
X120145099Y-89542099D01*
X120007901Y-89404901D01*
X119846572Y-89297104D01*
X119667314Y-89222853D01*
X119477014Y-89185000D01*
X119282986Y-89185000D01*
X119092686Y-89222853D01*
X118913428Y-89297104D01*
X118752099Y-89404901D01*
X118745000Y-89412000D01*
X118737901Y-89404901D01*
X118576572Y-89297104D01*
X118397314Y-89222853D01*
X118207014Y-89185000D01*
X118012986Y-89185000D01*
X117822686Y-89222853D01*
X117643428Y-89297104D01*
X117511883Y-89385000D01*
X116168117Y-89385000D01*
X116036572Y-89297104D01*
X115857314Y-89222853D01*
X115667014Y-89185000D01*
X115472986Y-89185000D01*
X115282686Y-89222853D01*
X115103428Y-89297104D01*
X114942099Y-89404901D01*
X114804901Y-89542099D01*
X114697104Y-89703428D01*
X114622853Y-89882686D01*
X114585000Y-90072986D01*
X102260000Y-90072986D01*
X102260000Y-87994404D01*
X115252964Y-87994404D01*
X115252964Y-88188432D01*
X115290817Y-88378732D01*
X115365068Y-88557990D01*
X115472865Y-88719319D01*
X115610063Y-88856517D01*
X115771392Y-88964314D01*
X115950650Y-89038565D01*
X116140950Y-89076418D01*
X116334978Y-89076418D01*
X116525278Y-89038565D01*
X116704536Y-88964314D01*
X116865865Y-88856517D01*
X116895964Y-88826418D01*
X119200676Y-88826418D01*
X119236781Y-88829974D01*
X119272886Y-88826418D01*
X119380866Y-88815783D01*
X119519414Y-88773755D01*
X119625040Y-88717297D01*
X119814713Y-88755025D01*
X120008741Y-88755025D01*
X120199041Y-88717172D01*
X120378299Y-88642921D01*
X120539628Y-88535124D01*
X120676826Y-88397926D01*
X120784623Y-88236597D01*
X120858874Y-88057339D01*
X120896727Y-87867039D01*
X120896727Y-87673011D01*
X120858874Y-87482711D01*
X120784623Y-87303453D01*
X120676826Y-87142124D01*
X120539628Y-87004926D01*
X120378299Y-86897129D01*
X120199041Y-86822878D01*
X120189099Y-86820901D01*
X120187122Y-86810959D01*
X120112871Y-86631701D01*
X120005074Y-86470372D01*
X119867876Y-86333174D01*
X119706547Y-86225377D01*
X119527289Y-86151126D01*
X119336989Y-86113273D01*
X119142961Y-86113273D01*
X118952661Y-86151126D01*
X118773403Y-86225377D01*
X118612074Y-86333174D01*
X118474876Y-86470372D01*
X118367079Y-86631701D01*
X118292828Y-86810959D01*
X118273840Y-86906418D01*
X117751424Y-86906418D01*
X117674815Y-86791765D01*
X117537617Y-86654567D01*
X117376288Y-86546770D01*
X117197030Y-86472519D01*
X117006730Y-86434666D01*
X116812702Y-86434666D01*
X116622402Y-86472519D01*
X116443144Y-86546770D01*
X116281815Y-86654567D01*
X116144617Y-86791765D01*
X116036820Y-86953094D01*
X115962569Y-87132352D01*
X115960592Y-87142294D01*
X115950650Y-87144271D01*
X115771392Y-87218522D01*
X115610063Y-87326319D01*
X115472865Y-87463517D01*
X115365068Y-87624846D01*
X115290817Y-87804104D01*
X115252964Y-87994404D01*
X102260000Y-87994404D01*
X102260000Y-82388967D01*
X102505000Y-82388967D01*
X102505000Y-82711033D01*
X102567832Y-83026912D01*
X102691082Y-83324463D01*
X102870013Y-83592252D01*
X103097748Y-83819987D01*
X103365537Y-83998918D01*
X103663088Y-84122168D01*
X103978967Y-84185000D01*
X104301033Y-84185000D01*
X104616912Y-84122168D01*
X104914463Y-83998918D01*
X105182252Y-83819987D01*
X105409987Y-83592252D01*
X105588918Y-83324463D01*
X105712168Y-83026912D01*
X105775000Y-82711033D01*
X105775000Y-82388967D01*
X107585000Y-82388967D01*
X107585000Y-82711033D01*
X107647832Y-83026912D01*
X107771082Y-83324463D01*
X107950013Y-83592252D01*
X108177748Y-83819987D01*
X108445537Y-83998918D01*
X108743088Y-84122168D01*
X109058967Y-84185000D01*
X109381033Y-84185000D01*
X109696912Y-84122168D01*
X109994463Y-83998918D01*
X110262252Y-83819987D01*
X110489987Y-83592252D01*
X110668918Y-83324463D01*
X110792168Y-83026912D01*
X110855000Y-82711033D01*
X110855000Y-82388967D01*
X110792168Y-82073088D01*
X110668918Y-81775537D01*
X110489987Y-81507748D01*
X110262252Y-81280013D01*
X109994463Y-81101082D01*
X109696912Y-80977832D01*
X109381033Y-80915000D01*
X109058967Y-80915000D01*
X108743088Y-80977832D01*
X108445537Y-81101082D01*
X108177748Y-81280013D01*
X107950013Y-81507748D01*
X107771082Y-81775537D01*
X107647832Y-82073088D01*
X107585000Y-82388967D01*
X105775000Y-82388967D01*
X105712168Y-82073088D01*
X105588918Y-81775537D01*
X105409987Y-81507748D01*
X105182252Y-81280013D01*
X104914463Y-81101082D01*
X104616912Y-80977832D01*
X104301033Y-80915000D01*
X103978967Y-80915000D01*
X103663088Y-80977832D01*
X103365537Y-81101082D01*
X103097748Y-81280013D01*
X102870013Y-81507748D01*
X102691082Y-81775537D01*
X102567832Y-82073088D01*
X102505000Y-82388967D01*
X102260000Y-82388967D01*
X102260000Y-74320000D01*
X146660001Y-74320000D01*
X146660000Y-102210000D01*
G37*
G04 #@! TD.AperFunction*
M02*
