G04 #@! TF.GenerationSoftware,KiCad,Pcbnew,(5.1.10)-1*
G04 #@! TF.CreationDate,2021-12-17T22:33:09-07:00*
G04 #@! TF.ProjectId,ultimate-uart-bridge,756c7469-6d61-4746-952d-756172742d62,rev?*
G04 #@! TF.SameCoordinates,Original*
G04 #@! TF.FileFunction,Legend,Bot*
G04 #@! TF.FilePolarity,Positive*
%FSLAX46Y46*%
G04 Gerber Fmt 4.6, Leading zero omitted, Abs format (unit mm)*
G04 Created by KiCad (PCBNEW (5.1.10)-1) date 2021-12-17 22:33:09*
%MOMM*%
%LPD*%
G01*
G04 APERTURE LIST*
%ADD10C,0.150000*%
%ADD11C,2.000000*%
%ADD12O,1.700000X1.700000*%
%ADD13R,1.700000X1.700000*%
G04 APERTURE END LIST*
D10*
X141779047Y-79462380D02*
X141779047Y-80176666D01*
X141826666Y-80319523D01*
X141921904Y-80414761D01*
X142064761Y-80462380D01*
X142160000Y-80462380D01*
X140826666Y-80462380D02*
X141302857Y-80462380D01*
X141302857Y-79462380D01*
X139921904Y-80367142D02*
X139969523Y-80414761D01*
X140112380Y-80462380D01*
X140207619Y-80462380D01*
X140350476Y-80414761D01*
X140445714Y-80319523D01*
X140493333Y-80224285D01*
X140540952Y-80033809D01*
X140540952Y-79890952D01*
X140493333Y-79700476D01*
X140445714Y-79605238D01*
X140350476Y-79510000D01*
X140207619Y-79462380D01*
X140112380Y-79462380D01*
X139969523Y-79510000D01*
X139921904Y-79557619D01*
X139207619Y-79462380D02*
X139207619Y-80176666D01*
X139255238Y-80319523D01*
X139350476Y-80414761D01*
X139493333Y-80462380D01*
X139588571Y-80462380D01*
X138255238Y-80462380D02*
X138731428Y-80462380D01*
X138731428Y-79462380D01*
X137350476Y-80367142D02*
X137398095Y-80414761D01*
X137540952Y-80462380D01*
X137636190Y-80462380D01*
X137779047Y-80414761D01*
X137874285Y-80319523D01*
X137921904Y-80224285D01*
X137969523Y-80033809D01*
X137969523Y-79890952D01*
X137921904Y-79700476D01*
X137874285Y-79605238D01*
X137779047Y-79510000D01*
X137636190Y-79462380D01*
X137540952Y-79462380D01*
X137398095Y-79510000D01*
X137350476Y-79557619D01*
X136636190Y-79462380D02*
X136636190Y-80176666D01*
X136683809Y-80319523D01*
X136779047Y-80414761D01*
X136921904Y-80462380D01*
X137017142Y-80462380D01*
X135683809Y-80462380D02*
X136160000Y-80462380D01*
X136160000Y-79462380D01*
X134779047Y-80367142D02*
X134826666Y-80414761D01*
X134969523Y-80462380D01*
X135064761Y-80462380D01*
X135207619Y-80414761D01*
X135302857Y-80319523D01*
X135350476Y-80224285D01*
X135398095Y-80033809D01*
X135398095Y-79890952D01*
X135350476Y-79700476D01*
X135302857Y-79605238D01*
X135207619Y-79510000D01*
X135064761Y-79462380D01*
X134969523Y-79462380D01*
X134826666Y-79510000D01*
X134779047Y-79557619D01*
X134064761Y-79462380D02*
X134064761Y-80176666D01*
X134112380Y-80319523D01*
X134207619Y-80414761D01*
X134350476Y-80462380D01*
X134445714Y-80462380D01*
X133112380Y-80462380D02*
X133588571Y-80462380D01*
X133588571Y-79462380D01*
X132207619Y-80367142D02*
X132255238Y-80414761D01*
X132398095Y-80462380D01*
X132493333Y-80462380D01*
X132636190Y-80414761D01*
X132731428Y-80319523D01*
X132779047Y-80224285D01*
X132826666Y-80033809D01*
X132826666Y-79890952D01*
X132779047Y-79700476D01*
X132731428Y-79605238D01*
X132636190Y-79510000D01*
X132493333Y-79462380D01*
X132398095Y-79462380D01*
X132255238Y-79510000D01*
X132207619Y-79557619D01*
%LPC*%
D11*
X109220000Y-82550000D03*
X104140000Y-82550000D03*
D12*
X143510000Y-97790000D03*
X143510000Y-95250000D03*
D13*
X143510000Y-92710000D03*
D12*
X132080000Y-91440000D03*
X132080000Y-88900000D03*
D13*
X132080000Y-86360000D03*
M02*
