G04 #@! TF.GenerationSoftware,KiCad,Pcbnew,6.0.6*
G04 #@! TF.CreationDate,2022-07-17T12:38:06-07:00*
G04 #@! TF.ProjectId,ultimate-uart-bridge,756c7469-6d61-4746-952d-756172742d62,rev?*
G04 #@! TF.SameCoordinates,Original*
G04 #@! TF.FileFunction,Copper,L2,Bot*
G04 #@! TF.FilePolarity,Positive*
%FSLAX46Y46*%
G04 Gerber Fmt 4.6, Leading zero omitted, Abs format (unit mm)*
G04 Created by KiCad (PCBNEW 6.0.6) date 2022-07-17 12:38:06*
%MOMM*%
%LPD*%
G01*
G04 APERTURE LIST*
G04 #@! TA.AperFunction,SMDPad,CuDef*
%ADD10C,3.000000*%
G04 #@! TD*
G04 #@! TA.AperFunction,ComponentPad*
%ADD11C,0.700000*%
G04 #@! TD*
G04 #@! TA.AperFunction,ComponentPad*
%ADD12O,2.400000X0.900000*%
G04 #@! TD*
G04 #@! TA.AperFunction,ComponentPad*
%ADD13O,1.700000X0.900000*%
G04 #@! TD*
G04 #@! TA.AperFunction,ViaPad*
%ADD14C,0.700000*%
G04 #@! TD*
G04 #@! TA.AperFunction,Conductor*
%ADD15C,0.200000*%
G04 #@! TD*
G04 #@! TA.AperFunction,Conductor*
%ADD16C,0.300000*%
G04 #@! TD*
G04 APERTURE END LIST*
D10*
X147320000Y-81280000D03*
X152370000Y-81280000D03*
X152370000Y-76230000D03*
X147320000Y-76230000D03*
D11*
X105625000Y-78305000D03*
X105625000Y-79155000D03*
X105625000Y-80005000D03*
X105625000Y-80855000D03*
X105625000Y-81705000D03*
X105625000Y-82555000D03*
X105625000Y-83405000D03*
X105625000Y-84255000D03*
X104275000Y-84255000D03*
X104275000Y-83405000D03*
X104275000Y-82555000D03*
X104275000Y-81705000D03*
X104275000Y-80855000D03*
X104275000Y-80005000D03*
X104275000Y-79155000D03*
X104275000Y-78305000D03*
D12*
X104645000Y-85605000D03*
D13*
X101265000Y-76955000D03*
D12*
X104645000Y-76955000D03*
D13*
X101265000Y-85605000D03*
D14*
X139700000Y-75931000D03*
X139700000Y-70881000D03*
X149352000Y-79747000D03*
X129540000Y-77724000D03*
X115824000Y-84328000D03*
X122247502Y-83361000D03*
X100584000Y-83820000D03*
X102616000Y-84328000D03*
X125362252Y-82740500D03*
X164084000Y-78740000D03*
X116840000Y-69088000D03*
X100584000Y-78740000D03*
X156210000Y-90170000D03*
X152400000Y-90170000D03*
X127508000Y-75692000D03*
X164084000Y-71120000D03*
X108712000Y-69088000D03*
X141224000Y-88392000D03*
X108204000Y-84328000D03*
X159512000Y-69088000D03*
X130048000Y-83820000D03*
X148336000Y-70612000D03*
X104140000Y-75692000D03*
X103632000Y-87884000D03*
X108204000Y-86868000D03*
X164084000Y-74676000D03*
X129540000Y-70612000D03*
X116840000Y-75966498D03*
X164084000Y-84328000D03*
X114808000Y-77216000D03*
X106680000Y-92964000D03*
X132588000Y-88392000D03*
X129540000Y-88392000D03*
X109982000Y-89408000D03*
X119888000Y-82804000D03*
X119888000Y-73406000D03*
X133604000Y-72898000D03*
X118618000Y-75946000D03*
X111252000Y-87122000D03*
X109728000Y-80772000D03*
X124460000Y-83820000D03*
X148590000Y-90170000D03*
X143510000Y-83820000D03*
X128270000Y-81280000D03*
X152400000Y-83820000D03*
X124460000Y-85090000D03*
X101854000Y-73660000D03*
X102870000Y-74930000D03*
X102870000Y-81534000D03*
D15*
X152370000Y-81280000D02*
X149865585Y-81280000D01*
X149865585Y-81280000D02*
X147042742Y-78457157D01*
X147042742Y-78457157D02*
X145062843Y-78457157D01*
X145062843Y-78457157D02*
X139503686Y-72898000D01*
X139503686Y-72898000D02*
X133604000Y-72898000D01*
X147320000Y-81280000D02*
X141971000Y-75931000D01*
X141971000Y-75931000D02*
X139700000Y-75931000D01*
X147320000Y-76230000D02*
X145049000Y-76230000D01*
X145049000Y-76230000D02*
X139700000Y-70881000D01*
X152370000Y-76230000D02*
X149352000Y-79248000D01*
X149352000Y-79248000D02*
X149352000Y-79747000D01*
D16*
X109982000Y-91948000D02*
X110998000Y-92964000D01*
X133096000Y-73406000D02*
X133604000Y-72898000D01*
X109982000Y-89408000D02*
X109982000Y-91948000D01*
X110998000Y-92964000D02*
X118618000Y-92964000D01*
X118618000Y-92964000D02*
X118618000Y-81280000D01*
X119888000Y-73406000D02*
X133096000Y-73406000D01*
X118618000Y-81534000D02*
X118618000Y-81280000D01*
X119888000Y-82804000D02*
X118618000Y-81534000D01*
X118618000Y-81280000D02*
X118618000Y-75946000D01*
D15*
X105327000Y-81705000D02*
X105625000Y-81705000D01*
X104275000Y-80855000D02*
X104477000Y-80855000D01*
X104477000Y-80855000D02*
X105327000Y-81705000D01*
D16*
X109474000Y-85344000D02*
X111252000Y-87122000D01*
X109728000Y-80772000D02*
X109474000Y-81026000D01*
X109474000Y-81026000D02*
X109474000Y-85344000D01*
D15*
X123810000Y-84470000D02*
X123810000Y-85359239D01*
X124460000Y-83820000D02*
X123810000Y-84470000D01*
X128620761Y-90170000D02*
X148590000Y-90170000D01*
X123810000Y-85359239D02*
X128620761Y-90170000D01*
X128270000Y-81280000D02*
X130810000Y-78740000D01*
X130810000Y-78740000D02*
X142240000Y-78740000D01*
X142240000Y-78740000D02*
X143510000Y-80010000D01*
X143510000Y-80010000D02*
X143510000Y-83820000D01*
X124460000Y-85090000D02*
X151130000Y-85090000D01*
X151130000Y-85090000D02*
X152400000Y-83820000D01*
X105694239Y-80005000D02*
X105625000Y-80005000D01*
X106275000Y-79424239D02*
X105694239Y-80005000D01*
X103378000Y-73660000D02*
X106275000Y-76557000D01*
X106275000Y-76557000D02*
X106275000Y-79424239D01*
X101854000Y-73660000D02*
X103378000Y-73660000D01*
D16*
X102870000Y-81534000D02*
X102870000Y-74930000D01*
G04 #@! TA.AperFunction,Conductor*
G36*
X166057621Y-68092502D02*
G01*
X166104114Y-68146158D01*
X166115500Y-68198500D01*
X166115500Y-93345500D01*
X166095498Y-93413621D01*
X166041842Y-93460114D01*
X165989500Y-93471500D01*
X119305497Y-93471500D01*
X119237376Y-93451498D01*
X119190883Y-93397842D01*
X119180779Y-93327568D01*
X119191488Y-93291853D01*
X119203330Y-93266687D01*
X119206924Y-93259633D01*
X119231304Y-93215286D01*
X119231305Y-93215285D01*
X119235124Y-93208337D01*
X119237370Y-93199590D01*
X119245403Y-93177278D01*
X119245873Y-93176280D01*
X119245874Y-93176277D01*
X119249249Y-93169105D01*
X119260219Y-93111596D01*
X119261945Y-93103875D01*
X119274528Y-93054867D01*
X119276500Y-93047188D01*
X119276500Y-93038155D01*
X119278732Y-93014546D01*
X119278939Y-93013462D01*
X119278939Y-93013460D01*
X119280424Y-93005676D01*
X119276749Y-92947264D01*
X119276500Y-92939353D01*
X119276500Y-83665163D01*
X119296502Y-83597042D01*
X119350158Y-83550549D01*
X119420432Y-83540445D01*
X119455879Y-83552715D01*
X119456385Y-83551578D01*
X119530273Y-83584475D01*
X119621248Y-83624980D01*
X119709508Y-83643740D01*
X119791311Y-83661128D01*
X119791315Y-83661128D01*
X119797768Y-83662500D01*
X119978232Y-83662500D01*
X119984685Y-83661128D01*
X119984689Y-83661128D01*
X120066492Y-83643740D01*
X120154752Y-83624980D01*
X120231625Y-83590754D01*
X120313585Y-83554263D01*
X120313587Y-83554262D01*
X120319615Y-83551578D01*
X120324957Y-83547697D01*
X120460269Y-83449387D01*
X120460271Y-83449385D01*
X120465613Y-83445504D01*
X120507994Y-83398435D01*
X120581948Y-83316301D01*
X120581949Y-83316300D01*
X120586367Y-83311393D01*
X120651843Y-83197986D01*
X120673295Y-83160830D01*
X120673296Y-83160829D01*
X120676599Y-83155107D01*
X120707443Y-83060178D01*
X120730325Y-82989754D01*
X120730325Y-82989753D01*
X120732365Y-82983475D01*
X120733361Y-82974004D01*
X120750539Y-82810565D01*
X120751229Y-82804000D01*
X120744061Y-82735799D01*
X120733055Y-82631089D01*
X120733055Y-82631088D01*
X120732365Y-82624525D01*
X120676599Y-82452893D01*
X120665545Y-82433746D01*
X120628305Y-82369246D01*
X120586367Y-82296607D01*
X120575253Y-82284263D01*
X120470035Y-82167407D01*
X120470034Y-82167406D01*
X120465613Y-82162496D01*
X120432586Y-82138500D01*
X120324957Y-82060303D01*
X120324956Y-82060302D01*
X120319615Y-82056422D01*
X120313587Y-82053738D01*
X120313585Y-82053737D01*
X120160783Y-81985705D01*
X120160781Y-81985705D01*
X120154752Y-81983020D01*
X120027483Y-81955969D01*
X119992549Y-81948543D01*
X119929650Y-81914391D01*
X119313404Y-81298144D01*
X119279379Y-81235832D01*
X119276500Y-81209049D01*
X119276500Y-76546036D01*
X119296502Y-76477915D01*
X119308858Y-76461733D01*
X119316367Y-76453393D01*
X119406599Y-76297107D01*
X119462365Y-76125475D01*
X119463153Y-76117983D01*
X119480539Y-75952565D01*
X119481229Y-75946000D01*
X119462365Y-75766525D01*
X119438414Y-75692809D01*
X119408641Y-75601178D01*
X119406599Y-75594893D01*
X119401568Y-75586178D01*
X119319668Y-75444325D01*
X119316367Y-75438607D01*
X119310126Y-75431675D01*
X119200035Y-75309407D01*
X119200034Y-75309406D01*
X119195613Y-75304496D01*
X119185803Y-75297368D01*
X119054957Y-75202303D01*
X119054956Y-75202302D01*
X119049615Y-75198422D01*
X119043587Y-75195738D01*
X119043585Y-75195737D01*
X118890783Y-75127705D01*
X118890781Y-75127705D01*
X118884752Y-75125020D01*
X118780736Y-75102911D01*
X118714689Y-75088872D01*
X118714685Y-75088872D01*
X118708232Y-75087500D01*
X118527768Y-75087500D01*
X118521315Y-75088872D01*
X118521311Y-75088872D01*
X118455264Y-75102911D01*
X118351248Y-75125020D01*
X118345219Y-75127704D01*
X118345217Y-75127705D01*
X118192416Y-75195737D01*
X118192414Y-75195738D01*
X118186386Y-75198422D01*
X118181045Y-75202302D01*
X118181044Y-75202303D01*
X118045731Y-75300613D01*
X118045729Y-75300615D01*
X118040387Y-75304496D01*
X118035966Y-75309406D01*
X118035965Y-75309407D01*
X117925875Y-75431675D01*
X117919633Y-75438607D01*
X117916332Y-75444325D01*
X117834433Y-75586178D01*
X117829401Y-75594893D01*
X117827359Y-75601178D01*
X117797587Y-75692809D01*
X117773635Y-75766525D01*
X117754771Y-75946000D01*
X117755461Y-75952565D01*
X117772848Y-76117983D01*
X117773635Y-76125475D01*
X117829401Y-76297107D01*
X117919633Y-76453393D01*
X117927138Y-76461728D01*
X117957854Y-76525734D01*
X117959500Y-76546036D01*
X117959500Y-81451944D01*
X117958941Y-81463800D01*
X117957212Y-81471537D01*
X117957461Y-81479459D01*
X117959438Y-81542369D01*
X117959500Y-81546327D01*
X117959500Y-92179500D01*
X117939498Y-92247621D01*
X117885842Y-92294114D01*
X117833500Y-92305500D01*
X111322950Y-92305500D01*
X111254829Y-92285498D01*
X111233855Y-92268595D01*
X110677405Y-91712145D01*
X110643379Y-91649833D01*
X110640500Y-91623050D01*
X110640500Y-90008036D01*
X110660502Y-89939915D01*
X110672858Y-89923733D01*
X110680367Y-89915393D01*
X110770599Y-89759107D01*
X110826365Y-89587475D01*
X110831198Y-89541498D01*
X110844539Y-89414565D01*
X110845229Y-89408000D01*
X110826365Y-89228525D01*
X110770599Y-89056893D01*
X110680367Y-88900607D01*
X110559613Y-88766496D01*
X110413615Y-88660422D01*
X110407587Y-88657738D01*
X110407585Y-88657737D01*
X110254783Y-88589705D01*
X110254781Y-88589705D01*
X110248752Y-88587020D01*
X110160492Y-88568260D01*
X110078689Y-88550872D01*
X110078685Y-88550872D01*
X110072232Y-88549500D01*
X109891768Y-88549500D01*
X109885315Y-88550872D01*
X109885311Y-88550872D01*
X109803508Y-88568260D01*
X109715248Y-88587020D01*
X109709219Y-88589704D01*
X109709217Y-88589705D01*
X109556416Y-88657737D01*
X109556414Y-88657738D01*
X109550386Y-88660422D01*
X109545045Y-88664302D01*
X109545044Y-88664303D01*
X109409731Y-88762613D01*
X109409729Y-88762615D01*
X109404387Y-88766496D01*
X109283633Y-88900607D01*
X109193401Y-89056893D01*
X109137635Y-89228525D01*
X109118771Y-89408000D01*
X109119461Y-89414565D01*
X109132803Y-89541498D01*
X109137635Y-89587475D01*
X109193401Y-89759107D01*
X109283633Y-89915393D01*
X109291138Y-89923728D01*
X109321854Y-89987734D01*
X109323500Y-90008036D01*
X109323500Y-91865944D01*
X109322941Y-91877800D01*
X109321212Y-91885537D01*
X109321461Y-91893459D01*
X109323438Y-91956369D01*
X109323500Y-91960327D01*
X109323500Y-91989432D01*
X109324056Y-91993832D01*
X109324988Y-92005664D01*
X109326438Y-92051831D01*
X109328650Y-92059444D01*
X109328650Y-92059445D01*
X109332419Y-92072416D01*
X109336430Y-92091782D01*
X109339118Y-92113064D01*
X109342034Y-92120429D01*
X109342035Y-92120433D01*
X109356126Y-92156021D01*
X109359965Y-92167231D01*
X109372855Y-92211600D01*
X109383775Y-92230065D01*
X109392466Y-92247805D01*
X109400365Y-92267756D01*
X109419515Y-92294114D01*
X109427516Y-92305126D01*
X109434033Y-92315048D01*
X109453507Y-92347977D01*
X109453510Y-92347981D01*
X109457547Y-92354807D01*
X109472711Y-92369971D01*
X109485551Y-92385004D01*
X109498159Y-92402357D01*
X109533752Y-92431802D01*
X109542532Y-92439792D01*
X110359145Y-93256405D01*
X110393171Y-93318717D01*
X110388106Y-93389532D01*
X110345559Y-93446368D01*
X110279039Y-93471179D01*
X110270050Y-93471500D01*
X100202500Y-93471500D01*
X100134379Y-93451498D01*
X100087886Y-93397842D01*
X100076500Y-93345500D01*
X100076500Y-86464445D01*
X100096502Y-86396324D01*
X100150158Y-86349831D01*
X100220432Y-86339727D01*
X100274771Y-86361232D01*
X100389992Y-86441910D01*
X100401081Y-86448108D01*
X100567980Y-86520332D01*
X100580083Y-86524171D01*
X100759600Y-86561675D01*
X100769152Y-86562915D01*
X100772384Y-86563000D01*
X100992885Y-86563000D01*
X101008124Y-86558525D01*
X101009329Y-86557135D01*
X101011000Y-86549452D01*
X101011000Y-86544885D01*
X101519000Y-86544885D01*
X101523475Y-86560124D01*
X101524865Y-86561329D01*
X101532548Y-86563000D01*
X101710447Y-86563000D01*
X101716822Y-86562677D01*
X101852277Y-86548918D01*
X101864717Y-86546364D01*
X102038244Y-86491984D01*
X102049932Y-86486975D01*
X102208979Y-86398813D01*
X102219412Y-86391562D01*
X102357491Y-86273215D01*
X102366244Y-86264024D01*
X102477711Y-86120320D01*
X102484435Y-86109560D01*
X102564732Y-85946375D01*
X102569155Y-85934481D01*
X102584251Y-85876530D01*
X102584021Y-85869075D01*
X102971363Y-85869075D01*
X103027310Y-86021136D01*
X103032877Y-86032549D01*
X103128708Y-86187108D01*
X103136460Y-86197174D01*
X103261408Y-86329303D01*
X103271026Y-86337605D01*
X103419987Y-86441908D01*
X103431081Y-86448108D01*
X103597980Y-86520332D01*
X103610083Y-86524171D01*
X103789600Y-86561675D01*
X103799152Y-86562915D01*
X103802384Y-86563000D01*
X104372885Y-86563000D01*
X104388124Y-86558525D01*
X104389329Y-86557135D01*
X104391000Y-86549452D01*
X104391000Y-86544885D01*
X104899000Y-86544885D01*
X104903475Y-86560124D01*
X104904865Y-86561329D01*
X104912548Y-86563000D01*
X105440447Y-86563000D01*
X105446822Y-86562677D01*
X105582277Y-86548918D01*
X105594717Y-86546364D01*
X105768244Y-86491984D01*
X105779932Y-86486975D01*
X105938979Y-86398813D01*
X105949412Y-86391562D01*
X106087491Y-86273215D01*
X106096244Y-86264024D01*
X106207711Y-86120320D01*
X106214435Y-86109560D01*
X106294732Y-85946375D01*
X106299155Y-85934481D01*
X106314251Y-85876530D01*
X106313817Y-85862436D01*
X106305636Y-85859000D01*
X104917115Y-85859000D01*
X104901876Y-85863475D01*
X104900671Y-85864865D01*
X104899000Y-85872548D01*
X104899000Y-86544885D01*
X104391000Y-86544885D01*
X104391000Y-85877115D01*
X104386525Y-85861876D01*
X104385135Y-85860671D01*
X104377452Y-85859000D01*
X102985771Y-85859000D01*
X102972240Y-85862973D01*
X102971363Y-85869075D01*
X102584021Y-85869075D01*
X102583817Y-85862436D01*
X102575636Y-85859000D01*
X101537115Y-85859000D01*
X101521876Y-85863475D01*
X101520671Y-85864865D01*
X101519000Y-85872548D01*
X101519000Y-86544885D01*
X101011000Y-86544885D01*
X101011000Y-85332885D01*
X101519000Y-85332885D01*
X101523475Y-85348124D01*
X101524865Y-85349329D01*
X101532548Y-85351000D01*
X102574229Y-85351000D01*
X102587760Y-85347027D01*
X102588637Y-85340925D01*
X102532690Y-85188864D01*
X102527123Y-85177451D01*
X102431292Y-85022892D01*
X102423540Y-85012826D01*
X102298592Y-84880697D01*
X102288974Y-84872395D01*
X102140013Y-84768092D01*
X102128919Y-84761892D01*
X101962020Y-84689668D01*
X101949917Y-84685829D01*
X101770400Y-84648325D01*
X101760848Y-84647085D01*
X101757616Y-84647000D01*
X101537115Y-84647000D01*
X101521876Y-84651475D01*
X101520671Y-84652865D01*
X101519000Y-84660548D01*
X101519000Y-85332885D01*
X101011000Y-85332885D01*
X101011000Y-84665115D01*
X101006525Y-84649876D01*
X101005135Y-84648671D01*
X100997452Y-84647000D01*
X100819553Y-84647000D01*
X100813178Y-84647323D01*
X100677723Y-84661082D01*
X100665283Y-84663636D01*
X100491756Y-84718016D01*
X100480068Y-84723025D01*
X100321021Y-84811187D01*
X100310594Y-84818434D01*
X100284498Y-84840801D01*
X100219759Y-84869945D01*
X100149541Y-84859463D01*
X100096136Y-84812681D01*
X100076500Y-84745133D01*
X100076500Y-77814445D01*
X100096502Y-77746324D01*
X100150158Y-77699831D01*
X100220432Y-77689727D01*
X100274771Y-77711232D01*
X100389992Y-77791910D01*
X100401081Y-77798108D01*
X100567980Y-77870332D01*
X100580083Y-77874171D01*
X100759600Y-77911675D01*
X100769152Y-77912915D01*
X100772384Y-77913000D01*
X100992885Y-77913000D01*
X101008124Y-77908525D01*
X101009329Y-77907135D01*
X101011000Y-77899452D01*
X101011000Y-76015115D01*
X101006525Y-75999876D01*
X101005135Y-75998671D01*
X100997452Y-75997000D01*
X100819553Y-75997000D01*
X100813178Y-75997323D01*
X100677723Y-76011082D01*
X100665283Y-76013636D01*
X100491756Y-76068016D01*
X100480068Y-76073025D01*
X100321021Y-76161187D01*
X100310594Y-76168434D01*
X100284498Y-76190801D01*
X100219759Y-76219945D01*
X100149541Y-76209463D01*
X100096136Y-76162681D01*
X100076500Y-76095133D01*
X100076500Y-73660000D01*
X100990771Y-73660000D01*
X100991461Y-73666565D01*
X101004184Y-73787609D01*
X101009635Y-73839475D01*
X101011675Y-73845753D01*
X101011675Y-73845754D01*
X101030096Y-73902448D01*
X101065401Y-74011107D01*
X101155633Y-74167393D01*
X101160051Y-74172300D01*
X101160052Y-74172301D01*
X101235888Y-74256525D01*
X101276387Y-74301504D01*
X101281729Y-74305385D01*
X101281731Y-74305387D01*
X101417043Y-74403697D01*
X101422385Y-74407578D01*
X101428413Y-74410262D01*
X101428415Y-74410263D01*
X101564125Y-74470685D01*
X101587248Y-74480980D01*
X101675508Y-74499740D01*
X101757311Y-74517128D01*
X101757315Y-74517128D01*
X101763768Y-74518500D01*
X101927600Y-74518500D01*
X101995721Y-74538502D01*
X102042214Y-74592158D01*
X102052318Y-74662432D01*
X102047433Y-74683435D01*
X102027676Y-74744242D01*
X102025635Y-74750525D01*
X102006771Y-74930000D01*
X102007461Y-74936565D01*
X102010246Y-74963057D01*
X102025635Y-75109475D01*
X102027675Y-75115753D01*
X102027675Y-75115754D01*
X102050923Y-75187303D01*
X102081401Y-75281107D01*
X102171633Y-75437393D01*
X102179138Y-75445728D01*
X102209854Y-75509734D01*
X102211500Y-75530036D01*
X102211500Y-75955811D01*
X102191498Y-76023932D01*
X102137842Y-76070425D01*
X102067568Y-76080529D01*
X102035459Y-76071448D01*
X101962020Y-76039668D01*
X101949917Y-76035829D01*
X101770400Y-75998325D01*
X101760848Y-75997085D01*
X101757616Y-75997000D01*
X101537115Y-75997000D01*
X101521876Y-76001475D01*
X101520671Y-76002865D01*
X101519000Y-76010548D01*
X101519000Y-77894885D01*
X101523475Y-77910124D01*
X101524865Y-77911329D01*
X101532548Y-77913000D01*
X101710447Y-77913000D01*
X101716822Y-77912677D01*
X101852277Y-77898918D01*
X101864717Y-77896364D01*
X102044343Y-77840073D01*
X102044922Y-77841921D01*
X102106345Y-77834552D01*
X102170218Y-77865549D01*
X102207194Y-77926157D01*
X102211500Y-77958816D01*
X102211500Y-80933964D01*
X102191498Y-81002085D01*
X102179142Y-81018267D01*
X102171633Y-81026607D01*
X102081401Y-81182893D01*
X102072000Y-81211827D01*
X102036151Y-81322161D01*
X102025635Y-81354525D01*
X102006771Y-81534000D01*
X102025635Y-81713475D01*
X102027675Y-81719753D01*
X102027675Y-81719754D01*
X102055408Y-81805108D01*
X102081401Y-81885107D01*
X102084704Y-81890829D01*
X102084705Y-81890830D01*
X102086391Y-81893750D01*
X102171633Y-82041393D01*
X102176051Y-82046300D01*
X102176052Y-82046301D01*
X102285096Y-82167407D01*
X102292387Y-82175504D01*
X102297729Y-82179385D01*
X102297731Y-82179387D01*
X102433043Y-82277697D01*
X102438385Y-82281578D01*
X102444413Y-82284262D01*
X102444415Y-82284263D01*
X102597217Y-82352295D01*
X102603248Y-82354980D01*
X102691508Y-82373740D01*
X102773311Y-82391128D01*
X102773315Y-82391128D01*
X102779768Y-82392500D01*
X102960232Y-82392500D01*
X102966685Y-82391128D01*
X102966689Y-82391128D01*
X103048492Y-82373740D01*
X103136752Y-82354980D01*
X103247958Y-82305468D01*
X103318324Y-82296034D01*
X103382621Y-82326140D01*
X103420434Y-82386229D01*
X103424516Y-82433744D01*
X103411771Y-82555000D01*
X103412461Y-82561565D01*
X103419079Y-82624525D01*
X103430635Y-82734475D01*
X103486401Y-82906107D01*
X103492691Y-82917001D01*
X103509428Y-82985996D01*
X103492691Y-83042998D01*
X103486401Y-83053893D01*
X103476865Y-83083241D01*
X103434770Y-83212800D01*
X103430635Y-83225525D01*
X103429945Y-83232088D01*
X103429945Y-83232089D01*
X103427842Y-83252096D01*
X103411771Y-83405000D01*
X103412461Y-83411565D01*
X103427460Y-83554263D01*
X103430635Y-83584475D01*
X103432675Y-83590753D01*
X103432675Y-83590754D01*
X103450979Y-83647089D01*
X103486401Y-83756107D01*
X103489704Y-83761828D01*
X103492978Y-83767498D01*
X103509717Y-83836493D01*
X103492981Y-83893497D01*
X103490165Y-83898375D01*
X103484819Y-83910383D01*
X103433167Y-84069350D01*
X103430437Y-84082193D01*
X103412964Y-84248435D01*
X103412964Y-84261565D01*
X103430437Y-84427807D01*
X103433167Y-84440650D01*
X103484819Y-84599617D01*
X103486924Y-84604345D01*
X103496359Y-84674712D01*
X103466254Y-84739010D01*
X103432904Y-84765798D01*
X103351021Y-84811187D01*
X103340588Y-84818438D01*
X103202509Y-84936785D01*
X103193756Y-84945976D01*
X103082289Y-85089680D01*
X103075565Y-85100440D01*
X102995268Y-85263625D01*
X102990845Y-85275519D01*
X102975749Y-85333470D01*
X102976183Y-85347564D01*
X102984364Y-85351000D01*
X104372885Y-85351000D01*
X104388124Y-85346525D01*
X104389329Y-85345135D01*
X104391000Y-85337452D01*
X104391000Y-84733000D01*
X104411002Y-84664879D01*
X104464658Y-84618386D01*
X104517000Y-84607000D01*
X104773000Y-84607000D01*
X104841121Y-84627002D01*
X104887614Y-84680658D01*
X104899000Y-84733000D01*
X104899000Y-85332885D01*
X104903475Y-85348124D01*
X104904865Y-85349329D01*
X104912548Y-85351000D01*
X106304229Y-85351000D01*
X106317760Y-85347027D01*
X106318637Y-85340925D01*
X106262690Y-85188864D01*
X106257123Y-85177451D01*
X106161292Y-85022891D01*
X106156509Y-85016681D01*
X106144292Y-85009560D01*
X106129947Y-85010184D01*
X106084172Y-85022935D01*
X106016336Y-85001986D01*
X105996832Y-84986042D01*
X105489385Y-84478595D01*
X105455359Y-84416283D01*
X105460424Y-84345468D01*
X105502971Y-84288632D01*
X105569491Y-84263821D01*
X105578480Y-84263500D01*
X105715232Y-84263500D01*
X105721685Y-84262128D01*
X105721689Y-84262128D01*
X105877153Y-84229083D01*
X105947944Y-84234485D01*
X105992445Y-84263235D01*
X106371767Y-84642557D01*
X106384147Y-84649317D01*
X106391062Y-84644141D01*
X106409835Y-84611625D01*
X106415181Y-84599617D01*
X106466833Y-84440650D01*
X106469563Y-84427807D01*
X106487036Y-84261565D01*
X106487036Y-84248435D01*
X106469563Y-84082193D01*
X106466833Y-84069350D01*
X106415181Y-83910383D01*
X106409835Y-83898375D01*
X106407019Y-83893497D01*
X106390283Y-83824502D01*
X106407022Y-83767498D01*
X106410296Y-83761828D01*
X106413599Y-83756107D01*
X106449021Y-83647089D01*
X106467325Y-83590754D01*
X106467325Y-83590753D01*
X106469365Y-83584475D01*
X106472541Y-83554263D01*
X106487539Y-83411565D01*
X106488229Y-83405000D01*
X106472158Y-83252096D01*
X106470055Y-83232089D01*
X106470055Y-83232088D01*
X106469365Y-83225525D01*
X106465231Y-83212800D01*
X106423135Y-83083241D01*
X106413599Y-83053893D01*
X106407309Y-83042998D01*
X106390572Y-82974004D01*
X106407309Y-82917001D01*
X106413599Y-82906107D01*
X106469365Y-82734475D01*
X106480922Y-82624525D01*
X106487539Y-82561565D01*
X106488229Y-82555000D01*
X106485281Y-82526953D01*
X106470055Y-82382089D01*
X106470055Y-82382088D01*
X106469365Y-82375525D01*
X106463136Y-82356352D01*
X106415641Y-82210178D01*
X106413599Y-82203893D01*
X106407309Y-82192998D01*
X106390572Y-82124004D01*
X106407309Y-82067001D01*
X106409056Y-82063975D01*
X106413599Y-82056107D01*
X106461558Y-81908502D01*
X106467325Y-81890754D01*
X106467325Y-81890753D01*
X106469365Y-81884475D01*
X106476701Y-81814684D01*
X106487539Y-81711565D01*
X106488229Y-81705000D01*
X106475545Y-81584318D01*
X106470055Y-81532089D01*
X106470055Y-81532088D01*
X106469365Y-81525525D01*
X106454398Y-81479459D01*
X106415641Y-81360178D01*
X106413599Y-81353893D01*
X106407309Y-81342998D01*
X106390572Y-81274004D01*
X106407309Y-81217001D01*
X106413599Y-81206107D01*
X106447904Y-81100525D01*
X106467325Y-81040754D01*
X106467325Y-81040753D01*
X106469365Y-81034475D01*
X106472447Y-81005152D01*
X108810594Y-81005152D01*
X108811340Y-81013043D01*
X108814941Y-81051138D01*
X108815500Y-81062996D01*
X108815500Y-85261944D01*
X108814941Y-85273800D01*
X108813212Y-85281537D01*
X108813461Y-85289459D01*
X108815438Y-85352369D01*
X108815500Y-85356327D01*
X108815500Y-85385432D01*
X108816056Y-85389832D01*
X108816988Y-85401664D01*
X108818438Y-85447831D01*
X108820650Y-85455444D01*
X108820650Y-85455445D01*
X108824419Y-85468416D01*
X108828430Y-85487782D01*
X108831118Y-85509064D01*
X108834034Y-85516429D01*
X108834035Y-85516433D01*
X108848126Y-85552021D01*
X108851965Y-85563231D01*
X108864855Y-85607600D01*
X108875775Y-85626065D01*
X108884466Y-85643805D01*
X108892365Y-85663756D01*
X108898840Y-85672668D01*
X108919516Y-85701126D01*
X108926033Y-85711048D01*
X108945507Y-85743977D01*
X108945510Y-85743981D01*
X108949547Y-85750807D01*
X108964711Y-85765971D01*
X108977551Y-85781004D01*
X108990159Y-85798357D01*
X109007486Y-85812691D01*
X109025752Y-85827802D01*
X109034532Y-85835792D01*
X110365210Y-87166470D01*
X110399236Y-87228782D01*
X110401425Y-87242394D01*
X110407635Y-87301475D01*
X110463401Y-87473107D01*
X110553633Y-87629393D01*
X110674387Y-87763504D01*
X110820385Y-87869578D01*
X110826413Y-87872262D01*
X110826415Y-87872263D01*
X110979217Y-87940295D01*
X110985248Y-87942980D01*
X111073508Y-87961740D01*
X111155311Y-87979128D01*
X111155315Y-87979128D01*
X111161768Y-87980500D01*
X111342232Y-87980500D01*
X111348685Y-87979128D01*
X111348689Y-87979128D01*
X111430492Y-87961740D01*
X111518752Y-87942980D01*
X111524783Y-87940295D01*
X111677585Y-87872263D01*
X111677587Y-87872262D01*
X111683615Y-87869578D01*
X111829613Y-87763504D01*
X111950367Y-87629393D01*
X112040599Y-87473107D01*
X112096365Y-87301475D01*
X112115229Y-87122000D01*
X112096365Y-86942525D01*
X112040599Y-86770893D01*
X111950367Y-86614607D01*
X111903824Y-86562915D01*
X111834035Y-86485407D01*
X111834034Y-86485406D01*
X111829613Y-86480496D01*
X111776502Y-86441908D01*
X111688957Y-86378303D01*
X111688956Y-86378302D01*
X111683615Y-86374422D01*
X111677587Y-86371738D01*
X111677585Y-86371737D01*
X111524783Y-86303705D01*
X111524781Y-86303705D01*
X111518752Y-86301020D01*
X111387938Y-86273215D01*
X111356549Y-86266543D01*
X111293651Y-86232391D01*
X110169405Y-85108145D01*
X110135379Y-85045833D01*
X110132500Y-85019050D01*
X110132500Y-81603478D01*
X110152502Y-81535357D01*
X110184439Y-81501542D01*
X110300269Y-81417387D01*
X110300271Y-81417385D01*
X110305613Y-81413504D01*
X110426367Y-81279393D01*
X110516599Y-81123107D01*
X110552361Y-81013043D01*
X110570325Y-80957754D01*
X110570325Y-80957753D01*
X110572365Y-80951475D01*
X110591229Y-80772000D01*
X110580429Y-80669246D01*
X110573055Y-80599089D01*
X110573055Y-80599088D01*
X110572365Y-80592525D01*
X110516599Y-80420893D01*
X110426367Y-80264607D01*
X110401611Y-80237112D01*
X110310035Y-80135407D01*
X110310034Y-80135406D01*
X110305613Y-80130496D01*
X110268911Y-80103830D01*
X110164957Y-80028303D01*
X110164956Y-80028302D01*
X110159615Y-80024422D01*
X110153587Y-80021738D01*
X110153585Y-80021737D01*
X110000783Y-79953705D01*
X110000781Y-79953705D01*
X109994752Y-79951020D01*
X109906492Y-79932260D01*
X109824689Y-79914872D01*
X109824685Y-79914872D01*
X109818232Y-79913500D01*
X109637768Y-79913500D01*
X109631315Y-79914872D01*
X109631311Y-79914872D01*
X109549508Y-79932260D01*
X109461248Y-79951020D01*
X109455219Y-79953704D01*
X109455217Y-79953705D01*
X109302416Y-80021737D01*
X109302414Y-80021738D01*
X109296386Y-80024422D01*
X109291045Y-80028302D01*
X109291044Y-80028303D01*
X109155731Y-80126613D01*
X109155729Y-80126615D01*
X109150387Y-80130496D01*
X109145966Y-80135406D01*
X109145965Y-80135407D01*
X109054390Y-80237112D01*
X109029633Y-80264607D01*
X108939401Y-80420893D01*
X108883635Y-80592525D01*
X108882945Y-80599086D01*
X108882945Y-80599088D01*
X108867660Y-80744518D01*
X108859875Y-80776208D01*
X108856876Y-80781663D01*
X108851541Y-80802441D01*
X108845142Y-80821131D01*
X108836620Y-80840824D01*
X108835380Y-80848655D01*
X108829394Y-80886448D01*
X108826987Y-80898071D01*
X108815500Y-80942812D01*
X108815500Y-80964259D01*
X108813949Y-80983969D01*
X108810594Y-81005152D01*
X106472447Y-81005152D01*
X106488229Y-80855000D01*
X106475996Y-80738612D01*
X106470055Y-80682089D01*
X106470055Y-80682088D01*
X106469365Y-80675525D01*
X106413599Y-80503893D01*
X106407309Y-80492998D01*
X106390572Y-80424004D01*
X106407309Y-80367001D01*
X106413599Y-80356107D01*
X106448505Y-80248675D01*
X106467325Y-80190754D01*
X106467325Y-80190753D01*
X106469365Y-80184475D01*
X106475748Y-80123749D01*
X106502762Y-80058092D01*
X106511963Y-80047825D01*
X106671234Y-79888554D01*
X106683625Y-79877687D01*
X106702437Y-79863252D01*
X106708987Y-79858226D01*
X106733474Y-79826314D01*
X106733480Y-79826308D01*
X106801496Y-79737668D01*
X106801497Y-79737666D01*
X106806524Y-79731115D01*
X106867838Y-79583090D01*
X106874235Y-79534500D01*
X106883500Y-79464124D01*
X106883500Y-79464119D01*
X106888750Y-79424239D01*
X106884578Y-79392546D01*
X106883500Y-79376103D01*
X106883500Y-76605144D01*
X106884578Y-76588698D01*
X106887673Y-76565188D01*
X106888751Y-76557000D01*
X106867838Y-76398149D01*
X106806524Y-76250124D01*
X106733478Y-76154929D01*
X106733474Y-76154925D01*
X106733471Y-76154921D01*
X106714016Y-76129566D01*
X106714013Y-76129563D01*
X106708987Y-76123013D01*
X106700830Y-76116754D01*
X106683621Y-76103548D01*
X106671230Y-76092681D01*
X103984549Y-73406000D01*
X119024771Y-73406000D01*
X119025461Y-73412565D01*
X119037437Y-73526502D01*
X119043635Y-73585475D01*
X119099401Y-73757107D01*
X119189633Y-73913393D01*
X119194051Y-73918300D01*
X119194052Y-73918301D01*
X119281251Y-74015145D01*
X119310387Y-74047504D01*
X119315729Y-74051385D01*
X119315731Y-74051387D01*
X119333865Y-74064562D01*
X119456385Y-74153578D01*
X119462413Y-74156262D01*
X119462415Y-74156263D01*
X119610541Y-74222213D01*
X119621248Y-74226980D01*
X119709508Y-74245740D01*
X119791311Y-74263128D01*
X119791315Y-74263128D01*
X119797768Y-74264500D01*
X119978232Y-74264500D01*
X119984685Y-74263128D01*
X119984689Y-74263128D01*
X120066492Y-74245740D01*
X120154752Y-74226980D01*
X120165459Y-74222213D01*
X120313585Y-74156263D01*
X120313587Y-74156262D01*
X120319615Y-74153578D01*
X120409099Y-74088564D01*
X120475967Y-74064705D01*
X120483160Y-74064500D01*
X133013944Y-74064500D01*
X133025800Y-74065059D01*
X133025803Y-74065059D01*
X133033537Y-74066788D01*
X133104369Y-74064562D01*
X133108327Y-74064500D01*
X133137432Y-74064500D01*
X133141832Y-74063944D01*
X133153664Y-74063012D01*
X133199831Y-74061562D01*
X133220421Y-74055580D01*
X133239782Y-74051570D01*
X133246770Y-74050688D01*
X133253204Y-74049875D01*
X133253205Y-74049875D01*
X133261064Y-74048882D01*
X133268429Y-74045966D01*
X133268433Y-74045965D01*
X133304021Y-74031874D01*
X133315231Y-74028035D01*
X133359600Y-74015145D01*
X133378065Y-74004225D01*
X133395805Y-73995534D01*
X133415756Y-73987635D01*
X133453129Y-73960482D01*
X133463048Y-73953967D01*
X133495977Y-73934493D01*
X133495981Y-73934490D01*
X133502807Y-73930453D01*
X133517971Y-73915289D01*
X133533005Y-73902448D01*
X133543944Y-73894500D01*
X133550357Y-73889841D01*
X133579808Y-73854241D01*
X133587798Y-73845462D01*
X133645651Y-73787609D01*
X133708549Y-73753457D01*
X133743483Y-73746031D01*
X133870752Y-73718980D01*
X134003223Y-73660000D01*
X134029585Y-73648263D01*
X134029587Y-73648262D01*
X134035615Y-73645578D01*
X134040957Y-73641697D01*
X134176269Y-73543387D01*
X134176271Y-73543385D01*
X134181613Y-73539504D01*
X134182873Y-73538105D01*
X134245301Y-73508146D01*
X134265603Y-73506500D01*
X139199447Y-73506500D01*
X139267568Y-73526502D01*
X139288542Y-73543405D01*
X140852542Y-75107405D01*
X140886568Y-75169717D01*
X140881503Y-75240532D01*
X140838956Y-75297368D01*
X140772436Y-75322179D01*
X140763447Y-75322500D01*
X140361603Y-75322500D01*
X140293482Y-75302498D01*
X140280164Y-75292329D01*
X140277613Y-75289496D01*
X140157603Y-75202303D01*
X140136957Y-75187303D01*
X140136956Y-75187302D01*
X140131615Y-75183422D01*
X140125587Y-75180738D01*
X140125585Y-75180737D01*
X139972783Y-75112705D01*
X139972781Y-75112705D01*
X139966752Y-75110020D01*
X139867257Y-75088872D01*
X139796689Y-75073872D01*
X139796685Y-75073872D01*
X139790232Y-75072500D01*
X139609768Y-75072500D01*
X139603315Y-75073872D01*
X139603311Y-75073872D01*
X139532743Y-75088872D01*
X139433248Y-75110020D01*
X139427219Y-75112704D01*
X139427217Y-75112705D01*
X139274416Y-75180737D01*
X139274414Y-75180738D01*
X139268386Y-75183422D01*
X139263045Y-75187302D01*
X139263044Y-75187303D01*
X139127731Y-75285613D01*
X139127729Y-75285615D01*
X139122387Y-75289496D01*
X139001633Y-75423607D01*
X138911401Y-75579893D01*
X138855635Y-75751525D01*
X138854945Y-75758088D01*
X138854945Y-75758089D01*
X138838498Y-75914565D01*
X138836771Y-75931000D01*
X138855635Y-76110475D01*
X138857675Y-76116753D01*
X138857675Y-76116754D01*
X138874467Y-76168434D01*
X138911401Y-76282107D01*
X138914704Y-76287829D01*
X138914705Y-76287830D01*
X138920061Y-76297107D01*
X139001633Y-76438393D01*
X139006051Y-76443300D01*
X139006052Y-76443301D01*
X139015139Y-76453393D01*
X139122387Y-76572504D01*
X139127729Y-76576385D01*
X139127731Y-76576387D01*
X139239287Y-76657437D01*
X139268385Y-76678578D01*
X139274413Y-76681262D01*
X139274415Y-76681263D01*
X139427217Y-76749295D01*
X139433248Y-76751980D01*
X139521508Y-76770740D01*
X139603311Y-76788128D01*
X139603315Y-76788128D01*
X139609768Y-76789500D01*
X139790232Y-76789500D01*
X139796685Y-76788128D01*
X139796689Y-76788128D01*
X139878492Y-76770740D01*
X139966752Y-76751980D01*
X139972783Y-76749295D01*
X140125585Y-76681263D01*
X140125587Y-76681262D01*
X140131615Y-76678578D01*
X140160713Y-76657437D01*
X140272269Y-76576387D01*
X140272271Y-76576385D01*
X140277613Y-76572504D01*
X140278873Y-76571105D01*
X140341301Y-76541146D01*
X140361603Y-76539500D01*
X141666761Y-76539500D01*
X141734882Y-76559502D01*
X141755856Y-76576405D01*
X145470354Y-80290903D01*
X145504380Y-80353215D01*
X145499315Y-80424030D01*
X145492614Y-80438955D01*
X145480857Y-80461161D01*
X145386743Y-80718337D01*
X145328404Y-80985907D01*
X145306917Y-81258918D01*
X145322682Y-81532320D01*
X145323507Y-81536525D01*
X145323508Y-81536533D01*
X145340830Y-81624822D01*
X145375405Y-81801053D01*
X145376792Y-81805103D01*
X145376793Y-81805108D01*
X145451633Y-82023697D01*
X145464112Y-82060144D01*
X145515589Y-82162496D01*
X145582752Y-82296034D01*
X145587160Y-82304799D01*
X145589586Y-82308328D01*
X145589589Y-82308334D01*
X145675783Y-82433746D01*
X145742274Y-82530490D01*
X145745161Y-82533663D01*
X145745162Y-82533664D01*
X145921912Y-82727911D01*
X145926582Y-82733043D01*
X146136675Y-82908707D01*
X146140316Y-82910991D01*
X146365024Y-83051951D01*
X146365028Y-83051953D01*
X146368664Y-83054234D01*
X146436544Y-83084883D01*
X146614345Y-83165164D01*
X146614349Y-83165166D01*
X146618257Y-83166930D01*
X146672323Y-83182945D01*
X146876723Y-83243491D01*
X146876727Y-83243492D01*
X146880836Y-83244709D01*
X146885070Y-83245357D01*
X146885075Y-83245358D01*
X147147298Y-83285483D01*
X147147300Y-83285483D01*
X147151540Y-83286132D01*
X147290912Y-83288322D01*
X147421071Y-83290367D01*
X147421077Y-83290367D01*
X147425362Y-83290434D01*
X147697235Y-83257534D01*
X147962127Y-83188041D01*
X147966087Y-83186401D01*
X147966092Y-83186399D01*
X148105859Y-83128505D01*
X148215136Y-83083241D01*
X148451582Y-82945073D01*
X148667089Y-82776094D01*
X148708809Y-82733043D01*
X148813970Y-82624525D01*
X148857669Y-82579431D01*
X148860202Y-82575983D01*
X148860206Y-82575978D01*
X149017257Y-82362178D01*
X149019795Y-82358723D01*
X149048710Y-82305468D01*
X149148418Y-82121830D01*
X149148419Y-82121828D01*
X149150468Y-82118054D01*
X149236329Y-81890830D01*
X149245751Y-81865895D01*
X149245752Y-81865891D01*
X149247269Y-81861877D01*
X149259814Y-81807104D01*
X149294518Y-81745169D01*
X149357198Y-81711828D01*
X149427954Y-81717667D01*
X149459337Y-81735272D01*
X149463506Y-81738471D01*
X149463522Y-81738485D01*
X149512890Y-81776366D01*
X149558709Y-81811524D01*
X149706734Y-81872838D01*
X149714921Y-81873916D01*
X149714922Y-81873916D01*
X149726127Y-81875391D01*
X149745269Y-81877911D01*
X149825700Y-81888500D01*
X149825703Y-81888500D01*
X149825711Y-81888501D01*
X149857396Y-81892672D01*
X149865585Y-81893750D01*
X149897278Y-81889578D01*
X149913721Y-81888500D01*
X150365304Y-81888500D01*
X150433425Y-81908502D01*
X150479918Y-81962158D01*
X150484511Y-81973687D01*
X150514112Y-82060144D01*
X150565589Y-82162496D01*
X150632752Y-82296034D01*
X150637160Y-82304799D01*
X150639586Y-82308328D01*
X150639589Y-82308334D01*
X150725783Y-82433746D01*
X150792274Y-82530490D01*
X150795161Y-82533663D01*
X150795162Y-82533664D01*
X150971912Y-82727911D01*
X150976582Y-82733043D01*
X151186675Y-82908707D01*
X151190316Y-82910991D01*
X151415024Y-83051951D01*
X151415028Y-83051953D01*
X151418664Y-83054234D01*
X151486544Y-83084883D01*
X151634577Y-83151723D01*
X151688431Y-83197986D01*
X151708725Y-83266020D01*
X151691845Y-83329560D01*
X151611401Y-83468893D01*
X151609359Y-83475178D01*
X151573847Y-83584475D01*
X151555635Y-83640525D01*
X151554945Y-83647088D01*
X151554945Y-83647089D01*
X151541120Y-83778622D01*
X151514106Y-83844279D01*
X151504905Y-83854546D01*
X150914856Y-84444595D01*
X150852544Y-84478621D01*
X150825761Y-84481500D01*
X144337632Y-84481500D01*
X144269511Y-84461498D01*
X144223018Y-84407842D01*
X144212914Y-84337568D01*
X144228513Y-84292500D01*
X144295295Y-84176830D01*
X144295296Y-84176829D01*
X144298599Y-84171107D01*
X144327489Y-84082193D01*
X144352325Y-84005754D01*
X144352325Y-84005753D01*
X144354365Y-83999475D01*
X144371496Y-83836493D01*
X144372539Y-83826565D01*
X144373229Y-83820000D01*
X144354365Y-83640525D01*
X144336154Y-83584475D01*
X144300641Y-83475178D01*
X144298599Y-83468893D01*
X144208367Y-83312607D01*
X144202126Y-83305675D01*
X144150864Y-83248744D01*
X144120147Y-83184736D01*
X144118500Y-83164433D01*
X144118500Y-80058136D01*
X144119578Y-80041690D01*
X144122672Y-80018188D01*
X144123750Y-80010000D01*
X144118500Y-79970122D01*
X144118500Y-79970115D01*
X144102838Y-79851150D01*
X144092550Y-79826311D01*
X144053118Y-79731115D01*
X144044684Y-79710753D01*
X144041524Y-79703124D01*
X143968477Y-79607928D01*
X143968474Y-79607925D01*
X143943987Y-79576013D01*
X143937432Y-79570983D01*
X143918621Y-79556548D01*
X143906230Y-79545681D01*
X142704315Y-78343766D01*
X142693448Y-78331375D01*
X142679013Y-78312563D01*
X142673987Y-78306013D01*
X142642075Y-78281526D01*
X142642072Y-78281523D01*
X142587852Y-78239918D01*
X142553429Y-78213504D01*
X142553427Y-78213503D01*
X142546876Y-78208476D01*
X142398851Y-78147162D01*
X142390664Y-78146084D01*
X142390663Y-78146084D01*
X142379458Y-78144609D01*
X142329568Y-78138041D01*
X142279885Y-78131500D01*
X142279882Y-78131500D01*
X142279874Y-78131499D01*
X142248189Y-78127328D01*
X142240000Y-78126250D01*
X142208307Y-78130422D01*
X142191864Y-78131500D01*
X130858136Y-78131500D01*
X130841690Y-78130422D01*
X130818188Y-78127328D01*
X130810000Y-78126250D01*
X130801812Y-78127328D01*
X130770129Y-78131499D01*
X130770120Y-78131500D01*
X130770115Y-78131500D01*
X130651150Y-78147162D01*
X130503125Y-78208476D01*
X130503123Y-78208477D01*
X130503124Y-78208477D01*
X130407928Y-78281523D01*
X130407925Y-78281526D01*
X130376013Y-78306013D01*
X130370983Y-78312568D01*
X130356548Y-78331379D01*
X130345681Y-78343770D01*
X128304856Y-80384595D01*
X128242544Y-80418621D01*
X128215761Y-80421500D01*
X128179768Y-80421500D01*
X128173315Y-80422872D01*
X128173311Y-80422872D01*
X128097643Y-80438956D01*
X128003248Y-80459020D01*
X127997219Y-80461704D01*
X127997217Y-80461705D01*
X127844416Y-80529737D01*
X127844414Y-80529738D01*
X127838386Y-80532422D01*
X127833045Y-80536302D01*
X127833044Y-80536303D01*
X127697731Y-80634613D01*
X127697729Y-80634615D01*
X127692387Y-80638496D01*
X127687966Y-80643406D01*
X127687965Y-80643407D01*
X127616732Y-80722520D01*
X127571633Y-80772607D01*
X127481401Y-80928893D01*
X127474302Y-80950741D01*
X127445056Y-81040754D01*
X127425635Y-81100525D01*
X127406771Y-81280000D01*
X127425635Y-81459475D01*
X127427675Y-81465753D01*
X127427675Y-81465754D01*
X127449849Y-81534000D01*
X127481401Y-81631107D01*
X127571633Y-81787393D01*
X127576051Y-81792300D01*
X127576052Y-81792301D01*
X127667397Y-81893750D01*
X127692387Y-81921504D01*
X127697729Y-81925385D01*
X127697731Y-81925387D01*
X127775168Y-81981648D01*
X127838385Y-82027578D01*
X127844413Y-82030262D01*
X127844415Y-82030263D01*
X127926930Y-82067001D01*
X128003248Y-82100980D01*
X128083576Y-82118054D01*
X128173311Y-82137128D01*
X128173315Y-82137128D01*
X128179768Y-82138500D01*
X128360232Y-82138500D01*
X128366685Y-82137128D01*
X128366689Y-82137128D01*
X128456424Y-82118054D01*
X128536752Y-82100980D01*
X128613070Y-82067001D01*
X128695585Y-82030263D01*
X128695587Y-82030262D01*
X128701615Y-82027578D01*
X128764832Y-81981648D01*
X128842269Y-81925387D01*
X128842271Y-81925385D01*
X128847613Y-81921504D01*
X128872603Y-81893750D01*
X128963948Y-81792301D01*
X128963949Y-81792300D01*
X128968367Y-81787393D01*
X129058599Y-81631107D01*
X129090151Y-81534000D01*
X129112325Y-81465754D01*
X129112325Y-81465753D01*
X129114365Y-81459475D01*
X129126607Y-81342999D01*
X129128880Y-81321378D01*
X129155894Y-81255721D01*
X129165095Y-81245454D01*
X131025144Y-79385405D01*
X131087456Y-79351379D01*
X131114239Y-79348500D01*
X141935761Y-79348500D01*
X142003882Y-79368502D01*
X142024856Y-79385405D01*
X142864595Y-80225144D01*
X142898621Y-80287456D01*
X142901500Y-80314239D01*
X142901500Y-83164433D01*
X142881498Y-83232554D01*
X142869136Y-83248744D01*
X142817875Y-83305675D01*
X142811633Y-83312607D01*
X142721401Y-83468893D01*
X142719359Y-83475178D01*
X142683847Y-83584475D01*
X142665635Y-83640525D01*
X142646771Y-83820000D01*
X142647461Y-83826565D01*
X142648505Y-83836493D01*
X142665635Y-83999475D01*
X142667675Y-84005753D01*
X142667675Y-84005754D01*
X142692511Y-84082193D01*
X142721401Y-84171107D01*
X142724704Y-84176829D01*
X142724705Y-84176830D01*
X142791487Y-84292500D01*
X142808225Y-84361496D01*
X142785004Y-84428587D01*
X142729197Y-84472474D01*
X142682368Y-84481500D01*
X125287632Y-84481500D01*
X125219511Y-84461498D01*
X125173018Y-84407842D01*
X125162914Y-84337568D01*
X125178513Y-84292500D01*
X125245295Y-84176830D01*
X125245296Y-84176829D01*
X125248599Y-84171107D01*
X125277489Y-84082193D01*
X125302325Y-84005754D01*
X125302325Y-84005753D01*
X125304365Y-83999475D01*
X125321496Y-83836493D01*
X125322539Y-83826565D01*
X125323229Y-83820000D01*
X125304365Y-83640525D01*
X125286154Y-83584475D01*
X125250641Y-83475178D01*
X125248599Y-83468893D01*
X125158367Y-83312607D01*
X125152126Y-83305675D01*
X125042035Y-83183407D01*
X125042034Y-83183406D01*
X125037613Y-83178496D01*
X125019264Y-83165164D01*
X124896957Y-83076303D01*
X124896956Y-83076302D01*
X124891615Y-83072422D01*
X124885587Y-83069738D01*
X124885585Y-83069737D01*
X124732783Y-83001705D01*
X124732781Y-83001705D01*
X124726752Y-82999020D01*
X124622736Y-82976911D01*
X124556689Y-82962872D01*
X124556685Y-82962872D01*
X124550232Y-82961500D01*
X124369768Y-82961500D01*
X124363315Y-82962872D01*
X124363311Y-82962872D01*
X124297264Y-82976911D01*
X124193248Y-82999020D01*
X124187219Y-83001704D01*
X124187217Y-83001705D01*
X124034416Y-83069737D01*
X124034414Y-83069738D01*
X124028386Y-83072422D01*
X124023045Y-83076302D01*
X124023044Y-83076303D01*
X123887731Y-83174613D01*
X123887729Y-83174615D01*
X123882387Y-83178496D01*
X123877966Y-83183406D01*
X123877965Y-83183407D01*
X123767875Y-83305675D01*
X123761633Y-83312607D01*
X123671401Y-83468893D01*
X123669359Y-83475178D01*
X123633847Y-83584475D01*
X123615635Y-83640525D01*
X123614945Y-83647088D01*
X123614945Y-83647089D01*
X123601120Y-83778622D01*
X123574106Y-83844279D01*
X123564905Y-83854546D01*
X123413766Y-84005685D01*
X123401375Y-84016552D01*
X123376013Y-84036013D01*
X123351526Y-84067925D01*
X123351523Y-84067928D01*
X123278476Y-84163124D01*
X123225411Y-84291234D01*
X123217162Y-84311150D01*
X123216085Y-84319334D01*
X123216084Y-84319336D01*
X123214377Y-84332301D01*
X123201500Y-84430115D01*
X123201500Y-84430120D01*
X123196250Y-84470000D01*
X123197382Y-84478595D01*
X123200422Y-84501690D01*
X123201500Y-84518136D01*
X123201500Y-85311103D01*
X123200422Y-85327546D01*
X123196250Y-85359239D01*
X123201500Y-85399119D01*
X123201500Y-85399124D01*
X123214609Y-85498696D01*
X123217162Y-85518090D01*
X123278476Y-85666115D01*
X123283503Y-85672666D01*
X123283504Y-85672668D01*
X123351520Y-85761308D01*
X123351526Y-85761314D01*
X123376013Y-85793226D01*
X123382568Y-85798256D01*
X123401379Y-85812691D01*
X123413770Y-85823558D01*
X128156446Y-90566234D01*
X128167313Y-90578625D01*
X128186774Y-90603987D01*
X128218686Y-90628474D01*
X128218689Y-90628477D01*
X128282438Y-90677393D01*
X128313886Y-90701524D01*
X128461911Y-90762838D01*
X128580876Y-90778500D01*
X128580881Y-90778500D01*
X128580890Y-90778501D01*
X128612573Y-90782672D01*
X128620761Y-90783750D01*
X128652454Y-90779578D01*
X128668897Y-90778500D01*
X147928397Y-90778500D01*
X147996518Y-90798502D01*
X148009836Y-90808671D01*
X148012387Y-90811504D01*
X148158385Y-90917578D01*
X148164413Y-90920262D01*
X148164415Y-90920263D01*
X148317217Y-90988295D01*
X148323248Y-90990980D01*
X148411508Y-91009740D01*
X148493311Y-91027128D01*
X148493315Y-91027128D01*
X148499768Y-91028500D01*
X148680232Y-91028500D01*
X148686685Y-91027128D01*
X148686689Y-91027128D01*
X148768492Y-91009740D01*
X148856752Y-90990980D01*
X148862783Y-90988295D01*
X149015585Y-90920263D01*
X149015587Y-90920262D01*
X149021615Y-90917578D01*
X149167613Y-90811504D01*
X149192603Y-90783750D01*
X149283948Y-90682301D01*
X149283949Y-90682300D01*
X149288367Y-90677393D01*
X149378599Y-90521107D01*
X149434365Y-90349475D01*
X149453229Y-90170000D01*
X149434365Y-89990525D01*
X149378599Y-89818893D01*
X149288367Y-89662607D01*
X149167613Y-89528496D01*
X149021615Y-89422422D01*
X149015587Y-89419738D01*
X149015585Y-89419737D01*
X148862783Y-89351705D01*
X148862781Y-89351705D01*
X148856752Y-89349020D01*
X148768492Y-89330260D01*
X148686689Y-89312872D01*
X148686685Y-89312872D01*
X148680232Y-89311500D01*
X148499768Y-89311500D01*
X148493315Y-89312872D01*
X148493311Y-89312872D01*
X148411508Y-89330260D01*
X148323248Y-89349020D01*
X148317219Y-89351704D01*
X148317217Y-89351705D01*
X148164416Y-89419737D01*
X148164414Y-89419738D01*
X148158386Y-89422422D01*
X148153045Y-89426302D01*
X148153044Y-89426303D01*
X148017731Y-89524613D01*
X148017729Y-89524615D01*
X148012387Y-89528496D01*
X148011127Y-89529895D01*
X147948699Y-89559854D01*
X147928397Y-89561500D01*
X128925000Y-89561500D01*
X128856879Y-89541498D01*
X128835905Y-89524595D01*
X125224905Y-85913595D01*
X125190879Y-85851283D01*
X125195944Y-85780468D01*
X125238491Y-85723632D01*
X125305011Y-85698821D01*
X125314000Y-85698500D01*
X151081864Y-85698500D01*
X151098307Y-85699578D01*
X151130000Y-85703750D01*
X151138189Y-85702672D01*
X151169874Y-85698501D01*
X151169884Y-85698500D01*
X151169885Y-85698500D01*
X151269457Y-85685391D01*
X151280664Y-85683916D01*
X151280666Y-85683915D01*
X151288851Y-85682838D01*
X151436876Y-85621524D01*
X151464935Y-85599994D01*
X151532072Y-85548477D01*
X151532075Y-85548474D01*
X151557434Y-85529015D01*
X151563987Y-85523987D01*
X151569017Y-85517432D01*
X151583452Y-85498621D01*
X151594319Y-85486230D01*
X152365144Y-84715405D01*
X152427456Y-84681379D01*
X152454239Y-84678500D01*
X152490232Y-84678500D01*
X152496685Y-84677128D01*
X152496689Y-84677128D01*
X152578492Y-84659740D01*
X152666752Y-84640980D01*
X152717499Y-84618386D01*
X152825585Y-84570263D01*
X152825587Y-84570262D01*
X152831615Y-84567578D01*
X152899666Y-84518136D01*
X152972269Y-84465387D01*
X152972271Y-84465385D01*
X152977613Y-84461504D01*
X153018330Y-84416283D01*
X153093948Y-84332301D01*
X153093949Y-84332300D01*
X153098367Y-84327393D01*
X153188599Y-84171107D01*
X153217489Y-84082193D01*
X153242325Y-84005754D01*
X153242325Y-84005753D01*
X153244365Y-83999475D01*
X153261496Y-83836493D01*
X153262539Y-83826565D01*
X153263229Y-83820000D01*
X153244365Y-83640525D01*
X153226154Y-83584475D01*
X153190641Y-83475178D01*
X153188599Y-83468893D01*
X153098367Y-83312607D01*
X153099610Y-83311889D01*
X153078282Y-83252096D01*
X153094369Y-83182945D01*
X153145287Y-83133470D01*
X153155859Y-83128505D01*
X153265136Y-83083241D01*
X153501582Y-82945073D01*
X153717089Y-82776094D01*
X153758809Y-82733043D01*
X153863970Y-82624525D01*
X153907669Y-82579431D01*
X153910202Y-82575983D01*
X153910206Y-82575978D01*
X154067257Y-82362178D01*
X154069795Y-82358723D01*
X154098710Y-82305468D01*
X154198418Y-82121830D01*
X154198419Y-82121828D01*
X154200468Y-82118054D01*
X154286329Y-81890830D01*
X154295751Y-81865895D01*
X154295752Y-81865891D01*
X154297269Y-81861877D01*
X154332761Y-81706911D01*
X154357449Y-81599117D01*
X154357450Y-81599113D01*
X154358407Y-81594933D01*
X154359355Y-81584318D01*
X154382531Y-81324627D01*
X154382531Y-81324625D01*
X154382751Y-81322161D01*
X154383193Y-81280000D01*
X154382762Y-81273675D01*
X154364859Y-81011055D01*
X154364858Y-81011049D01*
X154364567Y-81006778D01*
X154359844Y-80983969D01*
X154322249Y-80802432D01*
X154309032Y-80738612D01*
X154217617Y-80480465D01*
X154092013Y-80237112D01*
X154082040Y-80222921D01*
X153989902Y-80091822D01*
X153934545Y-80013057D01*
X153854088Y-79926475D01*
X153751046Y-79815588D01*
X153751043Y-79815585D01*
X153748125Y-79812445D01*
X153744810Y-79809731D01*
X153744806Y-79809728D01*
X153539523Y-79641706D01*
X153536205Y-79638990D01*
X153302704Y-79495901D01*
X153298768Y-79494173D01*
X153055873Y-79387549D01*
X153055869Y-79387548D01*
X153051945Y-79385825D01*
X152788566Y-79310800D01*
X152784324Y-79310196D01*
X152784318Y-79310195D01*
X152577440Y-79280752D01*
X152517443Y-79272213D01*
X152373589Y-79271460D01*
X152247877Y-79270802D01*
X152247871Y-79270802D01*
X152243591Y-79270780D01*
X152239347Y-79271339D01*
X152239343Y-79271339D01*
X152167845Y-79280752D01*
X151972078Y-79306525D01*
X151967938Y-79307658D01*
X151967936Y-79307658D01*
X151924349Y-79319582D01*
X151707928Y-79378788D01*
X151703980Y-79380472D01*
X151459982Y-79484546D01*
X151459978Y-79484548D01*
X151456030Y-79486232D01*
X151436125Y-79498145D01*
X151224725Y-79624664D01*
X151224721Y-79624667D01*
X151221043Y-79626868D01*
X151007318Y-79798094D01*
X150931787Y-79877687D01*
X150859649Y-79953705D01*
X150818808Y-79996742D01*
X150659002Y-80219136D01*
X150530857Y-80461161D01*
X150529386Y-80465181D01*
X150529381Y-80465192D01*
X150484147Y-80588801D01*
X150441953Y-80645899D01*
X150375587Y-80671121D01*
X150365821Y-80671500D01*
X150169824Y-80671500D01*
X150101703Y-80651498D01*
X150080729Y-80634595D01*
X149969162Y-80523028D01*
X149935136Y-80460716D01*
X149940201Y-80389901D01*
X149964618Y-80349627D01*
X150050367Y-80254393D01*
X150140599Y-80098107D01*
X150196365Y-79926475D01*
X150215229Y-79747000D01*
X150202371Y-79624664D01*
X150197055Y-79574089D01*
X150197055Y-79574088D01*
X150196365Y-79567525D01*
X150194325Y-79561246D01*
X150145835Y-79412007D01*
X150143808Y-79341039D01*
X150176573Y-79283976D01*
X151383025Y-78077524D01*
X151445337Y-78043498D01*
X151516152Y-78048563D01*
X151523971Y-78051782D01*
X151664345Y-78115164D01*
X151664349Y-78115166D01*
X151668257Y-78116930D01*
X151717441Y-78131499D01*
X151926723Y-78193491D01*
X151926727Y-78193492D01*
X151930836Y-78194709D01*
X151935070Y-78195357D01*
X151935075Y-78195358D01*
X152197298Y-78235483D01*
X152197300Y-78235483D01*
X152201540Y-78236132D01*
X152340912Y-78238322D01*
X152471071Y-78240367D01*
X152471077Y-78240367D01*
X152475362Y-78240434D01*
X152747235Y-78207534D01*
X153012127Y-78138041D01*
X153016087Y-78136401D01*
X153016092Y-78136399D01*
X153138631Y-78085641D01*
X153265136Y-78033241D01*
X153471049Y-77912915D01*
X153497879Y-77897237D01*
X153497880Y-77897236D01*
X153501582Y-77895073D01*
X153717089Y-77726094D01*
X153731492Y-77711232D01*
X153904686Y-77532509D01*
X153907669Y-77529431D01*
X153910202Y-77525983D01*
X153910206Y-77525978D01*
X154067257Y-77312178D01*
X154069795Y-77308723D01*
X154097154Y-77258334D01*
X154198418Y-77071830D01*
X154198419Y-77071828D01*
X154200468Y-77068054D01*
X154293127Y-76822838D01*
X154295751Y-76815895D01*
X154295752Y-76815891D01*
X154297269Y-76811877D01*
X154351203Y-76576387D01*
X154357449Y-76549117D01*
X154357450Y-76549113D01*
X154358407Y-76544933D01*
X154360121Y-76525734D01*
X154382531Y-76274627D01*
X154382531Y-76274625D01*
X154382751Y-76272161D01*
X154383193Y-76230000D01*
X154378075Y-76154921D01*
X154364859Y-75961055D01*
X154364858Y-75961049D01*
X154364567Y-75956778D01*
X154360976Y-75939435D01*
X154336799Y-75822695D01*
X154309032Y-75688612D01*
X154217617Y-75430465D01*
X154142853Y-75285613D01*
X154093978Y-75190919D01*
X154093978Y-75190918D01*
X154092013Y-75187112D01*
X154082040Y-75172921D01*
X153999722Y-75055795D01*
X153934545Y-74963057D01*
X153748125Y-74762445D01*
X153744810Y-74759731D01*
X153744806Y-74759728D01*
X153614069Y-74652721D01*
X153536205Y-74588990D01*
X153302704Y-74445901D01*
X153298768Y-74444173D01*
X153055873Y-74337549D01*
X153055869Y-74337548D01*
X153051945Y-74335825D01*
X152788566Y-74260800D01*
X152784324Y-74260196D01*
X152784318Y-74260195D01*
X152550937Y-74226980D01*
X152517443Y-74222213D01*
X152373589Y-74221460D01*
X152247877Y-74220802D01*
X152247871Y-74220802D01*
X152243591Y-74220780D01*
X152239347Y-74221339D01*
X152239343Y-74221339D01*
X152120302Y-74237011D01*
X151972078Y-74256525D01*
X151967938Y-74257658D01*
X151967936Y-74257658D01*
X151947941Y-74263128D01*
X151707928Y-74328788D01*
X151703980Y-74330472D01*
X151459982Y-74434546D01*
X151459978Y-74434548D01*
X151456030Y-74436232D01*
X151381261Y-74480980D01*
X151224725Y-74574664D01*
X151224721Y-74574667D01*
X151221043Y-74576868D01*
X151007318Y-74748094D01*
X150990717Y-74765588D01*
X150828466Y-74936565D01*
X150818808Y-74946742D01*
X150659002Y-75169136D01*
X150530857Y-75411161D01*
X150529385Y-75415184D01*
X150529383Y-75415188D01*
X150463620Y-75594893D01*
X150436743Y-75668337D01*
X150378404Y-75935907D01*
X150356917Y-76208918D01*
X150372682Y-76482320D01*
X150373507Y-76486525D01*
X150373508Y-76486533D01*
X150393552Y-76588698D01*
X150425405Y-76751053D01*
X150426792Y-76755103D01*
X150426793Y-76755108D01*
X150484511Y-76923687D01*
X150514112Y-77010144D01*
X150516039Y-77013975D01*
X150545219Y-77071993D01*
X150557958Y-77141837D01*
X150530913Y-77207481D01*
X150521749Y-77217702D01*
X148955766Y-78783685D01*
X148943375Y-78794552D01*
X148918013Y-78814013D01*
X148893526Y-78845925D01*
X148893523Y-78845928D01*
X148820476Y-78941124D01*
X148817316Y-78948754D01*
X148765753Y-79073238D01*
X148721205Y-79128519D01*
X148653842Y-79150940D01*
X148585050Y-79133382D01*
X148560249Y-79114115D01*
X147817977Y-78371843D01*
X147783951Y-78309531D01*
X147789016Y-78238716D01*
X147831563Y-78181880D01*
X147875097Y-78160873D01*
X147962127Y-78138041D01*
X147966087Y-78136401D01*
X147966092Y-78136399D01*
X148088631Y-78085641D01*
X148215136Y-78033241D01*
X148421049Y-77912915D01*
X148447879Y-77897237D01*
X148447880Y-77897236D01*
X148451582Y-77895073D01*
X148667089Y-77726094D01*
X148681492Y-77711232D01*
X148854686Y-77532509D01*
X148857669Y-77529431D01*
X148860202Y-77525983D01*
X148860206Y-77525978D01*
X149017257Y-77312178D01*
X149019795Y-77308723D01*
X149047154Y-77258334D01*
X149148418Y-77071830D01*
X149148419Y-77071828D01*
X149150468Y-77068054D01*
X149243127Y-76822838D01*
X149245751Y-76815895D01*
X149245752Y-76815891D01*
X149247269Y-76811877D01*
X149301203Y-76576387D01*
X149307449Y-76549117D01*
X149307450Y-76549113D01*
X149308407Y-76544933D01*
X149310121Y-76525734D01*
X149332531Y-76274627D01*
X149332531Y-76274625D01*
X149332751Y-76272161D01*
X149333193Y-76230000D01*
X149328075Y-76154921D01*
X149314859Y-75961055D01*
X149314858Y-75961049D01*
X149314567Y-75956778D01*
X149310976Y-75939435D01*
X149286799Y-75822695D01*
X149259032Y-75688612D01*
X149167617Y-75430465D01*
X149092853Y-75285613D01*
X149043978Y-75190919D01*
X149043978Y-75190918D01*
X149042013Y-75187112D01*
X149032040Y-75172921D01*
X148949722Y-75055795D01*
X148884545Y-74963057D01*
X148698125Y-74762445D01*
X148694810Y-74759731D01*
X148694806Y-74759728D01*
X148564069Y-74652721D01*
X148486205Y-74588990D01*
X148252704Y-74445901D01*
X148248768Y-74444173D01*
X148005873Y-74337549D01*
X148005869Y-74337548D01*
X148001945Y-74335825D01*
X147738566Y-74260800D01*
X147734324Y-74260196D01*
X147734318Y-74260195D01*
X147500937Y-74226980D01*
X147467443Y-74222213D01*
X147323589Y-74221460D01*
X147197877Y-74220802D01*
X147197871Y-74220802D01*
X147193591Y-74220780D01*
X147189347Y-74221339D01*
X147189343Y-74221339D01*
X147070302Y-74237011D01*
X146922078Y-74256525D01*
X146917938Y-74257658D01*
X146917936Y-74257658D01*
X146897941Y-74263128D01*
X146657928Y-74328788D01*
X146653980Y-74330472D01*
X146409982Y-74434546D01*
X146409978Y-74434548D01*
X146406030Y-74436232D01*
X146331261Y-74480980D01*
X146174725Y-74574664D01*
X146174721Y-74574667D01*
X146171043Y-74576868D01*
X145957318Y-74748094D01*
X145940717Y-74765588D01*
X145778466Y-74936565D01*
X145768808Y-74946742D01*
X145609002Y-75169136D01*
X145480857Y-75411161D01*
X145479385Y-75415184D01*
X145479383Y-75415188D01*
X145444171Y-75511408D01*
X145401976Y-75568506D01*
X145335610Y-75593727D01*
X145266144Y-75579065D01*
X145236750Y-75557201D01*
X140595095Y-70915546D01*
X140561069Y-70853234D01*
X140558880Y-70839622D01*
X140545055Y-70708089D01*
X140545055Y-70708088D01*
X140544365Y-70701525D01*
X140488599Y-70529893D01*
X140398367Y-70373607D01*
X140277613Y-70239496D01*
X140131615Y-70133422D01*
X140125587Y-70130738D01*
X140125585Y-70130737D01*
X139972783Y-70062705D01*
X139972781Y-70062705D01*
X139966752Y-70060020D01*
X139878492Y-70041260D01*
X139796689Y-70023872D01*
X139796685Y-70023872D01*
X139790232Y-70022500D01*
X139609768Y-70022500D01*
X139603315Y-70023872D01*
X139603311Y-70023872D01*
X139521508Y-70041260D01*
X139433248Y-70060020D01*
X139427219Y-70062704D01*
X139427217Y-70062705D01*
X139274416Y-70130737D01*
X139274414Y-70130738D01*
X139268386Y-70133422D01*
X139263045Y-70137302D01*
X139263044Y-70137303D01*
X139127731Y-70235613D01*
X139127729Y-70235615D01*
X139122387Y-70239496D01*
X139001633Y-70373607D01*
X138911401Y-70529893D01*
X138855635Y-70701525D01*
X138836771Y-70881000D01*
X138855635Y-71060475D01*
X138911401Y-71232107D01*
X139001633Y-71388393D01*
X139122387Y-71522504D01*
X139268385Y-71628578D01*
X139274413Y-71631262D01*
X139274415Y-71631263D01*
X139427217Y-71699295D01*
X139433248Y-71701980D01*
X139521508Y-71720740D01*
X139603311Y-71738128D01*
X139603315Y-71738128D01*
X139609768Y-71739500D01*
X139645761Y-71739500D01*
X139713882Y-71759502D01*
X139734856Y-71776405D01*
X144584685Y-76626234D01*
X144595552Y-76638625D01*
X144615013Y-76663987D01*
X144621563Y-76669013D01*
X144646921Y-76688471D01*
X144646928Y-76688477D01*
X144682603Y-76715851D01*
X144742125Y-76761524D01*
X144890150Y-76822838D01*
X145009115Y-76838500D01*
X145009120Y-76838500D01*
X145009129Y-76838501D01*
X145040812Y-76842672D01*
X145049000Y-76843750D01*
X145080693Y-76839578D01*
X145097136Y-76838500D01*
X145315304Y-76838500D01*
X145383425Y-76858502D01*
X145429918Y-76912158D01*
X145434511Y-76923687D01*
X145464112Y-77010144D01*
X145587160Y-77254799D01*
X145589586Y-77258328D01*
X145589589Y-77258334D01*
X145739843Y-77476953D01*
X145742274Y-77480490D01*
X145745161Y-77483663D01*
X145745162Y-77483664D01*
X145885467Y-77637858D01*
X145916519Y-77701704D01*
X145908123Y-77772202D01*
X145862946Y-77826970D01*
X145792273Y-77848657D01*
X145367082Y-77848657D01*
X145298961Y-77828655D01*
X145277987Y-77811752D01*
X139968001Y-72501766D01*
X139957134Y-72489375D01*
X139942699Y-72470563D01*
X139937673Y-72464013D01*
X139905761Y-72439526D01*
X139905758Y-72439523D01*
X139810562Y-72366476D01*
X139662537Y-72305162D01*
X139654350Y-72304084D01*
X139654349Y-72304084D01*
X139643144Y-72302609D01*
X139611948Y-72298502D01*
X139543571Y-72289500D01*
X139543568Y-72289500D01*
X139543560Y-72289499D01*
X139511875Y-72285328D01*
X139503686Y-72284250D01*
X139471993Y-72288422D01*
X139455550Y-72289500D01*
X134265603Y-72289500D01*
X134197482Y-72269498D01*
X134184164Y-72259329D01*
X134181613Y-72256496D01*
X134035615Y-72150422D01*
X134029587Y-72147738D01*
X134029585Y-72147737D01*
X133876783Y-72079705D01*
X133876781Y-72079705D01*
X133870752Y-72077020D01*
X133782492Y-72058260D01*
X133700689Y-72040872D01*
X133700685Y-72040872D01*
X133694232Y-72039500D01*
X133513768Y-72039500D01*
X133507315Y-72040872D01*
X133507311Y-72040872D01*
X133425508Y-72058260D01*
X133337248Y-72077020D01*
X133331219Y-72079704D01*
X133331217Y-72079705D01*
X133178416Y-72147737D01*
X133178414Y-72147738D01*
X133172386Y-72150422D01*
X133167045Y-72154302D01*
X133167044Y-72154303D01*
X133031731Y-72252613D01*
X133031729Y-72252615D01*
X133026387Y-72256496D01*
X133021966Y-72261406D01*
X133021965Y-72261407D01*
X132927361Y-72366476D01*
X132905633Y-72390607D01*
X132815401Y-72546893D01*
X132813359Y-72553178D01*
X132778509Y-72660436D01*
X132738436Y-72719042D01*
X132673039Y-72746679D01*
X132658676Y-72747500D01*
X120483160Y-72747500D01*
X120415039Y-72727498D01*
X120409099Y-72723436D01*
X120324957Y-72662303D01*
X120324956Y-72662302D01*
X120319615Y-72658422D01*
X120313587Y-72655738D01*
X120313585Y-72655737D01*
X120160783Y-72587705D01*
X120160781Y-72587705D01*
X120154752Y-72585020D01*
X120066492Y-72566260D01*
X119984689Y-72548872D01*
X119984685Y-72548872D01*
X119978232Y-72547500D01*
X119797768Y-72547500D01*
X119791315Y-72548872D01*
X119791311Y-72548872D01*
X119709508Y-72566260D01*
X119621248Y-72585020D01*
X119615219Y-72587704D01*
X119615217Y-72587705D01*
X119462416Y-72655737D01*
X119462414Y-72655738D01*
X119456386Y-72658422D01*
X119451045Y-72662302D01*
X119451044Y-72662303D01*
X119315731Y-72760613D01*
X119315729Y-72760615D01*
X119310387Y-72764496D01*
X119189633Y-72898607D01*
X119186332Y-72904325D01*
X119103769Y-73047328D01*
X119099401Y-73054893D01*
X119097359Y-73061178D01*
X119051758Y-73201526D01*
X119043635Y-73226525D01*
X119024771Y-73406000D01*
X103984549Y-73406000D01*
X103842315Y-73263766D01*
X103831448Y-73251375D01*
X103817013Y-73232563D01*
X103811987Y-73226013D01*
X103780075Y-73201526D01*
X103780072Y-73201523D01*
X103684876Y-73128476D01*
X103536851Y-73067162D01*
X103528664Y-73066084D01*
X103528663Y-73066084D01*
X103517458Y-73064609D01*
X103486262Y-73060502D01*
X103417885Y-73051500D01*
X103417882Y-73051500D01*
X103417874Y-73051499D01*
X103386189Y-73047328D01*
X103378000Y-73046250D01*
X103346307Y-73050422D01*
X103329864Y-73051500D01*
X102515603Y-73051500D01*
X102447482Y-73031498D01*
X102434164Y-73021329D01*
X102431613Y-73018496D01*
X102285615Y-72912422D01*
X102279587Y-72909738D01*
X102279585Y-72909737D01*
X102126783Y-72841705D01*
X102126781Y-72841705D01*
X102120752Y-72839020D01*
X102032492Y-72820260D01*
X101950689Y-72802872D01*
X101950685Y-72802872D01*
X101944232Y-72801500D01*
X101763768Y-72801500D01*
X101757315Y-72802872D01*
X101757311Y-72802872D01*
X101675508Y-72820260D01*
X101587248Y-72839020D01*
X101581219Y-72841704D01*
X101581217Y-72841705D01*
X101428416Y-72909737D01*
X101428414Y-72909738D01*
X101422386Y-72912422D01*
X101417045Y-72916302D01*
X101417044Y-72916303D01*
X101281731Y-73014613D01*
X101281729Y-73014615D01*
X101276387Y-73018496D01*
X101271966Y-73023406D01*
X101271965Y-73023407D01*
X101177361Y-73128476D01*
X101155633Y-73152607D01*
X101065401Y-73308893D01*
X101009635Y-73480525D01*
X101008945Y-73487088D01*
X101008945Y-73487089D01*
X101003503Y-73538863D01*
X100990771Y-73660000D01*
X100076500Y-73660000D01*
X100076500Y-68198500D01*
X100096502Y-68130379D01*
X100150158Y-68083886D01*
X100202500Y-68072500D01*
X165989500Y-68072500D01*
X166057621Y-68092502D01*
G37*
G04 #@! TD.AperFunction*
G04 #@! TA.AperFunction,Conductor*
G36*
X103888192Y-75040265D02*
G01*
X103921693Y-75064242D01*
X104862095Y-76004644D01*
X104896121Y-76066956D01*
X104899000Y-76093739D01*
X104899000Y-77827000D01*
X104878998Y-77895121D01*
X104825342Y-77941614D01*
X104773000Y-77953000D01*
X104517000Y-77953000D01*
X104448879Y-77932998D01*
X104402386Y-77879342D01*
X104391000Y-77827000D01*
X104391000Y-76015115D01*
X104386525Y-75999876D01*
X104385135Y-75998671D01*
X104377452Y-75997000D01*
X103849553Y-75997000D01*
X103843178Y-75997323D01*
X103707723Y-76011082D01*
X103695294Y-76013633D01*
X103692185Y-76014608D01*
X103690388Y-76014641D01*
X103689032Y-76014919D01*
X103688980Y-76014666D01*
X103621200Y-76015895D01*
X103560787Y-75978601D01*
X103530128Y-75914565D01*
X103528500Y-75894375D01*
X103528500Y-75530036D01*
X103548502Y-75461915D01*
X103560858Y-75445733D01*
X103568367Y-75437393D01*
X103658599Y-75281107D01*
X103668667Y-75250120D01*
X103712765Y-75114401D01*
X103752838Y-75055795D01*
X103818235Y-75028158D01*
X103888192Y-75040265D01*
G37*
G04 #@! TD.AperFunction*
M02*
