G04 #@! TF.GenerationSoftware,KiCad,Pcbnew,6.0.6*
G04 #@! TF.CreationDate,2022-07-17T12:38:06-07:00*
G04 #@! TF.ProjectId,ultimate-uart-bridge,756c7469-6d61-4746-952d-756172742d62,rev?*
G04 #@! TF.SameCoordinates,Original*
G04 #@! TF.FileFunction,Legend,Bot*
G04 #@! TF.FilePolarity,Positive*
%FSLAX46Y46*%
G04 Gerber Fmt 4.6, Leading zero omitted, Abs format (unit mm)*
G04 Created by KiCad (PCBNEW 6.0.6) date 2022-07-17 12:38:06*
%MOMM*%
%LPD*%
G01*
G04 APERTURE LIST*
%ADD10C,0.150000*%
%ADD11C,0.050000*%
%ADD12C,0.120000*%
%ADD13C,3.000000*%
%ADD14C,0.700000*%
%ADD15O,2.400000X0.900000*%
%ADD16O,1.700000X0.900000*%
G04 APERTURE END LIST*
D10*
X164812023Y-87799904D02*
X164812023Y-88447523D01*
X164773928Y-88523714D01*
X164735833Y-88561809D01*
X164659642Y-88599904D01*
X164507261Y-88599904D01*
X164431071Y-88561809D01*
X164392976Y-88523714D01*
X164354880Y-88447523D01*
X164354880Y-87799904D01*
X163859642Y-88599904D02*
X163935833Y-88561809D01*
X163973928Y-88485619D01*
X163973928Y-87799904D01*
X163669166Y-88066571D02*
X163364404Y-88066571D01*
X163554880Y-87799904D02*
X163554880Y-88485619D01*
X163516785Y-88561809D01*
X163440595Y-88599904D01*
X163364404Y-88599904D01*
X163097738Y-88599904D02*
X163097738Y-88066571D01*
X163097738Y-87799904D02*
X163135833Y-87838000D01*
X163097738Y-87876095D01*
X163059642Y-87838000D01*
X163097738Y-87799904D01*
X163097738Y-87876095D01*
X162716785Y-88599904D02*
X162716785Y-88066571D01*
X162716785Y-88142761D02*
X162678690Y-88104666D01*
X162602500Y-88066571D01*
X162488214Y-88066571D01*
X162412023Y-88104666D01*
X162373928Y-88180857D01*
X162373928Y-88599904D01*
X162373928Y-88180857D02*
X162335833Y-88104666D01*
X162259642Y-88066571D01*
X162145357Y-88066571D01*
X162069166Y-88104666D01*
X162031071Y-88180857D01*
X162031071Y-88599904D01*
X161307261Y-88599904D02*
X161307261Y-88180857D01*
X161345357Y-88104666D01*
X161421547Y-88066571D01*
X161573928Y-88066571D01*
X161650119Y-88104666D01*
X161307261Y-88561809D02*
X161383452Y-88599904D01*
X161573928Y-88599904D01*
X161650119Y-88561809D01*
X161688214Y-88485619D01*
X161688214Y-88409428D01*
X161650119Y-88333238D01*
X161573928Y-88295142D01*
X161383452Y-88295142D01*
X161307261Y-88257047D01*
X161040595Y-88066571D02*
X160735833Y-88066571D01*
X160926309Y-87799904D02*
X160926309Y-88485619D01*
X160888214Y-88561809D01*
X160812023Y-88599904D01*
X160735833Y-88599904D01*
X160164404Y-88561809D02*
X160240595Y-88599904D01*
X160392976Y-88599904D01*
X160469166Y-88561809D01*
X160507261Y-88485619D01*
X160507261Y-88180857D01*
X160469166Y-88104666D01*
X160392976Y-88066571D01*
X160240595Y-88066571D01*
X160164404Y-88104666D01*
X160126309Y-88180857D01*
X160126309Y-88257047D01*
X160507261Y-88333238D01*
X159173928Y-87799904D02*
X159173928Y-88447523D01*
X159135833Y-88523714D01*
X159097738Y-88561809D01*
X159021547Y-88599904D01*
X158869166Y-88599904D01*
X158792976Y-88561809D01*
X158754880Y-88523714D01*
X158716785Y-88447523D01*
X158716785Y-87799904D01*
X158373928Y-88371333D02*
X157992976Y-88371333D01*
X158450119Y-88599904D02*
X158183452Y-87799904D01*
X157916785Y-88599904D01*
X157192976Y-88599904D02*
X157459642Y-88218952D01*
X157650119Y-88599904D02*
X157650119Y-87799904D01*
X157345357Y-87799904D01*
X157269166Y-87838000D01*
X157231071Y-87876095D01*
X157192976Y-87952285D01*
X157192976Y-88066571D01*
X157231071Y-88142761D01*
X157269166Y-88180857D01*
X157345357Y-88218952D01*
X157650119Y-88218952D01*
X156964404Y-87799904D02*
X156507261Y-87799904D01*
X156735833Y-88599904D02*
X156735833Y-87799904D01*
X155364404Y-88180857D02*
X155250119Y-88218952D01*
X155212023Y-88257047D01*
X155173928Y-88333238D01*
X155173928Y-88447523D01*
X155212023Y-88523714D01*
X155250119Y-88561809D01*
X155326309Y-88599904D01*
X155631071Y-88599904D01*
X155631071Y-87799904D01*
X155364404Y-87799904D01*
X155288214Y-87838000D01*
X155250119Y-87876095D01*
X155212023Y-87952285D01*
X155212023Y-88028476D01*
X155250119Y-88104666D01*
X155288214Y-88142761D01*
X155364404Y-88180857D01*
X155631071Y-88180857D01*
X154831071Y-88599904D02*
X154831071Y-88066571D01*
X154831071Y-88218952D02*
X154792976Y-88142761D01*
X154754880Y-88104666D01*
X154678690Y-88066571D01*
X154602500Y-88066571D01*
X154335833Y-88599904D02*
X154335833Y-88066571D01*
X154335833Y-87799904D02*
X154373928Y-87838000D01*
X154335833Y-87876095D01*
X154297738Y-87838000D01*
X154335833Y-87799904D01*
X154335833Y-87876095D01*
X153612023Y-88599904D02*
X153612023Y-87799904D01*
X153612023Y-88561809D02*
X153688214Y-88599904D01*
X153840595Y-88599904D01*
X153916785Y-88561809D01*
X153954880Y-88523714D01*
X153992976Y-88447523D01*
X153992976Y-88218952D01*
X153954880Y-88142761D01*
X153916785Y-88104666D01*
X153840595Y-88066571D01*
X153688214Y-88066571D01*
X153612023Y-88104666D01*
X152888214Y-88066571D02*
X152888214Y-88714190D01*
X152926309Y-88790380D01*
X152964404Y-88828476D01*
X153040595Y-88866571D01*
X153154880Y-88866571D01*
X153231071Y-88828476D01*
X152888214Y-88561809D02*
X152964404Y-88599904D01*
X153116785Y-88599904D01*
X153192976Y-88561809D01*
X153231071Y-88523714D01*
X153269166Y-88447523D01*
X153269166Y-88218952D01*
X153231071Y-88142761D01*
X153192976Y-88104666D01*
X153116785Y-88066571D01*
X152964404Y-88066571D01*
X152888214Y-88104666D01*
X152202500Y-88561809D02*
X152278690Y-88599904D01*
X152431071Y-88599904D01*
X152507261Y-88561809D01*
X152545357Y-88485619D01*
X152545357Y-88180857D01*
X152507261Y-88104666D01*
X152431071Y-88066571D01*
X152278690Y-88066571D01*
X152202500Y-88104666D01*
X152164404Y-88180857D01*
X152164404Y-88257047D01*
X152545357Y-88333238D01*
X151326309Y-87799904D02*
X151059642Y-88599904D01*
X150792976Y-87799904D01*
X150107261Y-88599904D02*
X150564404Y-88599904D01*
X150335833Y-88599904D02*
X150335833Y-87799904D01*
X150412023Y-87914190D01*
X150488214Y-87990380D01*
X150564404Y-88028476D01*
X164583452Y-89087904D02*
X164583452Y-89659333D01*
X164621547Y-89773619D01*
X164697738Y-89849809D01*
X164812023Y-89887904D01*
X164888214Y-89887904D01*
X163859642Y-89354571D02*
X163859642Y-89887904D01*
X164202500Y-89354571D02*
X164202500Y-89773619D01*
X164164404Y-89849809D01*
X164088214Y-89887904D01*
X163973928Y-89887904D01*
X163897738Y-89849809D01*
X163859642Y-89811714D01*
X163364404Y-89887904D02*
X163440595Y-89849809D01*
X163478690Y-89773619D01*
X163478690Y-89087904D01*
X163135833Y-89354571D02*
X162945357Y-89887904D01*
X162754880Y-89354571D02*
X162945357Y-89887904D01*
X163021547Y-90078380D01*
X163059642Y-90116476D01*
X163135833Y-90154571D01*
X161878690Y-89164095D02*
X161840595Y-89126000D01*
X161764404Y-89087904D01*
X161573928Y-89087904D01*
X161497738Y-89126000D01*
X161459642Y-89164095D01*
X161421547Y-89240285D01*
X161421547Y-89316476D01*
X161459642Y-89430761D01*
X161916785Y-89887904D01*
X161421547Y-89887904D01*
X160926309Y-89087904D02*
X160850119Y-89087904D01*
X160773928Y-89126000D01*
X160735833Y-89164095D01*
X160697738Y-89240285D01*
X160659642Y-89392666D01*
X160659642Y-89583142D01*
X160697738Y-89735523D01*
X160735833Y-89811714D01*
X160773928Y-89849809D01*
X160850119Y-89887904D01*
X160926309Y-89887904D01*
X161002500Y-89849809D01*
X161040595Y-89811714D01*
X161078690Y-89735523D01*
X161116785Y-89583142D01*
X161116785Y-89392666D01*
X161078690Y-89240285D01*
X161040595Y-89164095D01*
X161002500Y-89126000D01*
X160926309Y-89087904D01*
X160354880Y-89164095D02*
X160316785Y-89126000D01*
X160240595Y-89087904D01*
X160050119Y-89087904D01*
X159973928Y-89126000D01*
X159935833Y-89164095D01*
X159897738Y-89240285D01*
X159897738Y-89316476D01*
X159935833Y-89430761D01*
X160392976Y-89887904D01*
X159897738Y-89887904D01*
X159592976Y-89164095D02*
X159554880Y-89126000D01*
X159478690Y-89087904D01*
X159288214Y-89087904D01*
X159212023Y-89126000D01*
X159173928Y-89164095D01*
X159135833Y-89240285D01*
X159135833Y-89316476D01*
X159173928Y-89430761D01*
X159631071Y-89887904D01*
X159135833Y-89887904D01*
X164926309Y-90375904D02*
X164469166Y-90375904D01*
X164697738Y-91175904D02*
X164697738Y-90375904D01*
X164202500Y-91175904D02*
X164202500Y-90375904D01*
X163859642Y-91175904D02*
X163859642Y-90756857D01*
X163897738Y-90680666D01*
X163973928Y-90642571D01*
X164088214Y-90642571D01*
X164164404Y-90680666D01*
X164202500Y-90718761D01*
X163364404Y-91175904D02*
X163440595Y-91137809D01*
X163478690Y-91099714D01*
X163516785Y-91023523D01*
X163516785Y-90794952D01*
X163478690Y-90718761D01*
X163440595Y-90680666D01*
X163364404Y-90642571D01*
X163250119Y-90642571D01*
X163173928Y-90680666D01*
X163135833Y-90718761D01*
X163097738Y-90794952D01*
X163097738Y-91023523D01*
X163135833Y-91099714D01*
X163173928Y-91137809D01*
X163250119Y-91175904D01*
X163364404Y-91175904D01*
X162754880Y-91175904D02*
X162754880Y-90642571D01*
X162754880Y-90718761D02*
X162716785Y-90680666D01*
X162640595Y-90642571D01*
X162526309Y-90642571D01*
X162450119Y-90680666D01*
X162412023Y-90756857D01*
X162412023Y-91175904D01*
X162412023Y-90756857D02*
X162373928Y-90680666D01*
X162297738Y-90642571D01*
X162183452Y-90642571D01*
X162107261Y-90680666D01*
X162069166Y-90756857D01*
X162069166Y-91175904D01*
X161345357Y-91175904D02*
X161345357Y-90756857D01*
X161383452Y-90680666D01*
X161459642Y-90642571D01*
X161612023Y-90642571D01*
X161688214Y-90680666D01*
X161345357Y-91137809D02*
X161421547Y-91175904D01*
X161612023Y-91175904D01*
X161688214Y-91137809D01*
X161726309Y-91061619D01*
X161726309Y-90985428D01*
X161688214Y-90909238D01*
X161612023Y-90871142D01*
X161421547Y-90871142D01*
X161345357Y-90833047D01*
X161002500Y-91137809D02*
X160926309Y-91175904D01*
X160773928Y-91175904D01*
X160697738Y-91137809D01*
X160659642Y-91061619D01*
X160659642Y-91023523D01*
X160697738Y-90947333D01*
X160773928Y-90909238D01*
X160888214Y-90909238D01*
X160964404Y-90871142D01*
X161002500Y-90794952D01*
X161002500Y-90756857D01*
X160964404Y-90680666D01*
X160888214Y-90642571D01*
X160773928Y-90642571D01*
X160697738Y-90680666D01*
X159440595Y-90756857D02*
X159707261Y-90756857D01*
X159707261Y-91175904D02*
X159707261Y-90375904D01*
X159326309Y-90375904D01*
X159021547Y-91175904D02*
X159021547Y-90642571D01*
X159021547Y-90375904D02*
X159059642Y-90414000D01*
X159021547Y-90452095D01*
X158983452Y-90414000D01*
X159021547Y-90375904D01*
X159021547Y-90452095D01*
X158640595Y-91175904D02*
X158640595Y-90375904D01*
X158564404Y-90871142D02*
X158335833Y-91175904D01*
X158335833Y-90642571D02*
X158640595Y-90947333D01*
X157688214Y-91137809D02*
X157764404Y-91175904D01*
X157916785Y-91175904D01*
X157992976Y-91137809D01*
X158031071Y-91061619D01*
X158031071Y-90756857D01*
X157992976Y-90680666D01*
X157916785Y-90642571D01*
X157764404Y-90642571D01*
X157688214Y-90680666D01*
X157650119Y-90756857D01*
X157650119Y-90833047D01*
X158031071Y-90909238D01*
X164812023Y-92463904D02*
X164812023Y-91663904D01*
X164469166Y-92463904D02*
X164469166Y-92044857D01*
X164507261Y-91968666D01*
X164583452Y-91930571D01*
X164697738Y-91930571D01*
X164773928Y-91968666D01*
X164812023Y-92006761D01*
X164202500Y-91930571D02*
X163897738Y-91930571D01*
X164088214Y-91663904D02*
X164088214Y-92349619D01*
X164050119Y-92425809D01*
X163973928Y-92463904D01*
X163897738Y-92463904D01*
X163745357Y-91930571D02*
X163440595Y-91930571D01*
X163631071Y-91663904D02*
X163631071Y-92349619D01*
X163592976Y-92425809D01*
X163516785Y-92463904D01*
X163440595Y-92463904D01*
X163173928Y-91930571D02*
X163173928Y-92730571D01*
X163173928Y-91968666D02*
X163097738Y-91930571D01*
X162945357Y-91930571D01*
X162869166Y-91968666D01*
X162831071Y-92006761D01*
X162792976Y-92082952D01*
X162792976Y-92311523D01*
X162831071Y-92387714D01*
X162869166Y-92425809D01*
X162945357Y-92463904D01*
X163097738Y-92463904D01*
X163173928Y-92425809D01*
X162488214Y-92425809D02*
X162412023Y-92463904D01*
X162259642Y-92463904D01*
X162183452Y-92425809D01*
X162145357Y-92349619D01*
X162145357Y-92311523D01*
X162183452Y-92235333D01*
X162259642Y-92197238D01*
X162373928Y-92197238D01*
X162450119Y-92159142D01*
X162488214Y-92082952D01*
X162488214Y-92044857D01*
X162450119Y-91968666D01*
X162373928Y-91930571D01*
X162259642Y-91930571D01*
X162183452Y-91968666D01*
X161802500Y-92387714D02*
X161764404Y-92425809D01*
X161802500Y-92463904D01*
X161840595Y-92425809D01*
X161802500Y-92387714D01*
X161802500Y-92463904D01*
X161802500Y-91968666D02*
X161764404Y-92006761D01*
X161802500Y-92044857D01*
X161840595Y-92006761D01*
X161802500Y-91968666D01*
X161802500Y-92044857D01*
X160850119Y-91625809D02*
X161535833Y-92654380D01*
X160012023Y-91625809D02*
X160697738Y-92654380D01*
X159402500Y-91930571D02*
X159402500Y-92578190D01*
X159440595Y-92654380D01*
X159478690Y-92692476D01*
X159554880Y-92730571D01*
X159669166Y-92730571D01*
X159745357Y-92692476D01*
X159402500Y-92425809D02*
X159478690Y-92463904D01*
X159631071Y-92463904D01*
X159707261Y-92425809D01*
X159745357Y-92387714D01*
X159783452Y-92311523D01*
X159783452Y-92082952D01*
X159745357Y-92006761D01*
X159707261Y-91968666D01*
X159631071Y-91930571D01*
X159478690Y-91930571D01*
X159402500Y-91968666D01*
X159021547Y-92463904D02*
X159021547Y-91930571D01*
X159021547Y-91663904D02*
X159059642Y-91702000D01*
X159021547Y-91740095D01*
X158983452Y-91702000D01*
X159021547Y-91663904D01*
X159021547Y-91740095D01*
X158754880Y-91930571D02*
X158450119Y-91930571D01*
X158640595Y-91663904D02*
X158640595Y-92349619D01*
X158602500Y-92425809D01*
X158526309Y-92463904D01*
X158450119Y-92463904D01*
X158183452Y-92463904D02*
X158183452Y-91663904D01*
X157840595Y-92463904D02*
X157840595Y-92044857D01*
X157878690Y-91968666D01*
X157954880Y-91930571D01*
X158069166Y-91930571D01*
X158145357Y-91968666D01*
X158183452Y-92006761D01*
X157116785Y-91930571D02*
X157116785Y-92463904D01*
X157459642Y-91930571D02*
X157459642Y-92349619D01*
X157421547Y-92425809D01*
X157345357Y-92463904D01*
X157231071Y-92463904D01*
X157154880Y-92425809D01*
X157116785Y-92387714D01*
X156735833Y-92463904D02*
X156735833Y-91663904D01*
X156735833Y-91968666D02*
X156659642Y-91930571D01*
X156507261Y-91930571D01*
X156431071Y-91968666D01*
X156392976Y-92006761D01*
X156354880Y-92082952D01*
X156354880Y-92311523D01*
X156392976Y-92387714D01*
X156431071Y-92425809D01*
X156507261Y-92463904D01*
X156659642Y-92463904D01*
X156735833Y-92425809D01*
X156012023Y-92387714D02*
X155973928Y-92425809D01*
X156012023Y-92463904D01*
X156050119Y-92425809D01*
X156012023Y-92387714D01*
X156012023Y-92463904D01*
X155288214Y-92425809D02*
X155364404Y-92463904D01*
X155516785Y-92463904D01*
X155592976Y-92425809D01*
X155631071Y-92387714D01*
X155669166Y-92311523D01*
X155669166Y-92082952D01*
X155631071Y-92006761D01*
X155592976Y-91968666D01*
X155516785Y-91930571D01*
X155364404Y-91930571D01*
X155288214Y-91968666D01*
X154831071Y-92463904D02*
X154907261Y-92425809D01*
X154945357Y-92387714D01*
X154983452Y-92311523D01*
X154983452Y-92082952D01*
X154945357Y-92006761D01*
X154907261Y-91968666D01*
X154831071Y-91930571D01*
X154716785Y-91930571D01*
X154640595Y-91968666D01*
X154602500Y-92006761D01*
X154564404Y-92082952D01*
X154564404Y-92311523D01*
X154602500Y-92387714D01*
X154640595Y-92425809D01*
X154716785Y-92463904D01*
X154831071Y-92463904D01*
X154221547Y-92463904D02*
X154221547Y-91930571D01*
X154221547Y-92006761D02*
X154183452Y-91968666D01*
X154107261Y-91930571D01*
X153992976Y-91930571D01*
X153916785Y-91968666D01*
X153878690Y-92044857D01*
X153878690Y-92463904D01*
X153878690Y-92044857D02*
X153840595Y-91968666D01*
X153764404Y-91930571D01*
X153650119Y-91930571D01*
X153573928Y-91968666D01*
X153535833Y-92044857D01*
X153535833Y-92463904D01*
X152583452Y-91625809D02*
X153269166Y-92654380D01*
X152431071Y-91663904D02*
X151973928Y-91663904D01*
X152202500Y-92463904D02*
X152202500Y-91663904D01*
X151707261Y-92463904D02*
X151707261Y-91663904D01*
X151364404Y-92463904D02*
X151364404Y-92044857D01*
X151402500Y-91968666D01*
X151478690Y-91930571D01*
X151592976Y-91930571D01*
X151669166Y-91968666D01*
X151707261Y-92006761D01*
X150869166Y-92463904D02*
X150945357Y-92425809D01*
X150983452Y-92387714D01*
X151021547Y-92311523D01*
X151021547Y-92082952D01*
X150983452Y-92006761D01*
X150945357Y-91968666D01*
X150869166Y-91930571D01*
X150754880Y-91930571D01*
X150678690Y-91968666D01*
X150640595Y-92006761D01*
X150602500Y-92082952D01*
X150602500Y-92311523D01*
X150640595Y-92387714D01*
X150678690Y-92425809D01*
X150754880Y-92463904D01*
X150869166Y-92463904D01*
X150259642Y-92463904D02*
X150259642Y-91930571D01*
X150259642Y-92006761D02*
X150221547Y-91968666D01*
X150145357Y-91930571D01*
X150031071Y-91930571D01*
X149954880Y-91968666D01*
X149916785Y-92044857D01*
X149916785Y-92463904D01*
X149916785Y-92044857D02*
X149878690Y-91968666D01*
X149802500Y-91930571D01*
X149688214Y-91930571D01*
X149612023Y-91968666D01*
X149573928Y-92044857D01*
X149573928Y-92463904D01*
X148850119Y-92463904D02*
X148850119Y-92044857D01*
X148888214Y-91968666D01*
X148964404Y-91930571D01*
X149116785Y-91930571D01*
X149192976Y-91968666D01*
X148850119Y-92425809D02*
X148926309Y-92463904D01*
X149116785Y-92463904D01*
X149192976Y-92425809D01*
X149231071Y-92349619D01*
X149231071Y-92273428D01*
X149192976Y-92197238D01*
X149116785Y-92159142D01*
X148926309Y-92159142D01*
X148850119Y-92121047D01*
X148507261Y-92425809D02*
X148431071Y-92463904D01*
X148278690Y-92463904D01*
X148202500Y-92425809D01*
X148164404Y-92349619D01*
X148164404Y-92311523D01*
X148202500Y-92235333D01*
X148278690Y-92197238D01*
X148392976Y-92197238D01*
X148469166Y-92159142D01*
X148507261Y-92082952D01*
X148507261Y-92044857D01*
X148469166Y-91968666D01*
X148392976Y-91930571D01*
X148278690Y-91930571D01*
X148202500Y-91968666D01*
X147554880Y-92044857D02*
X147821547Y-92044857D01*
X147821547Y-92463904D02*
X147821547Y-91663904D01*
X147440595Y-91663904D01*
X147135833Y-92463904D02*
X147135833Y-91930571D01*
X147135833Y-91663904D02*
X147173928Y-91702000D01*
X147135833Y-91740095D01*
X147097738Y-91702000D01*
X147135833Y-91663904D01*
X147135833Y-91740095D01*
X146754880Y-92463904D02*
X146754880Y-91663904D01*
X146678690Y-92159142D02*
X146450119Y-92463904D01*
X146450119Y-91930571D02*
X146754880Y-92235333D01*
X145802500Y-92425809D02*
X145878690Y-92463904D01*
X146031071Y-92463904D01*
X146107261Y-92425809D01*
X146145357Y-92349619D01*
X146145357Y-92044857D01*
X146107261Y-91968666D01*
X146031071Y-91930571D01*
X145878690Y-91930571D01*
X145802500Y-91968666D01*
X145764404Y-92044857D01*
X145764404Y-92121047D01*
X146145357Y-92197238D01*
X144850119Y-91625809D02*
X145535833Y-92654380D01*
X144240595Y-91930571D02*
X144240595Y-92463904D01*
X144583452Y-91930571D02*
X144583452Y-92349619D01*
X144545357Y-92425809D01*
X144469166Y-92463904D01*
X144354880Y-92463904D01*
X144278690Y-92425809D01*
X144240595Y-92387714D01*
X143745357Y-92463904D02*
X143821547Y-92425809D01*
X143859642Y-92349619D01*
X143859642Y-91663904D01*
X143554880Y-91930571D02*
X143250119Y-91930571D01*
X143440595Y-91663904D02*
X143440595Y-92349619D01*
X143402500Y-92425809D01*
X143326309Y-92463904D01*
X143250119Y-92463904D01*
X142983452Y-92463904D02*
X142983452Y-91930571D01*
X142983452Y-91663904D02*
X143021547Y-91702000D01*
X142983452Y-91740095D01*
X142945357Y-91702000D01*
X142983452Y-91663904D01*
X142983452Y-91740095D01*
X142602500Y-92463904D02*
X142602500Y-91930571D01*
X142602500Y-92006761D02*
X142564404Y-91968666D01*
X142488214Y-91930571D01*
X142373928Y-91930571D01*
X142297738Y-91968666D01*
X142259642Y-92044857D01*
X142259642Y-92463904D01*
X142259642Y-92044857D02*
X142221547Y-91968666D01*
X142145357Y-91930571D01*
X142031071Y-91930571D01*
X141954880Y-91968666D01*
X141916785Y-92044857D01*
X141916785Y-92463904D01*
X141192976Y-92463904D02*
X141192976Y-92044857D01*
X141231071Y-91968666D01*
X141307261Y-91930571D01*
X141459642Y-91930571D01*
X141535833Y-91968666D01*
X141192976Y-92425809D02*
X141269166Y-92463904D01*
X141459642Y-92463904D01*
X141535833Y-92425809D01*
X141573928Y-92349619D01*
X141573928Y-92273428D01*
X141535833Y-92197238D01*
X141459642Y-92159142D01*
X141269166Y-92159142D01*
X141192976Y-92121047D01*
X140926309Y-91930571D02*
X140621547Y-91930571D01*
X140812023Y-91663904D02*
X140812023Y-92349619D01*
X140773928Y-92425809D01*
X140697738Y-92463904D01*
X140621547Y-92463904D01*
X140050119Y-92425809D02*
X140126309Y-92463904D01*
X140278690Y-92463904D01*
X140354880Y-92425809D01*
X140392976Y-92349619D01*
X140392976Y-92044857D01*
X140354880Y-91968666D01*
X140278690Y-91930571D01*
X140126309Y-91930571D01*
X140050119Y-91968666D01*
X140012023Y-92044857D01*
X140012023Y-92121047D01*
X140392976Y-92197238D01*
X139669166Y-92159142D02*
X139059642Y-92159142D01*
X138335833Y-91930571D02*
X138335833Y-92463904D01*
X138678690Y-91930571D02*
X138678690Y-92349619D01*
X138640595Y-92425809D01*
X138564404Y-92463904D01*
X138450119Y-92463904D01*
X138373928Y-92425809D01*
X138335833Y-92387714D01*
X137612023Y-92463904D02*
X137612023Y-92044857D01*
X137650119Y-91968666D01*
X137726309Y-91930571D01*
X137878690Y-91930571D01*
X137954880Y-91968666D01*
X137612023Y-92425809D02*
X137688214Y-92463904D01*
X137878690Y-92463904D01*
X137954880Y-92425809D01*
X137992976Y-92349619D01*
X137992976Y-92273428D01*
X137954880Y-92197238D01*
X137878690Y-92159142D01*
X137688214Y-92159142D01*
X137612023Y-92121047D01*
X137231071Y-92463904D02*
X137231071Y-91930571D01*
X137231071Y-92082952D02*
X137192976Y-92006761D01*
X137154880Y-91968666D01*
X137078690Y-91930571D01*
X137002500Y-91930571D01*
X136850119Y-91930571D02*
X136545357Y-91930571D01*
X136735833Y-91663904D02*
X136735833Y-92349619D01*
X136697738Y-92425809D01*
X136621547Y-92463904D01*
X136545357Y-92463904D01*
X136278690Y-92159142D02*
X135669166Y-92159142D01*
X135288214Y-92463904D02*
X135288214Y-91663904D01*
X135288214Y-91968666D02*
X135212023Y-91930571D01*
X135059642Y-91930571D01*
X134983452Y-91968666D01*
X134945357Y-92006761D01*
X134907261Y-92082952D01*
X134907261Y-92311523D01*
X134945357Y-92387714D01*
X134983452Y-92425809D01*
X135059642Y-92463904D01*
X135212023Y-92463904D01*
X135288214Y-92425809D01*
X134564404Y-92463904D02*
X134564404Y-91930571D01*
X134564404Y-92082952D02*
X134526309Y-92006761D01*
X134488214Y-91968666D01*
X134412023Y-91930571D01*
X134335833Y-91930571D01*
X134069166Y-92463904D02*
X134069166Y-91930571D01*
X134069166Y-91663904D02*
X134107261Y-91702000D01*
X134069166Y-91740095D01*
X134031071Y-91702000D01*
X134069166Y-91663904D01*
X134069166Y-91740095D01*
X133345357Y-92463904D02*
X133345357Y-91663904D01*
X133345357Y-92425809D02*
X133421547Y-92463904D01*
X133573928Y-92463904D01*
X133650119Y-92425809D01*
X133688214Y-92387714D01*
X133726309Y-92311523D01*
X133726309Y-92082952D01*
X133688214Y-92006761D01*
X133650119Y-91968666D01*
X133573928Y-91930571D01*
X133421547Y-91930571D01*
X133345357Y-91968666D01*
X132621547Y-91930571D02*
X132621547Y-92578190D01*
X132659642Y-92654380D01*
X132697738Y-92692476D01*
X132773928Y-92730571D01*
X132888214Y-92730571D01*
X132964404Y-92692476D01*
X132621547Y-92425809D02*
X132697738Y-92463904D01*
X132850119Y-92463904D01*
X132926309Y-92425809D01*
X132964404Y-92387714D01*
X133002500Y-92311523D01*
X133002500Y-92082952D01*
X132964404Y-92006761D01*
X132926309Y-91968666D01*
X132850119Y-91930571D01*
X132697738Y-91930571D01*
X132621547Y-91968666D01*
X131935833Y-92425809D02*
X132012023Y-92463904D01*
X132164404Y-92463904D01*
X132240595Y-92425809D01*
X132278690Y-92349619D01*
X132278690Y-92044857D01*
X132240595Y-91968666D01*
X132164404Y-91930571D01*
X132012023Y-91930571D01*
X131935833Y-91968666D01*
X131897738Y-92044857D01*
X131897738Y-92121047D01*
X132278690Y-92197238D01*
D11*
X109105238Y-91001904D02*
X109105238Y-91573333D01*
X109143333Y-91687619D01*
X109219523Y-91763809D01*
X109333809Y-91801904D01*
X109410000Y-91801904D01*
X108343333Y-91801904D02*
X108724285Y-91801904D01*
X108724285Y-91001904D01*
X107619523Y-91725714D02*
X107657619Y-91763809D01*
X107771904Y-91801904D01*
X107848095Y-91801904D01*
X107962380Y-91763809D01*
X108038571Y-91687619D01*
X108076666Y-91611428D01*
X108114761Y-91459047D01*
X108114761Y-91344761D01*
X108076666Y-91192380D01*
X108038571Y-91116190D01*
X107962380Y-91040000D01*
X107848095Y-91001904D01*
X107771904Y-91001904D01*
X107657619Y-91040000D01*
X107619523Y-91078095D01*
X107048095Y-91001904D02*
X107048095Y-91573333D01*
X107086190Y-91687619D01*
X107162380Y-91763809D01*
X107276666Y-91801904D01*
X107352857Y-91801904D01*
X106286190Y-91801904D02*
X106667142Y-91801904D01*
X106667142Y-91001904D01*
X105562380Y-91725714D02*
X105600476Y-91763809D01*
X105714761Y-91801904D01*
X105790952Y-91801904D01*
X105905238Y-91763809D01*
X105981428Y-91687619D01*
X106019523Y-91611428D01*
X106057619Y-91459047D01*
X106057619Y-91344761D01*
X106019523Y-91192380D01*
X105981428Y-91116190D01*
X105905238Y-91040000D01*
X105790952Y-91001904D01*
X105714761Y-91001904D01*
X105600476Y-91040000D01*
X105562380Y-91078095D01*
X104990952Y-91001904D02*
X104990952Y-91573333D01*
X105029047Y-91687619D01*
X105105238Y-91763809D01*
X105219523Y-91801904D01*
X105295714Y-91801904D01*
X104229047Y-91801904D02*
X104610000Y-91801904D01*
X104610000Y-91001904D01*
X103505238Y-91725714D02*
X103543333Y-91763809D01*
X103657619Y-91801904D01*
X103733809Y-91801904D01*
X103848095Y-91763809D01*
X103924285Y-91687619D01*
X103962380Y-91611428D01*
X104000476Y-91459047D01*
X104000476Y-91344761D01*
X103962380Y-91192380D01*
X103924285Y-91116190D01*
X103848095Y-91040000D01*
X103733809Y-91001904D01*
X103657619Y-91001904D01*
X103543333Y-91040000D01*
X103505238Y-91078095D01*
X102933809Y-91001904D02*
X102933809Y-91573333D01*
X102971904Y-91687619D01*
X103048095Y-91763809D01*
X103162380Y-91801904D01*
X103238571Y-91801904D01*
X102171904Y-91801904D02*
X102552857Y-91801904D01*
X102552857Y-91001904D01*
X101448095Y-91725714D02*
X101486190Y-91763809D01*
X101600476Y-91801904D01*
X101676666Y-91801904D01*
X101790952Y-91763809D01*
X101867142Y-91687619D01*
X101905238Y-91611428D01*
X101943333Y-91459047D01*
X101943333Y-91344761D01*
X101905238Y-91192380D01*
X101867142Y-91116190D01*
X101790952Y-91040000D01*
X101676666Y-91001904D01*
X101600476Y-91001904D01*
X101486190Y-91040000D01*
X101448095Y-91078095D01*
D10*
X149415238Y-78334380D02*
X149081904Y-79334380D01*
X148748571Y-78334380D01*
X147843809Y-79239142D02*
X147891428Y-79286761D01*
X148034285Y-79334380D01*
X148129523Y-79334380D01*
X148272380Y-79286761D01*
X148367619Y-79191523D01*
X148415238Y-79096285D01*
X148462857Y-78905809D01*
X148462857Y-78762952D01*
X148415238Y-78572476D01*
X148367619Y-78477238D01*
X148272380Y-78382000D01*
X148129523Y-78334380D01*
X148034285Y-78334380D01*
X147891428Y-78382000D01*
X147843809Y-78429619D01*
X146843809Y-79239142D02*
X146891428Y-79286761D01*
X147034285Y-79334380D01*
X147129523Y-79334380D01*
X147272380Y-79286761D01*
X147367619Y-79191523D01*
X147415238Y-79096285D01*
X147462857Y-78905809D01*
X147462857Y-78762952D01*
X147415238Y-78572476D01*
X147367619Y-78477238D01*
X147272380Y-78382000D01*
X147129523Y-78334380D01*
X147034285Y-78334380D01*
X146891428Y-78382000D01*
X146843809Y-78429619D01*
X146415238Y-79334380D02*
X146415238Y-78334380D01*
X145748571Y-78334380D02*
X145558095Y-78334380D01*
X145462857Y-78382000D01*
X145367619Y-78477238D01*
X145320000Y-78667714D01*
X145320000Y-79001047D01*
X145367619Y-79191523D01*
X145462857Y-79286761D01*
X145558095Y-79334380D01*
X145748571Y-79334380D01*
X145843809Y-79286761D01*
X145939047Y-79191523D01*
X145986666Y-79001047D01*
X145986666Y-78667714D01*
X145939047Y-78477238D01*
X145843809Y-78382000D01*
X145748571Y-78334380D01*
X154203333Y-78334380D02*
X153870000Y-79334380D01*
X153536666Y-78334380D01*
X152870000Y-78810571D02*
X152727142Y-78858190D01*
X152679523Y-78905809D01*
X152631904Y-79001047D01*
X152631904Y-79143904D01*
X152679523Y-79239142D01*
X152727142Y-79286761D01*
X152822380Y-79334380D01*
X153203333Y-79334380D01*
X153203333Y-78334380D01*
X152870000Y-78334380D01*
X152774761Y-78382000D01*
X152727142Y-78429619D01*
X152679523Y-78524857D01*
X152679523Y-78620095D01*
X152727142Y-78715333D01*
X152774761Y-78762952D01*
X152870000Y-78810571D01*
X153203333Y-78810571D01*
X152203333Y-78334380D02*
X152203333Y-79143904D01*
X152155714Y-79239142D01*
X152108095Y-79286761D01*
X152012857Y-79334380D01*
X151822380Y-79334380D01*
X151727142Y-79286761D01*
X151679523Y-79239142D01*
X151631904Y-79143904D01*
X151631904Y-78334380D01*
X151203333Y-79286761D02*
X151060476Y-79334380D01*
X150822380Y-79334380D01*
X150727142Y-79286761D01*
X150679523Y-79239142D01*
X150631904Y-79143904D01*
X150631904Y-79048666D01*
X150679523Y-78953428D01*
X150727142Y-78905809D01*
X150822380Y-78858190D01*
X151012857Y-78810571D01*
X151108095Y-78762952D01*
X151155714Y-78715333D01*
X151203333Y-78620095D01*
X151203333Y-78524857D01*
X151155714Y-78429619D01*
X151108095Y-78382000D01*
X151012857Y-78334380D01*
X150774761Y-78334380D01*
X150631904Y-78382000D01*
X154131904Y-73903428D02*
X153370000Y-73903428D01*
X153750952Y-74284380D02*
X153750952Y-73522476D01*
X152989047Y-73284380D02*
X152370000Y-73284380D01*
X152703333Y-73665333D01*
X152560476Y-73665333D01*
X152465238Y-73712952D01*
X152417619Y-73760571D01*
X152370000Y-73855809D01*
X152370000Y-74093904D01*
X152417619Y-74189142D01*
X152465238Y-74236761D01*
X152560476Y-74284380D01*
X152846190Y-74284380D01*
X152941428Y-74236761D01*
X152989047Y-74189142D01*
X152084285Y-73284380D02*
X151750952Y-74284380D01*
X151417619Y-73284380D01*
X151179523Y-73284380D02*
X150560476Y-73284380D01*
X150893809Y-73665333D01*
X150750952Y-73665333D01*
X150655714Y-73712952D01*
X150608095Y-73760571D01*
X150560476Y-73855809D01*
X150560476Y-74093904D01*
X150608095Y-74189142D01*
X150655714Y-74236761D01*
X150750952Y-74284380D01*
X151036666Y-74284380D01*
X151131904Y-74236761D01*
X151179523Y-74189142D01*
X149081904Y-73903428D02*
X148320000Y-73903428D01*
X148700952Y-74284380D02*
X148700952Y-73522476D01*
X147320000Y-74284380D02*
X147891428Y-74284380D01*
X147605714Y-74284380D02*
X147605714Y-73284380D01*
X147700952Y-73427238D01*
X147796190Y-73522476D01*
X147891428Y-73570095D01*
X147034285Y-73284380D02*
X146700952Y-74284380D01*
X146367619Y-73284380D01*
X145891428Y-73712952D02*
X145986666Y-73665333D01*
X146034285Y-73617714D01*
X146081904Y-73522476D01*
X146081904Y-73474857D01*
X146034285Y-73379619D01*
X145986666Y-73332000D01*
X145891428Y-73284380D01*
X145700952Y-73284380D01*
X145605714Y-73332000D01*
X145558095Y-73379619D01*
X145510476Y-73474857D01*
X145510476Y-73522476D01*
X145558095Y-73617714D01*
X145605714Y-73665333D01*
X145700952Y-73712952D01*
X145891428Y-73712952D01*
X145986666Y-73760571D01*
X146034285Y-73808190D01*
X146081904Y-73903428D01*
X146081904Y-74093904D01*
X146034285Y-74189142D01*
X145986666Y-74236761D01*
X145891428Y-74284380D01*
X145700952Y-74284380D01*
X145605714Y-74236761D01*
X145558095Y-74189142D01*
X145510476Y-74093904D01*
X145510476Y-73903428D01*
X145558095Y-73808190D01*
X145605714Y-73760571D01*
X145700952Y-73712952D01*
G36*
X102052041Y-71239063D02*
G01*
X101915889Y-71232374D01*
X101781048Y-71212372D01*
X101648817Y-71179250D01*
X101520469Y-71133326D01*
X101397241Y-71075044D01*
X101280319Y-71004963D01*
X101170829Y-70923760D01*
X101069825Y-70832216D01*
X100978281Y-70731212D01*
X100969340Y-70719156D01*
X102548134Y-70719156D01*
X102814834Y-70719156D01*
X102814834Y-69850000D01*
X103522066Y-69850000D01*
X103528283Y-70061270D01*
X103546936Y-70241054D01*
X103578025Y-70389353D01*
X103644998Y-70557827D01*
X103733997Y-70665578D01*
X103850083Y-70723621D01*
X103998316Y-70742969D01*
X104146548Y-70723621D01*
X104262634Y-70665578D01*
X104351634Y-70557827D01*
X104418606Y-70389353D01*
X104449695Y-70241054D01*
X104468348Y-70061270D01*
X104474566Y-69850000D01*
X104468348Y-69638730D01*
X104449695Y-69458946D01*
X104418606Y-69310647D01*
X104351634Y-69142173D01*
X104262634Y-69034422D01*
X104155478Y-68980844D01*
X104648397Y-68980844D01*
X105036541Y-70719156D01*
X105346103Y-70719156D01*
X105731866Y-68980844D01*
X105458022Y-68980844D01*
X105186559Y-70481031D01*
X105184178Y-70481031D01*
X104912716Y-68980844D01*
X104648397Y-68980844D01*
X104155478Y-68980844D01*
X104146548Y-68976379D01*
X103998316Y-68957031D01*
X103850083Y-68976379D01*
X103733997Y-69034422D01*
X103644998Y-69142173D01*
X103578025Y-69310647D01*
X103546936Y-69458946D01*
X103528283Y-69638730D01*
X103522066Y-69850000D01*
X102814834Y-69850000D01*
X102814834Y-69230875D01*
X102819597Y-69228494D01*
X103229172Y-69457094D01*
X103229172Y-69223731D01*
X102812453Y-68980844D01*
X102548134Y-68980844D01*
X102548134Y-70719156D01*
X100969340Y-70719156D01*
X100897077Y-70621722D01*
X100826997Y-70504800D01*
X100768714Y-70381571D01*
X100722791Y-70253224D01*
X100689669Y-70120993D01*
X100669667Y-69986152D01*
X100662978Y-69850000D01*
X100669667Y-69713848D01*
X100689669Y-69579007D01*
X100722791Y-69446776D01*
X100768714Y-69318429D01*
X100826997Y-69195200D01*
X100897077Y-69078278D01*
X100978281Y-68968788D01*
X101069825Y-68867784D01*
X101170829Y-68776240D01*
X101280319Y-68695037D01*
X101397241Y-68624956D01*
X101520469Y-68566674D01*
X101648817Y-68520750D01*
X101781048Y-68487628D01*
X101915889Y-68467626D01*
X102052041Y-68460938D01*
X102052041Y-68460937D01*
X106227959Y-68460937D01*
X106227959Y-68460938D01*
X106364111Y-68467626D01*
X106498952Y-68487628D01*
X106631183Y-68520750D01*
X106759531Y-68566674D01*
X106882759Y-68624956D01*
X106999681Y-68695037D01*
X107109171Y-68776240D01*
X107210175Y-68867784D01*
X107301719Y-68968788D01*
X107382923Y-69078278D01*
X107453003Y-69195200D01*
X107511286Y-69318429D01*
X107557209Y-69446776D01*
X107590331Y-69579007D01*
X107610333Y-69713848D01*
X107617022Y-69850000D01*
X107610333Y-69986152D01*
X107590331Y-70120993D01*
X107557209Y-70253224D01*
X107511286Y-70381571D01*
X107453003Y-70504800D01*
X107382923Y-70621722D01*
X107301719Y-70731212D01*
X107210175Y-70832216D01*
X107109171Y-70923760D01*
X106999681Y-71004963D01*
X106882759Y-71075044D01*
X106759531Y-71133326D01*
X106631183Y-71179250D01*
X106498952Y-71212372D01*
X106364111Y-71232374D01*
X106227959Y-71239062D01*
X102052041Y-71239062D01*
X102052041Y-71239063D01*
G37*
G36*
X104191197Y-70326250D02*
G01*
X104117378Y-70494128D01*
X103998316Y-70542944D01*
X103873300Y-70488175D01*
X103831330Y-70408403D01*
X103798291Y-70278625D01*
X103782416Y-70162208D01*
X103772891Y-70019333D01*
X103769716Y-69850000D01*
X103771502Y-69720817D01*
X103776859Y-69609494D01*
X104191197Y-70326250D01*
G37*
G36*
X104123331Y-69211825D02*
G01*
X104165301Y-69291597D01*
X104198341Y-69421375D01*
X104214216Y-69537792D01*
X104223741Y-69680667D01*
X104226916Y-69850000D01*
X104222153Y-70047644D01*
X103814959Y-69340412D01*
X103886397Y-69198728D01*
X103998316Y-69157056D01*
X104123331Y-69211825D01*
G37*
D12*
X149070000Y-81280000D02*
G75*
G03*
X149070000Y-81280000I-1750000J0D01*
G01*
X154120000Y-81280000D02*
G75*
G03*
X154120000Y-81280000I-1750000J0D01*
G01*
X154120000Y-76230000D02*
G75*
G03*
X154120000Y-76230000I-1750000J0D01*
G01*
X149070000Y-76230000D02*
G75*
G03*
X149070000Y-76230000I-1750000J0D01*
G01*
%LPC*%
D13*
X147320000Y-81280000D03*
X152370000Y-81280000D03*
X152370000Y-76230000D03*
X147320000Y-76230000D03*
D14*
X105625000Y-78305000D03*
X105625000Y-79155000D03*
X105625000Y-80005000D03*
X105625000Y-80855000D03*
X105625000Y-81705000D03*
X105625000Y-82555000D03*
X105625000Y-83405000D03*
X105625000Y-84255000D03*
X104275000Y-84255000D03*
X104275000Y-83405000D03*
X104275000Y-82555000D03*
X104275000Y-81705000D03*
X104275000Y-80855000D03*
X104275000Y-80005000D03*
X104275000Y-79155000D03*
X104275000Y-78305000D03*
D15*
X104645000Y-85605000D03*
D16*
X101265000Y-76955000D03*
D15*
X104645000Y-76955000D03*
D16*
X101265000Y-85605000D03*
M02*
