G04 #@! TF.GenerationSoftware,KiCad,Pcbnew,(5.1.10)-1*
G04 #@! TF.CreationDate,2021-12-17T22:33:09-07:00*
G04 #@! TF.ProjectId,ultimate-uart-bridge,756c7469-6d61-4746-952d-756172742d62,rev?*
G04 #@! TF.SameCoordinates,Original*
G04 #@! TF.FileFunction,Legend,Top*
G04 #@! TF.FilePolarity,Positive*
%FSLAX46Y46*%
G04 Gerber Fmt 4.6, Leading zero omitted, Abs format (unit mm)*
G04 Created by KiCad (PCBNEW (5.1.10)-1) date 2021-12-17 22:33:09*
%MOMM*%
%LPD*%
G01*
G04 APERTURE LIST*
%ADD10C,0.150000*%
%ADD11C,0.120000*%
%ADD12C,2.000000*%
%ADD13R,1.200000X0.400000*%
%ADD14O,1.700000X1.700000*%
%ADD15R,1.700000X1.700000*%
%ADD16R,1.900000X1.000000*%
%ADD17R,1.900000X1.800000*%
%ADD18R,1.300000X1.650000*%
%ADD19R,1.550000X1.425000*%
%ADD20R,1.380000X0.450000*%
%ADD21R,0.508000X0.977900*%
G04 APERTURE END LIST*
D10*
X138938095Y-97290000D02*
X138842857Y-97242380D01*
X138700000Y-97242380D01*
X138557142Y-97290000D01*
X138461904Y-97385238D01*
X138414285Y-97480476D01*
X138366666Y-97670952D01*
X138366666Y-97813809D01*
X138414285Y-98004285D01*
X138461904Y-98099523D01*
X138557142Y-98194761D01*
X138700000Y-98242380D01*
X138795238Y-98242380D01*
X138938095Y-98194761D01*
X138985714Y-98147142D01*
X138985714Y-97813809D01*
X138795238Y-97813809D01*
X139414285Y-98242380D02*
X139414285Y-97242380D01*
X139985714Y-98242380D01*
X139985714Y-97242380D01*
X140461904Y-98242380D02*
X140461904Y-97242380D01*
X140700000Y-97242380D01*
X140842857Y-97290000D01*
X140938095Y-97385238D01*
X140985714Y-97480476D01*
X141033333Y-97670952D01*
X141033333Y-97813809D01*
X140985714Y-98004285D01*
X140938095Y-98099523D01*
X140842857Y-98194761D01*
X140700000Y-98242380D01*
X140461904Y-98242380D01*
X137961904Y-95702380D02*
X137961904Y-94702380D01*
X138342857Y-94702380D01*
X138438095Y-94750000D01*
X138485714Y-94797619D01*
X138533333Y-94892857D01*
X138533333Y-95035714D01*
X138485714Y-95130952D01*
X138438095Y-95178571D01*
X138342857Y-95226190D01*
X137961904Y-95226190D01*
X139533333Y-95607142D02*
X139485714Y-95654761D01*
X139342857Y-95702380D01*
X139247619Y-95702380D01*
X139104761Y-95654761D01*
X139009523Y-95559523D01*
X138961904Y-95464285D01*
X138914285Y-95273809D01*
X138914285Y-95130952D01*
X138961904Y-94940476D01*
X139009523Y-94845238D01*
X139104761Y-94750000D01*
X139247619Y-94702380D01*
X139342857Y-94702380D01*
X139485714Y-94750000D01*
X139533333Y-94797619D01*
X140533333Y-95702380D02*
X140200000Y-95226190D01*
X139961904Y-95702380D02*
X139961904Y-94702380D01*
X140342857Y-94702380D01*
X140438095Y-94750000D01*
X140485714Y-94797619D01*
X140533333Y-94892857D01*
X140533333Y-95035714D01*
X140485714Y-95130952D01*
X140438095Y-95178571D01*
X140342857Y-95226190D01*
X139961904Y-95226190D01*
X140866666Y-94702380D02*
X141533333Y-95702380D01*
X141533333Y-94702380D02*
X140866666Y-95702380D01*
X138080952Y-93162380D02*
X138080952Y-92162380D01*
X138461904Y-92162380D01*
X138557142Y-92210000D01*
X138604761Y-92257619D01*
X138652380Y-92352857D01*
X138652380Y-92495714D01*
X138604761Y-92590952D01*
X138557142Y-92638571D01*
X138461904Y-92686190D01*
X138080952Y-92686190D01*
X139652380Y-93067142D02*
X139604761Y-93114761D01*
X139461904Y-93162380D01*
X139366666Y-93162380D01*
X139223809Y-93114761D01*
X139128571Y-93019523D01*
X139080952Y-92924285D01*
X139033333Y-92733809D01*
X139033333Y-92590952D01*
X139080952Y-92400476D01*
X139128571Y-92305238D01*
X139223809Y-92210000D01*
X139366666Y-92162380D01*
X139461904Y-92162380D01*
X139604761Y-92210000D01*
X139652380Y-92257619D01*
X139938095Y-92162380D02*
X140509523Y-92162380D01*
X140223809Y-93162380D02*
X140223809Y-92162380D01*
X140747619Y-92162380D02*
X141414285Y-93162380D01*
X141414285Y-92162380D02*
X140747619Y-93162380D01*
X129279047Y-75272380D02*
X129279047Y-76081904D01*
X129326666Y-76177142D01*
X129374285Y-76224761D01*
X129469523Y-76272380D01*
X129660000Y-76272380D01*
X129755238Y-76224761D01*
X129802857Y-76177142D01*
X129850476Y-76081904D01*
X129850476Y-75272380D01*
X130469523Y-76272380D02*
X130374285Y-76224761D01*
X130326666Y-76129523D01*
X130326666Y-75272380D01*
X130707619Y-75605714D02*
X131088571Y-75605714D01*
X130850476Y-75272380D02*
X130850476Y-76129523D01*
X130898095Y-76224761D01*
X130993333Y-76272380D01*
X131088571Y-76272380D01*
X131421904Y-76272380D02*
X131421904Y-75605714D01*
X131421904Y-75272380D02*
X131374285Y-75320000D01*
X131421904Y-75367619D01*
X131469523Y-75320000D01*
X131421904Y-75272380D01*
X131421904Y-75367619D01*
X131898095Y-76272380D02*
X131898095Y-75605714D01*
X131898095Y-75700952D02*
X131945714Y-75653333D01*
X132040952Y-75605714D01*
X132183809Y-75605714D01*
X132279047Y-75653333D01*
X132326666Y-75748571D01*
X132326666Y-76272380D01*
X132326666Y-75748571D02*
X132374285Y-75653333D01*
X132469523Y-75605714D01*
X132612380Y-75605714D01*
X132707619Y-75653333D01*
X132755238Y-75748571D01*
X132755238Y-76272380D01*
X133660000Y-76272380D02*
X133660000Y-75748571D01*
X133612380Y-75653333D01*
X133517142Y-75605714D01*
X133326666Y-75605714D01*
X133231428Y-75653333D01*
X133660000Y-76224761D02*
X133564761Y-76272380D01*
X133326666Y-76272380D01*
X133231428Y-76224761D01*
X133183809Y-76129523D01*
X133183809Y-76034285D01*
X133231428Y-75939047D01*
X133326666Y-75891428D01*
X133564761Y-75891428D01*
X133660000Y-75843809D01*
X133993333Y-75605714D02*
X134374285Y-75605714D01*
X134136190Y-75272380D02*
X134136190Y-76129523D01*
X134183809Y-76224761D01*
X134279047Y-76272380D01*
X134374285Y-76272380D01*
X135088571Y-76224761D02*
X134993333Y-76272380D01*
X134802857Y-76272380D01*
X134707619Y-76224761D01*
X134660000Y-76129523D01*
X134660000Y-75748571D01*
X134707619Y-75653333D01*
X134802857Y-75605714D01*
X134993333Y-75605714D01*
X135088571Y-75653333D01*
X135136190Y-75748571D01*
X135136190Y-75843809D01*
X134660000Y-75939047D01*
X136326666Y-75272380D02*
X136326666Y-76081904D01*
X136374285Y-76177142D01*
X136421904Y-76224761D01*
X136517142Y-76272380D01*
X136707619Y-76272380D01*
X136802857Y-76224761D01*
X136850476Y-76177142D01*
X136898095Y-76081904D01*
X136898095Y-75272380D01*
X137326666Y-75986666D02*
X137802857Y-75986666D01*
X137231428Y-76272380D02*
X137564761Y-75272380D01*
X137898095Y-76272380D01*
X138802857Y-76272380D02*
X138469523Y-75796190D01*
X138231428Y-76272380D02*
X138231428Y-75272380D01*
X138612380Y-75272380D01*
X138707619Y-75320000D01*
X138755238Y-75367619D01*
X138802857Y-75462857D01*
X138802857Y-75605714D01*
X138755238Y-75700952D01*
X138707619Y-75748571D01*
X138612380Y-75796190D01*
X138231428Y-75796190D01*
X139088571Y-75272380D02*
X139660000Y-75272380D01*
X139374285Y-76272380D02*
X139374285Y-75272380D01*
X141088571Y-75748571D02*
X141231428Y-75796190D01*
X141279047Y-75843809D01*
X141326666Y-75939047D01*
X141326666Y-76081904D01*
X141279047Y-76177142D01*
X141231428Y-76224761D01*
X141136190Y-76272380D01*
X140755238Y-76272380D01*
X140755238Y-75272380D01*
X141088571Y-75272380D01*
X141183809Y-75320000D01*
X141231428Y-75367619D01*
X141279047Y-75462857D01*
X141279047Y-75558095D01*
X141231428Y-75653333D01*
X141183809Y-75700952D01*
X141088571Y-75748571D01*
X140755238Y-75748571D01*
X141755238Y-76272380D02*
X141755238Y-75605714D01*
X141755238Y-75796190D02*
X141802857Y-75700952D01*
X141850476Y-75653333D01*
X141945714Y-75605714D01*
X142040952Y-75605714D01*
X142374285Y-76272380D02*
X142374285Y-75605714D01*
X142374285Y-75272380D02*
X142326666Y-75320000D01*
X142374285Y-75367619D01*
X142421904Y-75320000D01*
X142374285Y-75272380D01*
X142374285Y-75367619D01*
X143279047Y-76272380D02*
X143279047Y-75272380D01*
X143279047Y-76224761D02*
X143183809Y-76272380D01*
X142993333Y-76272380D01*
X142898095Y-76224761D01*
X142850476Y-76177142D01*
X142802857Y-76081904D01*
X142802857Y-75796190D01*
X142850476Y-75700952D01*
X142898095Y-75653333D01*
X142993333Y-75605714D01*
X143183809Y-75605714D01*
X143279047Y-75653333D01*
X144183809Y-75605714D02*
X144183809Y-76415238D01*
X144136190Y-76510476D01*
X144088571Y-76558095D01*
X143993333Y-76605714D01*
X143850476Y-76605714D01*
X143755238Y-76558095D01*
X144183809Y-76224761D02*
X144088571Y-76272380D01*
X143898095Y-76272380D01*
X143802857Y-76224761D01*
X143755238Y-76177142D01*
X143707619Y-76081904D01*
X143707619Y-75796190D01*
X143755238Y-75700952D01*
X143802857Y-75653333D01*
X143898095Y-75605714D01*
X144088571Y-75605714D01*
X144183809Y-75653333D01*
X145040952Y-76224761D02*
X144945714Y-76272380D01*
X144755238Y-76272380D01*
X144660000Y-76224761D01*
X144612380Y-76129523D01*
X144612380Y-75748571D01*
X144660000Y-75653333D01*
X144755238Y-75605714D01*
X144945714Y-75605714D01*
X145040952Y-75653333D01*
X145088571Y-75748571D01*
X145088571Y-75843809D01*
X144612380Y-75939047D01*
X132564761Y-76922380D02*
X133136190Y-76922380D01*
X132850476Y-77922380D02*
X132850476Y-76922380D01*
X133469523Y-77922380D02*
X133469523Y-76922380D01*
X133898095Y-77922380D02*
X133898095Y-77398571D01*
X133850476Y-77303333D01*
X133755238Y-77255714D01*
X133612380Y-77255714D01*
X133517142Y-77303333D01*
X133469523Y-77350952D01*
X134517142Y-77922380D02*
X134421904Y-77874761D01*
X134374285Y-77827142D01*
X134326666Y-77731904D01*
X134326666Y-77446190D01*
X134374285Y-77350952D01*
X134421904Y-77303333D01*
X134517142Y-77255714D01*
X134660000Y-77255714D01*
X134755238Y-77303333D01*
X134802857Y-77350952D01*
X134850476Y-77446190D01*
X134850476Y-77731904D01*
X134802857Y-77827142D01*
X134755238Y-77874761D01*
X134660000Y-77922380D01*
X134517142Y-77922380D01*
X135279047Y-77922380D02*
X135279047Y-77255714D01*
X135279047Y-77350952D02*
X135326666Y-77303333D01*
X135421904Y-77255714D01*
X135564761Y-77255714D01*
X135660000Y-77303333D01*
X135707619Y-77398571D01*
X135707619Y-77922380D01*
X135707619Y-77398571D02*
X135755238Y-77303333D01*
X135850476Y-77255714D01*
X135993333Y-77255714D01*
X136088571Y-77303333D01*
X136136190Y-77398571D01*
X136136190Y-77922380D01*
X137040952Y-77922380D02*
X137040952Y-77398571D01*
X136993333Y-77303333D01*
X136898095Y-77255714D01*
X136707619Y-77255714D01*
X136612380Y-77303333D01*
X137040952Y-77874761D02*
X136945714Y-77922380D01*
X136707619Y-77922380D01*
X136612380Y-77874761D01*
X136564761Y-77779523D01*
X136564761Y-77684285D01*
X136612380Y-77589047D01*
X136707619Y-77541428D01*
X136945714Y-77541428D01*
X137040952Y-77493809D01*
X137469523Y-77874761D02*
X137564761Y-77922380D01*
X137755238Y-77922380D01*
X137850476Y-77874761D01*
X137898095Y-77779523D01*
X137898095Y-77731904D01*
X137850476Y-77636666D01*
X137755238Y-77589047D01*
X137612380Y-77589047D01*
X137517142Y-77541428D01*
X137469523Y-77446190D01*
X137469523Y-77398571D01*
X137517142Y-77303333D01*
X137612380Y-77255714D01*
X137755238Y-77255714D01*
X137850476Y-77303333D01*
X139421904Y-77398571D02*
X139088571Y-77398571D01*
X139088571Y-77922380D02*
X139088571Y-76922380D01*
X139564761Y-76922380D01*
X139945714Y-77922380D02*
X139945714Y-77255714D01*
X139945714Y-76922380D02*
X139898095Y-76970000D01*
X139945714Y-77017619D01*
X139993333Y-76970000D01*
X139945714Y-76922380D01*
X139945714Y-77017619D01*
X140421904Y-77922380D02*
X140421904Y-76922380D01*
X140517142Y-77541428D02*
X140802857Y-77922380D01*
X140802857Y-77255714D02*
X140421904Y-77636666D01*
X141612380Y-77874761D02*
X141517142Y-77922380D01*
X141326666Y-77922380D01*
X141231428Y-77874761D01*
X141183809Y-77779523D01*
X141183809Y-77398571D01*
X141231428Y-77303333D01*
X141326666Y-77255714D01*
X141517142Y-77255714D01*
X141612380Y-77303333D01*
X141660000Y-77398571D01*
X141660000Y-77493809D01*
X141183809Y-77589047D01*
X131517142Y-79572380D02*
X131183809Y-79096190D01*
X130945714Y-79572380D02*
X130945714Y-78572380D01*
X131326666Y-78572380D01*
X131421904Y-78620000D01*
X131469523Y-78667619D01*
X131517142Y-78762857D01*
X131517142Y-78905714D01*
X131469523Y-79000952D01*
X131421904Y-79048571D01*
X131326666Y-79096190D01*
X130945714Y-79096190D01*
X132326666Y-79524761D02*
X132231428Y-79572380D01*
X132040952Y-79572380D01*
X131945714Y-79524761D01*
X131898095Y-79429523D01*
X131898095Y-79048571D01*
X131945714Y-78953333D01*
X132040952Y-78905714D01*
X132231428Y-78905714D01*
X132326666Y-78953333D01*
X132374285Y-79048571D01*
X132374285Y-79143809D01*
X131898095Y-79239047D01*
X132707619Y-78905714D02*
X132945714Y-79572380D01*
X133183809Y-78905714D01*
X134850476Y-79572380D02*
X134279047Y-79572380D01*
X134564761Y-79572380D02*
X134564761Y-78572380D01*
X134469523Y-78715238D01*
X134374285Y-78810476D01*
X134279047Y-78858095D01*
X136564761Y-79572380D02*
X135993333Y-79572380D01*
X136279047Y-79572380D02*
X136279047Y-78572380D01*
X136183809Y-78715238D01*
X136088571Y-78810476D01*
X135993333Y-78858095D01*
X136945714Y-78667619D02*
X136993333Y-78620000D01*
X137088571Y-78572380D01*
X137326666Y-78572380D01*
X137421904Y-78620000D01*
X137469523Y-78667619D01*
X137517142Y-78762857D01*
X137517142Y-78858095D01*
X137469523Y-79000952D01*
X136898095Y-79572380D01*
X137517142Y-79572380D01*
X138660000Y-78524761D02*
X137802857Y-79810476D01*
X138945714Y-78667619D02*
X138993333Y-78620000D01*
X139088571Y-78572380D01*
X139326666Y-78572380D01*
X139421904Y-78620000D01*
X139469523Y-78667619D01*
X139517142Y-78762857D01*
X139517142Y-78858095D01*
X139469523Y-79000952D01*
X138898095Y-79572380D01*
X139517142Y-79572380D01*
X140136190Y-78572380D02*
X140231428Y-78572380D01*
X140326666Y-78620000D01*
X140374285Y-78667619D01*
X140421904Y-78762857D01*
X140469523Y-78953333D01*
X140469523Y-79191428D01*
X140421904Y-79381904D01*
X140374285Y-79477142D01*
X140326666Y-79524761D01*
X140231428Y-79572380D01*
X140136190Y-79572380D01*
X140040952Y-79524761D01*
X139993333Y-79477142D01*
X139945714Y-79381904D01*
X139898095Y-79191428D01*
X139898095Y-78953333D01*
X139945714Y-78762857D01*
X139993333Y-78667619D01*
X140040952Y-78620000D01*
X140136190Y-78572380D01*
X141612380Y-78524761D02*
X140755238Y-79810476D01*
X141898095Y-78667619D02*
X141945714Y-78620000D01*
X142040952Y-78572380D01*
X142279047Y-78572380D01*
X142374285Y-78620000D01*
X142421904Y-78667619D01*
X142469523Y-78762857D01*
X142469523Y-78858095D01*
X142421904Y-79000952D01*
X141850476Y-79572380D01*
X142469523Y-79572380D01*
X143421904Y-79572380D02*
X142850476Y-79572380D01*
X143136190Y-79572380D02*
X143136190Y-78572380D01*
X143040952Y-78715238D01*
X142945714Y-78810476D01*
X142850476Y-78858095D01*
X135723333Y-81732380D02*
X135390000Y-81256190D01*
X135151904Y-81732380D02*
X135151904Y-80732380D01*
X135532857Y-80732380D01*
X135628095Y-80780000D01*
X135675714Y-80827619D01*
X135723333Y-80922857D01*
X135723333Y-81065714D01*
X135675714Y-81160952D01*
X135628095Y-81208571D01*
X135532857Y-81256190D01*
X135151904Y-81256190D01*
X136056666Y-80732380D02*
X136723333Y-81732380D01*
X136723333Y-80732380D02*
X136056666Y-81732380D01*
X138938095Y-80732380D02*
X139509523Y-80732380D01*
X139223809Y-81732380D02*
X139223809Y-80732380D01*
X139747619Y-80732380D02*
X140414285Y-81732380D01*
X140414285Y-80732380D02*
X139747619Y-81732380D01*
D11*
X109728000Y-81280000D02*
G75*
G02*
X109728000Y-83820000I-508000J-1270000D01*
G01*
X103632000Y-83820000D02*
G75*
G02*
X103632000Y-81280000I508000J1270000D01*
G01*
X108980068Y-84850068D02*
G75*
G02*
X104140000Y-84582000I-2300068J2300068D01*
G01*
X104155535Y-80530428D02*
G75*
G02*
X108966000Y-80264000I2524465J-2019572D01*
G01*
D10*
X126535000Y-96075000D02*
X127660000Y-96075000D01*
X126535000Y-88235000D02*
X122385000Y-88235000D01*
X126535000Y-97185000D02*
X122385000Y-97185000D01*
X126535000Y-88235000D02*
X126535000Y-89345000D01*
X122385000Y-88235000D02*
X122385000Y-89345000D01*
X122385000Y-97185000D02*
X122385000Y-96075000D01*
X126535000Y-96075000D02*
X126535000Y-97185000D01*
D11*
X138965000Y-89942936D02*
X138965000Y-90397064D01*
X140435000Y-89942936D02*
X140435000Y-90397064D01*
X135155000Y-89672936D02*
X135155000Y-90127064D01*
X136625000Y-89672936D02*
X136625000Y-90127064D01*
X112802936Y-90905000D02*
X113257064Y-90905000D01*
X112802936Y-89435000D02*
X113257064Y-89435000D01*
X112802936Y-94715000D02*
X113257064Y-94715000D01*
X112802936Y-93245000D02*
X113257064Y-93245000D01*
X142240000Y-91440000D02*
X143510000Y-91440000D01*
X142240000Y-92710000D02*
X142240000Y-91440000D01*
X144552929Y-98170000D02*
X144950000Y-98170000D01*
X144552929Y-97410000D02*
X144950000Y-97410000D01*
X153610000Y-98170000D02*
X147610000Y-98170000D01*
X153610000Y-97410000D02*
X153610000Y-98170000D01*
X147610000Y-97410000D02*
X153610000Y-97410000D01*
X144950000Y-96520000D02*
X147610000Y-96520000D01*
X144552929Y-95630000D02*
X144950000Y-95630000D01*
X144552929Y-94870000D02*
X144950000Y-94870000D01*
X153610000Y-95630000D02*
X147610000Y-95630000D01*
X153610000Y-94870000D02*
X153610000Y-95630000D01*
X147610000Y-94870000D02*
X153610000Y-94870000D01*
X144950000Y-93980000D02*
X147610000Y-93980000D01*
X144620000Y-93090000D02*
X144950000Y-93090000D01*
X144620000Y-92330000D02*
X144950000Y-92330000D01*
X147610000Y-92990000D02*
X153610000Y-92990000D01*
X147610000Y-92870000D02*
X153610000Y-92870000D01*
X147610000Y-92750000D02*
X153610000Y-92750000D01*
X147610000Y-92630000D02*
X153610000Y-92630000D01*
X147610000Y-92510000D02*
X153610000Y-92510000D01*
X147610000Y-92390000D02*
X153610000Y-92390000D01*
X153610000Y-93090000D02*
X147610000Y-93090000D01*
X153610000Y-92330000D02*
X153610000Y-93090000D01*
X147610000Y-92330000D02*
X153610000Y-92330000D01*
X147610000Y-91380000D02*
X144950000Y-91380000D01*
X147610000Y-99120000D02*
X147610000Y-91380000D01*
X144950000Y-99120000D02*
X147610000Y-99120000D01*
X144950000Y-91380000D02*
X144950000Y-99120000D01*
X130750000Y-85030000D02*
X132080000Y-85030000D01*
X130750000Y-86360000D02*
X130750000Y-85030000D01*
X130750000Y-87630000D02*
X133410000Y-87630000D01*
X133410000Y-87630000D02*
X133410000Y-92770000D01*
X130750000Y-87630000D02*
X130750000Y-92770000D01*
X130750000Y-92770000D02*
X133410000Y-92770000D01*
X102705000Y-88847500D02*
X102965000Y-88847500D01*
X105245000Y-88847500D02*
X107015000Y-88847500D01*
X107015000Y-88847500D02*
X107015000Y-89227500D01*
X107015000Y-96467500D02*
X105245000Y-96467500D01*
X102965000Y-96467500D02*
X102705000Y-96467500D01*
X107015000Y-96467500D02*
X107015000Y-96087500D01*
X124828300Y-84823300D02*
X124828300Y-82816700D01*
X122826739Y-84823300D02*
X123553261Y-84823300D01*
X121551700Y-82816700D02*
X121551700Y-84823300D01*
X140660000Y-86705000D02*
X140660000Y-83845000D01*
X138740000Y-86705000D02*
X140660000Y-86705000D01*
X138740000Y-83845000D02*
X138740000Y-86705000D01*
X136850000Y-86705000D02*
X136850000Y-83845000D01*
X134930000Y-86705000D02*
X136850000Y-86705000D01*
X134930000Y-83845000D02*
X134930000Y-86705000D01*
X118371252Y-98325000D02*
X117848748Y-98325000D01*
X118371252Y-99795000D02*
X117848748Y-99795000D01*
X114038748Y-79475000D02*
X114561252Y-79475000D01*
X114038748Y-78005000D02*
X114561252Y-78005000D01*
X118371252Y-95785000D02*
X117848748Y-95785000D01*
X118371252Y-97255000D02*
X117848748Y-97255000D01*
X132815000Y-95511252D02*
X132815000Y-94988748D01*
X131345000Y-95511252D02*
X131345000Y-94988748D01*
X112768748Y-88365000D02*
X113291252Y-88365000D01*
X112768748Y-86895000D02*
X113291252Y-86895000D01*
X112768748Y-97255000D02*
X113291252Y-97255000D01*
X112768748Y-95785000D02*
X113291252Y-95785000D01*
X129005000Y-84313752D02*
X129005000Y-83791248D01*
X127535000Y-84313752D02*
X127535000Y-83791248D01*
X114038748Y-83285000D02*
X114561252Y-83285000D01*
X114038748Y-81815000D02*
X114561252Y-81815000D01*
D10*
X103624285Y-78668571D02*
X103290952Y-78668571D01*
X103290952Y-79192380D02*
X103290952Y-78192380D01*
X103767142Y-78192380D01*
X104481428Y-78668571D02*
X104624285Y-78716190D01*
X104671904Y-78763809D01*
X104719523Y-78859047D01*
X104719523Y-79001904D01*
X104671904Y-79097142D01*
X104624285Y-79144761D01*
X104529047Y-79192380D01*
X104148095Y-79192380D01*
X104148095Y-78192380D01*
X104481428Y-78192380D01*
X104576666Y-78240000D01*
X104624285Y-78287619D01*
X104671904Y-78382857D01*
X104671904Y-78478095D01*
X104624285Y-78573333D01*
X104576666Y-78620952D01*
X104481428Y-78668571D01*
X104148095Y-78668571D01*
X105671904Y-79192380D02*
X105100476Y-79192380D01*
X105386190Y-79192380D02*
X105386190Y-78192380D01*
X105290952Y-78335238D01*
X105195714Y-78430476D01*
X105100476Y-78478095D01*
X106290952Y-78192380D02*
X106386190Y-78192380D01*
X106481428Y-78240000D01*
X106529047Y-78287619D01*
X106576666Y-78382857D01*
X106624285Y-78573333D01*
X106624285Y-78811428D01*
X106576666Y-79001904D01*
X106529047Y-79097142D01*
X106481428Y-79144761D01*
X106386190Y-79192380D01*
X106290952Y-79192380D01*
X106195714Y-79144761D01*
X106148095Y-79097142D01*
X106100476Y-79001904D01*
X106052857Y-78811428D01*
X106052857Y-78573333D01*
X106100476Y-78382857D01*
X106148095Y-78287619D01*
X106195714Y-78240000D01*
X106290952Y-78192380D01*
X107576666Y-79192380D02*
X107005238Y-79192380D01*
X107290952Y-79192380D02*
X107290952Y-78192380D01*
X107195714Y-78335238D01*
X107100476Y-78430476D01*
X107005238Y-78478095D01*
X123031428Y-89352380D02*
X123031428Y-88352380D01*
X124031428Y-89352380D02*
X123460000Y-89352380D01*
X123745714Y-89352380D02*
X123745714Y-88352380D01*
X123650476Y-88495238D01*
X123555238Y-88590476D01*
X123460000Y-88638095D01*
X124650476Y-88352380D02*
X124745714Y-88352380D01*
X124840952Y-88400000D01*
X124888571Y-88447619D01*
X124936190Y-88542857D01*
X124983809Y-88733333D01*
X124983809Y-88971428D01*
X124936190Y-89161904D01*
X124888571Y-89257142D01*
X124840952Y-89304761D01*
X124745714Y-89352380D01*
X124650476Y-89352380D01*
X124555238Y-89304761D01*
X124507619Y-89257142D01*
X124460000Y-89161904D01*
X124412380Y-88971428D01*
X124412380Y-88733333D01*
X124460000Y-88542857D01*
X124507619Y-88447619D01*
X124555238Y-88400000D01*
X124650476Y-88352380D01*
X125364761Y-88447619D02*
X125412380Y-88400000D01*
X125507619Y-88352380D01*
X125745714Y-88352380D01*
X125840952Y-88400000D01*
X125888571Y-88447619D01*
X125936190Y-88542857D01*
X125936190Y-88638095D01*
X125888571Y-88780952D01*
X125317142Y-89352380D01*
X125936190Y-89352380D01*
X141802380Y-91289047D02*
X141326190Y-91622380D01*
X141802380Y-91860476D02*
X140802380Y-91860476D01*
X140802380Y-91479523D01*
X140850000Y-91384285D01*
X140897619Y-91336666D01*
X140992857Y-91289047D01*
X141135714Y-91289047D01*
X141230952Y-91336666D01*
X141278571Y-91384285D01*
X141326190Y-91479523D01*
X141326190Y-91860476D01*
X141802380Y-90336666D02*
X141802380Y-90908095D01*
X141802380Y-90622380D02*
X140802380Y-90622380D01*
X140945238Y-90717619D01*
X141040476Y-90812857D01*
X141088095Y-90908095D01*
X140802380Y-89717619D02*
X140802380Y-89622380D01*
X140850000Y-89527142D01*
X140897619Y-89479523D01*
X140992857Y-89431904D01*
X141183333Y-89384285D01*
X141421428Y-89384285D01*
X141611904Y-89431904D01*
X141707142Y-89479523D01*
X141754761Y-89527142D01*
X141802380Y-89622380D01*
X141802380Y-89717619D01*
X141754761Y-89812857D01*
X141707142Y-89860476D01*
X141611904Y-89908095D01*
X141421428Y-89955714D01*
X141183333Y-89955714D01*
X140992857Y-89908095D01*
X140897619Y-89860476D01*
X140850000Y-89812857D01*
X140802380Y-89717619D01*
X141135714Y-88527142D02*
X141802380Y-88527142D01*
X140754761Y-88765238D02*
X141469047Y-89003333D01*
X141469047Y-88384285D01*
X137992380Y-91019047D02*
X137516190Y-91352380D01*
X137992380Y-91590476D02*
X136992380Y-91590476D01*
X136992380Y-91209523D01*
X137040000Y-91114285D01*
X137087619Y-91066666D01*
X137182857Y-91019047D01*
X137325714Y-91019047D01*
X137420952Y-91066666D01*
X137468571Y-91114285D01*
X137516190Y-91209523D01*
X137516190Y-91590476D01*
X137992380Y-90066666D02*
X137992380Y-90638095D01*
X137992380Y-90352380D02*
X136992380Y-90352380D01*
X137135238Y-90447619D01*
X137230476Y-90542857D01*
X137278095Y-90638095D01*
X136992380Y-89447619D02*
X136992380Y-89352380D01*
X137040000Y-89257142D01*
X137087619Y-89209523D01*
X137182857Y-89161904D01*
X137373333Y-89114285D01*
X137611428Y-89114285D01*
X137801904Y-89161904D01*
X137897142Y-89209523D01*
X137944761Y-89257142D01*
X137992380Y-89352380D01*
X137992380Y-89447619D01*
X137944761Y-89542857D01*
X137897142Y-89590476D01*
X137801904Y-89638095D01*
X137611428Y-89685714D01*
X137373333Y-89685714D01*
X137182857Y-89638095D01*
X137087619Y-89590476D01*
X137040000Y-89542857D01*
X136992380Y-89447619D01*
X136992380Y-88780952D02*
X136992380Y-88161904D01*
X137373333Y-88495238D01*
X137373333Y-88352380D01*
X137420952Y-88257142D01*
X137468571Y-88209523D01*
X137563809Y-88161904D01*
X137801904Y-88161904D01*
X137897142Y-88209523D01*
X137944761Y-88257142D01*
X137992380Y-88352380D01*
X137992380Y-88638095D01*
X137944761Y-88733333D01*
X137897142Y-88780952D01*
X109370952Y-90622380D02*
X109037619Y-90146190D01*
X108799523Y-90622380D02*
X108799523Y-89622380D01*
X109180476Y-89622380D01*
X109275714Y-89670000D01*
X109323333Y-89717619D01*
X109370952Y-89812857D01*
X109370952Y-89955714D01*
X109323333Y-90050952D01*
X109275714Y-90098571D01*
X109180476Y-90146190D01*
X108799523Y-90146190D01*
X110323333Y-90622380D02*
X109751904Y-90622380D01*
X110037619Y-90622380D02*
X110037619Y-89622380D01*
X109942380Y-89765238D01*
X109847142Y-89860476D01*
X109751904Y-89908095D01*
X110942380Y-89622380D02*
X111037619Y-89622380D01*
X111132857Y-89670000D01*
X111180476Y-89717619D01*
X111228095Y-89812857D01*
X111275714Y-90003333D01*
X111275714Y-90241428D01*
X111228095Y-90431904D01*
X111180476Y-90527142D01*
X111132857Y-90574761D01*
X111037619Y-90622380D01*
X110942380Y-90622380D01*
X110847142Y-90574761D01*
X110799523Y-90527142D01*
X110751904Y-90431904D01*
X110704285Y-90241428D01*
X110704285Y-90003333D01*
X110751904Y-89812857D01*
X110799523Y-89717619D01*
X110847142Y-89670000D01*
X110942380Y-89622380D01*
X111656666Y-89717619D02*
X111704285Y-89670000D01*
X111799523Y-89622380D01*
X112037619Y-89622380D01*
X112132857Y-89670000D01*
X112180476Y-89717619D01*
X112228095Y-89812857D01*
X112228095Y-89908095D01*
X112180476Y-90050952D01*
X111609047Y-90622380D01*
X112228095Y-90622380D01*
X115720952Y-94432380D02*
X115387619Y-93956190D01*
X115149523Y-94432380D02*
X115149523Y-93432380D01*
X115530476Y-93432380D01*
X115625714Y-93480000D01*
X115673333Y-93527619D01*
X115720952Y-93622857D01*
X115720952Y-93765714D01*
X115673333Y-93860952D01*
X115625714Y-93908571D01*
X115530476Y-93956190D01*
X115149523Y-93956190D01*
X116673333Y-94432380D02*
X116101904Y-94432380D01*
X116387619Y-94432380D02*
X116387619Y-93432380D01*
X116292380Y-93575238D01*
X116197142Y-93670476D01*
X116101904Y-93718095D01*
X117292380Y-93432380D02*
X117387619Y-93432380D01*
X117482857Y-93480000D01*
X117530476Y-93527619D01*
X117578095Y-93622857D01*
X117625714Y-93813333D01*
X117625714Y-94051428D01*
X117578095Y-94241904D01*
X117530476Y-94337142D01*
X117482857Y-94384761D01*
X117387619Y-94432380D01*
X117292380Y-94432380D01*
X117197142Y-94384761D01*
X117149523Y-94337142D01*
X117101904Y-94241904D01*
X117054285Y-94051428D01*
X117054285Y-93813333D01*
X117101904Y-93622857D01*
X117149523Y-93527619D01*
X117197142Y-93480000D01*
X117292380Y-93432380D01*
X118578095Y-94432380D02*
X118006666Y-94432380D01*
X118292380Y-94432380D02*
X118292380Y-93432380D01*
X118197142Y-93575238D01*
X118101904Y-93670476D01*
X118006666Y-93718095D01*
X143494285Y-89622380D02*
X143494285Y-90336666D01*
X143446666Y-90479523D01*
X143351428Y-90574761D01*
X143208571Y-90622380D01*
X143113333Y-90622380D01*
X144494285Y-90622380D02*
X143922857Y-90622380D01*
X144208571Y-90622380D02*
X144208571Y-89622380D01*
X144113333Y-89765238D01*
X144018095Y-89860476D01*
X143922857Y-89908095D01*
X145113333Y-89622380D02*
X145208571Y-89622380D01*
X145303809Y-89670000D01*
X145351428Y-89717619D01*
X145399047Y-89812857D01*
X145446666Y-90003333D01*
X145446666Y-90241428D01*
X145399047Y-90431904D01*
X145351428Y-90527142D01*
X145303809Y-90574761D01*
X145208571Y-90622380D01*
X145113333Y-90622380D01*
X145018095Y-90574761D01*
X144970476Y-90527142D01*
X144922857Y-90431904D01*
X144875238Y-90241428D01*
X144875238Y-90003333D01*
X144922857Y-89812857D01*
X144970476Y-89717619D01*
X145018095Y-89670000D01*
X145113333Y-89622380D01*
X145780000Y-89622380D02*
X146399047Y-89622380D01*
X146065714Y-90003333D01*
X146208571Y-90003333D01*
X146303809Y-90050952D01*
X146351428Y-90098571D01*
X146399047Y-90193809D01*
X146399047Y-90431904D01*
X146351428Y-90527142D01*
X146303809Y-90574761D01*
X146208571Y-90622380D01*
X145922857Y-90622380D01*
X145827619Y-90574761D01*
X145780000Y-90527142D01*
X130794285Y-83482380D02*
X130794285Y-84196666D01*
X130746666Y-84339523D01*
X130651428Y-84434761D01*
X130508571Y-84482380D01*
X130413333Y-84482380D01*
X131794285Y-84482380D02*
X131222857Y-84482380D01*
X131508571Y-84482380D02*
X131508571Y-83482380D01*
X131413333Y-83625238D01*
X131318095Y-83720476D01*
X131222857Y-83768095D01*
X132413333Y-83482380D02*
X132508571Y-83482380D01*
X132603809Y-83530000D01*
X132651428Y-83577619D01*
X132699047Y-83672857D01*
X132746666Y-83863333D01*
X132746666Y-84101428D01*
X132699047Y-84291904D01*
X132651428Y-84387142D01*
X132603809Y-84434761D01*
X132508571Y-84482380D01*
X132413333Y-84482380D01*
X132318095Y-84434761D01*
X132270476Y-84387142D01*
X132222857Y-84291904D01*
X132175238Y-84101428D01*
X132175238Y-83863333D01*
X132222857Y-83672857D01*
X132270476Y-83577619D01*
X132318095Y-83530000D01*
X132413333Y-83482380D01*
X133127619Y-83577619D02*
X133175238Y-83530000D01*
X133270476Y-83482380D01*
X133508571Y-83482380D01*
X133603809Y-83530000D01*
X133651428Y-83577619D01*
X133699047Y-83672857D01*
X133699047Y-83768095D01*
X133651428Y-83910952D01*
X133080000Y-84482380D01*
X133699047Y-84482380D01*
X121761428Y-80462380D02*
X121761428Y-79462380D01*
X122761428Y-80462380D02*
X122190000Y-80462380D01*
X122475714Y-80462380D02*
X122475714Y-79462380D01*
X122380476Y-79605238D01*
X122285238Y-79700476D01*
X122190000Y-79748095D01*
X123380476Y-79462380D02*
X123475714Y-79462380D01*
X123570952Y-79510000D01*
X123618571Y-79557619D01*
X123666190Y-79652857D01*
X123713809Y-79843333D01*
X123713809Y-80081428D01*
X123666190Y-80271904D01*
X123618571Y-80367142D01*
X123570952Y-80414761D01*
X123475714Y-80462380D01*
X123380476Y-80462380D01*
X123285238Y-80414761D01*
X123237619Y-80367142D01*
X123190000Y-80271904D01*
X123142380Y-80081428D01*
X123142380Y-79843333D01*
X123190000Y-79652857D01*
X123237619Y-79557619D01*
X123285238Y-79510000D01*
X123380476Y-79462380D01*
X124666190Y-80462380D02*
X124094761Y-80462380D01*
X124380476Y-80462380D02*
X124380476Y-79462380D01*
X124285238Y-79605238D01*
X124190000Y-79700476D01*
X124094761Y-79748095D01*
X142692380Y-86535476D02*
X141692380Y-86535476D01*
X141692380Y-86297380D01*
X141740000Y-86154523D01*
X141835238Y-86059285D01*
X141930476Y-86011666D01*
X142120952Y-85964047D01*
X142263809Y-85964047D01*
X142454285Y-86011666D01*
X142549523Y-86059285D01*
X142644761Y-86154523D01*
X142692380Y-86297380D01*
X142692380Y-86535476D01*
X142692380Y-85011666D02*
X142692380Y-85583095D01*
X142692380Y-85297380D02*
X141692380Y-85297380D01*
X141835238Y-85392619D01*
X141930476Y-85487857D01*
X141978095Y-85583095D01*
X141692380Y-84392619D02*
X141692380Y-84297380D01*
X141740000Y-84202142D01*
X141787619Y-84154523D01*
X141882857Y-84106904D01*
X142073333Y-84059285D01*
X142311428Y-84059285D01*
X142501904Y-84106904D01*
X142597142Y-84154523D01*
X142644761Y-84202142D01*
X142692380Y-84297380D01*
X142692380Y-84392619D01*
X142644761Y-84487857D01*
X142597142Y-84535476D01*
X142501904Y-84583095D01*
X142311428Y-84630714D01*
X142073333Y-84630714D01*
X141882857Y-84583095D01*
X141787619Y-84535476D01*
X141740000Y-84487857D01*
X141692380Y-84392619D01*
X141787619Y-83678333D02*
X141740000Y-83630714D01*
X141692380Y-83535476D01*
X141692380Y-83297380D01*
X141740000Y-83202142D01*
X141787619Y-83154523D01*
X141882857Y-83106904D01*
X141978095Y-83106904D01*
X142120952Y-83154523D01*
X142692380Y-83725952D01*
X142692380Y-83106904D01*
X135072380Y-86780476D02*
X134072380Y-86780476D01*
X134072380Y-86542380D01*
X134120000Y-86399523D01*
X134215238Y-86304285D01*
X134310476Y-86256666D01*
X134500952Y-86209047D01*
X134643809Y-86209047D01*
X134834285Y-86256666D01*
X134929523Y-86304285D01*
X135024761Y-86399523D01*
X135072380Y-86542380D01*
X135072380Y-86780476D01*
X135072380Y-85256666D02*
X135072380Y-85828095D01*
X135072380Y-85542380D02*
X134072380Y-85542380D01*
X134215238Y-85637619D01*
X134310476Y-85732857D01*
X134358095Y-85828095D01*
X134072380Y-84637619D02*
X134072380Y-84542380D01*
X134120000Y-84447142D01*
X134167619Y-84399523D01*
X134262857Y-84351904D01*
X134453333Y-84304285D01*
X134691428Y-84304285D01*
X134881904Y-84351904D01*
X134977142Y-84399523D01*
X135024761Y-84447142D01*
X135072380Y-84542380D01*
X135072380Y-84637619D01*
X135024761Y-84732857D01*
X134977142Y-84780476D01*
X134881904Y-84828095D01*
X134691428Y-84875714D01*
X134453333Y-84875714D01*
X134262857Y-84828095D01*
X134167619Y-84780476D01*
X134120000Y-84732857D01*
X134072380Y-84637619D01*
X135072380Y-83351904D02*
X135072380Y-83923333D01*
X135072380Y-83637619D02*
X134072380Y-83637619D01*
X134215238Y-83732857D01*
X134310476Y-83828095D01*
X134358095Y-83923333D01*
X113180952Y-99417142D02*
X113133333Y-99464761D01*
X112990476Y-99512380D01*
X112895238Y-99512380D01*
X112752380Y-99464761D01*
X112657142Y-99369523D01*
X112609523Y-99274285D01*
X112561904Y-99083809D01*
X112561904Y-98940952D01*
X112609523Y-98750476D01*
X112657142Y-98655238D01*
X112752380Y-98560000D01*
X112895238Y-98512380D01*
X112990476Y-98512380D01*
X113133333Y-98560000D01*
X113180952Y-98607619D01*
X114133333Y-99512380D02*
X113561904Y-99512380D01*
X113847619Y-99512380D02*
X113847619Y-98512380D01*
X113752380Y-98655238D01*
X113657142Y-98750476D01*
X113561904Y-98798095D01*
X114752380Y-98512380D02*
X114847619Y-98512380D01*
X114942857Y-98560000D01*
X114990476Y-98607619D01*
X115038095Y-98702857D01*
X115085714Y-98893333D01*
X115085714Y-99131428D01*
X115038095Y-99321904D01*
X114990476Y-99417142D01*
X114942857Y-99464761D01*
X114847619Y-99512380D01*
X114752380Y-99512380D01*
X114657142Y-99464761D01*
X114609523Y-99417142D01*
X114561904Y-99321904D01*
X114514285Y-99131428D01*
X114514285Y-98893333D01*
X114561904Y-98702857D01*
X114609523Y-98607619D01*
X114657142Y-98560000D01*
X114752380Y-98512380D01*
X115657142Y-98940952D02*
X115561904Y-98893333D01*
X115514285Y-98845714D01*
X115466666Y-98750476D01*
X115466666Y-98702857D01*
X115514285Y-98607619D01*
X115561904Y-98560000D01*
X115657142Y-98512380D01*
X115847619Y-98512380D01*
X115942857Y-98560000D01*
X115990476Y-98607619D01*
X116038095Y-98702857D01*
X116038095Y-98750476D01*
X115990476Y-98845714D01*
X115942857Y-98893333D01*
X115847619Y-98940952D01*
X115657142Y-98940952D01*
X115561904Y-98988571D01*
X115514285Y-99036190D01*
X115466666Y-99131428D01*
X115466666Y-99321904D01*
X115514285Y-99417142D01*
X115561904Y-99464761D01*
X115657142Y-99512380D01*
X115847619Y-99512380D01*
X115942857Y-99464761D01*
X115990476Y-99417142D01*
X116038095Y-99321904D01*
X116038095Y-99131428D01*
X115990476Y-99036190D01*
X115942857Y-98988571D01*
X115847619Y-98940952D01*
X113180952Y-77417142D02*
X113133333Y-77464761D01*
X112990476Y-77512380D01*
X112895238Y-77512380D01*
X112752380Y-77464761D01*
X112657142Y-77369523D01*
X112609523Y-77274285D01*
X112561904Y-77083809D01*
X112561904Y-76940952D01*
X112609523Y-76750476D01*
X112657142Y-76655238D01*
X112752380Y-76560000D01*
X112895238Y-76512380D01*
X112990476Y-76512380D01*
X113133333Y-76560000D01*
X113180952Y-76607619D01*
X114133333Y-77512380D02*
X113561904Y-77512380D01*
X113847619Y-77512380D02*
X113847619Y-76512380D01*
X113752380Y-76655238D01*
X113657142Y-76750476D01*
X113561904Y-76798095D01*
X114752380Y-76512380D02*
X114847619Y-76512380D01*
X114942857Y-76560000D01*
X114990476Y-76607619D01*
X115038095Y-76702857D01*
X115085714Y-76893333D01*
X115085714Y-77131428D01*
X115038095Y-77321904D01*
X114990476Y-77417142D01*
X114942857Y-77464761D01*
X114847619Y-77512380D01*
X114752380Y-77512380D01*
X114657142Y-77464761D01*
X114609523Y-77417142D01*
X114561904Y-77321904D01*
X114514285Y-77131428D01*
X114514285Y-76893333D01*
X114561904Y-76702857D01*
X114609523Y-76607619D01*
X114657142Y-76560000D01*
X114752380Y-76512380D01*
X115419047Y-76512380D02*
X116085714Y-76512380D01*
X115657142Y-77512380D01*
X120800952Y-98147142D02*
X120753333Y-98194761D01*
X120610476Y-98242380D01*
X120515238Y-98242380D01*
X120372380Y-98194761D01*
X120277142Y-98099523D01*
X120229523Y-98004285D01*
X120181904Y-97813809D01*
X120181904Y-97670952D01*
X120229523Y-97480476D01*
X120277142Y-97385238D01*
X120372380Y-97290000D01*
X120515238Y-97242380D01*
X120610476Y-97242380D01*
X120753333Y-97290000D01*
X120800952Y-97337619D01*
X121753333Y-98242380D02*
X121181904Y-98242380D01*
X121467619Y-98242380D02*
X121467619Y-97242380D01*
X121372380Y-97385238D01*
X121277142Y-97480476D01*
X121181904Y-97528095D01*
X122372380Y-97242380D02*
X122467619Y-97242380D01*
X122562857Y-97290000D01*
X122610476Y-97337619D01*
X122658095Y-97432857D01*
X122705714Y-97623333D01*
X122705714Y-97861428D01*
X122658095Y-98051904D01*
X122610476Y-98147142D01*
X122562857Y-98194761D01*
X122467619Y-98242380D01*
X122372380Y-98242380D01*
X122277142Y-98194761D01*
X122229523Y-98147142D01*
X122181904Y-98051904D01*
X122134285Y-97861428D01*
X122134285Y-97623333D01*
X122181904Y-97432857D01*
X122229523Y-97337619D01*
X122277142Y-97290000D01*
X122372380Y-97242380D01*
X123562857Y-97242380D02*
X123372380Y-97242380D01*
X123277142Y-97290000D01*
X123229523Y-97337619D01*
X123134285Y-97480476D01*
X123086666Y-97670952D01*
X123086666Y-98051904D01*
X123134285Y-98147142D01*
X123181904Y-98194761D01*
X123277142Y-98242380D01*
X123467619Y-98242380D01*
X123562857Y-98194761D01*
X123610476Y-98147142D01*
X123658095Y-98051904D01*
X123658095Y-97813809D01*
X123610476Y-97718571D01*
X123562857Y-97670952D01*
X123467619Y-97623333D01*
X123277142Y-97623333D01*
X123181904Y-97670952D01*
X123134285Y-97718571D01*
X123086666Y-97813809D01*
X130757142Y-96369047D02*
X130804761Y-96416666D01*
X130852380Y-96559523D01*
X130852380Y-96654761D01*
X130804761Y-96797619D01*
X130709523Y-96892857D01*
X130614285Y-96940476D01*
X130423809Y-96988095D01*
X130280952Y-96988095D01*
X130090476Y-96940476D01*
X129995238Y-96892857D01*
X129900000Y-96797619D01*
X129852380Y-96654761D01*
X129852380Y-96559523D01*
X129900000Y-96416666D01*
X129947619Y-96369047D01*
X130852380Y-95416666D02*
X130852380Y-95988095D01*
X130852380Y-95702380D02*
X129852380Y-95702380D01*
X129995238Y-95797619D01*
X130090476Y-95892857D01*
X130138095Y-95988095D01*
X129852380Y-94797619D02*
X129852380Y-94702380D01*
X129900000Y-94607142D01*
X129947619Y-94559523D01*
X130042857Y-94511904D01*
X130233333Y-94464285D01*
X130471428Y-94464285D01*
X130661904Y-94511904D01*
X130757142Y-94559523D01*
X130804761Y-94607142D01*
X130852380Y-94702380D01*
X130852380Y-94797619D01*
X130804761Y-94892857D01*
X130757142Y-94940476D01*
X130661904Y-94988095D01*
X130471428Y-95035714D01*
X130233333Y-95035714D01*
X130042857Y-94988095D01*
X129947619Y-94940476D01*
X129900000Y-94892857D01*
X129852380Y-94797619D01*
X129852380Y-93559523D02*
X129852380Y-94035714D01*
X130328571Y-94083333D01*
X130280952Y-94035714D01*
X130233333Y-93940476D01*
X130233333Y-93702380D01*
X130280952Y-93607142D01*
X130328571Y-93559523D01*
X130423809Y-93511904D01*
X130661904Y-93511904D01*
X130757142Y-93559523D01*
X130804761Y-93607142D01*
X130852380Y-93702380D01*
X130852380Y-93940476D01*
X130804761Y-94035714D01*
X130757142Y-94083333D01*
X111910952Y-86307142D02*
X111863333Y-86354761D01*
X111720476Y-86402380D01*
X111625238Y-86402380D01*
X111482380Y-86354761D01*
X111387142Y-86259523D01*
X111339523Y-86164285D01*
X111291904Y-85973809D01*
X111291904Y-85830952D01*
X111339523Y-85640476D01*
X111387142Y-85545238D01*
X111482380Y-85450000D01*
X111625238Y-85402380D01*
X111720476Y-85402380D01*
X111863333Y-85450000D01*
X111910952Y-85497619D01*
X112863333Y-86402380D02*
X112291904Y-86402380D01*
X112577619Y-86402380D02*
X112577619Y-85402380D01*
X112482380Y-85545238D01*
X112387142Y-85640476D01*
X112291904Y-85688095D01*
X113482380Y-85402380D02*
X113577619Y-85402380D01*
X113672857Y-85450000D01*
X113720476Y-85497619D01*
X113768095Y-85592857D01*
X113815714Y-85783333D01*
X113815714Y-86021428D01*
X113768095Y-86211904D01*
X113720476Y-86307142D01*
X113672857Y-86354761D01*
X113577619Y-86402380D01*
X113482380Y-86402380D01*
X113387142Y-86354761D01*
X113339523Y-86307142D01*
X113291904Y-86211904D01*
X113244285Y-86021428D01*
X113244285Y-85783333D01*
X113291904Y-85592857D01*
X113339523Y-85497619D01*
X113387142Y-85450000D01*
X113482380Y-85402380D01*
X114672857Y-85735714D02*
X114672857Y-86402380D01*
X114434761Y-85354761D02*
X114196666Y-86069047D01*
X114815714Y-86069047D01*
X108100952Y-96877142D02*
X108053333Y-96924761D01*
X107910476Y-96972380D01*
X107815238Y-96972380D01*
X107672380Y-96924761D01*
X107577142Y-96829523D01*
X107529523Y-96734285D01*
X107481904Y-96543809D01*
X107481904Y-96400952D01*
X107529523Y-96210476D01*
X107577142Y-96115238D01*
X107672380Y-96020000D01*
X107815238Y-95972380D01*
X107910476Y-95972380D01*
X108053333Y-96020000D01*
X108100952Y-96067619D01*
X109053333Y-96972380D02*
X108481904Y-96972380D01*
X108767619Y-96972380D02*
X108767619Y-95972380D01*
X108672380Y-96115238D01*
X108577142Y-96210476D01*
X108481904Y-96258095D01*
X109672380Y-95972380D02*
X109767619Y-95972380D01*
X109862857Y-96020000D01*
X109910476Y-96067619D01*
X109958095Y-96162857D01*
X110005714Y-96353333D01*
X110005714Y-96591428D01*
X109958095Y-96781904D01*
X109910476Y-96877142D01*
X109862857Y-96924761D01*
X109767619Y-96972380D01*
X109672380Y-96972380D01*
X109577142Y-96924761D01*
X109529523Y-96877142D01*
X109481904Y-96781904D01*
X109434285Y-96591428D01*
X109434285Y-96353333D01*
X109481904Y-96162857D01*
X109529523Y-96067619D01*
X109577142Y-96020000D01*
X109672380Y-95972380D01*
X110339047Y-95972380D02*
X110958095Y-95972380D01*
X110624761Y-96353333D01*
X110767619Y-96353333D01*
X110862857Y-96400952D01*
X110910476Y-96448571D01*
X110958095Y-96543809D01*
X110958095Y-96781904D01*
X110910476Y-96877142D01*
X110862857Y-96924761D01*
X110767619Y-96972380D01*
X110481904Y-96972380D01*
X110386666Y-96924761D01*
X110339047Y-96877142D01*
X127150952Y-80367142D02*
X127103333Y-80414761D01*
X126960476Y-80462380D01*
X126865238Y-80462380D01*
X126722380Y-80414761D01*
X126627142Y-80319523D01*
X126579523Y-80224285D01*
X126531904Y-80033809D01*
X126531904Y-79890952D01*
X126579523Y-79700476D01*
X126627142Y-79605238D01*
X126722380Y-79510000D01*
X126865238Y-79462380D01*
X126960476Y-79462380D01*
X127103333Y-79510000D01*
X127150952Y-79557619D01*
X128103333Y-80462380D02*
X127531904Y-80462380D01*
X127817619Y-80462380D02*
X127817619Y-79462380D01*
X127722380Y-79605238D01*
X127627142Y-79700476D01*
X127531904Y-79748095D01*
X128722380Y-79462380D02*
X128817619Y-79462380D01*
X128912857Y-79510000D01*
X128960476Y-79557619D01*
X129008095Y-79652857D01*
X129055714Y-79843333D01*
X129055714Y-80081428D01*
X129008095Y-80271904D01*
X128960476Y-80367142D01*
X128912857Y-80414761D01*
X128817619Y-80462380D01*
X128722380Y-80462380D01*
X128627142Y-80414761D01*
X128579523Y-80367142D01*
X128531904Y-80271904D01*
X128484285Y-80081428D01*
X128484285Y-79843333D01*
X128531904Y-79652857D01*
X128579523Y-79557619D01*
X128627142Y-79510000D01*
X128722380Y-79462380D01*
X129436666Y-79557619D02*
X129484285Y-79510000D01*
X129579523Y-79462380D01*
X129817619Y-79462380D01*
X129912857Y-79510000D01*
X129960476Y-79557619D01*
X130008095Y-79652857D01*
X130008095Y-79748095D01*
X129960476Y-79890952D01*
X129389047Y-80462380D01*
X130008095Y-80462380D01*
X113180952Y-81227142D02*
X113133333Y-81274761D01*
X112990476Y-81322380D01*
X112895238Y-81322380D01*
X112752380Y-81274761D01*
X112657142Y-81179523D01*
X112609523Y-81084285D01*
X112561904Y-80893809D01*
X112561904Y-80750952D01*
X112609523Y-80560476D01*
X112657142Y-80465238D01*
X112752380Y-80370000D01*
X112895238Y-80322380D01*
X112990476Y-80322380D01*
X113133333Y-80370000D01*
X113180952Y-80417619D01*
X114133333Y-81322380D02*
X113561904Y-81322380D01*
X113847619Y-81322380D02*
X113847619Y-80322380D01*
X113752380Y-80465238D01*
X113657142Y-80560476D01*
X113561904Y-80608095D01*
X114752380Y-80322380D02*
X114847619Y-80322380D01*
X114942857Y-80370000D01*
X114990476Y-80417619D01*
X115038095Y-80512857D01*
X115085714Y-80703333D01*
X115085714Y-80941428D01*
X115038095Y-81131904D01*
X114990476Y-81227142D01*
X114942857Y-81274761D01*
X114847619Y-81322380D01*
X114752380Y-81322380D01*
X114657142Y-81274761D01*
X114609523Y-81227142D01*
X114561904Y-81131904D01*
X114514285Y-80941428D01*
X114514285Y-80703333D01*
X114561904Y-80512857D01*
X114609523Y-80417619D01*
X114657142Y-80370000D01*
X114752380Y-80322380D01*
X116038095Y-81322380D02*
X115466666Y-81322380D01*
X115752380Y-81322380D02*
X115752380Y-80322380D01*
X115657142Y-80465238D01*
X115561904Y-80560476D01*
X115466666Y-80608095D01*
%LPC*%
D12*
X109220000Y-82550000D03*
X104140000Y-82550000D03*
D13*
X121860000Y-95567500D03*
X121860000Y-94932500D03*
X121860000Y-94297500D03*
X121860000Y-93662500D03*
X121860000Y-93027500D03*
X121860000Y-92392500D03*
X121860000Y-91757500D03*
X121860000Y-91122500D03*
X121860000Y-90487500D03*
X121860000Y-89852500D03*
X127060000Y-89852500D03*
X127060000Y-90487500D03*
X127060000Y-91122500D03*
X127060000Y-91757500D03*
X127060000Y-92392500D03*
X127060000Y-93027500D03*
X127060000Y-93662500D03*
X127060000Y-94297500D03*
X127060000Y-94932500D03*
X127060000Y-95567500D03*
G36*
G01*
X139249999Y-90570000D02*
X140150001Y-90570000D01*
G75*
G02*
X140400000Y-90819999I0J-249999D01*
G01*
X140400000Y-91520001D01*
G75*
G02*
X140150001Y-91770000I-249999J0D01*
G01*
X139249999Y-91770000D01*
G75*
G02*
X139000000Y-91520001I0J249999D01*
G01*
X139000000Y-90819999D01*
G75*
G02*
X139249999Y-90570000I249999J0D01*
G01*
G37*
G36*
G01*
X139249999Y-88570000D02*
X140150001Y-88570000D01*
G75*
G02*
X140400000Y-88819999I0J-249999D01*
G01*
X140400000Y-89520001D01*
G75*
G02*
X140150001Y-89770000I-249999J0D01*
G01*
X139249999Y-89770000D01*
G75*
G02*
X139000000Y-89520001I0J249999D01*
G01*
X139000000Y-88819999D01*
G75*
G02*
X139249999Y-88570000I249999J0D01*
G01*
G37*
G36*
G01*
X135439999Y-90300000D02*
X136340001Y-90300000D01*
G75*
G02*
X136590000Y-90549999I0J-249999D01*
G01*
X136590000Y-91250001D01*
G75*
G02*
X136340001Y-91500000I-249999J0D01*
G01*
X135439999Y-91500000D01*
G75*
G02*
X135190000Y-91250001I0J249999D01*
G01*
X135190000Y-90549999D01*
G75*
G02*
X135439999Y-90300000I249999J0D01*
G01*
G37*
G36*
G01*
X135439999Y-88300000D02*
X136340001Y-88300000D01*
G75*
G02*
X136590000Y-88549999I0J-249999D01*
G01*
X136590000Y-89250001D01*
G75*
G02*
X136340001Y-89500000I-249999J0D01*
G01*
X135439999Y-89500000D01*
G75*
G02*
X135190000Y-89250001I0J249999D01*
G01*
X135190000Y-88549999D01*
G75*
G02*
X135439999Y-88300000I249999J0D01*
G01*
G37*
G36*
G01*
X113430000Y-90620001D02*
X113430000Y-89719999D01*
G75*
G02*
X113679999Y-89470000I249999J0D01*
G01*
X114380001Y-89470000D01*
G75*
G02*
X114630000Y-89719999I0J-249999D01*
G01*
X114630000Y-90620001D01*
G75*
G02*
X114380001Y-90870000I-249999J0D01*
G01*
X113679999Y-90870000D01*
G75*
G02*
X113430000Y-90620001I0J249999D01*
G01*
G37*
G36*
G01*
X111430000Y-90620001D02*
X111430000Y-89719999D01*
G75*
G02*
X111679999Y-89470000I249999J0D01*
G01*
X112380001Y-89470000D01*
G75*
G02*
X112630000Y-89719999I0J-249999D01*
G01*
X112630000Y-90620001D01*
G75*
G02*
X112380001Y-90870000I-249999J0D01*
G01*
X111679999Y-90870000D01*
G75*
G02*
X111430000Y-90620001I0J249999D01*
G01*
G37*
G36*
G01*
X113430000Y-94430001D02*
X113430000Y-93529999D01*
G75*
G02*
X113679999Y-93280000I249999J0D01*
G01*
X114380001Y-93280000D01*
G75*
G02*
X114630000Y-93529999I0J-249999D01*
G01*
X114630000Y-94430001D01*
G75*
G02*
X114380001Y-94680000I-249999J0D01*
G01*
X113679999Y-94680000D01*
G75*
G02*
X113430000Y-94430001I0J249999D01*
G01*
G37*
G36*
G01*
X111430000Y-94430001D02*
X111430000Y-93529999D01*
G75*
G02*
X111679999Y-93280000I249999J0D01*
G01*
X112380001Y-93280000D01*
G75*
G02*
X112630000Y-93529999I0J-249999D01*
G01*
X112630000Y-94430001D01*
G75*
G02*
X112380001Y-94680000I-249999J0D01*
G01*
X111679999Y-94680000D01*
G75*
G02*
X111430000Y-94430001I0J249999D01*
G01*
G37*
D14*
X143510000Y-97790000D03*
X143510000Y-95250000D03*
D15*
X143510000Y-92710000D03*
D14*
X132080000Y-91440000D03*
X132080000Y-88900000D03*
D15*
X132080000Y-86360000D03*
D16*
X104105000Y-94207500D03*
D17*
X104105000Y-91507500D03*
D18*
X104105000Y-96032500D03*
X104105000Y-89282500D03*
D19*
X106680000Y-95145000D03*
X106680000Y-90170000D03*
D20*
X106765000Y-93957500D03*
X106765000Y-93307500D03*
X106765000Y-92657500D03*
X106765000Y-92007500D03*
X106765000Y-91357500D03*
D21*
X124140001Y-85185250D03*
X122239999Y-85185250D03*
X122239999Y-82454750D03*
X123190000Y-82454750D03*
X124140001Y-82454750D03*
G36*
G01*
X140150001Y-84395000D02*
X139249999Y-84395000D01*
G75*
G02*
X139000000Y-84145001I0J249999D01*
G01*
X139000000Y-83494999D01*
G75*
G02*
X139249999Y-83245000I249999J0D01*
G01*
X140150001Y-83245000D01*
G75*
G02*
X140400000Y-83494999I0J-249999D01*
G01*
X140400000Y-84145001D01*
G75*
G02*
X140150001Y-84395000I-249999J0D01*
G01*
G37*
G36*
G01*
X140150001Y-86445000D02*
X139249999Y-86445000D01*
G75*
G02*
X139000000Y-86195001I0J249999D01*
G01*
X139000000Y-85544999D01*
G75*
G02*
X139249999Y-85295000I249999J0D01*
G01*
X140150001Y-85295000D01*
G75*
G02*
X140400000Y-85544999I0J-249999D01*
G01*
X140400000Y-86195001D01*
G75*
G02*
X140150001Y-86445000I-249999J0D01*
G01*
G37*
G36*
G01*
X136340001Y-84395000D02*
X135439999Y-84395000D01*
G75*
G02*
X135190000Y-84145001I0J249999D01*
G01*
X135190000Y-83494999D01*
G75*
G02*
X135439999Y-83245000I249999J0D01*
G01*
X136340001Y-83245000D01*
G75*
G02*
X136590000Y-83494999I0J-249999D01*
G01*
X136590000Y-84145001D01*
G75*
G02*
X136340001Y-84395000I-249999J0D01*
G01*
G37*
G36*
G01*
X136340001Y-86445000D02*
X135439999Y-86445000D01*
G75*
G02*
X135190000Y-86195001I0J249999D01*
G01*
X135190000Y-85544999D01*
G75*
G02*
X135439999Y-85295000I249999J0D01*
G01*
X136340001Y-85295000D01*
G75*
G02*
X136590000Y-85544999I0J-249999D01*
G01*
X136590000Y-86195001D01*
G75*
G02*
X136340001Y-86445000I-249999J0D01*
G01*
G37*
G36*
G01*
X117660000Y-98585000D02*
X117660000Y-99535000D01*
G75*
G02*
X117410000Y-99785000I-250000J0D01*
G01*
X116735000Y-99785000D01*
G75*
G02*
X116485000Y-99535000I0J250000D01*
G01*
X116485000Y-98585000D01*
G75*
G02*
X116735000Y-98335000I250000J0D01*
G01*
X117410000Y-98335000D01*
G75*
G02*
X117660000Y-98585000I0J-250000D01*
G01*
G37*
G36*
G01*
X119735000Y-98585000D02*
X119735000Y-99535000D01*
G75*
G02*
X119485000Y-99785000I-250000J0D01*
G01*
X118810000Y-99785000D01*
G75*
G02*
X118560000Y-99535000I0J250000D01*
G01*
X118560000Y-98585000D01*
G75*
G02*
X118810000Y-98335000I250000J0D01*
G01*
X119485000Y-98335000D01*
G75*
G02*
X119735000Y-98585000I0J-250000D01*
G01*
G37*
G36*
G01*
X114750000Y-79215000D02*
X114750000Y-78265000D01*
G75*
G02*
X115000000Y-78015000I250000J0D01*
G01*
X115675000Y-78015000D01*
G75*
G02*
X115925000Y-78265000I0J-250000D01*
G01*
X115925000Y-79215000D01*
G75*
G02*
X115675000Y-79465000I-250000J0D01*
G01*
X115000000Y-79465000D01*
G75*
G02*
X114750000Y-79215000I0J250000D01*
G01*
G37*
G36*
G01*
X112675000Y-79215000D02*
X112675000Y-78265000D01*
G75*
G02*
X112925000Y-78015000I250000J0D01*
G01*
X113600000Y-78015000D01*
G75*
G02*
X113850000Y-78265000I0J-250000D01*
G01*
X113850000Y-79215000D01*
G75*
G02*
X113600000Y-79465000I-250000J0D01*
G01*
X112925000Y-79465000D01*
G75*
G02*
X112675000Y-79215000I0J250000D01*
G01*
G37*
G36*
G01*
X117660000Y-96045000D02*
X117660000Y-96995000D01*
G75*
G02*
X117410000Y-97245000I-250000J0D01*
G01*
X116735000Y-97245000D01*
G75*
G02*
X116485000Y-96995000I0J250000D01*
G01*
X116485000Y-96045000D01*
G75*
G02*
X116735000Y-95795000I250000J0D01*
G01*
X117410000Y-95795000D01*
G75*
G02*
X117660000Y-96045000I0J-250000D01*
G01*
G37*
G36*
G01*
X119735000Y-96045000D02*
X119735000Y-96995000D01*
G75*
G02*
X119485000Y-97245000I-250000J0D01*
G01*
X118810000Y-97245000D01*
G75*
G02*
X118560000Y-96995000I0J250000D01*
G01*
X118560000Y-96045000D01*
G75*
G02*
X118810000Y-95795000I250000J0D01*
G01*
X119485000Y-95795000D01*
G75*
G02*
X119735000Y-96045000I0J-250000D01*
G01*
G37*
G36*
G01*
X132555000Y-94800000D02*
X131605000Y-94800000D01*
G75*
G02*
X131355000Y-94550000I0J250000D01*
G01*
X131355000Y-93875000D01*
G75*
G02*
X131605000Y-93625000I250000J0D01*
G01*
X132555000Y-93625000D01*
G75*
G02*
X132805000Y-93875000I0J-250000D01*
G01*
X132805000Y-94550000D01*
G75*
G02*
X132555000Y-94800000I-250000J0D01*
G01*
G37*
G36*
G01*
X132555000Y-96875000D02*
X131605000Y-96875000D01*
G75*
G02*
X131355000Y-96625000I0J250000D01*
G01*
X131355000Y-95950000D01*
G75*
G02*
X131605000Y-95700000I250000J0D01*
G01*
X132555000Y-95700000D01*
G75*
G02*
X132805000Y-95950000I0J-250000D01*
G01*
X132805000Y-96625000D01*
G75*
G02*
X132555000Y-96875000I-250000J0D01*
G01*
G37*
G36*
G01*
X113480000Y-88105000D02*
X113480000Y-87155000D01*
G75*
G02*
X113730000Y-86905000I250000J0D01*
G01*
X114405000Y-86905000D01*
G75*
G02*
X114655000Y-87155000I0J-250000D01*
G01*
X114655000Y-88105000D01*
G75*
G02*
X114405000Y-88355000I-250000J0D01*
G01*
X113730000Y-88355000D01*
G75*
G02*
X113480000Y-88105000I0J250000D01*
G01*
G37*
G36*
G01*
X111405000Y-88105000D02*
X111405000Y-87155000D01*
G75*
G02*
X111655000Y-86905000I250000J0D01*
G01*
X112330000Y-86905000D01*
G75*
G02*
X112580000Y-87155000I0J-250000D01*
G01*
X112580000Y-88105000D01*
G75*
G02*
X112330000Y-88355000I-250000J0D01*
G01*
X111655000Y-88355000D01*
G75*
G02*
X111405000Y-88105000I0J250000D01*
G01*
G37*
G36*
G01*
X113480000Y-96995000D02*
X113480000Y-96045000D01*
G75*
G02*
X113730000Y-95795000I250000J0D01*
G01*
X114405000Y-95795000D01*
G75*
G02*
X114655000Y-96045000I0J-250000D01*
G01*
X114655000Y-96995000D01*
G75*
G02*
X114405000Y-97245000I-250000J0D01*
G01*
X113730000Y-97245000D01*
G75*
G02*
X113480000Y-96995000I0J250000D01*
G01*
G37*
G36*
G01*
X111405000Y-96995000D02*
X111405000Y-96045000D01*
G75*
G02*
X111655000Y-95795000I250000J0D01*
G01*
X112330000Y-95795000D01*
G75*
G02*
X112580000Y-96045000I0J-250000D01*
G01*
X112580000Y-96995000D01*
G75*
G02*
X112330000Y-97245000I-250000J0D01*
G01*
X111655000Y-97245000D01*
G75*
G02*
X111405000Y-96995000I0J250000D01*
G01*
G37*
G36*
G01*
X128745000Y-83602500D02*
X127795000Y-83602500D01*
G75*
G02*
X127545000Y-83352500I0J250000D01*
G01*
X127545000Y-82677500D01*
G75*
G02*
X127795000Y-82427500I250000J0D01*
G01*
X128745000Y-82427500D01*
G75*
G02*
X128995000Y-82677500I0J-250000D01*
G01*
X128995000Y-83352500D01*
G75*
G02*
X128745000Y-83602500I-250000J0D01*
G01*
G37*
G36*
G01*
X128745000Y-85677500D02*
X127795000Y-85677500D01*
G75*
G02*
X127545000Y-85427500I0J250000D01*
G01*
X127545000Y-84752500D01*
G75*
G02*
X127795000Y-84502500I250000J0D01*
G01*
X128745000Y-84502500D01*
G75*
G02*
X128995000Y-84752500I0J-250000D01*
G01*
X128995000Y-85427500D01*
G75*
G02*
X128745000Y-85677500I-250000J0D01*
G01*
G37*
G36*
G01*
X114750000Y-83025000D02*
X114750000Y-82075000D01*
G75*
G02*
X115000000Y-81825000I250000J0D01*
G01*
X115675000Y-81825000D01*
G75*
G02*
X115925000Y-82075000I0J-250000D01*
G01*
X115925000Y-83025000D01*
G75*
G02*
X115675000Y-83275000I-250000J0D01*
G01*
X115000000Y-83275000D01*
G75*
G02*
X114750000Y-83025000I0J250000D01*
G01*
G37*
G36*
G01*
X112675000Y-83025000D02*
X112675000Y-82075000D01*
G75*
G02*
X112925000Y-81825000I250000J0D01*
G01*
X113600000Y-81825000D01*
G75*
G02*
X113850000Y-82075000I0J-250000D01*
G01*
X113850000Y-83025000D01*
G75*
G02*
X113600000Y-83275000I-250000J0D01*
G01*
X112925000Y-83275000D01*
G75*
G02*
X112675000Y-83025000I0J250000D01*
G01*
G37*
M02*
