G04 #@! TF.GenerationSoftware,KiCad,Pcbnew,6.0.6*
G04 #@! TF.CreationDate,2022-07-17T12:38:06-07:00*
G04 #@! TF.ProjectId,ultimate-uart-bridge,756c7469-6d61-4746-952d-756172742d62,rev?*
G04 #@! TF.SameCoordinates,Original*
G04 #@! TF.FileFunction,Copper,L1,Top*
G04 #@! TF.FilePolarity,Positive*
%FSLAX46Y46*%
G04 Gerber Fmt 4.6, Leading zero omitted, Abs format (unit mm)*
G04 Created by KiCad (PCBNEW 6.0.6) date 2022-07-17 12:38:06*
%MOMM*%
%LPD*%
G01*
G04 APERTURE LIST*
G04 Aperture macros list*
%AMRoundRect*
0 Rectangle with rounded corners*
0 $1 Rounding radius*
0 $2 $3 $4 $5 $6 $7 $8 $9 X,Y pos of 4 corners*
0 Add a 4 corners polygon primitive as box body*
4,1,4,$2,$3,$4,$5,$6,$7,$8,$9,$2,$3,0*
0 Add four circle primitives for the rounded corners*
1,1,$1+$1,$2,$3*
1,1,$1+$1,$4,$5*
1,1,$1+$1,$6,$7*
1,1,$1+$1,$8,$9*
0 Add four rect primitives between the rounded corners*
20,1,$1+$1,$2,$3,$4,$5,0*
20,1,$1+$1,$4,$5,$6,$7,0*
20,1,$1+$1,$6,$7,$8,$9,0*
20,1,$1+$1,$8,$9,$2,$3,0*%
G04 Aperture macros list end*
G04 #@! TA.AperFunction,SMDPad,CuDef*
%ADD10RoundRect,0.250000X-0.450000X0.350000X-0.450000X-0.350000X0.450000X-0.350000X0.450000X0.350000X0*%
G04 #@! TD*
G04 #@! TA.AperFunction,SMDPad,CuDef*
%ADD11RoundRect,0.250000X-0.475000X0.337500X-0.475000X-0.337500X0.475000X-0.337500X0.475000X0.337500X0*%
G04 #@! TD*
G04 #@! TA.AperFunction,SMDPad,CuDef*
%ADD12RoundRect,0.250000X0.325000X0.450000X-0.325000X0.450000X-0.325000X-0.450000X0.325000X-0.450000X0*%
G04 #@! TD*
G04 #@! TA.AperFunction,SMDPad,CuDef*
%ADD13RoundRect,0.250000X-0.350000X-0.450000X0.350000X-0.450000X0.350000X0.450000X-0.350000X0.450000X0*%
G04 #@! TD*
G04 #@! TA.AperFunction,SMDPad,CuDef*
%ADD14RoundRect,0.250000X-0.337500X-0.475000X0.337500X-0.475000X0.337500X0.475000X-0.337500X0.475000X0*%
G04 #@! TD*
G04 #@! TA.AperFunction,SMDPad,CuDef*
%ADD15RoundRect,0.250000X0.337500X0.475000X-0.337500X0.475000X-0.337500X-0.475000X0.337500X-0.475000X0*%
G04 #@! TD*
G04 #@! TA.AperFunction,SMDPad,CuDef*
%ADD16RoundRect,0.250000X0.450000X-0.325000X0.450000X0.325000X-0.450000X0.325000X-0.450000X-0.325000X0*%
G04 #@! TD*
G04 #@! TA.AperFunction,SMDPad,CuDef*
%ADD17R,1.000000X3.150000*%
G04 #@! TD*
G04 #@! TA.AperFunction,SMDPad,CuDef*
%ADD18R,0.650000X1.560000*%
G04 #@! TD*
G04 #@! TA.AperFunction,SMDPad,CuDef*
%ADD19R,2.510000X1.000000*%
G04 #@! TD*
G04 #@! TA.AperFunction,ComponentPad*
%ADD20C,0.700000*%
G04 #@! TD*
G04 #@! TA.AperFunction,ComponentPad*
%ADD21O,2.400000X0.900000*%
G04 #@! TD*
G04 #@! TA.AperFunction,ComponentPad*
%ADD22O,1.700000X0.900000*%
G04 #@! TD*
G04 #@! TA.AperFunction,SMDPad,CuDef*
%ADD23RoundRect,0.250000X0.450000X-0.350000X0.450000X0.350000X-0.450000X0.350000X-0.450000X-0.350000X0*%
G04 #@! TD*
G04 #@! TA.AperFunction,SMDPad,CuDef*
%ADD24R,1.200000X0.400000*%
G04 #@! TD*
G04 #@! TA.AperFunction,ViaPad*
%ADD25C,0.700000*%
G04 #@! TD*
G04 #@! TA.AperFunction,Conductor*
%ADD26C,0.200000*%
G04 #@! TD*
G04 #@! TA.AperFunction,Conductor*
%ADD27C,0.300000*%
G04 #@! TD*
G04 APERTURE END LIST*
D10*
X101854000Y-70374000D03*
X101854000Y-72374000D03*
D11*
X105156000Y-89365000D03*
X105156000Y-91440000D03*
X115570000Y-89386500D03*
X115570000Y-91461500D03*
D10*
X145288000Y-86376000D03*
X145288000Y-88376000D03*
D12*
X113039000Y-75946000D03*
X110989000Y-75946000D03*
D13*
X111014000Y-79502000D03*
X113014000Y-79502000D03*
D11*
X112014000Y-89386500D03*
X112014000Y-91461500D03*
D14*
X122660500Y-73152000D03*
X124735500Y-73152000D03*
D10*
X149352000Y-86376000D03*
X149352000Y-88376000D03*
D15*
X113051500Y-72136000D03*
X110976500Y-72136000D03*
D16*
X145288000Y-81797000D03*
X145288000Y-79747000D03*
D13*
X111014000Y-81534000D03*
X113014000Y-81534000D03*
D15*
X124735500Y-76708000D03*
X122660500Y-76708000D03*
D17*
X134620000Y-75931000D03*
X134620000Y-70881000D03*
X137160000Y-75931000D03*
X137160000Y-70881000D03*
X139700000Y-75931000D03*
X139700000Y-70881000D03*
D16*
X149352000Y-81797000D03*
X149352000Y-79747000D03*
D18*
X118552000Y-74596000D03*
X117602000Y-74596000D03*
X116652000Y-74596000D03*
X116652000Y-77296000D03*
X118552000Y-77296000D03*
D11*
X101600000Y-89365000D03*
X101600000Y-91440000D03*
D19*
X158119000Y-83312000D03*
X154809000Y-80772000D03*
X158119000Y-78232000D03*
D20*
X105625000Y-78305000D03*
X105625000Y-79155000D03*
X105625000Y-80005000D03*
X105625000Y-80855000D03*
X105625000Y-81705000D03*
X105625000Y-82555000D03*
X105625000Y-83405000D03*
X105625000Y-84255000D03*
X104275000Y-84255000D03*
X104275000Y-83405000D03*
X104275000Y-82555000D03*
X104275000Y-81705000D03*
X104275000Y-80855000D03*
X104275000Y-80005000D03*
X104275000Y-79155000D03*
X104275000Y-78305000D03*
D21*
X104645000Y-85605000D03*
D22*
X101265000Y-76955000D03*
D21*
X104645000Y-76955000D03*
D22*
X101265000Y-85605000D03*
D23*
X105156000Y-72374000D03*
X105156000Y-70374000D03*
D11*
X108458000Y-89365000D03*
X108458000Y-91440000D03*
D24*
X126298000Y-85915500D03*
X126298000Y-85280500D03*
X126298000Y-84645500D03*
X126298000Y-84010500D03*
X126298000Y-83375500D03*
X126298000Y-82740500D03*
X126298000Y-82105500D03*
X126298000Y-81470500D03*
X126298000Y-80835500D03*
X126298000Y-80200500D03*
X121098000Y-80200500D03*
X121098000Y-80835500D03*
X121098000Y-81470500D03*
X121098000Y-82105500D03*
X121098000Y-82740500D03*
X121098000Y-83375500D03*
X121098000Y-84010500D03*
X121098000Y-84645500D03*
X121098000Y-85280500D03*
X121098000Y-85915500D03*
D25*
X139700000Y-75931000D03*
X139700000Y-70881000D03*
X149352000Y-79747000D03*
X129540000Y-77724000D03*
X115824000Y-84328000D03*
X122247502Y-83361000D03*
X100584000Y-83820000D03*
X102616000Y-84328000D03*
X125362252Y-82740500D03*
X164084000Y-78740000D03*
X116840000Y-69088000D03*
X100584000Y-78740000D03*
X156210000Y-90170000D03*
X152400000Y-90170000D03*
X127508000Y-75692000D03*
X164084000Y-71120000D03*
X108712000Y-69088000D03*
X141224000Y-88392000D03*
X108204000Y-84328000D03*
X159512000Y-69088000D03*
X130048000Y-83820000D03*
X148336000Y-70612000D03*
X104140000Y-75692000D03*
X103632000Y-87884000D03*
X108204000Y-86868000D03*
X164084000Y-74676000D03*
X129540000Y-70612000D03*
X116840000Y-75966498D03*
X164084000Y-84328000D03*
X114808000Y-77216000D03*
X106680000Y-92964000D03*
X132588000Y-88392000D03*
X129540000Y-88392000D03*
X109982000Y-89408000D03*
X119888000Y-82804000D03*
X119888000Y-73406000D03*
X133604000Y-72898000D03*
X118618000Y-75946000D03*
X111252000Y-87122000D03*
X109728000Y-80772000D03*
X124460000Y-83820000D03*
X148590000Y-90170000D03*
X143510000Y-83820000D03*
X128270000Y-81280000D03*
X152400000Y-83820000D03*
X124460000Y-85090000D03*
X101854000Y-73660000D03*
X102870000Y-74930000D03*
X102870000Y-81534000D03*
D26*
X104275000Y-78305000D02*
X105625000Y-78305000D01*
X104275000Y-84255000D02*
X105625000Y-84255000D01*
X117602000Y-75204498D02*
X117602000Y-74596000D01*
X125362252Y-82740500D02*
X126298000Y-82740500D01*
X116840000Y-75966498D02*
X117602000Y-75204498D01*
X122247502Y-83361000D02*
X121112500Y-83361000D01*
X121112500Y-83361000D02*
X121098000Y-83375500D01*
D27*
X113039000Y-75946000D02*
X113039000Y-72148500D01*
X119951500Y-82740500D02*
X119888000Y-82804000D01*
X121098000Y-82740500D02*
X119951500Y-82740500D01*
X113039000Y-72148500D02*
X113051500Y-72136000D01*
X115511500Y-74596000D02*
X116652000Y-74596000D01*
X118618000Y-74662000D02*
X118552000Y-74596000D01*
X118552000Y-73340000D02*
X118552000Y-74596000D01*
X101600000Y-89365000D02*
X108458000Y-89365000D01*
X113051500Y-72136000D02*
X115511500Y-74596000D01*
X118618000Y-75946000D02*
X118618000Y-74662000D01*
X116652000Y-73516000D02*
X117270000Y-72898000D01*
X109982000Y-89408000D02*
X108501000Y-89408000D01*
X133604000Y-72898000D02*
X133604000Y-71897000D01*
X118698000Y-74596000D02*
X119888000Y-73406000D01*
X118110000Y-72898000D02*
X118552000Y-73340000D01*
X108501000Y-89408000D02*
X108458000Y-89365000D01*
X117270000Y-72898000D02*
X118110000Y-72898000D01*
X116652000Y-74596000D02*
X116652000Y-73516000D01*
X133604000Y-71897000D02*
X134620000Y-70881000D01*
X118552000Y-74596000D02*
X118698000Y-74596000D01*
X118552000Y-77260500D02*
X122660500Y-73152000D01*
X126856500Y-68956000D02*
X138850000Y-68956000D01*
X138850000Y-68956000D02*
X139700000Y-69806000D01*
X118552000Y-77296000D02*
X118552000Y-77260500D01*
X139700000Y-69806000D02*
X139700000Y-70881000D01*
X122660500Y-73152000D02*
X126856500Y-68956000D01*
D26*
X105625000Y-81705000D02*
X110843000Y-81705000D01*
D27*
X111014000Y-84830500D02*
X115570000Y-89386500D01*
D26*
X110843000Y-81705000D02*
X111014000Y-81534000D01*
D27*
X111014000Y-81534000D02*
X111014000Y-84830500D01*
X111252000Y-87122000D02*
X111252000Y-88624500D01*
X109728000Y-80772000D02*
X109661000Y-80839000D01*
D26*
X104275000Y-81705000D02*
X104705761Y-81705000D01*
X105625000Y-80855000D02*
X109661000Y-80855000D01*
X105555761Y-80855000D02*
X105625000Y-80855000D01*
D27*
X111252000Y-88624500D02*
X112014000Y-89386500D01*
X109661000Y-80839000D02*
X109661000Y-80855000D01*
D26*
X109661000Y-80855000D02*
X111014000Y-79502000D01*
X104705761Y-81705000D02*
X105555761Y-80855000D01*
D27*
X122660500Y-80808000D02*
X122660500Y-76708000D01*
X124692500Y-74676000D02*
X133100000Y-74676000D01*
X134878000Y-72898000D02*
X136218000Y-72898000D01*
X122660500Y-76708000D02*
X124692500Y-74676000D01*
X121998000Y-81470500D02*
X122660500Y-80808000D01*
X137160000Y-71956000D02*
X137160000Y-70881000D01*
X136218000Y-72898000D02*
X137160000Y-71956000D01*
D26*
X143510000Y-78740000D02*
X144517000Y-79747000D01*
D27*
X121098000Y-81470500D02*
X121998000Y-81470500D01*
D26*
X143510000Y-77231000D02*
X143510000Y-78740000D01*
D27*
X133100000Y-74676000D02*
X134878000Y-72898000D01*
D26*
X144517000Y-79747000D02*
X149352000Y-79747000D01*
X137160000Y-70881000D02*
X143510000Y-77231000D01*
D27*
X121098000Y-82105500D02*
X122893000Y-82105500D01*
X122893000Y-82105500D02*
X129067500Y-75931000D01*
X126298000Y-84645500D02*
X127198000Y-84645500D01*
X127198000Y-84645500D02*
X134620000Y-77223500D01*
X139700000Y-75931000D02*
X134620000Y-75931000D01*
X129067500Y-75931000D02*
X134620000Y-75931000D01*
X134620000Y-77223500D02*
X134620000Y-75931000D01*
D26*
X149352000Y-81797000D02*
X149352000Y-86376000D01*
X145288000Y-81797000D02*
X145288000Y-86376000D01*
D27*
X104275000Y-83405000D02*
X101947000Y-83405000D01*
X105625000Y-83405000D02*
X104275000Y-83405000D01*
X101693000Y-79155000D02*
X104275000Y-79155000D01*
X101346000Y-82804000D02*
X101346000Y-79502000D01*
X104275000Y-79155000D02*
X105625000Y-79155000D01*
X101346000Y-79502000D02*
X101693000Y-79155000D01*
X101947000Y-83405000D02*
X101346000Y-82804000D01*
X107780000Y-79155000D02*
X110989000Y-75946000D01*
X105625000Y-79155000D02*
X107780000Y-79155000D01*
D26*
X123884500Y-85915500D02*
X129409000Y-91440000D01*
X149860000Y-91440000D02*
X157988000Y-83312000D01*
X149352000Y-91440000D02*
X129540000Y-91440000D01*
X120967000Y-85915500D02*
X123884500Y-85915500D01*
X149352000Y-91440000D02*
X149860000Y-91440000D01*
X148590000Y-90170000D02*
X148590000Y-89138000D01*
X148590000Y-89138000D02*
X149352000Y-88376000D01*
X124269500Y-84010500D02*
X124460000Y-83820000D01*
X121098000Y-84010500D02*
X124269500Y-84010500D01*
X127190500Y-80200500D02*
X128270000Y-81280000D01*
X143510000Y-83820000D02*
X143510000Y-86598000D01*
X126298000Y-80200500D02*
X127190500Y-80200500D01*
X143510000Y-86598000D02*
X145288000Y-88376000D01*
D27*
X154555000Y-80518000D02*
X154809000Y-80772000D01*
D26*
X152400000Y-83820000D02*
X152400000Y-81280000D01*
D27*
X126298000Y-84010500D02*
X125539500Y-84010500D01*
X125539500Y-84010500D02*
X124460000Y-85090000D01*
D26*
X152400000Y-81280000D02*
X153162000Y-80518000D01*
X153162000Y-80518000D02*
X154555000Y-80518000D01*
X101854000Y-73660000D02*
X101854000Y-72374000D01*
X120105499Y-80743000D02*
X120197999Y-80835500D01*
X113014000Y-81534000D02*
X113804999Y-80743001D01*
X113804999Y-80743001D02*
X120105499Y-80743000D01*
X120197999Y-80835500D02*
X121098000Y-80835500D01*
X120105499Y-80293000D02*
X120197999Y-80200500D01*
X113014000Y-79502000D02*
X113804999Y-80292999D01*
X120197999Y-80200500D02*
X121098000Y-80200500D01*
X113804999Y-80292999D02*
X120105499Y-80293000D01*
D27*
X105156000Y-72644000D02*
X105156000Y-72374000D01*
X104275000Y-82555000D02*
X103891000Y-82555000D01*
X103891000Y-82555000D02*
X102870000Y-81534000D01*
X102870000Y-74930000D02*
X105156000Y-72644000D01*
G04 #@! TA.AperFunction,Conductor*
G36*
X126706773Y-68092502D02*
G01*
X126753266Y-68146158D01*
X126763370Y-68216432D01*
X126733876Y-68281012D01*
X126685037Y-68315651D01*
X126648474Y-68330128D01*
X126637269Y-68333965D01*
X126592900Y-68346855D01*
X126574435Y-68357775D01*
X126556695Y-68366466D01*
X126536744Y-68374365D01*
X126499374Y-68401516D01*
X126489452Y-68408033D01*
X126456523Y-68427507D01*
X126456519Y-68427510D01*
X126449693Y-68431547D01*
X126434529Y-68446711D01*
X126419496Y-68459551D01*
X126402143Y-68472159D01*
X126392020Y-68484396D01*
X126372698Y-68507752D01*
X126364708Y-68516532D01*
X122999645Y-71881595D01*
X122937333Y-71915621D01*
X122910550Y-71918500D01*
X122272600Y-71918500D01*
X122269354Y-71918837D01*
X122269350Y-71918837D01*
X122173692Y-71928762D01*
X122173688Y-71928763D01*
X122166834Y-71929474D01*
X122160298Y-71931655D01*
X122160296Y-71931655D01*
X122044314Y-71970350D01*
X121999054Y-71985450D01*
X121848652Y-72078522D01*
X121723695Y-72203697D01*
X121719855Y-72209927D01*
X121719854Y-72209928D01*
X121656043Y-72313449D01*
X121630885Y-72354262D01*
X121575203Y-72522139D01*
X121574503Y-72528975D01*
X121574502Y-72528978D01*
X121570677Y-72566316D01*
X121564500Y-72626600D01*
X121564500Y-73264551D01*
X121544498Y-73332672D01*
X121527595Y-73353646D01*
X119600595Y-75280645D01*
X119538283Y-75314671D01*
X119467467Y-75309606D01*
X119410632Y-75267059D01*
X119385821Y-75200539D01*
X119385500Y-75191550D01*
X119385500Y-74891950D01*
X119405502Y-74823829D01*
X119422405Y-74802855D01*
X119929651Y-74295609D01*
X119992549Y-74261457D01*
X120029795Y-74253540D01*
X120154752Y-74226980D01*
X120160783Y-74224295D01*
X120313585Y-74156263D01*
X120313587Y-74156262D01*
X120319615Y-74153578D01*
X120368993Y-74117703D01*
X120460269Y-74051387D01*
X120460271Y-74051385D01*
X120465613Y-74047504D01*
X120514924Y-73992739D01*
X120581948Y-73918301D01*
X120581949Y-73918300D01*
X120586367Y-73913393D01*
X120676599Y-73757107D01*
X120719083Y-73626354D01*
X120730325Y-73591754D01*
X120730325Y-73591753D01*
X120732365Y-73585475D01*
X120735411Y-73556500D01*
X120750539Y-73412565D01*
X120751229Y-73406000D01*
X120749563Y-73390145D01*
X120733055Y-73233089D01*
X120733055Y-73233088D01*
X120732365Y-73226525D01*
X120725287Y-73204739D01*
X120688719Y-73092196D01*
X120676599Y-73054893D01*
X120665661Y-73035947D01*
X120618909Y-72954971D01*
X120586367Y-72898607D01*
X120575650Y-72886704D01*
X120470035Y-72769407D01*
X120470034Y-72769406D01*
X120465613Y-72764496D01*
X120459709Y-72760206D01*
X120324957Y-72662303D01*
X120324956Y-72662302D01*
X120319615Y-72658422D01*
X120313587Y-72655738D01*
X120313585Y-72655737D01*
X120160783Y-72587705D01*
X120160781Y-72587705D01*
X120154752Y-72585020D01*
X120066492Y-72566260D01*
X119984689Y-72548872D01*
X119984685Y-72548872D01*
X119978232Y-72547500D01*
X119797768Y-72547500D01*
X119791315Y-72548872D01*
X119791311Y-72548872D01*
X119709508Y-72566260D01*
X119621248Y-72585020D01*
X119615219Y-72587704D01*
X119615217Y-72587705D01*
X119462416Y-72655737D01*
X119462414Y-72655738D01*
X119456386Y-72658422D01*
X119451045Y-72662302D01*
X119451044Y-72662303D01*
X119315731Y-72760613D01*
X119315729Y-72760615D01*
X119310387Y-72764496D01*
X119235013Y-72848208D01*
X119211332Y-72874508D01*
X119150886Y-72911748D01*
X119079903Y-72910396D01*
X119037429Y-72883724D01*
X119035841Y-72885643D01*
X119000248Y-72856198D01*
X118991467Y-72848208D01*
X118633651Y-72490391D01*
X118625663Y-72481612D01*
X118621416Y-72474920D01*
X118569741Y-72426394D01*
X118566900Y-72423640D01*
X118546333Y-72403073D01*
X118542826Y-72400353D01*
X118533804Y-72392647D01*
X118529613Y-72388711D01*
X118500133Y-72361028D01*
X118493181Y-72357206D01*
X118481342Y-72350697D01*
X118464818Y-72339843D01*
X118454132Y-72331555D01*
X118447868Y-72326696D01*
X118440596Y-72323549D01*
X118440594Y-72323548D01*
X118405465Y-72308346D01*
X118394805Y-72303124D01*
X118361284Y-72284695D01*
X118361282Y-72284694D01*
X118354337Y-72280876D01*
X118333559Y-72275541D01*
X118314869Y-72269142D01*
X118295176Y-72260620D01*
X118249552Y-72253394D01*
X118237929Y-72250987D01*
X118203661Y-72242189D01*
X118193188Y-72239500D01*
X118171741Y-72239500D01*
X118152031Y-72237949D01*
X118138677Y-72235834D01*
X118130848Y-72234594D01*
X118084859Y-72238941D01*
X118073004Y-72239500D01*
X117352056Y-72239500D01*
X117340200Y-72238941D01*
X117340197Y-72238941D01*
X117332463Y-72237212D01*
X117277446Y-72238941D01*
X117261631Y-72239438D01*
X117257673Y-72239500D01*
X117228568Y-72239500D01*
X117224168Y-72240056D01*
X117212336Y-72240988D01*
X117166169Y-72242438D01*
X117145579Y-72248420D01*
X117126218Y-72252430D01*
X117119230Y-72253312D01*
X117112796Y-72254125D01*
X117112795Y-72254125D01*
X117104936Y-72255118D01*
X117097571Y-72258034D01*
X117097567Y-72258035D01*
X117061979Y-72272126D01*
X117050769Y-72275965D01*
X117006400Y-72288855D01*
X116987935Y-72299775D01*
X116970195Y-72308466D01*
X116950244Y-72316365D01*
X116912874Y-72343516D01*
X116902952Y-72350033D01*
X116870023Y-72369507D01*
X116870019Y-72369510D01*
X116863193Y-72373547D01*
X116848029Y-72388711D01*
X116832996Y-72401551D01*
X116815643Y-72414159D01*
X116805521Y-72426395D01*
X116786198Y-72449752D01*
X116778208Y-72458532D01*
X116244395Y-72992345D01*
X116235615Y-73000335D01*
X116235613Y-73000337D01*
X116228920Y-73004584D01*
X116223494Y-73010362D01*
X116223493Y-73010363D01*
X116180396Y-73056257D01*
X116177641Y-73059099D01*
X116157073Y-73079667D01*
X116154356Y-73083170D01*
X116146648Y-73092195D01*
X116115028Y-73125867D01*
X116111207Y-73132818D01*
X116111206Y-73132819D01*
X116104697Y-73144658D01*
X116093843Y-73161182D01*
X116086018Y-73171271D01*
X116080696Y-73178132D01*
X116077549Y-73185404D01*
X116077548Y-73185406D01*
X116062346Y-73220535D01*
X116057124Y-73231195D01*
X116047277Y-73249107D01*
X116034876Y-73271663D01*
X116029541Y-73292441D01*
X116023142Y-73311131D01*
X116014620Y-73330824D01*
X116007394Y-73376450D01*
X116004967Y-73388149D01*
X116004828Y-73388689D01*
X115971904Y-73446373D01*
X115970919Y-73447358D01*
X115963739Y-73452739D01*
X115958358Y-73459919D01*
X115958355Y-73459922D01*
X115910708Y-73523498D01*
X115876385Y-73569295D01*
X115825255Y-73705684D01*
X115824878Y-73709158D01*
X115790629Y-73769107D01*
X115727674Y-73801928D01*
X115656969Y-73795502D01*
X115614169Y-73767410D01*
X114938956Y-73092196D01*
X114184405Y-72337645D01*
X114150379Y-72275333D01*
X114147500Y-72248550D01*
X114147500Y-71610600D01*
X114147125Y-71606982D01*
X114137238Y-71511692D01*
X114137237Y-71511688D01*
X114136526Y-71504834D01*
X114122960Y-71464170D01*
X114088998Y-71362375D01*
X114080550Y-71337054D01*
X113987478Y-71186652D01*
X113862303Y-71061695D01*
X113767965Y-71003544D01*
X113717968Y-70972725D01*
X113717966Y-70972724D01*
X113711738Y-70968885D01*
X113631995Y-70942436D01*
X113550389Y-70915368D01*
X113550387Y-70915368D01*
X113543861Y-70913203D01*
X113537025Y-70912503D01*
X113537022Y-70912502D01*
X113493969Y-70908091D01*
X113439400Y-70902500D01*
X112663600Y-70902500D01*
X112660354Y-70902837D01*
X112660350Y-70902837D01*
X112564692Y-70912762D01*
X112564688Y-70912763D01*
X112557834Y-70913474D01*
X112551298Y-70915655D01*
X112551296Y-70915655D01*
X112534928Y-70921116D01*
X112390054Y-70969450D01*
X112239652Y-71062522D01*
X112114695Y-71187697D01*
X112111898Y-71192235D01*
X112054647Y-71232824D01*
X111983724Y-71236054D01*
X111922313Y-71200428D01*
X111914938Y-71191932D01*
X111906902Y-71181793D01*
X111792171Y-71067261D01*
X111780760Y-71058249D01*
X111642757Y-70973184D01*
X111629576Y-70967037D01*
X111475290Y-70915862D01*
X111461914Y-70912995D01*
X111367562Y-70903328D01*
X111361145Y-70903000D01*
X111248615Y-70903000D01*
X111233376Y-70907475D01*
X111232171Y-70908865D01*
X111230500Y-70916548D01*
X111230500Y-73350884D01*
X111234975Y-73366123D01*
X111236365Y-73367328D01*
X111244048Y-73368999D01*
X111361095Y-73368999D01*
X111367614Y-73368662D01*
X111463206Y-73358743D01*
X111476600Y-73355851D01*
X111630784Y-73304412D01*
X111643962Y-73298239D01*
X111781807Y-73212937D01*
X111793208Y-73203901D01*
X111907738Y-73089172D01*
X111914794Y-73080238D01*
X111972712Y-73039177D01*
X112043635Y-73035947D01*
X112105046Y-73071574D01*
X112111846Y-73079407D01*
X112115522Y-73085348D01*
X112240697Y-73210305D01*
X112246927Y-73214145D01*
X112246928Y-73214146D01*
X112320616Y-73259568D01*
X112368109Y-73312340D01*
X112380500Y-73366828D01*
X112380500Y-74740160D01*
X112360498Y-74808281D01*
X112320803Y-74847304D01*
X112239652Y-74897522D01*
X112114695Y-75022697D01*
X112112094Y-75026916D01*
X112054970Y-75067417D01*
X111984047Y-75070649D01*
X111922635Y-75035024D01*
X111916078Y-75027470D01*
X111912478Y-75021652D01*
X111787303Y-74896695D01*
X111707384Y-74847432D01*
X111642968Y-74807725D01*
X111642966Y-74807724D01*
X111636738Y-74803885D01*
X111475862Y-74750525D01*
X111475389Y-74750368D01*
X111475387Y-74750368D01*
X111468861Y-74748203D01*
X111462025Y-74747503D01*
X111462022Y-74747502D01*
X111418969Y-74743091D01*
X111364400Y-74737500D01*
X110613600Y-74737500D01*
X110610354Y-74737837D01*
X110610350Y-74737837D01*
X110514692Y-74747762D01*
X110514688Y-74747763D01*
X110507834Y-74748474D01*
X110501298Y-74750655D01*
X110501296Y-74750655D01*
X110369398Y-74794660D01*
X110340054Y-74804450D01*
X110189652Y-74897522D01*
X110064695Y-75022697D01*
X110060855Y-75028927D01*
X110060854Y-75028928D01*
X110007334Y-75115754D01*
X109971885Y-75173262D01*
X109958167Y-75214621D01*
X109920509Y-75328158D01*
X109916203Y-75341139D01*
X109915503Y-75347975D01*
X109915502Y-75347978D01*
X109912220Y-75380009D01*
X109905500Y-75445600D01*
X109905500Y-76046051D01*
X109885498Y-76114172D01*
X109868595Y-76135146D01*
X107544145Y-78459595D01*
X107481833Y-78493621D01*
X107455050Y-78496500D01*
X106607536Y-78496500D01*
X106539415Y-78476498D01*
X106492922Y-78422842D01*
X106482226Y-78357329D01*
X106487036Y-78311565D01*
X106487036Y-78298435D01*
X106469563Y-78132193D01*
X106466833Y-78119350D01*
X106415181Y-77960383D01*
X106409835Y-77948375D01*
X106393637Y-77920320D01*
X106383431Y-77910589D01*
X106375410Y-77913800D01*
X105992445Y-78296765D01*
X105930133Y-78330791D01*
X105877153Y-78330917D01*
X105876561Y-78330791D01*
X105855812Y-78326381D01*
X105721689Y-78297872D01*
X105721685Y-78297872D01*
X105715232Y-78296500D01*
X105578480Y-78296500D01*
X105510359Y-78276498D01*
X105463866Y-78222842D01*
X105453762Y-78152568D01*
X105483256Y-78087988D01*
X105489385Y-78081405D01*
X105998963Y-77571827D01*
X106061275Y-77537801D01*
X106132090Y-77542866D01*
X106142800Y-77547757D01*
X106154077Y-77539465D01*
X106207711Y-77470320D01*
X106214435Y-77459560D01*
X106294732Y-77296375D01*
X106299155Y-77284481D01*
X106314251Y-77226530D01*
X106313817Y-77212436D01*
X106305636Y-77209000D01*
X104917115Y-77209000D01*
X104901876Y-77213475D01*
X104900671Y-77214865D01*
X104899000Y-77222548D01*
X104899000Y-77827000D01*
X104878998Y-77895121D01*
X104825342Y-77941614D01*
X104773000Y-77953000D01*
X104517000Y-77953000D01*
X104448879Y-77932998D01*
X104402386Y-77879342D01*
X104391000Y-77827000D01*
X104391000Y-77227115D01*
X104386525Y-77211876D01*
X104385135Y-77210671D01*
X104377452Y-77209000D01*
X102985771Y-77209000D01*
X102972240Y-77212973D01*
X102971363Y-77219075D01*
X103027310Y-77371136D01*
X103032877Y-77382549D01*
X103128708Y-77537108D01*
X103136460Y-77547174D01*
X103261408Y-77679303D01*
X103271026Y-77687605D01*
X103419983Y-77791905D01*
X103431530Y-77798358D01*
X103481237Y-77849051D01*
X103495647Y-77918569D01*
X103486594Y-77954011D01*
X103486861Y-77954098D01*
X103485511Y-77958252D01*
X103485167Y-77959600D01*
X103484820Y-77960379D01*
X103433167Y-78119350D01*
X103430437Y-78132193D01*
X103412964Y-78298435D01*
X103412964Y-78311565D01*
X103417774Y-78357329D01*
X103405002Y-78427168D01*
X103356500Y-78479015D01*
X103292464Y-78496500D01*
X101775056Y-78496500D01*
X101763200Y-78495941D01*
X101763197Y-78495941D01*
X101755463Y-78494212D01*
X101700446Y-78495941D01*
X101684631Y-78496438D01*
X101680673Y-78496500D01*
X101651568Y-78496500D01*
X101647168Y-78497056D01*
X101635336Y-78497988D01*
X101589169Y-78499438D01*
X101568579Y-78505420D01*
X101549218Y-78509430D01*
X101542230Y-78510312D01*
X101535796Y-78511125D01*
X101535795Y-78511125D01*
X101527936Y-78512118D01*
X101520571Y-78515034D01*
X101520567Y-78515035D01*
X101484979Y-78529126D01*
X101473769Y-78532965D01*
X101429400Y-78545855D01*
X101410935Y-78556775D01*
X101393195Y-78565466D01*
X101373244Y-78573365D01*
X101357329Y-78584928D01*
X101335874Y-78600516D01*
X101325952Y-78607033D01*
X101293023Y-78626507D01*
X101293019Y-78626510D01*
X101286193Y-78630547D01*
X101271029Y-78645711D01*
X101255996Y-78658551D01*
X101238643Y-78671159D01*
X101209198Y-78706752D01*
X101201208Y-78715532D01*
X100938395Y-78978345D01*
X100929615Y-78986335D01*
X100929613Y-78986337D01*
X100922920Y-78990584D01*
X100917494Y-78996362D01*
X100917493Y-78996363D01*
X100874396Y-79042257D01*
X100871641Y-79045099D01*
X100851073Y-79065667D01*
X100848356Y-79069170D01*
X100840648Y-79078195D01*
X100809028Y-79111867D01*
X100805207Y-79118818D01*
X100805206Y-79118819D01*
X100798697Y-79130658D01*
X100787843Y-79147182D01*
X100780018Y-79157271D01*
X100774696Y-79164132D01*
X100771549Y-79171404D01*
X100771548Y-79171406D01*
X100756346Y-79206535D01*
X100751124Y-79217195D01*
X100738587Y-79240000D01*
X100728876Y-79257663D01*
X100723541Y-79278441D01*
X100717142Y-79297131D01*
X100708620Y-79316824D01*
X100707380Y-79324655D01*
X100701394Y-79362448D01*
X100698987Y-79374071D01*
X100687500Y-79418812D01*
X100687500Y-79440259D01*
X100685949Y-79459969D01*
X100682594Y-79481152D01*
X100683620Y-79492000D01*
X100686941Y-79527138D01*
X100687500Y-79538996D01*
X100687500Y-82721944D01*
X100686941Y-82733800D01*
X100685212Y-82741537D01*
X100685982Y-82766039D01*
X100687438Y-82812369D01*
X100687500Y-82816327D01*
X100687500Y-82845432D01*
X100688056Y-82849832D01*
X100688988Y-82861664D01*
X100690438Y-82907831D01*
X100692650Y-82915444D01*
X100692650Y-82915445D01*
X100696419Y-82928416D01*
X100700430Y-82947782D01*
X100703118Y-82969064D01*
X100706034Y-82976429D01*
X100706035Y-82976433D01*
X100720126Y-83012021D01*
X100723965Y-83023231D01*
X100736855Y-83067600D01*
X100747775Y-83086065D01*
X100756466Y-83103805D01*
X100764365Y-83123756D01*
X100786485Y-83154201D01*
X100791516Y-83161126D01*
X100798033Y-83171048D01*
X100817507Y-83203977D01*
X100817510Y-83203981D01*
X100821547Y-83210807D01*
X100836711Y-83225971D01*
X100849551Y-83241004D01*
X100862159Y-83258357D01*
X100868265Y-83263408D01*
X100897753Y-83287803D01*
X100906532Y-83295792D01*
X101165004Y-83554263D01*
X101423345Y-83812604D01*
X101431335Y-83821385D01*
X101435584Y-83828080D01*
X101441362Y-83833506D01*
X101441363Y-83833507D01*
X101487273Y-83876619D01*
X101490115Y-83879374D01*
X101510667Y-83899926D01*
X101513801Y-83902357D01*
X101514163Y-83902638D01*
X101523191Y-83910348D01*
X101556867Y-83941972D01*
X101563818Y-83945793D01*
X101563819Y-83945794D01*
X101575655Y-83952301D01*
X101592184Y-83963158D01*
X101602869Y-83971447D01*
X101602871Y-83971448D01*
X101609131Y-83976304D01*
X101651544Y-83994657D01*
X101662181Y-83999868D01*
X101702663Y-84022124D01*
X101710342Y-84024096D01*
X101710343Y-84024096D01*
X101723434Y-84027457D01*
X101742136Y-84033859D01*
X101761823Y-84042379D01*
X101769652Y-84043619D01*
X101807448Y-84049605D01*
X101819074Y-84052013D01*
X101856135Y-84061529D01*
X101856136Y-84061529D01*
X101863812Y-84063500D01*
X101885258Y-84063500D01*
X101904968Y-84065051D01*
X101926151Y-84068406D01*
X101972135Y-84064059D01*
X101983994Y-84063500D01*
X103292464Y-84063500D01*
X103360585Y-84083502D01*
X103407078Y-84137158D01*
X103417774Y-84202671D01*
X103412964Y-84248435D01*
X103412964Y-84261565D01*
X103430437Y-84427807D01*
X103433167Y-84440650D01*
X103484819Y-84599617D01*
X103486924Y-84604345D01*
X103496359Y-84674712D01*
X103466254Y-84739010D01*
X103432904Y-84765798D01*
X103351021Y-84811187D01*
X103340588Y-84818438D01*
X103202509Y-84936785D01*
X103193756Y-84945976D01*
X103082289Y-85089680D01*
X103075565Y-85100440D01*
X102995268Y-85263625D01*
X102990845Y-85275519D01*
X102975749Y-85333470D01*
X102976183Y-85347564D01*
X102984364Y-85351000D01*
X104372885Y-85351000D01*
X104388124Y-85346525D01*
X104389329Y-85345135D01*
X104391000Y-85337452D01*
X104391000Y-84733000D01*
X104411002Y-84664879D01*
X104464658Y-84618386D01*
X104517000Y-84607000D01*
X104773000Y-84607000D01*
X104841121Y-84627002D01*
X104887614Y-84680658D01*
X104899000Y-84733000D01*
X104899000Y-85332885D01*
X104903475Y-85348124D01*
X104904865Y-85349329D01*
X104912548Y-85351000D01*
X106304229Y-85351000D01*
X106317760Y-85347027D01*
X106318637Y-85340925D01*
X106262690Y-85188864D01*
X106257123Y-85177451D01*
X106161292Y-85022891D01*
X106156509Y-85016681D01*
X106144292Y-85009560D01*
X106129947Y-85010184D01*
X106084172Y-85022935D01*
X106016336Y-85001986D01*
X105996832Y-84986042D01*
X105489385Y-84478595D01*
X105455359Y-84416283D01*
X105460424Y-84345468D01*
X105502971Y-84288632D01*
X105569491Y-84263821D01*
X105578480Y-84263500D01*
X105715232Y-84263500D01*
X105721685Y-84262128D01*
X105721689Y-84262128D01*
X105877153Y-84229083D01*
X105947944Y-84234485D01*
X105992445Y-84263235D01*
X106371767Y-84642557D01*
X106384147Y-84649317D01*
X106391062Y-84644141D01*
X106409835Y-84611625D01*
X106415181Y-84599617D01*
X106466833Y-84440650D01*
X106469563Y-84427807D01*
X106487036Y-84261565D01*
X106487036Y-84248435D01*
X106469563Y-84082193D01*
X106466833Y-84069350D01*
X106415181Y-83910383D01*
X106409835Y-83898375D01*
X106407019Y-83893497D01*
X106390283Y-83824502D01*
X106407022Y-83767498D01*
X106410296Y-83761828D01*
X106413599Y-83756107D01*
X106449021Y-83647089D01*
X106467325Y-83590754D01*
X106467325Y-83590753D01*
X106469365Y-83584475D01*
X106472541Y-83554263D01*
X106487539Y-83411565D01*
X106488229Y-83405000D01*
X106472142Y-83251944D01*
X106470055Y-83232089D01*
X106470055Y-83232088D01*
X106469365Y-83225525D01*
X106465231Y-83212800D01*
X106415641Y-83060178D01*
X106413599Y-83053893D01*
X106407309Y-83042998D01*
X106390572Y-82974004D01*
X106407309Y-82917001D01*
X106413599Y-82906107D01*
X106446775Y-82804000D01*
X106467325Y-82740754D01*
X106467325Y-82740753D01*
X106469365Y-82734475D01*
X106470204Y-82726498D01*
X106487539Y-82561565D01*
X106488229Y-82555000D01*
X106486614Y-82539634D01*
X106477474Y-82452670D01*
X106490246Y-82382832D01*
X106538748Y-82330985D01*
X106602784Y-82313500D01*
X109905685Y-82313500D01*
X109973806Y-82333502D01*
X110012828Y-82373196D01*
X110065522Y-82458348D01*
X110070704Y-82463521D01*
X110102975Y-82495736D01*
X110190697Y-82583305D01*
X110196927Y-82587145D01*
X110196928Y-82587146D01*
X110295616Y-82647978D01*
X110343109Y-82700750D01*
X110355500Y-82755238D01*
X110355500Y-84748444D01*
X110354941Y-84760300D01*
X110353212Y-84768037D01*
X110353461Y-84775959D01*
X110355438Y-84838869D01*
X110355500Y-84842827D01*
X110355500Y-84871932D01*
X110356056Y-84876332D01*
X110356988Y-84888164D01*
X110358438Y-84934331D01*
X110360650Y-84941944D01*
X110360650Y-84941945D01*
X110364419Y-84954916D01*
X110368430Y-84974282D01*
X110371118Y-84995564D01*
X110374034Y-85002929D01*
X110374035Y-85002933D01*
X110388126Y-85038521D01*
X110391965Y-85049731D01*
X110404855Y-85094100D01*
X110415775Y-85112565D01*
X110424466Y-85130305D01*
X110432365Y-85150256D01*
X110454702Y-85181000D01*
X110459516Y-85187626D01*
X110466033Y-85197548D01*
X110485507Y-85230477D01*
X110485510Y-85230481D01*
X110489547Y-85237307D01*
X110504711Y-85252471D01*
X110517551Y-85267504D01*
X110530159Y-85284857D01*
X110558117Y-85307986D01*
X110565752Y-85314302D01*
X110574532Y-85322292D01*
X111300645Y-86048405D01*
X111334671Y-86110717D01*
X111329606Y-86181532D01*
X111287059Y-86238368D01*
X111220539Y-86263179D01*
X111211550Y-86263500D01*
X111161768Y-86263500D01*
X111155315Y-86264872D01*
X111155311Y-86264872D01*
X111073508Y-86282260D01*
X110985248Y-86301020D01*
X110979219Y-86303704D01*
X110979217Y-86303705D01*
X110826416Y-86371737D01*
X110826414Y-86371738D01*
X110820386Y-86374422D01*
X110815045Y-86378302D01*
X110815044Y-86378303D01*
X110679731Y-86476613D01*
X110679729Y-86476615D01*
X110674387Y-86480496D01*
X110669966Y-86485406D01*
X110669965Y-86485407D01*
X110561213Y-86606189D01*
X110553633Y-86614607D01*
X110533700Y-86649132D01*
X110467104Y-86764480D01*
X110463401Y-86770893D01*
X110461359Y-86777178D01*
X110417739Y-86911429D01*
X110407635Y-86942525D01*
X110406945Y-86949088D01*
X110406945Y-86949089D01*
X110395658Y-87056475D01*
X110388771Y-87122000D01*
X110389461Y-87128565D01*
X110397441Y-87204483D01*
X110407635Y-87301475D01*
X110463401Y-87473107D01*
X110553633Y-87629393D01*
X110561138Y-87637728D01*
X110591854Y-87701734D01*
X110593500Y-87722036D01*
X110593500Y-88542444D01*
X110592940Y-88554306D01*
X110591325Y-88561532D01*
X110566219Y-88624408D01*
X110508424Y-88665643D01*
X110437511Y-88669085D01*
X110413953Y-88659663D01*
X110413615Y-88660422D01*
X110254783Y-88589705D01*
X110254781Y-88589705D01*
X110248752Y-88587020D01*
X110131215Y-88562037D01*
X110078689Y-88550872D01*
X110078685Y-88550872D01*
X110072232Y-88549500D01*
X109891768Y-88549500D01*
X109885315Y-88550872D01*
X109885311Y-88550872D01*
X109832785Y-88562037D01*
X109715248Y-88587020D01*
X109709219Y-88589704D01*
X109709217Y-88589705D01*
X109687741Y-88599267D01*
X109617374Y-88608701D01*
X109553077Y-88578595D01*
X109537748Y-88562427D01*
X109535329Y-88559375D01*
X109531478Y-88553152D01*
X109406303Y-88428195D01*
X109296847Y-88360725D01*
X109261968Y-88339225D01*
X109261966Y-88339224D01*
X109255738Y-88335385D01*
X109152682Y-88301203D01*
X109094389Y-88281868D01*
X109094387Y-88281868D01*
X109087861Y-88279703D01*
X109081025Y-88279003D01*
X109081022Y-88279002D01*
X109037969Y-88274591D01*
X108983400Y-88269000D01*
X107932600Y-88269000D01*
X107929354Y-88269337D01*
X107929350Y-88269337D01*
X107833692Y-88279262D01*
X107833688Y-88279263D01*
X107826834Y-88279974D01*
X107820298Y-88282155D01*
X107820296Y-88282155D01*
X107688194Y-88326228D01*
X107659054Y-88335950D01*
X107508652Y-88429022D01*
X107383695Y-88554197D01*
X107379855Y-88560427D01*
X107379854Y-88560428D01*
X107361807Y-88589705D01*
X107333985Y-88634842D01*
X107326727Y-88646616D01*
X107273955Y-88694109D01*
X107219467Y-88706500D01*
X106394575Y-88706500D01*
X106326454Y-88686498D01*
X106287431Y-88646803D01*
X106287316Y-88646616D01*
X106229478Y-88553152D01*
X106104303Y-88428195D01*
X105994847Y-88360725D01*
X105959968Y-88339225D01*
X105959966Y-88339224D01*
X105953738Y-88335385D01*
X105850682Y-88301203D01*
X105792389Y-88281868D01*
X105792387Y-88281868D01*
X105785861Y-88279703D01*
X105779025Y-88279003D01*
X105779022Y-88279002D01*
X105735969Y-88274591D01*
X105681400Y-88269000D01*
X104630600Y-88269000D01*
X104627354Y-88269337D01*
X104627350Y-88269337D01*
X104531692Y-88279262D01*
X104531688Y-88279263D01*
X104524834Y-88279974D01*
X104518298Y-88282155D01*
X104518296Y-88282155D01*
X104386194Y-88326228D01*
X104357054Y-88335950D01*
X104206652Y-88429022D01*
X104081695Y-88554197D01*
X104077855Y-88560427D01*
X104077854Y-88560428D01*
X104059807Y-88589705D01*
X104031985Y-88634842D01*
X104024727Y-88646616D01*
X103971955Y-88694109D01*
X103917467Y-88706500D01*
X102838575Y-88706500D01*
X102770454Y-88686498D01*
X102731431Y-88646803D01*
X102731316Y-88646616D01*
X102673478Y-88553152D01*
X102548303Y-88428195D01*
X102438847Y-88360725D01*
X102403968Y-88339225D01*
X102403966Y-88339224D01*
X102397738Y-88335385D01*
X102294682Y-88301203D01*
X102236389Y-88281868D01*
X102236387Y-88281868D01*
X102229861Y-88279703D01*
X102223025Y-88279003D01*
X102223022Y-88279002D01*
X102179969Y-88274591D01*
X102125400Y-88269000D01*
X101074600Y-88269000D01*
X101071354Y-88269337D01*
X101071350Y-88269337D01*
X100975692Y-88279262D01*
X100975688Y-88279263D01*
X100968834Y-88279974D01*
X100962298Y-88282155D01*
X100962296Y-88282155D01*
X100830194Y-88326228D01*
X100801054Y-88335950D01*
X100650652Y-88429022D01*
X100525695Y-88554197D01*
X100521855Y-88560427D01*
X100521854Y-88560428D01*
X100439452Y-88694109D01*
X100432885Y-88704762D01*
X100377203Y-88872639D01*
X100376503Y-88879475D01*
X100376502Y-88879478D01*
X100375557Y-88888704D01*
X100366500Y-88977100D01*
X100366500Y-89752900D01*
X100366837Y-89756146D01*
X100366837Y-89756150D01*
X100369063Y-89777598D01*
X100377474Y-89858666D01*
X100379655Y-89865202D01*
X100379655Y-89865204D01*
X100386828Y-89886704D01*
X100433450Y-90026446D01*
X100526522Y-90176848D01*
X100531704Y-90182021D01*
X100552202Y-90202483D01*
X100651697Y-90301805D01*
X100656235Y-90304602D01*
X100696824Y-90361853D01*
X100700054Y-90432776D01*
X100664428Y-90494187D01*
X100655932Y-90501562D01*
X100645793Y-90509598D01*
X100531261Y-90624329D01*
X100522249Y-90635740D01*
X100437184Y-90773743D01*
X100431037Y-90786924D01*
X100379862Y-90941210D01*
X100376995Y-90954586D01*
X100367328Y-91048938D01*
X100367000Y-91055355D01*
X100367000Y-91167885D01*
X100371475Y-91183124D01*
X100372865Y-91184329D01*
X100380548Y-91186000D01*
X102814884Y-91186000D01*
X102830123Y-91181525D01*
X102831328Y-91180135D01*
X102832999Y-91172452D01*
X102832999Y-91055405D01*
X102832662Y-91048886D01*
X102822743Y-90953294D01*
X102819851Y-90939900D01*
X102768412Y-90785716D01*
X102762239Y-90772538D01*
X102676937Y-90634693D01*
X102667901Y-90623292D01*
X102553172Y-90508762D01*
X102544238Y-90501706D01*
X102503177Y-90443788D01*
X102499947Y-90372865D01*
X102535574Y-90311454D01*
X102543407Y-90304654D01*
X102549348Y-90300978D01*
X102674305Y-90175803D01*
X102731273Y-90083384D01*
X102784045Y-90035891D01*
X102838533Y-90023500D01*
X103917425Y-90023500D01*
X103985546Y-90043502D01*
X104024568Y-90083196D01*
X104082522Y-90176848D01*
X104087704Y-90182021D01*
X104108202Y-90202483D01*
X104207697Y-90301805D01*
X104212235Y-90304602D01*
X104252824Y-90361853D01*
X104256054Y-90432776D01*
X104220428Y-90494187D01*
X104211932Y-90501562D01*
X104201793Y-90509598D01*
X104087261Y-90624329D01*
X104078249Y-90635740D01*
X103993184Y-90773743D01*
X103987037Y-90786924D01*
X103935862Y-90941210D01*
X103932995Y-90954586D01*
X103923328Y-91048938D01*
X103923000Y-91055355D01*
X103923000Y-91167885D01*
X103927475Y-91183124D01*
X103928865Y-91184329D01*
X103936548Y-91186000D01*
X106370884Y-91186000D01*
X106386123Y-91181525D01*
X106387328Y-91180135D01*
X106388999Y-91172452D01*
X106388999Y-91055405D01*
X106388662Y-91048886D01*
X106378743Y-90953294D01*
X106375851Y-90939900D01*
X106324412Y-90785716D01*
X106318239Y-90772538D01*
X106232937Y-90634693D01*
X106223901Y-90623292D01*
X106109172Y-90508762D01*
X106100238Y-90501706D01*
X106059177Y-90443788D01*
X106055947Y-90372865D01*
X106091574Y-90311454D01*
X106099407Y-90304654D01*
X106105348Y-90300978D01*
X106230305Y-90175803D01*
X106287273Y-90083384D01*
X106340045Y-90035891D01*
X106394533Y-90023500D01*
X107219425Y-90023500D01*
X107287546Y-90043502D01*
X107326568Y-90083196D01*
X107384522Y-90176848D01*
X107389704Y-90182021D01*
X107410202Y-90202483D01*
X107509697Y-90301805D01*
X107514235Y-90304602D01*
X107554824Y-90361853D01*
X107558054Y-90432776D01*
X107522428Y-90494187D01*
X107513932Y-90501562D01*
X107503793Y-90509598D01*
X107389261Y-90624329D01*
X107380249Y-90635740D01*
X107295184Y-90773743D01*
X107289037Y-90786924D01*
X107237862Y-90941210D01*
X107234995Y-90954586D01*
X107225328Y-91048938D01*
X107225000Y-91055355D01*
X107225000Y-91167885D01*
X107229475Y-91183124D01*
X107230865Y-91184329D01*
X107238548Y-91186000D01*
X109672884Y-91186000D01*
X109688123Y-91181525D01*
X109689328Y-91180135D01*
X109690999Y-91172452D01*
X109690999Y-91055405D01*
X109690662Y-91048886D01*
X109680743Y-90953294D01*
X109677851Y-90939900D01*
X109626412Y-90785716D01*
X109620239Y-90772538D01*
X109534937Y-90634693D01*
X109525901Y-90623292D01*
X109411172Y-90508762D01*
X109402238Y-90501706D01*
X109361177Y-90443788D01*
X109357947Y-90372865D01*
X109393574Y-90311454D01*
X109401407Y-90304654D01*
X109407348Y-90300978D01*
X109490607Y-90217573D01*
X109552891Y-90183494D01*
X109623711Y-90188497D01*
X109631030Y-90191484D01*
X109709217Y-90226295D01*
X109715248Y-90228980D01*
X109803508Y-90247740D01*
X109885311Y-90265128D01*
X109885315Y-90265128D01*
X109891768Y-90266500D01*
X110072232Y-90266500D01*
X110078685Y-90265128D01*
X110078689Y-90265128D01*
X110160492Y-90247740D01*
X110248752Y-90228980D01*
X110254783Y-90226295D01*
X110407585Y-90158263D01*
X110407587Y-90158262D01*
X110413615Y-90155578D01*
X110418957Y-90151697D01*
X110554269Y-90053387D01*
X110554271Y-90053385D01*
X110559613Y-90049504D01*
X110625298Y-89976553D01*
X110685741Y-89939315D01*
X110756725Y-89940666D01*
X110815710Y-89980180D01*
X110838455Y-90020987D01*
X110845130Y-90040995D01*
X110845133Y-90041002D01*
X110847450Y-90047946D01*
X110940522Y-90198348D01*
X111065697Y-90323305D01*
X111070235Y-90326102D01*
X111110824Y-90383353D01*
X111114054Y-90454276D01*
X111078428Y-90515687D01*
X111069932Y-90523062D01*
X111059793Y-90531098D01*
X110945261Y-90645829D01*
X110936249Y-90657240D01*
X110851184Y-90795243D01*
X110845037Y-90808424D01*
X110793862Y-90962710D01*
X110790995Y-90976086D01*
X110781328Y-91070438D01*
X110781000Y-91076855D01*
X110781000Y-91189385D01*
X110785475Y-91204624D01*
X110786865Y-91205829D01*
X110794548Y-91207500D01*
X113228884Y-91207500D01*
X113244123Y-91203025D01*
X113245328Y-91201635D01*
X113246999Y-91193952D01*
X113246999Y-91076905D01*
X113246662Y-91070386D01*
X113236743Y-90974794D01*
X113233851Y-90961400D01*
X113182412Y-90807216D01*
X113176239Y-90794038D01*
X113090937Y-90656193D01*
X113081901Y-90644792D01*
X112967172Y-90530262D01*
X112958238Y-90523206D01*
X112917177Y-90465288D01*
X112913947Y-90394365D01*
X112949574Y-90332954D01*
X112957407Y-90326154D01*
X112963348Y-90322478D01*
X113088305Y-90197303D01*
X113176530Y-90054176D01*
X113177275Y-90052968D01*
X113177276Y-90052966D01*
X113181115Y-90046738D01*
X113236797Y-89878861D01*
X113238197Y-89865204D01*
X113247172Y-89777598D01*
X113247500Y-89774400D01*
X113247500Y-88998600D01*
X113245269Y-88977100D01*
X113237238Y-88899692D01*
X113237237Y-88899688D01*
X113236526Y-88892834D01*
X113232532Y-88880861D01*
X113182868Y-88732002D01*
X113180550Y-88725054D01*
X113087478Y-88574652D01*
X113065941Y-88553152D01*
X112967483Y-88454866D01*
X112962303Y-88449695D01*
X112935813Y-88433366D01*
X112817968Y-88360725D01*
X112817966Y-88360724D01*
X112811738Y-88356885D01*
X112731995Y-88330436D01*
X112650389Y-88303368D01*
X112650387Y-88303368D01*
X112643861Y-88301203D01*
X112637025Y-88300503D01*
X112637022Y-88300502D01*
X112593969Y-88296091D01*
X112539400Y-88290500D01*
X112036500Y-88290500D01*
X111968379Y-88270498D01*
X111921886Y-88216842D01*
X111910500Y-88164500D01*
X111910500Y-87722036D01*
X111930502Y-87653915D01*
X111942858Y-87637733D01*
X111950367Y-87629393D01*
X112040599Y-87473107D01*
X112096365Y-87301475D01*
X112112251Y-87150338D01*
X112139263Y-87084683D01*
X112197485Y-87044053D01*
X112268430Y-87041350D01*
X112326655Y-87074415D01*
X114299595Y-89047355D01*
X114333621Y-89109667D01*
X114336500Y-89136450D01*
X114336500Y-89774400D01*
X114336837Y-89777646D01*
X114336837Y-89777650D01*
X114345922Y-89865204D01*
X114347474Y-89880166D01*
X114349655Y-89886702D01*
X114349655Y-89886704D01*
X114367208Y-89939315D01*
X114403450Y-90047946D01*
X114496522Y-90198348D01*
X114621697Y-90323305D01*
X114626235Y-90326102D01*
X114666824Y-90383353D01*
X114670054Y-90454276D01*
X114634428Y-90515687D01*
X114625932Y-90523062D01*
X114615793Y-90531098D01*
X114501261Y-90645829D01*
X114492249Y-90657240D01*
X114407184Y-90795243D01*
X114401037Y-90808424D01*
X114349862Y-90962710D01*
X114346995Y-90976086D01*
X114337328Y-91070438D01*
X114337000Y-91076855D01*
X114337000Y-91189385D01*
X114341475Y-91204624D01*
X114342865Y-91205829D01*
X114350548Y-91207500D01*
X116784884Y-91207500D01*
X116800123Y-91203025D01*
X116801328Y-91201635D01*
X116802999Y-91193952D01*
X116802999Y-91076905D01*
X116802662Y-91070386D01*
X116792743Y-90974794D01*
X116789851Y-90961400D01*
X116738412Y-90807216D01*
X116732239Y-90794038D01*
X116646937Y-90656193D01*
X116637901Y-90644792D01*
X116523172Y-90530262D01*
X116514238Y-90523206D01*
X116473177Y-90465288D01*
X116469947Y-90394365D01*
X116505574Y-90332954D01*
X116513407Y-90326154D01*
X116519348Y-90322478D01*
X116644305Y-90197303D01*
X116732530Y-90054176D01*
X116733275Y-90052968D01*
X116733276Y-90052966D01*
X116737115Y-90046738D01*
X116792797Y-89878861D01*
X116794197Y-89865204D01*
X116803172Y-89777598D01*
X116803500Y-89774400D01*
X116803500Y-88998600D01*
X116801269Y-88977100D01*
X116793238Y-88899692D01*
X116793237Y-88899688D01*
X116792526Y-88892834D01*
X116788532Y-88880861D01*
X116738868Y-88732002D01*
X116736550Y-88725054D01*
X116643478Y-88574652D01*
X116621941Y-88553152D01*
X116523483Y-88454866D01*
X116518303Y-88449695D01*
X116491813Y-88433366D01*
X116373968Y-88360725D01*
X116373966Y-88360724D01*
X116367738Y-88356885D01*
X116287995Y-88330436D01*
X116206389Y-88303368D01*
X116206387Y-88303368D01*
X116199861Y-88301203D01*
X116193025Y-88300503D01*
X116193022Y-88300502D01*
X116149969Y-88296091D01*
X116095400Y-88290500D01*
X115457450Y-88290500D01*
X115389329Y-88270498D01*
X115368355Y-88253595D01*
X111709405Y-84594645D01*
X111675379Y-84532333D01*
X111672500Y-84505550D01*
X111672500Y-82755311D01*
X111692502Y-82687190D01*
X111732196Y-82648167D01*
X111838348Y-82582478D01*
X111924784Y-82495891D01*
X111987066Y-82461812D01*
X112057886Y-82466815D01*
X112102975Y-82495736D01*
X112144936Y-82537624D01*
X112190697Y-82583305D01*
X112196927Y-82587145D01*
X112196928Y-82587146D01*
X112334090Y-82671694D01*
X112341262Y-82676115D01*
X112383278Y-82690051D01*
X112502611Y-82729632D01*
X112502613Y-82729632D01*
X112509139Y-82731797D01*
X112515975Y-82732497D01*
X112515978Y-82732498D01*
X112559031Y-82736909D01*
X112613600Y-82742500D01*
X113414400Y-82742500D01*
X113417646Y-82742163D01*
X113417650Y-82742163D01*
X113513308Y-82732238D01*
X113513312Y-82732237D01*
X113520166Y-82731526D01*
X113526702Y-82729345D01*
X113526704Y-82729345D01*
X113674077Y-82680177D01*
X113687946Y-82675550D01*
X113838348Y-82582478D01*
X113963305Y-82457303D01*
X113971901Y-82443358D01*
X114052275Y-82312968D01*
X114052276Y-82312966D01*
X114056115Y-82306738D01*
X114111797Y-82138861D01*
X114122500Y-82034400D01*
X114122500Y-81477501D01*
X114142502Y-81409380D01*
X114196158Y-81362887D01*
X114248500Y-81351501D01*
X118531876Y-81351500D01*
X119832629Y-81351500D01*
X119891069Y-81367159D01*
X119891124Y-81367025D01*
X119892140Y-81367446D01*
X119892145Y-81367447D01*
X119898752Y-81370184D01*
X119898759Y-81370188D01*
X119911719Y-81375556D01*
X119967000Y-81420105D01*
X119989500Y-81491964D01*
X119989500Y-81718634D01*
X119989869Y-81722029D01*
X119989869Y-81722033D01*
X119995557Y-81774393D01*
X119995557Y-81801608D01*
X119992135Y-81833108D01*
X119964893Y-81898670D01*
X119906530Y-81939096D01*
X119866872Y-81945500D01*
X119797768Y-81945500D01*
X119791315Y-81946872D01*
X119791311Y-81946872D01*
X119709508Y-81964260D01*
X119621248Y-81983020D01*
X119615219Y-81985704D01*
X119615217Y-81985705D01*
X119462416Y-82053737D01*
X119462414Y-82053738D01*
X119456386Y-82056422D01*
X119451045Y-82060302D01*
X119451044Y-82060303D01*
X119315731Y-82158613D01*
X119315729Y-82158615D01*
X119310387Y-82162496D01*
X119305966Y-82167406D01*
X119305965Y-82167407D01*
X119200351Y-82284704D01*
X119189633Y-82296607D01*
X119099401Y-82452893D01*
X119087665Y-82489012D01*
X119056045Y-82586332D01*
X119043635Y-82624525D01*
X119042945Y-82631088D01*
X119042945Y-82631089D01*
X119025461Y-82797435D01*
X119024771Y-82804000D01*
X119025461Y-82810565D01*
X119042640Y-82974004D01*
X119043635Y-82983475D01*
X119099401Y-83155107D01*
X119102704Y-83160829D01*
X119102705Y-83160830D01*
X119109058Y-83171834D01*
X119189633Y-83311393D01*
X119194051Y-83316300D01*
X119194052Y-83316301D01*
X119204894Y-83328342D01*
X119310387Y-83445504D01*
X119315729Y-83449385D01*
X119315731Y-83449387D01*
X119451043Y-83547697D01*
X119456385Y-83551578D01*
X119462413Y-83554262D01*
X119462415Y-83554263D01*
X119544375Y-83590754D01*
X119621248Y-83624980D01*
X119709508Y-83643740D01*
X119791311Y-83661128D01*
X119791315Y-83661128D01*
X119797768Y-83662500D01*
X119863500Y-83662500D01*
X119931621Y-83682502D01*
X119978114Y-83736158D01*
X119989500Y-83788500D01*
X119989500Y-84258634D01*
X119989869Y-84262029D01*
X119989869Y-84262033D01*
X119995557Y-84314393D01*
X119995557Y-84341607D01*
X119989500Y-84397366D01*
X119989500Y-84893634D01*
X119989869Y-84897029D01*
X119989869Y-84897033D01*
X119995557Y-84949393D01*
X119995557Y-84976607D01*
X119989869Y-85028967D01*
X119989500Y-85032366D01*
X119989500Y-85528634D01*
X119989869Y-85532029D01*
X119989869Y-85532033D01*
X119995557Y-85584393D01*
X119995557Y-85611607D01*
X119989500Y-85667366D01*
X119989500Y-86163634D01*
X119996255Y-86225816D01*
X120047385Y-86362205D01*
X120134739Y-86478761D01*
X120251295Y-86566115D01*
X120387684Y-86617245D01*
X120449866Y-86624000D01*
X121746134Y-86624000D01*
X121808316Y-86617245D01*
X121944705Y-86566115D01*
X121967311Y-86549173D01*
X122033815Y-86524326D01*
X122042874Y-86524000D01*
X123580261Y-86524000D01*
X123648382Y-86544002D01*
X123669356Y-86560905D01*
X129006929Y-91898478D01*
X129102124Y-91971524D01*
X129250149Y-92032838D01*
X129258336Y-92033916D01*
X129258337Y-92033916D01*
X129400811Y-92052672D01*
X129409000Y-92053750D01*
X129458053Y-92047292D01*
X129490948Y-92047293D01*
X129500115Y-92048500D01*
X149811864Y-92048500D01*
X149828307Y-92049578D01*
X149860000Y-92053750D01*
X149868189Y-92052672D01*
X149899874Y-92048501D01*
X149899884Y-92048500D01*
X149899885Y-92048500D01*
X149903972Y-92047962D01*
X149999457Y-92035391D01*
X150010664Y-92033916D01*
X150010666Y-92033915D01*
X150018851Y-92032838D01*
X150166876Y-91971524D01*
X150173430Y-91966495D01*
X150262069Y-91898480D01*
X150262075Y-91898474D01*
X150287434Y-91879015D01*
X150293987Y-91873987D01*
X150299017Y-91867432D01*
X150313452Y-91848621D01*
X150324319Y-91836230D01*
X157803144Y-84357405D01*
X157865456Y-84323379D01*
X157892239Y-84320500D01*
X159422134Y-84320500D01*
X159484316Y-84313745D01*
X159620705Y-84262615D01*
X159737261Y-84175261D01*
X159824615Y-84058705D01*
X159875745Y-83922316D01*
X159882500Y-83860134D01*
X159882500Y-82763866D01*
X159875745Y-82701684D01*
X159824615Y-82565295D01*
X159737261Y-82448739D01*
X159620705Y-82361385D01*
X159484316Y-82310255D01*
X159422134Y-82303500D01*
X156815866Y-82303500D01*
X156753684Y-82310255D01*
X156617295Y-82361385D01*
X156500739Y-82448739D01*
X156413385Y-82565295D01*
X156362255Y-82701684D01*
X156355500Y-82763866D01*
X156355500Y-83860134D01*
X156355869Y-83863531D01*
X156361402Y-83914460D01*
X156362255Y-83922316D01*
X156365027Y-83929709D01*
X156365027Y-83929711D01*
X156376009Y-83959005D01*
X156381192Y-84029812D01*
X156347122Y-84092329D01*
X149644856Y-90794595D01*
X149582544Y-90828621D01*
X149555761Y-90831500D01*
X149417632Y-90831500D01*
X149349511Y-90811498D01*
X149303018Y-90757842D01*
X149292914Y-90687568D01*
X149308513Y-90642500D01*
X149375295Y-90526830D01*
X149375296Y-90526829D01*
X149378599Y-90521107D01*
X149419882Y-90394050D01*
X149432325Y-90355754D01*
X149432325Y-90355753D01*
X149434365Y-90349475D01*
X149436102Y-90332954D01*
X149452539Y-90176565D01*
X149453229Y-90170000D01*
X149434365Y-89990525D01*
X149378599Y-89818893D01*
X149344082Y-89759107D01*
X149294656Y-89673500D01*
X149277918Y-89604505D01*
X149301138Y-89537413D01*
X149356945Y-89493526D01*
X149403775Y-89484500D01*
X149852400Y-89484500D01*
X149855646Y-89484163D01*
X149855650Y-89484163D01*
X149951308Y-89474238D01*
X149951312Y-89474237D01*
X149958166Y-89473526D01*
X149964702Y-89471345D01*
X149964704Y-89471345D01*
X150096806Y-89427272D01*
X150125946Y-89417550D01*
X150276348Y-89324478D01*
X150401305Y-89199303D01*
X150409421Y-89186136D01*
X150490275Y-89054968D01*
X150490276Y-89054966D01*
X150494115Y-89048738D01*
X150549797Y-88880861D01*
X150550640Y-88872639D01*
X150560172Y-88779598D01*
X150560500Y-88776400D01*
X150560500Y-87975600D01*
X150549526Y-87869834D01*
X150493550Y-87702054D01*
X150400478Y-87551652D01*
X150313891Y-87465216D01*
X150279812Y-87402934D01*
X150284815Y-87332114D01*
X150313736Y-87287025D01*
X150396134Y-87204483D01*
X150401305Y-87199303D01*
X150444909Y-87128565D01*
X150490275Y-87054968D01*
X150490276Y-87054966D01*
X150494115Y-87048738D01*
X150541832Y-86904876D01*
X150547632Y-86887389D01*
X150547632Y-86887387D01*
X150549797Y-86880861D01*
X150560500Y-86776400D01*
X150560500Y-85975600D01*
X150550371Y-85877978D01*
X150550238Y-85876692D01*
X150550237Y-85876688D01*
X150549526Y-85869834D01*
X150545912Y-85859000D01*
X150495868Y-85709002D01*
X150493550Y-85702054D01*
X150400478Y-85551652D01*
X150275303Y-85426695D01*
X150195710Y-85377633D01*
X150130968Y-85337725D01*
X150130966Y-85337724D01*
X150124738Y-85333885D01*
X150065697Y-85314302D01*
X150046833Y-85308045D01*
X149988473Y-85267614D01*
X149961236Y-85202050D01*
X149960500Y-85188452D01*
X149960500Y-83820000D01*
X151536771Y-83820000D01*
X151537461Y-83826565D01*
X151549021Y-83936544D01*
X151555635Y-83999475D01*
X151557675Y-84005753D01*
X151557675Y-84005754D01*
X151582511Y-84082193D01*
X151611401Y-84171107D01*
X151614704Y-84176829D01*
X151614705Y-84176830D01*
X151643082Y-84225980D01*
X151701633Y-84327393D01*
X151706051Y-84332300D01*
X151706052Y-84332301D01*
X151792046Y-84427807D01*
X151822387Y-84461504D01*
X151827729Y-84465385D01*
X151827731Y-84465387D01*
X151954844Y-84557740D01*
X151968385Y-84567578D01*
X151974413Y-84570262D01*
X151974415Y-84570263D01*
X152127217Y-84638295D01*
X152133248Y-84640980D01*
X152221508Y-84659740D01*
X152303311Y-84677128D01*
X152303315Y-84677128D01*
X152309768Y-84678500D01*
X152490232Y-84678500D01*
X152496685Y-84677128D01*
X152496689Y-84677128D01*
X152578492Y-84659740D01*
X152666752Y-84640980D01*
X152672783Y-84638295D01*
X152825585Y-84570263D01*
X152825587Y-84570262D01*
X152831615Y-84567578D01*
X152845156Y-84557740D01*
X152972269Y-84465387D01*
X152972271Y-84465385D01*
X152977613Y-84461504D01*
X153007954Y-84427807D01*
X153093948Y-84332301D01*
X153093949Y-84332300D01*
X153098367Y-84327393D01*
X153156918Y-84225980D01*
X153185295Y-84176830D01*
X153185296Y-84176829D01*
X153188599Y-84171107D01*
X153217489Y-84082193D01*
X153242325Y-84005754D01*
X153242325Y-84005753D01*
X153244365Y-83999475D01*
X153250980Y-83936544D01*
X153262539Y-83826565D01*
X153263229Y-83820000D01*
X153244365Y-83640525D01*
X153226154Y-83584475D01*
X153190641Y-83475178D01*
X153188599Y-83468893D01*
X153098367Y-83312607D01*
X153092126Y-83305675D01*
X153049520Y-83258357D01*
X153040864Y-83248743D01*
X153010147Y-83184736D01*
X153008500Y-83164433D01*
X153008500Y-81750571D01*
X153028502Y-81682450D01*
X153082158Y-81635957D01*
X153152432Y-81625853D01*
X153210065Y-81649745D01*
X153307295Y-81722615D01*
X153443684Y-81773745D01*
X153505866Y-81780500D01*
X156112134Y-81780500D01*
X156174316Y-81773745D01*
X156310705Y-81722615D01*
X156427261Y-81635261D01*
X156514615Y-81518705D01*
X156565745Y-81382316D01*
X156572500Y-81320134D01*
X156572500Y-80223866D01*
X156565745Y-80161684D01*
X156514615Y-80025295D01*
X156427261Y-79908739D01*
X156310705Y-79821385D01*
X156174316Y-79770255D01*
X156112134Y-79763500D01*
X153505866Y-79763500D01*
X153443684Y-79770255D01*
X153307295Y-79821385D01*
X153241763Y-79870499D01*
X153228880Y-79880154D01*
X153163765Y-79904482D01*
X153162000Y-79904250D01*
X153154002Y-79905303D01*
X153153998Y-79905303D01*
X153122126Y-79909499D01*
X153122117Y-79909500D01*
X153122115Y-79909500D01*
X153122109Y-79909501D01*
X153122107Y-79909501D01*
X153022543Y-79922609D01*
X153011336Y-79924084D01*
X153011334Y-79924085D01*
X153003149Y-79925162D01*
X152855124Y-79986476D01*
X152813899Y-80018109D01*
X152759937Y-80059515D01*
X152759921Y-80059529D01*
X152734566Y-80078984D01*
X152734563Y-80078987D01*
X152728013Y-80084013D01*
X152722983Y-80090568D01*
X152708548Y-80109379D01*
X152697681Y-80121770D01*
X152003766Y-80815685D01*
X151991375Y-80826552D01*
X151966013Y-80846013D01*
X151941526Y-80877925D01*
X151941523Y-80877928D01*
X151926579Y-80897403D01*
X151882111Y-80955355D01*
X151868476Y-80973124D01*
X151808640Y-81117581D01*
X151807162Y-81121150D01*
X151791500Y-81240115D01*
X151791500Y-81240120D01*
X151786250Y-81280000D01*
X151787328Y-81288188D01*
X151790422Y-81311690D01*
X151791500Y-81328136D01*
X151791500Y-83164433D01*
X151771498Y-83232554D01*
X151759137Y-83248742D01*
X151750480Y-83258357D01*
X151707875Y-83305675D01*
X151701633Y-83312607D01*
X151611401Y-83468893D01*
X151609359Y-83475178D01*
X151573847Y-83584475D01*
X151555635Y-83640525D01*
X151536771Y-83820000D01*
X149960500Y-83820000D01*
X149960500Y-82959538D01*
X149980502Y-82891417D01*
X150034158Y-82844924D01*
X150046624Y-82840014D01*
X150107653Y-82819653D01*
X150125946Y-82813550D01*
X150276348Y-82720478D01*
X150401305Y-82595303D01*
X150406837Y-82586329D01*
X150490275Y-82450968D01*
X150490276Y-82450966D01*
X150494115Y-82444738D01*
X150532947Y-82327662D01*
X150547632Y-82283389D01*
X150547632Y-82283387D01*
X150549797Y-82276861D01*
X150560500Y-82172400D01*
X150560500Y-81421600D01*
X150559232Y-81409380D01*
X150550238Y-81322692D01*
X150550237Y-81322688D01*
X150549526Y-81315834D01*
X150493550Y-81148054D01*
X150400478Y-80997652D01*
X150275303Y-80872695D01*
X150271084Y-80870094D01*
X150230583Y-80812970D01*
X150227351Y-80742047D01*
X150262976Y-80680635D01*
X150270530Y-80674078D01*
X150276348Y-80670478D01*
X150401305Y-80545303D01*
X150418167Y-80517948D01*
X150490275Y-80400968D01*
X150490276Y-80400966D01*
X150494115Y-80394738D01*
X150549797Y-80226861D01*
X150552057Y-80204810D01*
X150560172Y-80125598D01*
X150560500Y-80122400D01*
X150560500Y-79371600D01*
X150560160Y-79368320D01*
X150550238Y-79272692D01*
X150550237Y-79272688D01*
X150549526Y-79265834D01*
X150540784Y-79239629D01*
X150495868Y-79105002D01*
X150493550Y-79098054D01*
X150400478Y-78947652D01*
X150275303Y-78822695D01*
X150205845Y-78779880D01*
X150200636Y-78776669D01*
X156356001Y-78776669D01*
X156356371Y-78783490D01*
X156361895Y-78834352D01*
X156365521Y-78849604D01*
X156410676Y-78970054D01*
X156419214Y-78985649D01*
X156495715Y-79087724D01*
X156508276Y-79100285D01*
X156610351Y-79176786D01*
X156625946Y-79185324D01*
X156746394Y-79230478D01*
X156761649Y-79234105D01*
X156812514Y-79239631D01*
X156819328Y-79240000D01*
X157846885Y-79240000D01*
X157862124Y-79235525D01*
X157863329Y-79234135D01*
X157865000Y-79226452D01*
X157865000Y-79221884D01*
X158373000Y-79221884D01*
X158377475Y-79237123D01*
X158378865Y-79238328D01*
X158386548Y-79239999D01*
X159418669Y-79239999D01*
X159425490Y-79239629D01*
X159476352Y-79234105D01*
X159491604Y-79230479D01*
X159612054Y-79185324D01*
X159627649Y-79176786D01*
X159729724Y-79100285D01*
X159742285Y-79087724D01*
X159818786Y-78985649D01*
X159827324Y-78970054D01*
X159872478Y-78849606D01*
X159876105Y-78834351D01*
X159881631Y-78783486D01*
X159882000Y-78776672D01*
X159882000Y-78504115D01*
X159877525Y-78488876D01*
X159876135Y-78487671D01*
X159868452Y-78486000D01*
X158391115Y-78486000D01*
X158375876Y-78490475D01*
X158374671Y-78491865D01*
X158373000Y-78499548D01*
X158373000Y-79221884D01*
X157865000Y-79221884D01*
X157865000Y-78504115D01*
X157860525Y-78488876D01*
X157859135Y-78487671D01*
X157851452Y-78486000D01*
X156374116Y-78486000D01*
X156358877Y-78490475D01*
X156357672Y-78491865D01*
X156356001Y-78499548D01*
X156356001Y-78776669D01*
X150200636Y-78776669D01*
X150130968Y-78733725D01*
X150130966Y-78733724D01*
X150124738Y-78729885D01*
X149964254Y-78676655D01*
X149963389Y-78676368D01*
X149963387Y-78676368D01*
X149956861Y-78674203D01*
X149950025Y-78673503D01*
X149950022Y-78673502D01*
X149906969Y-78669091D01*
X149852400Y-78663500D01*
X148851600Y-78663500D01*
X148848354Y-78663837D01*
X148848350Y-78663837D01*
X148752692Y-78673762D01*
X148752688Y-78673763D01*
X148745834Y-78674474D01*
X148739298Y-78676655D01*
X148739296Y-78676655D01*
X148614157Y-78718405D01*
X148578054Y-78730450D01*
X148427652Y-78823522D01*
X148302695Y-78948697D01*
X148298855Y-78954927D01*
X148298854Y-78954928D01*
X148222611Y-79078616D01*
X148169838Y-79126110D01*
X148115351Y-79138500D01*
X146524781Y-79138500D01*
X146456660Y-79118498D01*
X146417637Y-79078803D01*
X146340332Y-78953880D01*
X146336478Y-78947652D01*
X146211303Y-78822695D01*
X146141845Y-78779880D01*
X146066968Y-78733725D01*
X146066966Y-78733724D01*
X146060738Y-78729885D01*
X145900254Y-78676655D01*
X145899389Y-78676368D01*
X145899387Y-78676368D01*
X145892861Y-78674203D01*
X145886025Y-78673503D01*
X145886022Y-78673502D01*
X145842969Y-78669091D01*
X145788400Y-78663500D01*
X144787600Y-78663500D01*
X144784354Y-78663837D01*
X144784350Y-78663837D01*
X144688692Y-78673762D01*
X144688688Y-78673763D01*
X144681834Y-78674474D01*
X144675298Y-78676655D01*
X144675296Y-78676655D01*
X144550157Y-78718405D01*
X144514054Y-78730450D01*
X144504353Y-78736453D01*
X144501652Y-78737197D01*
X144501203Y-78737407D01*
X144501167Y-78737330D01*
X144435902Y-78755292D01*
X144368132Y-78734132D01*
X144348954Y-78718405D01*
X144155405Y-78524856D01*
X144121379Y-78462544D01*
X144118500Y-78435761D01*
X144118500Y-77959885D01*
X156356000Y-77959885D01*
X156360475Y-77975124D01*
X156361865Y-77976329D01*
X156369548Y-77978000D01*
X157846885Y-77978000D01*
X157862124Y-77973525D01*
X157863329Y-77972135D01*
X157865000Y-77964452D01*
X157865000Y-77959885D01*
X158373000Y-77959885D01*
X158377475Y-77975124D01*
X158378865Y-77976329D01*
X158386548Y-77978000D01*
X159863884Y-77978000D01*
X159879123Y-77973525D01*
X159880328Y-77972135D01*
X159881999Y-77964452D01*
X159881999Y-77687331D01*
X159881629Y-77680510D01*
X159876105Y-77629648D01*
X159872479Y-77614396D01*
X159827324Y-77493946D01*
X159818786Y-77478351D01*
X159742285Y-77376276D01*
X159729724Y-77363715D01*
X159627649Y-77287214D01*
X159612054Y-77278676D01*
X159491606Y-77233522D01*
X159476351Y-77229895D01*
X159425486Y-77224369D01*
X159418672Y-77224000D01*
X158391115Y-77224000D01*
X158375876Y-77228475D01*
X158374671Y-77229865D01*
X158373000Y-77237548D01*
X158373000Y-77959885D01*
X157865000Y-77959885D01*
X157865000Y-77242116D01*
X157860525Y-77226877D01*
X157859135Y-77225672D01*
X157851452Y-77224001D01*
X156819331Y-77224001D01*
X156812510Y-77224371D01*
X156761648Y-77229895D01*
X156746396Y-77233521D01*
X156625946Y-77278676D01*
X156610351Y-77287214D01*
X156508276Y-77363715D01*
X156495715Y-77376276D01*
X156419214Y-77478351D01*
X156410676Y-77493946D01*
X156365522Y-77614394D01*
X156361895Y-77629649D01*
X156356369Y-77680514D01*
X156356000Y-77687328D01*
X156356000Y-77959885D01*
X144118500Y-77959885D01*
X144118500Y-77279136D01*
X144119578Y-77262690D01*
X144122672Y-77239188D01*
X144123750Y-77231000D01*
X144118500Y-77191120D01*
X144118500Y-77191115D01*
X144113680Y-77154500D01*
X144104891Y-77087741D01*
X144104890Y-77087739D01*
X144102838Y-77072150D01*
X144102838Y-77072149D01*
X144041524Y-76924124D01*
X143968477Y-76828928D01*
X143968474Y-76828925D01*
X143943987Y-76797013D01*
X143937432Y-76791983D01*
X143918621Y-76777548D01*
X143906230Y-76766681D01*
X140293759Y-73154210D01*
X140259733Y-73091898D01*
X140264798Y-73021083D01*
X140307345Y-72964247D01*
X140338624Y-72947133D01*
X140438297Y-72909767D01*
X140446705Y-72906615D01*
X140563261Y-72819261D01*
X140650615Y-72702705D01*
X140701745Y-72566316D01*
X140708500Y-72504134D01*
X140708500Y-69257866D01*
X140701745Y-69195684D01*
X140650615Y-69059295D01*
X140563261Y-68942739D01*
X140446705Y-68855385D01*
X140310316Y-68804255D01*
X140248134Y-68797500D01*
X139674950Y-68797500D01*
X139606829Y-68777498D01*
X139585855Y-68760595D01*
X139373655Y-68548395D01*
X139365665Y-68539615D01*
X139365663Y-68539613D01*
X139361416Y-68532920D01*
X139343965Y-68516532D01*
X139309743Y-68484396D01*
X139306901Y-68481641D01*
X139286333Y-68461073D01*
X139282826Y-68458353D01*
X139273804Y-68450647D01*
X139269613Y-68446711D01*
X139240133Y-68419028D01*
X139233181Y-68415206D01*
X139221342Y-68408697D01*
X139204818Y-68397843D01*
X139194132Y-68389555D01*
X139187868Y-68384696D01*
X139180596Y-68381549D01*
X139180594Y-68381548D01*
X139145465Y-68366346D01*
X139134805Y-68361124D01*
X139101284Y-68342695D01*
X139101282Y-68342694D01*
X139094337Y-68338876D01*
X139073559Y-68333541D01*
X139054869Y-68327142D01*
X139035176Y-68318620D01*
X139032627Y-68318216D01*
X138974797Y-68281283D01*
X138945120Y-68216787D01*
X138955024Y-68146484D01*
X139001364Y-68092696D01*
X139069786Y-68072500D01*
X165989500Y-68072500D01*
X166057621Y-68092502D01*
X166104114Y-68146158D01*
X166115500Y-68198500D01*
X166115500Y-93345500D01*
X166095498Y-93413621D01*
X166041842Y-93460114D01*
X165989500Y-93471500D01*
X100202500Y-93471500D01*
X100134379Y-93451498D01*
X100087886Y-93397842D01*
X100076500Y-93345500D01*
X100076500Y-91824595D01*
X100367001Y-91824595D01*
X100367338Y-91831114D01*
X100377257Y-91926706D01*
X100380149Y-91940100D01*
X100431588Y-92094284D01*
X100437761Y-92107462D01*
X100523063Y-92245307D01*
X100532099Y-92256708D01*
X100646829Y-92371239D01*
X100658240Y-92380251D01*
X100796243Y-92465316D01*
X100809424Y-92471463D01*
X100963710Y-92522638D01*
X100977086Y-92525505D01*
X101071438Y-92535172D01*
X101077854Y-92535500D01*
X101327885Y-92535500D01*
X101343124Y-92531025D01*
X101344329Y-92529635D01*
X101346000Y-92521952D01*
X101346000Y-92517384D01*
X101854000Y-92517384D01*
X101858475Y-92532623D01*
X101859865Y-92533828D01*
X101867548Y-92535499D01*
X102122095Y-92535499D01*
X102128614Y-92535162D01*
X102224206Y-92525243D01*
X102237600Y-92522351D01*
X102391784Y-92470912D01*
X102404962Y-92464739D01*
X102542807Y-92379437D01*
X102554208Y-92370401D01*
X102668739Y-92255671D01*
X102677751Y-92244260D01*
X102762816Y-92106257D01*
X102768963Y-92093076D01*
X102820138Y-91938790D01*
X102823005Y-91925414D01*
X102832672Y-91831062D01*
X102833000Y-91824646D01*
X102833000Y-91824595D01*
X103923001Y-91824595D01*
X103923338Y-91831114D01*
X103933257Y-91926706D01*
X103936149Y-91940100D01*
X103987588Y-92094284D01*
X103993761Y-92107462D01*
X104079063Y-92245307D01*
X104088099Y-92256708D01*
X104202829Y-92371239D01*
X104214240Y-92380251D01*
X104352243Y-92465316D01*
X104365424Y-92471463D01*
X104519710Y-92522638D01*
X104533086Y-92525505D01*
X104627438Y-92535172D01*
X104633854Y-92535500D01*
X104883885Y-92535500D01*
X104899124Y-92531025D01*
X104900329Y-92529635D01*
X104902000Y-92521952D01*
X104902000Y-92517384D01*
X105410000Y-92517384D01*
X105414475Y-92532623D01*
X105415865Y-92533828D01*
X105423548Y-92535499D01*
X105678095Y-92535499D01*
X105684614Y-92535162D01*
X105780206Y-92525243D01*
X105793600Y-92522351D01*
X105947784Y-92470912D01*
X105960962Y-92464739D01*
X106098807Y-92379437D01*
X106110208Y-92370401D01*
X106224739Y-92255671D01*
X106233751Y-92244260D01*
X106318816Y-92106257D01*
X106324963Y-92093076D01*
X106376138Y-91938790D01*
X106379005Y-91925414D01*
X106388672Y-91831062D01*
X106389000Y-91824646D01*
X106389000Y-91824595D01*
X107225001Y-91824595D01*
X107225338Y-91831114D01*
X107235257Y-91926706D01*
X107238149Y-91940100D01*
X107289588Y-92094284D01*
X107295761Y-92107462D01*
X107381063Y-92245307D01*
X107390099Y-92256708D01*
X107504829Y-92371239D01*
X107516240Y-92380251D01*
X107654243Y-92465316D01*
X107667424Y-92471463D01*
X107821710Y-92522638D01*
X107835086Y-92525505D01*
X107929438Y-92535172D01*
X107935854Y-92535500D01*
X108185885Y-92535500D01*
X108201124Y-92531025D01*
X108202329Y-92529635D01*
X108204000Y-92521952D01*
X108204000Y-92517384D01*
X108712000Y-92517384D01*
X108716475Y-92532623D01*
X108717865Y-92533828D01*
X108725548Y-92535499D01*
X108980095Y-92535499D01*
X108986614Y-92535162D01*
X109082206Y-92525243D01*
X109095600Y-92522351D01*
X109249784Y-92470912D01*
X109262962Y-92464739D01*
X109400807Y-92379437D01*
X109412208Y-92370401D01*
X109526739Y-92255671D01*
X109535751Y-92244260D01*
X109620816Y-92106257D01*
X109626963Y-92093076D01*
X109678138Y-91938790D01*
X109681005Y-91925414D01*
X109689132Y-91846095D01*
X110781001Y-91846095D01*
X110781338Y-91852614D01*
X110791257Y-91948206D01*
X110794149Y-91961600D01*
X110845588Y-92115784D01*
X110851761Y-92128962D01*
X110937063Y-92266807D01*
X110946099Y-92278208D01*
X111060829Y-92392739D01*
X111072240Y-92401751D01*
X111210243Y-92486816D01*
X111223424Y-92492963D01*
X111377710Y-92544138D01*
X111391086Y-92547005D01*
X111485438Y-92556672D01*
X111491854Y-92557000D01*
X111741885Y-92557000D01*
X111757124Y-92552525D01*
X111758329Y-92551135D01*
X111760000Y-92543452D01*
X111760000Y-92538884D01*
X112268000Y-92538884D01*
X112272475Y-92554123D01*
X112273865Y-92555328D01*
X112281548Y-92556999D01*
X112536095Y-92556999D01*
X112542614Y-92556662D01*
X112638206Y-92546743D01*
X112651600Y-92543851D01*
X112805784Y-92492412D01*
X112818962Y-92486239D01*
X112956807Y-92400937D01*
X112968208Y-92391901D01*
X113082739Y-92277171D01*
X113091751Y-92265760D01*
X113176816Y-92127757D01*
X113182963Y-92114576D01*
X113234138Y-91960290D01*
X113237005Y-91946914D01*
X113246672Y-91852562D01*
X113247000Y-91846146D01*
X113247000Y-91846095D01*
X114337001Y-91846095D01*
X114337338Y-91852614D01*
X114347257Y-91948206D01*
X114350149Y-91961600D01*
X114401588Y-92115784D01*
X114407761Y-92128962D01*
X114493063Y-92266807D01*
X114502099Y-92278208D01*
X114616829Y-92392739D01*
X114628240Y-92401751D01*
X114766243Y-92486816D01*
X114779424Y-92492963D01*
X114933710Y-92544138D01*
X114947086Y-92547005D01*
X115041438Y-92556672D01*
X115047854Y-92557000D01*
X115297885Y-92557000D01*
X115313124Y-92552525D01*
X115314329Y-92551135D01*
X115316000Y-92543452D01*
X115316000Y-92538884D01*
X115824000Y-92538884D01*
X115828475Y-92554123D01*
X115829865Y-92555328D01*
X115837548Y-92556999D01*
X116092095Y-92556999D01*
X116098614Y-92556662D01*
X116194206Y-92546743D01*
X116207600Y-92543851D01*
X116361784Y-92492412D01*
X116374962Y-92486239D01*
X116512807Y-92400937D01*
X116524208Y-92391901D01*
X116638739Y-92277171D01*
X116647751Y-92265760D01*
X116732816Y-92127757D01*
X116738963Y-92114576D01*
X116790138Y-91960290D01*
X116793005Y-91946914D01*
X116802672Y-91852562D01*
X116803000Y-91846146D01*
X116803000Y-91733615D01*
X116798525Y-91718376D01*
X116797135Y-91717171D01*
X116789452Y-91715500D01*
X115842115Y-91715500D01*
X115826876Y-91719975D01*
X115825671Y-91721365D01*
X115824000Y-91729048D01*
X115824000Y-92538884D01*
X115316000Y-92538884D01*
X115316000Y-91733615D01*
X115311525Y-91718376D01*
X115310135Y-91717171D01*
X115302452Y-91715500D01*
X114355116Y-91715500D01*
X114339877Y-91719975D01*
X114338672Y-91721365D01*
X114337001Y-91729048D01*
X114337001Y-91846095D01*
X113247000Y-91846095D01*
X113247000Y-91733615D01*
X113242525Y-91718376D01*
X113241135Y-91717171D01*
X113233452Y-91715500D01*
X112286115Y-91715500D01*
X112270876Y-91719975D01*
X112269671Y-91721365D01*
X112268000Y-91729048D01*
X112268000Y-92538884D01*
X111760000Y-92538884D01*
X111760000Y-91733615D01*
X111755525Y-91718376D01*
X111754135Y-91717171D01*
X111746452Y-91715500D01*
X110799116Y-91715500D01*
X110783877Y-91719975D01*
X110782672Y-91721365D01*
X110781001Y-91729048D01*
X110781001Y-91846095D01*
X109689132Y-91846095D01*
X109690672Y-91831062D01*
X109691000Y-91824645D01*
X109691000Y-91712115D01*
X109686525Y-91696876D01*
X109685135Y-91695671D01*
X109677452Y-91694000D01*
X108730115Y-91694000D01*
X108714876Y-91698475D01*
X108713671Y-91699865D01*
X108712000Y-91707548D01*
X108712000Y-92517384D01*
X108204000Y-92517384D01*
X108204000Y-91712115D01*
X108199525Y-91696876D01*
X108198135Y-91695671D01*
X108190452Y-91694000D01*
X107243116Y-91694000D01*
X107227877Y-91698475D01*
X107226672Y-91699865D01*
X107225001Y-91707548D01*
X107225001Y-91824595D01*
X106389000Y-91824595D01*
X106389000Y-91712115D01*
X106384525Y-91696876D01*
X106383135Y-91695671D01*
X106375452Y-91694000D01*
X105428115Y-91694000D01*
X105412876Y-91698475D01*
X105411671Y-91699865D01*
X105410000Y-91707548D01*
X105410000Y-92517384D01*
X104902000Y-92517384D01*
X104902000Y-91712115D01*
X104897525Y-91696876D01*
X104896135Y-91695671D01*
X104888452Y-91694000D01*
X103941116Y-91694000D01*
X103925877Y-91698475D01*
X103924672Y-91699865D01*
X103923001Y-91707548D01*
X103923001Y-91824595D01*
X102833000Y-91824595D01*
X102833000Y-91712115D01*
X102828525Y-91696876D01*
X102827135Y-91695671D01*
X102819452Y-91694000D01*
X101872115Y-91694000D01*
X101856876Y-91698475D01*
X101855671Y-91699865D01*
X101854000Y-91707548D01*
X101854000Y-92517384D01*
X101346000Y-92517384D01*
X101346000Y-91712115D01*
X101341525Y-91696876D01*
X101340135Y-91695671D01*
X101332452Y-91694000D01*
X100385116Y-91694000D01*
X100369877Y-91698475D01*
X100368672Y-91699865D01*
X100367001Y-91707548D01*
X100367001Y-91824595D01*
X100076500Y-91824595D01*
X100076500Y-86464445D01*
X100096502Y-86396324D01*
X100150158Y-86349831D01*
X100220432Y-86339727D01*
X100274771Y-86361232D01*
X100389992Y-86441910D01*
X100401081Y-86448108D01*
X100567980Y-86520332D01*
X100580083Y-86524171D01*
X100759600Y-86561675D01*
X100769152Y-86562915D01*
X100772384Y-86563000D01*
X100992885Y-86563000D01*
X101008124Y-86558525D01*
X101009329Y-86557135D01*
X101011000Y-86549452D01*
X101011000Y-86544885D01*
X101519000Y-86544885D01*
X101523475Y-86560124D01*
X101524865Y-86561329D01*
X101532548Y-86563000D01*
X101710447Y-86563000D01*
X101716822Y-86562677D01*
X101852277Y-86548918D01*
X101864717Y-86546364D01*
X102038244Y-86491984D01*
X102049932Y-86486975D01*
X102208979Y-86398813D01*
X102219412Y-86391562D01*
X102357491Y-86273215D01*
X102366244Y-86264024D01*
X102477711Y-86120320D01*
X102484435Y-86109560D01*
X102564732Y-85946375D01*
X102569155Y-85934481D01*
X102584251Y-85876530D01*
X102584021Y-85869075D01*
X102971363Y-85869075D01*
X103027310Y-86021136D01*
X103032877Y-86032549D01*
X103128708Y-86187108D01*
X103136460Y-86197174D01*
X103261408Y-86329303D01*
X103271026Y-86337605D01*
X103419987Y-86441908D01*
X103431081Y-86448108D01*
X103597980Y-86520332D01*
X103610083Y-86524171D01*
X103789600Y-86561675D01*
X103799152Y-86562915D01*
X103802384Y-86563000D01*
X104372885Y-86563000D01*
X104388124Y-86558525D01*
X104389329Y-86557135D01*
X104391000Y-86549452D01*
X104391000Y-86544885D01*
X104899000Y-86544885D01*
X104903475Y-86560124D01*
X104904865Y-86561329D01*
X104912548Y-86563000D01*
X105440447Y-86563000D01*
X105446822Y-86562677D01*
X105582277Y-86548918D01*
X105594717Y-86546364D01*
X105768244Y-86491984D01*
X105779932Y-86486975D01*
X105938979Y-86398813D01*
X105949412Y-86391562D01*
X106087491Y-86273215D01*
X106096244Y-86264024D01*
X106207711Y-86120320D01*
X106214435Y-86109560D01*
X106294732Y-85946375D01*
X106299155Y-85934481D01*
X106314251Y-85876530D01*
X106313817Y-85862436D01*
X106305636Y-85859000D01*
X104917115Y-85859000D01*
X104901876Y-85863475D01*
X104900671Y-85864865D01*
X104899000Y-85872548D01*
X104899000Y-86544885D01*
X104391000Y-86544885D01*
X104391000Y-85877115D01*
X104386525Y-85861876D01*
X104385135Y-85860671D01*
X104377452Y-85859000D01*
X102985771Y-85859000D01*
X102972240Y-85862973D01*
X102971363Y-85869075D01*
X102584021Y-85869075D01*
X102583817Y-85862436D01*
X102575636Y-85859000D01*
X101537115Y-85859000D01*
X101521876Y-85863475D01*
X101520671Y-85864865D01*
X101519000Y-85872548D01*
X101519000Y-86544885D01*
X101011000Y-86544885D01*
X101011000Y-85332885D01*
X101519000Y-85332885D01*
X101523475Y-85348124D01*
X101524865Y-85349329D01*
X101532548Y-85351000D01*
X102574229Y-85351000D01*
X102587760Y-85347027D01*
X102588637Y-85340925D01*
X102532690Y-85188864D01*
X102527123Y-85177451D01*
X102431292Y-85022892D01*
X102423540Y-85012826D01*
X102298592Y-84880697D01*
X102288974Y-84872395D01*
X102140013Y-84768092D01*
X102128919Y-84761892D01*
X101962020Y-84689668D01*
X101949917Y-84685829D01*
X101770400Y-84648325D01*
X101760848Y-84647085D01*
X101757616Y-84647000D01*
X101537115Y-84647000D01*
X101521876Y-84651475D01*
X101520671Y-84652865D01*
X101519000Y-84660548D01*
X101519000Y-85332885D01*
X101011000Y-85332885D01*
X101011000Y-84665115D01*
X101006525Y-84649876D01*
X101005135Y-84648671D01*
X100997452Y-84647000D01*
X100819553Y-84647000D01*
X100813178Y-84647323D01*
X100677723Y-84661082D01*
X100665283Y-84663636D01*
X100491756Y-84718016D01*
X100480068Y-84723025D01*
X100321021Y-84811187D01*
X100310594Y-84818434D01*
X100284498Y-84840801D01*
X100219759Y-84869945D01*
X100149541Y-84859463D01*
X100096136Y-84812681D01*
X100076500Y-84745133D01*
X100076500Y-77814445D01*
X100096502Y-77746324D01*
X100150158Y-77699831D01*
X100220432Y-77689727D01*
X100274771Y-77711232D01*
X100389992Y-77791910D01*
X100401081Y-77798108D01*
X100567980Y-77870332D01*
X100580083Y-77874171D01*
X100759600Y-77911675D01*
X100769152Y-77912915D01*
X100772384Y-77913000D01*
X100992885Y-77913000D01*
X101008124Y-77908525D01*
X101009329Y-77907135D01*
X101011000Y-77899452D01*
X101011000Y-77894885D01*
X101519000Y-77894885D01*
X101523475Y-77910124D01*
X101524865Y-77911329D01*
X101532548Y-77913000D01*
X101710447Y-77913000D01*
X101716822Y-77912677D01*
X101852277Y-77898918D01*
X101864717Y-77896364D01*
X102038244Y-77841984D01*
X102049932Y-77836975D01*
X102208979Y-77748813D01*
X102219412Y-77741562D01*
X102357491Y-77623215D01*
X102366244Y-77614024D01*
X102477711Y-77470320D01*
X102484435Y-77459560D01*
X102564732Y-77296375D01*
X102569155Y-77284481D01*
X102584251Y-77226530D01*
X102583817Y-77212436D01*
X102575636Y-77209000D01*
X101537115Y-77209000D01*
X101521876Y-77213475D01*
X101520671Y-77214865D01*
X101519000Y-77222548D01*
X101519000Y-77894885D01*
X101011000Y-77894885D01*
X101011000Y-76682885D01*
X101519000Y-76682885D01*
X101523475Y-76698124D01*
X101524865Y-76699329D01*
X101532548Y-76701000D01*
X102574229Y-76701000D01*
X102587760Y-76697027D01*
X102588637Y-76690925D01*
X102585894Y-76683470D01*
X102975749Y-76683470D01*
X102976183Y-76697564D01*
X102984364Y-76701000D01*
X104372885Y-76701000D01*
X104388124Y-76696525D01*
X104389329Y-76695135D01*
X104391000Y-76687452D01*
X104391000Y-76682885D01*
X104899000Y-76682885D01*
X104903475Y-76698124D01*
X104904865Y-76699329D01*
X104912548Y-76701000D01*
X106304229Y-76701000D01*
X106317760Y-76697027D01*
X106318637Y-76690925D01*
X106262690Y-76538864D01*
X106257123Y-76527451D01*
X106161292Y-76372892D01*
X106153540Y-76362826D01*
X106028592Y-76230697D01*
X106018974Y-76222395D01*
X105870013Y-76118092D01*
X105858919Y-76111892D01*
X105692020Y-76039668D01*
X105679917Y-76035829D01*
X105500400Y-75998325D01*
X105490848Y-75997085D01*
X105487616Y-75997000D01*
X104917115Y-75997000D01*
X104901876Y-76001475D01*
X104900671Y-76002865D01*
X104899000Y-76010548D01*
X104899000Y-76682885D01*
X104391000Y-76682885D01*
X104391000Y-76015115D01*
X104386525Y-75999876D01*
X104385135Y-75998671D01*
X104377452Y-75997000D01*
X103849553Y-75997000D01*
X103843178Y-75997323D01*
X103707723Y-76011082D01*
X103695283Y-76013636D01*
X103521756Y-76068016D01*
X103510068Y-76073025D01*
X103351021Y-76161187D01*
X103340588Y-76168438D01*
X103202509Y-76286785D01*
X103193756Y-76295976D01*
X103082289Y-76439680D01*
X103075565Y-76450440D01*
X102995268Y-76613625D01*
X102990845Y-76625519D01*
X102975749Y-76683470D01*
X102585894Y-76683470D01*
X102532690Y-76538864D01*
X102527123Y-76527451D01*
X102431292Y-76372892D01*
X102423540Y-76362826D01*
X102298592Y-76230697D01*
X102288974Y-76222395D01*
X102140013Y-76118092D01*
X102128919Y-76111892D01*
X101962020Y-76039668D01*
X101949917Y-76035829D01*
X101770400Y-75998325D01*
X101760848Y-75997085D01*
X101757616Y-75997000D01*
X101537115Y-75997000D01*
X101521876Y-76001475D01*
X101520671Y-76002865D01*
X101519000Y-76010548D01*
X101519000Y-76682885D01*
X101011000Y-76682885D01*
X101011000Y-76015115D01*
X101006525Y-75999876D01*
X101005135Y-75998671D01*
X100997452Y-75997000D01*
X100819553Y-75997000D01*
X100813178Y-75997323D01*
X100677723Y-76011082D01*
X100665283Y-76013636D01*
X100491756Y-76068016D01*
X100480068Y-76073025D01*
X100321021Y-76161187D01*
X100310594Y-76168434D01*
X100284498Y-76190801D01*
X100219759Y-76219945D01*
X100149541Y-76209463D01*
X100096136Y-76162681D01*
X100076500Y-76095133D01*
X100076500Y-72774400D01*
X100645500Y-72774400D01*
X100645837Y-72777646D01*
X100645837Y-72777650D01*
X100653112Y-72847762D01*
X100656474Y-72880166D01*
X100658655Y-72886702D01*
X100658655Y-72886704D01*
X100674165Y-72933193D01*
X100712450Y-73047946D01*
X100805522Y-73198348D01*
X100930697Y-73323305D01*
X100953674Y-73337468D01*
X100955066Y-73338326D01*
X101002561Y-73391098D01*
X101013985Y-73461169D01*
X101012198Y-73471785D01*
X101011674Y-73474249D01*
X101009635Y-73480525D01*
X101008946Y-73487084D01*
X101008945Y-73487087D01*
X100994307Y-73626354D01*
X100990771Y-73660000D01*
X100991461Y-73666565D01*
X101005689Y-73801928D01*
X101009635Y-73839475D01*
X101011675Y-73845753D01*
X101011675Y-73845754D01*
X101020543Y-73873047D01*
X101065401Y-74011107D01*
X101068704Y-74016829D01*
X101068705Y-74016830D01*
X101078109Y-74033118D01*
X101155633Y-74167393D01*
X101160051Y-74172300D01*
X101160052Y-74172301D01*
X101243068Y-74264500D01*
X101276387Y-74301504D01*
X101281729Y-74305385D01*
X101281731Y-74305387D01*
X101303039Y-74320868D01*
X101422385Y-74407578D01*
X101428413Y-74410262D01*
X101428415Y-74410263D01*
X101512747Y-74447810D01*
X101587248Y-74480980D01*
X101675508Y-74499740D01*
X101757311Y-74517128D01*
X101757315Y-74517128D01*
X101763768Y-74518500D01*
X101927600Y-74518500D01*
X101995721Y-74538502D01*
X102042214Y-74592158D01*
X102052318Y-74662432D01*
X102047433Y-74683435D01*
X102027676Y-74744242D01*
X102025635Y-74750525D01*
X102024945Y-74757088D01*
X102024945Y-74757089D01*
X102019967Y-74804450D01*
X102006771Y-74930000D01*
X102007461Y-74936565D01*
X102015861Y-75016479D01*
X102025635Y-75109475D01*
X102027675Y-75115753D01*
X102027675Y-75115754D01*
X102034511Y-75136794D01*
X102081401Y-75281107D01*
X102171633Y-75437393D01*
X102176051Y-75442300D01*
X102176052Y-75442301D01*
X102227118Y-75499015D01*
X102292387Y-75571504D01*
X102297729Y-75575385D01*
X102297731Y-75575387D01*
X102385646Y-75639261D01*
X102438385Y-75677578D01*
X102444413Y-75680262D01*
X102444415Y-75680263D01*
X102597217Y-75748295D01*
X102603248Y-75750980D01*
X102691508Y-75769740D01*
X102773311Y-75787128D01*
X102773315Y-75787128D01*
X102779768Y-75788500D01*
X102960232Y-75788500D01*
X102966685Y-75787128D01*
X102966689Y-75787128D01*
X103048492Y-75769740D01*
X103136752Y-75750980D01*
X103142783Y-75748295D01*
X103295585Y-75680263D01*
X103295587Y-75680262D01*
X103301615Y-75677578D01*
X103354354Y-75639261D01*
X103442269Y-75575387D01*
X103442271Y-75575385D01*
X103447613Y-75571504D01*
X103512882Y-75499015D01*
X103563948Y-75442301D01*
X103563949Y-75442300D01*
X103568367Y-75437393D01*
X103658599Y-75281107D01*
X103705489Y-75136794D01*
X103712325Y-75115754D01*
X103712325Y-75115753D01*
X103714365Y-75109475D01*
X103720575Y-75050394D01*
X103747589Y-74984737D01*
X103756790Y-74974470D01*
X105211855Y-73519405D01*
X105274167Y-73485379D01*
X105300950Y-73482500D01*
X105656400Y-73482500D01*
X105659646Y-73482163D01*
X105659650Y-73482163D01*
X105755308Y-73472238D01*
X105755312Y-73472237D01*
X105762166Y-73471526D01*
X105768702Y-73469345D01*
X105768704Y-73469345D01*
X105922998Y-73417868D01*
X105929946Y-73415550D01*
X106080348Y-73322478D01*
X106097833Y-73304963D01*
X106200134Y-73202483D01*
X106205305Y-73197303D01*
X106209146Y-73191072D01*
X106294275Y-73052968D01*
X106294276Y-73052966D01*
X106298115Y-73046738D01*
X106327350Y-72958598D01*
X106351632Y-72885389D01*
X106351632Y-72885387D01*
X106353797Y-72878861D01*
X106356984Y-72847762D01*
X106364172Y-72777598D01*
X106364500Y-72774400D01*
X106364500Y-72658095D01*
X109881001Y-72658095D01*
X109881338Y-72664614D01*
X109891257Y-72760206D01*
X109894149Y-72773600D01*
X109945588Y-72927784D01*
X109951761Y-72940962D01*
X110037063Y-73078807D01*
X110046099Y-73090208D01*
X110160829Y-73204739D01*
X110172240Y-73213751D01*
X110310243Y-73298816D01*
X110323424Y-73304963D01*
X110477710Y-73356138D01*
X110491086Y-73359005D01*
X110585438Y-73368672D01*
X110591854Y-73369000D01*
X110704385Y-73369000D01*
X110719624Y-73364525D01*
X110720829Y-73363135D01*
X110722500Y-73355452D01*
X110722500Y-72408115D01*
X110718025Y-72392876D01*
X110716635Y-72391671D01*
X110708952Y-72390000D01*
X109899116Y-72390000D01*
X109883877Y-72394475D01*
X109882672Y-72395865D01*
X109881001Y-72403548D01*
X109881001Y-72658095D01*
X106364500Y-72658095D01*
X106364500Y-71973600D01*
X106360391Y-71933996D01*
X106354238Y-71874692D01*
X106354237Y-71874688D01*
X106353526Y-71867834D01*
X106352209Y-71863885D01*
X109881000Y-71863885D01*
X109885475Y-71879124D01*
X109886865Y-71880329D01*
X109894548Y-71882000D01*
X110704385Y-71882000D01*
X110719624Y-71877525D01*
X110720829Y-71876135D01*
X110722500Y-71868452D01*
X110722500Y-70921116D01*
X110718025Y-70905877D01*
X110716635Y-70904672D01*
X110708952Y-70903001D01*
X110591905Y-70903001D01*
X110585386Y-70903338D01*
X110489794Y-70913257D01*
X110476400Y-70916149D01*
X110322216Y-70967588D01*
X110309038Y-70973761D01*
X110171193Y-71059063D01*
X110159792Y-71068099D01*
X110045261Y-71182829D01*
X110036249Y-71194240D01*
X109951184Y-71332243D01*
X109945037Y-71345424D01*
X109893862Y-71499710D01*
X109890995Y-71513086D01*
X109881328Y-71607438D01*
X109881000Y-71613855D01*
X109881000Y-71863885D01*
X106352209Y-71863885D01*
X106297550Y-71700054D01*
X106204478Y-71549652D01*
X106180442Y-71525658D01*
X106117537Y-71462862D01*
X106083458Y-71400579D01*
X106088461Y-71329759D01*
X106117382Y-71284671D01*
X106199739Y-71202171D01*
X106208751Y-71190760D01*
X106293816Y-71052757D01*
X106299963Y-71039576D01*
X106351138Y-70885290D01*
X106354005Y-70871914D01*
X106363672Y-70777562D01*
X106364000Y-70771146D01*
X106364000Y-70646115D01*
X106359525Y-70630876D01*
X106358135Y-70629671D01*
X106350452Y-70628000D01*
X103966116Y-70628000D01*
X103950877Y-70632475D01*
X103949672Y-70633865D01*
X103948001Y-70641548D01*
X103948001Y-70771095D01*
X103948338Y-70777614D01*
X103958257Y-70873206D01*
X103961149Y-70886600D01*
X104012588Y-71040784D01*
X104018761Y-71053962D01*
X104104063Y-71191807D01*
X104113099Y-71203208D01*
X104194462Y-71284430D01*
X104228541Y-71346713D01*
X104223538Y-71417533D01*
X104194617Y-71462620D01*
X104111870Y-71545512D01*
X104111866Y-71545517D01*
X104106695Y-71550697D01*
X104102855Y-71556927D01*
X104102854Y-71556928D01*
X104019509Y-71692139D01*
X104013885Y-71701262D01*
X103958203Y-71869139D01*
X103947500Y-71973600D01*
X103947500Y-72774400D01*
X103947837Y-72777646D01*
X103947837Y-72777650D01*
X103955112Y-72847762D01*
X103942247Y-72917583D01*
X103918880Y-72949861D01*
X102908929Y-73959811D01*
X102846617Y-73993837D01*
X102775801Y-73988772D01*
X102718966Y-73946225D01*
X102694155Y-73879705D01*
X102696551Y-73845059D01*
X102698365Y-73839475D01*
X102702312Y-73801928D01*
X102716539Y-73666565D01*
X102717229Y-73660000D01*
X102698365Y-73480525D01*
X102696324Y-73474243D01*
X102695779Y-73471680D01*
X102701179Y-73400889D01*
X102743995Y-73344255D01*
X102752722Y-73338336D01*
X102772120Y-73326332D01*
X102778348Y-73322478D01*
X102795833Y-73304963D01*
X102898134Y-73202483D01*
X102903305Y-73197303D01*
X102907146Y-73191072D01*
X102992275Y-73052968D01*
X102992276Y-73052966D01*
X102996115Y-73046738D01*
X103025350Y-72958598D01*
X103049632Y-72885389D01*
X103049632Y-72885387D01*
X103051797Y-72878861D01*
X103054984Y-72847762D01*
X103062172Y-72777598D01*
X103062500Y-72774400D01*
X103062500Y-71973600D01*
X103058391Y-71933996D01*
X103052238Y-71874692D01*
X103052237Y-71874688D01*
X103051526Y-71867834D01*
X102995550Y-71700054D01*
X102902478Y-71549652D01*
X102878442Y-71525658D01*
X102815537Y-71462862D01*
X102781458Y-71400579D01*
X102786461Y-71329759D01*
X102815382Y-71284671D01*
X102897739Y-71202171D01*
X102906751Y-71190760D01*
X102991816Y-71052757D01*
X102997963Y-71039576D01*
X103049138Y-70885290D01*
X103052005Y-70871914D01*
X103061672Y-70777562D01*
X103062000Y-70771146D01*
X103062000Y-70646115D01*
X103057525Y-70630876D01*
X103056135Y-70629671D01*
X103048452Y-70628000D01*
X100664116Y-70628000D01*
X100648877Y-70632475D01*
X100647672Y-70633865D01*
X100646001Y-70641548D01*
X100646001Y-70771095D01*
X100646338Y-70777614D01*
X100656257Y-70873206D01*
X100659149Y-70886600D01*
X100710588Y-71040784D01*
X100716761Y-71053962D01*
X100802063Y-71191807D01*
X100811099Y-71203208D01*
X100892462Y-71284430D01*
X100926541Y-71346713D01*
X100921538Y-71417533D01*
X100892617Y-71462620D01*
X100809870Y-71545512D01*
X100809866Y-71545517D01*
X100804695Y-71550697D01*
X100800855Y-71556927D01*
X100800854Y-71556928D01*
X100717509Y-71692139D01*
X100711885Y-71701262D01*
X100656203Y-71869139D01*
X100645500Y-71973600D01*
X100645500Y-72774400D01*
X100076500Y-72774400D01*
X100076500Y-70101885D01*
X100646000Y-70101885D01*
X100650475Y-70117124D01*
X100651865Y-70118329D01*
X100659548Y-70120000D01*
X101581885Y-70120000D01*
X101597124Y-70115525D01*
X101598329Y-70114135D01*
X101600000Y-70106452D01*
X101600000Y-70101885D01*
X102108000Y-70101885D01*
X102112475Y-70117124D01*
X102113865Y-70118329D01*
X102121548Y-70120000D01*
X103043884Y-70120000D01*
X103059123Y-70115525D01*
X103060328Y-70114135D01*
X103061999Y-70106452D01*
X103061999Y-70101885D01*
X103948000Y-70101885D01*
X103952475Y-70117124D01*
X103953865Y-70118329D01*
X103961548Y-70120000D01*
X104883885Y-70120000D01*
X104899124Y-70115525D01*
X104900329Y-70114135D01*
X104902000Y-70106452D01*
X104902000Y-70101885D01*
X105410000Y-70101885D01*
X105414475Y-70117124D01*
X105415865Y-70118329D01*
X105423548Y-70120000D01*
X106345884Y-70120000D01*
X106361123Y-70115525D01*
X106362328Y-70114135D01*
X106363999Y-70106452D01*
X106363999Y-69976905D01*
X106363662Y-69970386D01*
X106353743Y-69874794D01*
X106350851Y-69861400D01*
X106299412Y-69707216D01*
X106293239Y-69694038D01*
X106207937Y-69556193D01*
X106198901Y-69544792D01*
X106084171Y-69430261D01*
X106072760Y-69421249D01*
X105934757Y-69336184D01*
X105921576Y-69330037D01*
X105767290Y-69278862D01*
X105753914Y-69275995D01*
X105659562Y-69266328D01*
X105653145Y-69266000D01*
X105428115Y-69266000D01*
X105412876Y-69270475D01*
X105411671Y-69271865D01*
X105410000Y-69279548D01*
X105410000Y-70101885D01*
X104902000Y-70101885D01*
X104902000Y-69284116D01*
X104897525Y-69268877D01*
X104896135Y-69267672D01*
X104888452Y-69266001D01*
X104658905Y-69266001D01*
X104652386Y-69266338D01*
X104556794Y-69276257D01*
X104543400Y-69279149D01*
X104389216Y-69330588D01*
X104376038Y-69336761D01*
X104238193Y-69422063D01*
X104226792Y-69431099D01*
X104112261Y-69545829D01*
X104103249Y-69557240D01*
X104018184Y-69695243D01*
X104012037Y-69708424D01*
X103960862Y-69862710D01*
X103957995Y-69876086D01*
X103948328Y-69970438D01*
X103948000Y-69976855D01*
X103948000Y-70101885D01*
X103061999Y-70101885D01*
X103061999Y-69976905D01*
X103061662Y-69970386D01*
X103051743Y-69874794D01*
X103048851Y-69861400D01*
X102997412Y-69707216D01*
X102991239Y-69694038D01*
X102905937Y-69556193D01*
X102896901Y-69544792D01*
X102782171Y-69430261D01*
X102770760Y-69421249D01*
X102632757Y-69336184D01*
X102619576Y-69330037D01*
X102465290Y-69278862D01*
X102451914Y-69275995D01*
X102357562Y-69266328D01*
X102351145Y-69266000D01*
X102126115Y-69266000D01*
X102110876Y-69270475D01*
X102109671Y-69271865D01*
X102108000Y-69279548D01*
X102108000Y-70101885D01*
X101600000Y-70101885D01*
X101600000Y-69284116D01*
X101595525Y-69268877D01*
X101594135Y-69267672D01*
X101586452Y-69266001D01*
X101356905Y-69266001D01*
X101350386Y-69266338D01*
X101254794Y-69276257D01*
X101241400Y-69279149D01*
X101087216Y-69330588D01*
X101074038Y-69336761D01*
X100936193Y-69422063D01*
X100924792Y-69431099D01*
X100810261Y-69545829D01*
X100801249Y-69557240D01*
X100716184Y-69695243D01*
X100710037Y-69708424D01*
X100658862Y-69862710D01*
X100655995Y-69876086D01*
X100646328Y-69970438D01*
X100646000Y-69976855D01*
X100646000Y-70101885D01*
X100076500Y-70101885D01*
X100076500Y-68198500D01*
X100096502Y-68130379D01*
X100150158Y-68083886D01*
X100202500Y-68072500D01*
X126638652Y-68072500D01*
X126706773Y-68092502D01*
G37*
G04 #@! TD.AperFunction*
G04 #@! TA.AperFunction,Conductor*
G36*
X140917012Y-75499015D02*
G01*
X140923595Y-75505144D01*
X142864595Y-77446144D01*
X142898621Y-77508456D01*
X142901500Y-77535239D01*
X142901500Y-78691864D01*
X142900422Y-78708307D01*
X142896250Y-78740000D01*
X142901500Y-78779880D01*
X142901500Y-78779885D01*
X142909747Y-78842525D01*
X142917162Y-78898851D01*
X142978476Y-79046876D01*
X142983503Y-79053427D01*
X142983504Y-79053429D01*
X143051520Y-79142069D01*
X143051526Y-79142075D01*
X143076013Y-79173987D01*
X143082568Y-79179017D01*
X143101379Y-79193452D01*
X143113770Y-79204319D01*
X144052685Y-80143234D01*
X144063533Y-80155601D01*
X144064279Y-80156572D01*
X144087454Y-80214757D01*
X144088308Y-80214573D01*
X144089407Y-80219661D01*
X144089657Y-80220289D01*
X144090474Y-80228166D01*
X144146450Y-80395946D01*
X144239522Y-80546348D01*
X144364697Y-80671305D01*
X144368916Y-80673906D01*
X144409417Y-80731030D01*
X144412649Y-80801953D01*
X144377024Y-80863365D01*
X144369470Y-80869922D01*
X144363652Y-80873522D01*
X144238695Y-80998697D01*
X144234855Y-81004927D01*
X144234854Y-81004928D01*
X144163214Y-81121150D01*
X144145885Y-81149262D01*
X144140132Y-81166607D01*
X144099806Y-81288188D01*
X144090203Y-81317139D01*
X144079500Y-81421600D01*
X144079500Y-82172400D01*
X144079837Y-82175646D01*
X144079837Y-82175650D01*
X144085495Y-82230177D01*
X144090474Y-82278166D01*
X144092655Y-82284702D01*
X144092655Y-82284704D01*
X144118238Y-82361385D01*
X144146450Y-82445946D01*
X144239522Y-82596348D01*
X144364697Y-82721305D01*
X144370927Y-82725145D01*
X144370928Y-82725146D01*
X144508090Y-82809694D01*
X144515262Y-82814115D01*
X144572949Y-82833249D01*
X144593167Y-82839955D01*
X144651527Y-82880386D01*
X144678764Y-82945950D01*
X144679500Y-82959548D01*
X144679500Y-85188462D01*
X144659498Y-85256583D01*
X144605842Y-85303076D01*
X144593376Y-85307986D01*
X144574445Y-85314302D01*
X144514054Y-85334450D01*
X144363652Y-85427522D01*
X144358479Y-85432704D01*
X144333673Y-85457553D01*
X144271390Y-85491632D01*
X144200570Y-85486629D01*
X144143697Y-85444131D01*
X144118829Y-85377633D01*
X144118500Y-85368535D01*
X144118500Y-84475567D01*
X144138502Y-84407446D01*
X144150864Y-84391256D01*
X144203948Y-84332301D01*
X144203949Y-84332300D01*
X144208367Y-84327393D01*
X144262008Y-84234485D01*
X144295295Y-84176830D01*
X144295296Y-84176829D01*
X144298599Y-84171107D01*
X144327489Y-84082193D01*
X144352325Y-84005754D01*
X144352325Y-84005753D01*
X144354365Y-83999475D01*
X144360980Y-83936544D01*
X144372539Y-83826565D01*
X144373229Y-83820000D01*
X144354365Y-83640525D01*
X144336154Y-83584475D01*
X144300641Y-83475178D01*
X144298599Y-83468893D01*
X144208367Y-83312607D01*
X144202126Y-83305675D01*
X144092035Y-83183407D01*
X144092034Y-83183406D01*
X144087613Y-83178496D01*
X144063706Y-83161126D01*
X143946957Y-83076303D01*
X143946956Y-83076302D01*
X143941615Y-83072422D01*
X143935587Y-83069738D01*
X143935585Y-83069737D01*
X143782783Y-83001705D01*
X143782781Y-83001705D01*
X143776752Y-82999020D01*
X143672736Y-82976911D01*
X143606689Y-82962872D01*
X143606685Y-82962872D01*
X143600232Y-82961500D01*
X143419768Y-82961500D01*
X143413315Y-82962872D01*
X143413311Y-82962872D01*
X143347264Y-82976911D01*
X143243248Y-82999020D01*
X143237219Y-83001704D01*
X143237217Y-83001705D01*
X143084416Y-83069737D01*
X143084414Y-83069738D01*
X143078386Y-83072422D01*
X143073045Y-83076302D01*
X143073044Y-83076303D01*
X142937731Y-83174613D01*
X142937729Y-83174615D01*
X142932387Y-83178496D01*
X142927966Y-83183406D01*
X142927965Y-83183407D01*
X142817875Y-83305675D01*
X142811633Y-83312607D01*
X142721401Y-83468893D01*
X142719359Y-83475178D01*
X142683847Y-83584475D01*
X142665635Y-83640525D01*
X142646771Y-83820000D01*
X142647461Y-83826565D01*
X142659021Y-83936544D01*
X142665635Y-83999475D01*
X142667675Y-84005753D01*
X142667675Y-84005754D01*
X142692511Y-84082193D01*
X142721401Y-84171107D01*
X142724704Y-84176829D01*
X142724705Y-84176830D01*
X142757992Y-84234485D01*
X142811633Y-84327393D01*
X142816051Y-84332300D01*
X142816052Y-84332301D01*
X142869136Y-84391256D01*
X142899853Y-84455264D01*
X142901500Y-84475567D01*
X142901500Y-86549864D01*
X142900422Y-86566307D01*
X142896250Y-86598000D01*
X142897328Y-86606189D01*
X142898896Y-86618098D01*
X142901500Y-86637880D01*
X142901500Y-86637885D01*
X142905418Y-86667643D01*
X142917162Y-86756851D01*
X142978476Y-86904876D01*
X142983503Y-86911427D01*
X142983504Y-86911429D01*
X143051520Y-87000069D01*
X143051526Y-87000075D01*
X143076013Y-87031987D01*
X143082568Y-87037017D01*
X143101379Y-87051452D01*
X143113770Y-87062319D01*
X144042595Y-87991144D01*
X144076621Y-88053456D01*
X144079500Y-88080239D01*
X144079500Y-88776400D01*
X144079837Y-88779646D01*
X144079837Y-88779650D01*
X144089486Y-88872639D01*
X144090474Y-88882166D01*
X144092655Y-88888702D01*
X144092655Y-88888704D01*
X144125563Y-88987339D01*
X144146450Y-89049946D01*
X144239522Y-89200348D01*
X144364697Y-89325305D01*
X144370927Y-89329145D01*
X144370928Y-89329146D01*
X144508090Y-89413694D01*
X144515262Y-89418115D01*
X144595005Y-89444564D01*
X144676611Y-89471632D01*
X144676613Y-89471632D01*
X144683139Y-89473797D01*
X144689975Y-89474497D01*
X144689978Y-89474498D01*
X144733031Y-89478909D01*
X144787600Y-89484500D01*
X145788400Y-89484500D01*
X145791646Y-89484163D01*
X145791650Y-89484163D01*
X145887308Y-89474238D01*
X145887312Y-89474237D01*
X145894166Y-89473526D01*
X145900702Y-89471345D01*
X145900704Y-89471345D01*
X146032806Y-89427272D01*
X146061946Y-89417550D01*
X146212348Y-89324478D01*
X146337305Y-89199303D01*
X146345421Y-89186136D01*
X146426275Y-89054968D01*
X146426276Y-89054966D01*
X146430115Y-89048738D01*
X146485797Y-88880861D01*
X146486640Y-88872639D01*
X146496172Y-88779598D01*
X146496500Y-88776400D01*
X146496500Y-87975600D01*
X146485526Y-87869834D01*
X146429550Y-87702054D01*
X146336478Y-87551652D01*
X146249891Y-87465216D01*
X146215812Y-87402934D01*
X146220815Y-87332114D01*
X146249736Y-87287025D01*
X146332134Y-87204483D01*
X146337305Y-87199303D01*
X146380909Y-87128565D01*
X146426275Y-87054968D01*
X146426276Y-87054966D01*
X146430115Y-87048738D01*
X146477832Y-86904876D01*
X146483632Y-86887389D01*
X146483632Y-86887387D01*
X146485797Y-86880861D01*
X146496500Y-86776400D01*
X146496500Y-85975600D01*
X146486371Y-85877978D01*
X146486238Y-85876692D01*
X146486237Y-85876688D01*
X146485526Y-85869834D01*
X146481912Y-85859000D01*
X146431868Y-85709002D01*
X146429550Y-85702054D01*
X146336478Y-85551652D01*
X146211303Y-85426695D01*
X146131710Y-85377633D01*
X146066968Y-85337725D01*
X146066966Y-85337724D01*
X146060738Y-85333885D01*
X146001697Y-85314302D01*
X145982833Y-85308045D01*
X145924473Y-85267614D01*
X145897236Y-85202050D01*
X145896500Y-85188452D01*
X145896500Y-82959538D01*
X145916502Y-82891417D01*
X145970158Y-82844924D01*
X145982624Y-82840014D01*
X146043653Y-82819653D01*
X146061946Y-82813550D01*
X146212348Y-82720478D01*
X146337305Y-82595303D01*
X146342837Y-82586329D01*
X146426275Y-82450968D01*
X146426276Y-82450966D01*
X146430115Y-82444738D01*
X146468947Y-82327662D01*
X146483632Y-82283389D01*
X146483632Y-82283387D01*
X146485797Y-82276861D01*
X146496500Y-82172400D01*
X146496500Y-81421600D01*
X146495232Y-81409380D01*
X146486238Y-81322692D01*
X146486237Y-81322688D01*
X146485526Y-81315834D01*
X146429550Y-81148054D01*
X146336478Y-80997652D01*
X146211303Y-80872695D01*
X146207084Y-80870094D01*
X146166583Y-80812970D01*
X146163351Y-80742047D01*
X146198976Y-80680635D01*
X146206530Y-80674078D01*
X146212348Y-80670478D01*
X146337305Y-80545303D01*
X146354167Y-80517948D01*
X146417389Y-80415384D01*
X146470162Y-80367890D01*
X146524649Y-80355500D01*
X148115219Y-80355500D01*
X148183340Y-80375502D01*
X148222363Y-80415197D01*
X148303522Y-80546348D01*
X148428697Y-80671305D01*
X148432916Y-80673906D01*
X148473417Y-80731030D01*
X148476649Y-80801953D01*
X148441024Y-80863365D01*
X148433470Y-80869922D01*
X148427652Y-80873522D01*
X148302695Y-80998697D01*
X148298855Y-81004927D01*
X148298854Y-81004928D01*
X148227214Y-81121150D01*
X148209885Y-81149262D01*
X148204132Y-81166607D01*
X148163806Y-81288188D01*
X148154203Y-81317139D01*
X148143500Y-81421600D01*
X148143500Y-82172400D01*
X148143837Y-82175646D01*
X148143837Y-82175650D01*
X148149495Y-82230177D01*
X148154474Y-82278166D01*
X148156655Y-82284702D01*
X148156655Y-82284704D01*
X148182238Y-82361385D01*
X148210450Y-82445946D01*
X148303522Y-82596348D01*
X148428697Y-82721305D01*
X148434927Y-82725145D01*
X148434928Y-82725146D01*
X148572090Y-82809694D01*
X148579262Y-82814115D01*
X148636949Y-82833249D01*
X148657167Y-82839955D01*
X148715527Y-82880386D01*
X148742764Y-82945950D01*
X148743500Y-82959548D01*
X148743500Y-85188462D01*
X148723498Y-85256583D01*
X148669842Y-85303076D01*
X148657376Y-85307986D01*
X148638445Y-85314302D01*
X148578054Y-85334450D01*
X148427652Y-85427522D01*
X148302695Y-85552697D01*
X148298855Y-85558927D01*
X148298854Y-85558928D01*
X148232012Y-85667366D01*
X148209885Y-85703262D01*
X148207581Y-85710209D01*
X148156912Y-85862973D01*
X148154203Y-85871139D01*
X148143500Y-85975600D01*
X148143500Y-86776400D01*
X148154474Y-86882166D01*
X148156655Y-86888702D01*
X148156655Y-86888704D01*
X148174611Y-86942525D01*
X148210450Y-87049946D01*
X148303522Y-87200348D01*
X148308704Y-87205521D01*
X148390109Y-87286784D01*
X148424188Y-87349066D01*
X148419185Y-87419886D01*
X148390264Y-87464975D01*
X148388420Y-87466822D01*
X148302695Y-87552697D01*
X148209885Y-87703262D01*
X148154203Y-87871139D01*
X148143500Y-87975600D01*
X148143500Y-88677549D01*
X148123498Y-88745670D01*
X148117474Y-88754236D01*
X148058476Y-88831124D01*
X147997162Y-88979149D01*
X147996402Y-88984920D01*
X147981500Y-89098115D01*
X147981500Y-89098120D01*
X147976250Y-89138000D01*
X147977328Y-89146188D01*
X147980422Y-89169690D01*
X147981500Y-89186136D01*
X147981500Y-89514433D01*
X147961498Y-89582554D01*
X147949137Y-89598742D01*
X147891633Y-89662607D01*
X147888330Y-89668328D01*
X147835919Y-89759107D01*
X147801401Y-89818893D01*
X147745635Y-89990525D01*
X147726771Y-90170000D01*
X147727461Y-90176565D01*
X147743899Y-90332954D01*
X147745635Y-90349475D01*
X147747675Y-90355753D01*
X147747675Y-90355754D01*
X147760118Y-90394050D01*
X147801401Y-90521107D01*
X147804704Y-90526829D01*
X147804705Y-90526830D01*
X147871487Y-90642500D01*
X147888225Y-90711496D01*
X147865004Y-90778587D01*
X147809197Y-90822474D01*
X147762368Y-90831500D01*
X129713239Y-90831500D01*
X129645118Y-90811498D01*
X129624144Y-90794595D01*
X125668644Y-86839095D01*
X125634618Y-86776783D01*
X125639683Y-86705968D01*
X125682230Y-86649132D01*
X125748750Y-86624321D01*
X125757739Y-86624000D01*
X126946134Y-86624000D01*
X127008316Y-86617245D01*
X127144705Y-86566115D01*
X127261261Y-86478761D01*
X127348615Y-86362205D01*
X127399745Y-86225816D01*
X127406500Y-86163634D01*
X127406500Y-85667366D01*
X127400443Y-85611607D01*
X127400443Y-85584393D01*
X127406131Y-85532033D01*
X127406131Y-85532029D01*
X127406500Y-85528634D01*
X127406500Y-85359100D01*
X127426502Y-85290979D01*
X127468357Y-85250649D01*
X127480065Y-85243725D01*
X127497805Y-85235034D01*
X127517756Y-85227135D01*
X127555129Y-85199982D01*
X127565048Y-85193467D01*
X127597977Y-85173993D01*
X127597981Y-85173990D01*
X127604807Y-85169953D01*
X127619971Y-85154789D01*
X127635005Y-85141948D01*
X127645943Y-85134001D01*
X127652357Y-85129341D01*
X127681803Y-85093747D01*
X127689792Y-85084968D01*
X134723355Y-78051405D01*
X134785667Y-78017379D01*
X134812450Y-78014500D01*
X135168134Y-78014500D01*
X135230316Y-78007745D01*
X135366705Y-77956615D01*
X135483261Y-77869261D01*
X135570615Y-77752705D01*
X135621745Y-77616316D01*
X135628500Y-77554134D01*
X135628500Y-76715500D01*
X135648502Y-76647379D01*
X135702158Y-76600886D01*
X135754500Y-76589500D01*
X136025500Y-76589500D01*
X136093621Y-76609502D01*
X136140114Y-76663158D01*
X136151500Y-76715500D01*
X136151500Y-77554134D01*
X136158255Y-77616316D01*
X136209385Y-77752705D01*
X136296739Y-77869261D01*
X136413295Y-77956615D01*
X136549684Y-78007745D01*
X136611866Y-78014500D01*
X137708134Y-78014500D01*
X137770316Y-78007745D01*
X137906705Y-77956615D01*
X138023261Y-77869261D01*
X138110615Y-77752705D01*
X138161745Y-77616316D01*
X138168500Y-77554134D01*
X138168500Y-76715500D01*
X138188502Y-76647379D01*
X138242158Y-76600886D01*
X138294500Y-76589500D01*
X138565500Y-76589500D01*
X138633621Y-76609502D01*
X138680114Y-76663158D01*
X138691500Y-76715500D01*
X138691500Y-77554134D01*
X138698255Y-77616316D01*
X138749385Y-77752705D01*
X138836739Y-77869261D01*
X138953295Y-77956615D01*
X139089684Y-78007745D01*
X139151866Y-78014500D01*
X140248134Y-78014500D01*
X140310316Y-78007745D01*
X140446705Y-77956615D01*
X140563261Y-77869261D01*
X140650615Y-77752705D01*
X140701745Y-77616316D01*
X140708500Y-77554134D01*
X140708500Y-75594239D01*
X140728502Y-75526118D01*
X140782158Y-75479625D01*
X140852432Y-75469521D01*
X140917012Y-75499015D01*
G37*
G04 #@! TD.AperFunction*
G04 #@! TA.AperFunction,Conductor*
G36*
X125107532Y-80926394D02*
G01*
X125164368Y-80968941D01*
X125189179Y-81035461D01*
X125189500Y-81044450D01*
X125189500Y-81083634D01*
X125189869Y-81087029D01*
X125189869Y-81087033D01*
X125195557Y-81139393D01*
X125195557Y-81166607D01*
X125189500Y-81222366D01*
X125189500Y-81718634D01*
X125189869Y-81722029D01*
X125189869Y-81722033D01*
X125195557Y-81774393D01*
X125195557Y-81801607D01*
X125189869Y-81853967D01*
X125189500Y-81857366D01*
X125189500Y-82353634D01*
X125195810Y-82411718D01*
X125195810Y-82438933D01*
X125190369Y-82489017D01*
X125190000Y-82495828D01*
X125190000Y-82522385D01*
X125194475Y-82537624D01*
X125195867Y-82538830D01*
X125199562Y-82539634D01*
X125261874Y-82573659D01*
X125273599Y-82587182D01*
X125331873Y-82664937D01*
X125356720Y-82731441D01*
X125341667Y-82800823D01*
X125331879Y-82816055D01*
X125272343Y-82895494D01*
X125215484Y-82938007D01*
X125207016Y-82940823D01*
X125192877Y-82944975D01*
X125191672Y-82946365D01*
X125190001Y-82954048D01*
X125190001Y-82985169D01*
X125190371Y-82991991D01*
X125194749Y-83032304D01*
X125182220Y-83102186D01*
X125133898Y-83154201D01*
X125065126Y-83171834D01*
X124995426Y-83147845D01*
X124891615Y-83072422D01*
X124885587Y-83069738D01*
X124885585Y-83069737D01*
X124732783Y-83001705D01*
X124732781Y-83001705D01*
X124726752Y-82999020D01*
X124622736Y-82976911D01*
X124556689Y-82962872D01*
X124556685Y-82962872D01*
X124550232Y-82961500D01*
X124369768Y-82961500D01*
X124363315Y-82962872D01*
X124363311Y-82962872D01*
X124297264Y-82976911D01*
X124193248Y-82999020D01*
X124187219Y-83001704D01*
X124187217Y-83001705D01*
X124034416Y-83069737D01*
X124034414Y-83069738D01*
X124028386Y-83072422D01*
X124023045Y-83076302D01*
X124023044Y-83076303D01*
X123887731Y-83174613D01*
X123887729Y-83174615D01*
X123882387Y-83178496D01*
X123877966Y-83183406D01*
X123877965Y-83183407D01*
X123767875Y-83305675D01*
X123761633Y-83312607D01*
X123747023Y-83337912D01*
X123746395Y-83339000D01*
X123695013Y-83387993D01*
X123637276Y-83402000D01*
X122332000Y-83402000D01*
X122263879Y-83381998D01*
X122217386Y-83328342D01*
X122206000Y-83276001D01*
X122205999Y-83130832D01*
X122205630Y-83124012D01*
X122200190Y-83073932D01*
X122200190Y-83046718D01*
X122206131Y-82992031D01*
X122206500Y-82988634D01*
X122206500Y-82890000D01*
X122226502Y-82821879D01*
X122280158Y-82775386D01*
X122332500Y-82764000D01*
X122810944Y-82764000D01*
X122822800Y-82764559D01*
X122822803Y-82764559D01*
X122830537Y-82766288D01*
X122901369Y-82764062D01*
X122905327Y-82764000D01*
X122934432Y-82764000D01*
X122938832Y-82763444D01*
X122950664Y-82762512D01*
X122996831Y-82761062D01*
X123017421Y-82755080D01*
X123036782Y-82751070D01*
X123048747Y-82749559D01*
X123050204Y-82749375D01*
X123050205Y-82749375D01*
X123058064Y-82748382D01*
X123065429Y-82745466D01*
X123065433Y-82745465D01*
X123101021Y-82731374D01*
X123112231Y-82727535D01*
X123156600Y-82714645D01*
X123175065Y-82703725D01*
X123192805Y-82695034D01*
X123212756Y-82687135D01*
X123250129Y-82659982D01*
X123260048Y-82653467D01*
X123292977Y-82633993D01*
X123292981Y-82633990D01*
X123299807Y-82629953D01*
X123314971Y-82614789D01*
X123330005Y-82601948D01*
X123340943Y-82594001D01*
X123347357Y-82589341D01*
X123376803Y-82553747D01*
X123384792Y-82544968D01*
X124974405Y-80955355D01*
X125036717Y-80921329D01*
X125107532Y-80926394D01*
G37*
G04 #@! TD.AperFunction*
G04 #@! TA.AperFunction,Conductor*
G36*
X133553621Y-76609502D02*
G01*
X133600114Y-76663158D01*
X133611500Y-76715500D01*
X133611500Y-77248550D01*
X133591498Y-77316671D01*
X133574595Y-77337645D01*
X129322599Y-81589641D01*
X129260287Y-81623667D01*
X129189472Y-81618602D01*
X129132636Y-81576055D01*
X129107825Y-81509535D01*
X129112344Y-81472508D01*
X129110952Y-81472212D01*
X129112325Y-81465754D01*
X129114365Y-81459475D01*
X129133229Y-81280000D01*
X129120091Y-81155002D01*
X129115055Y-81107089D01*
X129115055Y-81107088D01*
X129114365Y-81100525D01*
X129058599Y-80928893D01*
X129029139Y-80877866D01*
X128993238Y-80815685D01*
X128968367Y-80772607D01*
X128847613Y-80638496D01*
X128742472Y-80562106D01*
X128706957Y-80536303D01*
X128706956Y-80536302D01*
X128701615Y-80532422D01*
X128695587Y-80529738D01*
X128695585Y-80529737D01*
X128542783Y-80461705D01*
X128542781Y-80461705D01*
X128536752Y-80459020D01*
X128448492Y-80440260D01*
X128366689Y-80422872D01*
X128366685Y-80422872D01*
X128360232Y-80421500D01*
X128324239Y-80421500D01*
X128256118Y-80401498D01*
X128235144Y-80384595D01*
X127654815Y-79804266D01*
X127643948Y-79791875D01*
X127629513Y-79773063D01*
X127624487Y-79766513D01*
X127592575Y-79742026D01*
X127592572Y-79742023D01*
X127497376Y-79668976D01*
X127349351Y-79607662D01*
X127341164Y-79606584D01*
X127341163Y-79606584D01*
X127325712Y-79604550D01*
X127315822Y-79603248D01*
X127230385Y-79592000D01*
X127230380Y-79592000D01*
X127227347Y-79591601D01*
X127168211Y-79567502D01*
X127151892Y-79555271D01*
X127151890Y-79555270D01*
X127144705Y-79549885D01*
X127008316Y-79498755D01*
X126946134Y-79492000D01*
X126741950Y-79492000D01*
X126673829Y-79471998D01*
X126627336Y-79418342D01*
X126617232Y-79348068D01*
X126646726Y-79283488D01*
X126652855Y-79276905D01*
X129303355Y-76626405D01*
X129365667Y-76592379D01*
X129392450Y-76589500D01*
X133485500Y-76589500D01*
X133553621Y-76609502D01*
G37*
G04 #@! TD.AperFunction*
G04 #@! TA.AperFunction,Conductor*
G36*
X128496671Y-75354502D02*
G01*
X128543164Y-75408158D01*
X128553268Y-75478432D01*
X128523774Y-75543012D01*
X128517645Y-75549595D01*
X123534095Y-80533145D01*
X123471783Y-80567171D01*
X123400968Y-80562106D01*
X123344132Y-80519559D01*
X123319321Y-80453039D01*
X123319000Y-80444050D01*
X123319000Y-77946575D01*
X123339002Y-77878454D01*
X123378697Y-77839431D01*
X123378953Y-77839273D01*
X123472348Y-77781478D01*
X123597305Y-77656303D01*
X123600102Y-77651765D01*
X123657353Y-77611176D01*
X123728276Y-77607946D01*
X123789687Y-77643572D01*
X123797062Y-77652068D01*
X123805098Y-77662207D01*
X123919829Y-77776739D01*
X123931240Y-77785751D01*
X124069243Y-77870816D01*
X124082424Y-77876963D01*
X124236710Y-77928138D01*
X124250086Y-77931005D01*
X124344438Y-77940672D01*
X124350854Y-77941000D01*
X124463385Y-77941000D01*
X124478624Y-77936525D01*
X124479829Y-77935135D01*
X124481500Y-77927452D01*
X124481500Y-77922884D01*
X124989500Y-77922884D01*
X124993975Y-77938123D01*
X124995365Y-77939328D01*
X125003048Y-77940999D01*
X125120095Y-77940999D01*
X125126614Y-77940662D01*
X125222206Y-77930743D01*
X125235600Y-77927851D01*
X125389784Y-77876412D01*
X125402962Y-77870239D01*
X125540807Y-77784937D01*
X125552208Y-77775901D01*
X125666739Y-77661171D01*
X125675751Y-77649760D01*
X125760816Y-77511757D01*
X125766963Y-77498576D01*
X125818138Y-77344290D01*
X125821005Y-77330914D01*
X125830672Y-77236562D01*
X125831000Y-77230146D01*
X125831000Y-76980115D01*
X125826525Y-76964876D01*
X125825135Y-76963671D01*
X125817452Y-76962000D01*
X125007615Y-76962000D01*
X124992376Y-76966475D01*
X124991171Y-76967865D01*
X124989500Y-76975548D01*
X124989500Y-77922884D01*
X124481500Y-77922884D01*
X124481500Y-76580000D01*
X124501502Y-76511879D01*
X124555158Y-76465386D01*
X124607500Y-76454000D01*
X125812884Y-76454000D01*
X125828123Y-76449525D01*
X125829328Y-76448135D01*
X125830999Y-76440452D01*
X125830999Y-76185905D01*
X125830662Y-76179386D01*
X125820743Y-76083794D01*
X125817851Y-76070400D01*
X125766412Y-75916216D01*
X125760239Y-75903038D01*
X125674937Y-75765193D01*
X125665901Y-75753792D01*
X125551171Y-75639261D01*
X125539760Y-75630249D01*
X125438383Y-75567760D01*
X125390890Y-75514988D01*
X125379466Y-75444917D01*
X125407740Y-75379793D01*
X125466734Y-75340293D01*
X125504499Y-75334500D01*
X128428550Y-75334500D01*
X128496671Y-75354502D01*
G37*
G04 #@! TD.AperFunction*
G04 #@! TA.AperFunction,Conductor*
G36*
X113906012Y-73922226D02*
G01*
X113912595Y-73928355D01*
X114987841Y-75003600D01*
X114995831Y-75012381D01*
X114995839Y-75012390D01*
X115000084Y-75019080D01*
X115005859Y-75024503D01*
X115051774Y-75067620D01*
X115054616Y-75070375D01*
X115075167Y-75090926D01*
X115078301Y-75093357D01*
X115078663Y-75093638D01*
X115087691Y-75101348D01*
X115121367Y-75132972D01*
X115128318Y-75136793D01*
X115128319Y-75136794D01*
X115140155Y-75143301D01*
X115156684Y-75154158D01*
X115167369Y-75162447D01*
X115167371Y-75162448D01*
X115173631Y-75167304D01*
X115216044Y-75185657D01*
X115226681Y-75190868D01*
X115267163Y-75213124D01*
X115274842Y-75215096D01*
X115274843Y-75215096D01*
X115287934Y-75218457D01*
X115306636Y-75224859D01*
X115326323Y-75233379D01*
X115334152Y-75234619D01*
X115371948Y-75240605D01*
X115383574Y-75243013D01*
X115420635Y-75252529D01*
X115420636Y-75252529D01*
X115428312Y-75254500D01*
X115449758Y-75254500D01*
X115469468Y-75256051D01*
X115490651Y-75259406D01*
X115536635Y-75255059D01*
X115548494Y-75254500D01*
X115692500Y-75254500D01*
X115760621Y-75274502D01*
X115807114Y-75328158D01*
X115818500Y-75380500D01*
X115818500Y-75424134D01*
X115825255Y-75486316D01*
X115876385Y-75622705D01*
X115963739Y-75739261D01*
X116080295Y-75826615D01*
X116088703Y-75829767D01*
X116096575Y-75834077D01*
X116095272Y-75836457D01*
X116140804Y-75870664D01*
X116165501Y-75937227D01*
X116150291Y-76006575D01*
X116100003Y-76056691D01*
X116092903Y-76059933D01*
X116088701Y-76062234D01*
X116080295Y-76065385D01*
X115963739Y-76152739D01*
X115876385Y-76269295D01*
X115825255Y-76405684D01*
X115818500Y-76467866D01*
X115818500Y-78124134D01*
X115825255Y-78186316D01*
X115876385Y-78322705D01*
X115963739Y-78439261D01*
X116080295Y-78526615D01*
X116216684Y-78577745D01*
X116278866Y-78584500D01*
X117025134Y-78584500D01*
X117087316Y-78577745D01*
X117223705Y-78526615D01*
X117340261Y-78439261D01*
X117427615Y-78322705D01*
X117478745Y-78186316D01*
X117479539Y-78179010D01*
X117514635Y-78117576D01*
X117577590Y-78084756D01*
X117648295Y-78091182D01*
X117704302Y-78134814D01*
X117724454Y-78178940D01*
X117725255Y-78186316D01*
X117776385Y-78322705D01*
X117863739Y-78439261D01*
X117980295Y-78526615D01*
X118116684Y-78577745D01*
X118178866Y-78584500D01*
X118925134Y-78584500D01*
X118987316Y-78577745D01*
X119123705Y-78526615D01*
X119240261Y-78439261D01*
X119327615Y-78322705D01*
X119378745Y-78186316D01*
X119385500Y-78124134D01*
X119385500Y-77410450D01*
X119405502Y-77342329D01*
X119422405Y-77321355D01*
X122321354Y-74422405D01*
X122383666Y-74388379D01*
X122410449Y-74385500D01*
X123048400Y-74385500D01*
X123051646Y-74385163D01*
X123051650Y-74385163D01*
X123147308Y-74375238D01*
X123147312Y-74375237D01*
X123154166Y-74374526D01*
X123160702Y-74372345D01*
X123160704Y-74372345D01*
X123314998Y-74320868D01*
X123321946Y-74318550D01*
X123472348Y-74225478D01*
X123597305Y-74100303D01*
X123600102Y-74095765D01*
X123657353Y-74055176D01*
X123728276Y-74051946D01*
X123789687Y-74087572D01*
X123797062Y-74096068D01*
X123805098Y-74106207D01*
X123919829Y-74220739D01*
X123931240Y-74229751D01*
X123966451Y-74251455D01*
X124013944Y-74304227D01*
X124025368Y-74374298D01*
X123997094Y-74439422D01*
X123989430Y-74447810D01*
X122999645Y-75437595D01*
X122937333Y-75471621D01*
X122910550Y-75474500D01*
X122272600Y-75474500D01*
X122269354Y-75474837D01*
X122269350Y-75474837D01*
X122173692Y-75484762D01*
X122173688Y-75484763D01*
X122166834Y-75485474D01*
X122160298Y-75487655D01*
X122160296Y-75487655D01*
X122078370Y-75514988D01*
X121999054Y-75541450D01*
X121848652Y-75634522D01*
X121723695Y-75759697D01*
X121719855Y-75765927D01*
X121719854Y-75765928D01*
X121649832Y-75879525D01*
X121630885Y-75910262D01*
X121621941Y-75937227D01*
X121578561Y-76068016D01*
X121575203Y-76078139D01*
X121574503Y-76084975D01*
X121574502Y-76084978D01*
X121570353Y-76125475D01*
X121564500Y-76182600D01*
X121564500Y-77233400D01*
X121564837Y-77236646D01*
X121564837Y-77236650D01*
X121574618Y-77330914D01*
X121575474Y-77339166D01*
X121631450Y-77506946D01*
X121724522Y-77657348D01*
X121849697Y-77782305D01*
X121901838Y-77814445D01*
X121942116Y-77839273D01*
X121989609Y-77892045D01*
X122002000Y-77946533D01*
X122002000Y-79389566D01*
X121981998Y-79457687D01*
X121928342Y-79504180D01*
X121858068Y-79514284D01*
X121831770Y-79507547D01*
X121808316Y-79498755D01*
X121746134Y-79492000D01*
X120449866Y-79492000D01*
X120387684Y-79498755D01*
X120251295Y-79549885D01*
X120244119Y-79555263D01*
X120244112Y-79555267D01*
X120229385Y-79566305D01*
X120170264Y-79590401D01*
X120158124Y-79591999D01*
X120158111Y-79592000D01*
X120062787Y-79604550D01*
X120047336Y-79606584D01*
X120047335Y-79606584D01*
X120039148Y-79607662D01*
X119892145Y-79668553D01*
X119892144Y-79668553D01*
X119891123Y-79668976D01*
X119891067Y-79668842D01*
X119832629Y-79684500D01*
X118531876Y-79684500D01*
X114248500Y-79684499D01*
X114180379Y-79664497D01*
X114133886Y-79610841D01*
X114122500Y-79558499D01*
X114122500Y-79001600D01*
X114119227Y-78970054D01*
X114112238Y-78902692D01*
X114112237Y-78902688D01*
X114111526Y-78895834D01*
X114096103Y-78849604D01*
X114062268Y-78748189D01*
X114055550Y-78728054D01*
X113962478Y-78577652D01*
X113837303Y-78452695D01*
X113763857Y-78407422D01*
X113692968Y-78363725D01*
X113692966Y-78363724D01*
X113686738Y-78359885D01*
X113526254Y-78306655D01*
X113525389Y-78306368D01*
X113525387Y-78306368D01*
X113518861Y-78304203D01*
X113512025Y-78303503D01*
X113512022Y-78303502D01*
X113462565Y-78298435D01*
X113414400Y-78293500D01*
X112613600Y-78293500D01*
X112610354Y-78293837D01*
X112610350Y-78293837D01*
X112514692Y-78303762D01*
X112514688Y-78303763D01*
X112507834Y-78304474D01*
X112501298Y-78306655D01*
X112501296Y-78306655D01*
X112428575Y-78330917D01*
X112340054Y-78360450D01*
X112189652Y-78453522D01*
X112110340Y-78532973D01*
X112103216Y-78540109D01*
X112040934Y-78574188D01*
X111970114Y-78569185D01*
X111925025Y-78540264D01*
X111842483Y-78457866D01*
X111837303Y-78452695D01*
X111763857Y-78407422D01*
X111692968Y-78363725D01*
X111692966Y-78363724D01*
X111686738Y-78359885D01*
X111526254Y-78306655D01*
X111525389Y-78306368D01*
X111525387Y-78306368D01*
X111518861Y-78304203D01*
X111512025Y-78303503D01*
X111512022Y-78303502D01*
X111462565Y-78298435D01*
X111414400Y-78293500D01*
X110613600Y-78293500D01*
X110610354Y-78293837D01*
X110610350Y-78293837D01*
X110514692Y-78303762D01*
X110514688Y-78303763D01*
X110507834Y-78304474D01*
X110501298Y-78306655D01*
X110501296Y-78306655D01*
X110428575Y-78330917D01*
X110340054Y-78360450D01*
X110189652Y-78453522D01*
X110064695Y-78578697D01*
X110060855Y-78584927D01*
X110060854Y-78584928D01*
X109994938Y-78691864D01*
X109971885Y-78729262D01*
X109952085Y-78788958D01*
X109931970Y-78849604D01*
X109916203Y-78897139D01*
X109905500Y-79001600D01*
X109905500Y-79697761D01*
X109885498Y-79765882D01*
X109868595Y-79786856D01*
X109778856Y-79876595D01*
X109716544Y-79910621D01*
X109689761Y-79913500D01*
X109637768Y-79913500D01*
X109631315Y-79914872D01*
X109631311Y-79914872D01*
X109568035Y-79928322D01*
X109461248Y-79951020D01*
X109455219Y-79953704D01*
X109455217Y-79953705D01*
X109302416Y-80021737D01*
X109302414Y-80021738D01*
X109296386Y-80024422D01*
X109291045Y-80028302D01*
X109291044Y-80028303D01*
X109155731Y-80126613D01*
X109155729Y-80126615D01*
X109150387Y-80130496D01*
X109083473Y-80204812D01*
X109023030Y-80242050D01*
X108989839Y-80246500D01*
X106602784Y-80246500D01*
X106534663Y-80226498D01*
X106488170Y-80172842D01*
X106477474Y-80107330D01*
X106487539Y-80011566D01*
X106487539Y-80011565D01*
X106488229Y-80005000D01*
X106482729Y-79952671D01*
X106495501Y-79882832D01*
X106544003Y-79830985D01*
X106608039Y-79813500D01*
X107697944Y-79813500D01*
X107709800Y-79814059D01*
X107709803Y-79814059D01*
X107717537Y-79815788D01*
X107788369Y-79813562D01*
X107792327Y-79813500D01*
X107821432Y-79813500D01*
X107825832Y-79812944D01*
X107837664Y-79812012D01*
X107883831Y-79810562D01*
X107904421Y-79804580D01*
X107923782Y-79800570D01*
X107930770Y-79799688D01*
X107937204Y-79798875D01*
X107937205Y-79798875D01*
X107945064Y-79797882D01*
X107952429Y-79794966D01*
X107952433Y-79794965D01*
X107988021Y-79780874D01*
X107999231Y-79777035D01*
X108043600Y-79764145D01*
X108062065Y-79753225D01*
X108079805Y-79744534D01*
X108099756Y-79736635D01*
X108137129Y-79709482D01*
X108147048Y-79702967D01*
X108179977Y-79683493D01*
X108179981Y-79683490D01*
X108186807Y-79679453D01*
X108201971Y-79664289D01*
X108217005Y-79651448D01*
X108227943Y-79643501D01*
X108234357Y-79638841D01*
X108263803Y-79603247D01*
X108271792Y-79594468D01*
X110674854Y-77191405D01*
X110737166Y-77157380D01*
X110763949Y-77154500D01*
X111364400Y-77154500D01*
X111367646Y-77154163D01*
X111367650Y-77154163D01*
X111463308Y-77144238D01*
X111463312Y-77144237D01*
X111470166Y-77143526D01*
X111476702Y-77141345D01*
X111476704Y-77141345D01*
X111608806Y-77097272D01*
X111637946Y-77087550D01*
X111788348Y-76994478D01*
X111913305Y-76869303D01*
X111915906Y-76865084D01*
X111973030Y-76824583D01*
X112043953Y-76821351D01*
X112105365Y-76856976D01*
X112111922Y-76864530D01*
X112115522Y-76870348D01*
X112240697Y-76995305D01*
X112246927Y-76999145D01*
X112246928Y-76999146D01*
X112384090Y-77083694D01*
X112391262Y-77088115D01*
X112471005Y-77114564D01*
X112552611Y-77141632D01*
X112552613Y-77141632D01*
X112559139Y-77143797D01*
X112565975Y-77144497D01*
X112565978Y-77144498D01*
X112609031Y-77148909D01*
X112663600Y-77154500D01*
X113414400Y-77154500D01*
X113417646Y-77154163D01*
X113417650Y-77154163D01*
X113513308Y-77144238D01*
X113513312Y-77144237D01*
X113520166Y-77143526D01*
X113526702Y-77141345D01*
X113526704Y-77141345D01*
X113658806Y-77097272D01*
X113687946Y-77087550D01*
X113838348Y-76994478D01*
X113963305Y-76869303D01*
X113988193Y-76828928D01*
X114052275Y-76724968D01*
X114052276Y-76724966D01*
X114056115Y-76718738D01*
X114111797Y-76550861D01*
X114122500Y-76446400D01*
X114122500Y-75445600D01*
X114122158Y-75442301D01*
X114112238Y-75346692D01*
X114112237Y-75346688D01*
X114111526Y-75339834D01*
X114094917Y-75290049D01*
X114057868Y-75179002D01*
X114055550Y-75172054D01*
X113962478Y-75021652D01*
X113837303Y-74896695D01*
X113757384Y-74847432D01*
X113709891Y-74794660D01*
X113697500Y-74740172D01*
X113697500Y-74017450D01*
X113717502Y-73949329D01*
X113771158Y-73902836D01*
X113841432Y-73892732D01*
X113906012Y-73922226D01*
G37*
G04 #@! TD.AperFunction*
G04 #@! TA.AperFunction,Conductor*
G36*
X133553621Y-69634502D02*
G01*
X133600114Y-69688158D01*
X133611500Y-69740500D01*
X133611500Y-70906050D01*
X133591498Y-70974171D01*
X133574595Y-70995145D01*
X133196395Y-71373345D01*
X133187615Y-71381335D01*
X133187613Y-71381337D01*
X133180920Y-71385584D01*
X133175494Y-71391362D01*
X133175493Y-71391363D01*
X133132396Y-71437257D01*
X133129641Y-71440099D01*
X133109073Y-71460667D01*
X133106356Y-71464170D01*
X133098648Y-71473195D01*
X133067028Y-71506867D01*
X133063207Y-71513818D01*
X133063206Y-71513819D01*
X133056697Y-71525658D01*
X133045843Y-71542182D01*
X133039239Y-71550697D01*
X133032696Y-71559132D01*
X133029549Y-71566404D01*
X133029548Y-71566406D01*
X133014346Y-71601535D01*
X133009124Y-71612195D01*
X132986876Y-71652663D01*
X132981541Y-71673441D01*
X132975142Y-71692131D01*
X132966620Y-71711824D01*
X132965380Y-71719655D01*
X132959394Y-71757448D01*
X132956987Y-71769071D01*
X132945500Y-71813812D01*
X132945500Y-71835259D01*
X132943949Y-71854969D01*
X132940594Y-71876152D01*
X132944655Y-71919108D01*
X132944941Y-71922138D01*
X132945500Y-71933996D01*
X132945500Y-72297964D01*
X132925498Y-72366085D01*
X132913142Y-72382267D01*
X132905633Y-72390607D01*
X132815401Y-72546893D01*
X132813359Y-72553178D01*
X132777152Y-72664614D01*
X132759635Y-72718525D01*
X132758945Y-72725088D01*
X132758945Y-72725089D01*
X132742195Y-72884452D01*
X132740771Y-72898000D01*
X132741461Y-72904565D01*
X132757704Y-73059099D01*
X132759635Y-73077475D01*
X132761675Y-73083753D01*
X132761675Y-73083754D01*
X132763772Y-73090208D01*
X132815401Y-73249107D01*
X132818704Y-73254829D01*
X132818705Y-73254830D01*
X132824413Y-73264716D01*
X132905633Y-73405393D01*
X132910051Y-73410300D01*
X132910052Y-73410301D01*
X132997251Y-73507145D01*
X133026387Y-73539504D01*
X133031729Y-73543385D01*
X133031731Y-73543387D01*
X133068543Y-73570132D01*
X133111897Y-73626354D01*
X133117972Y-73697090D01*
X133083577Y-73761163D01*
X132864145Y-73980595D01*
X132801833Y-74014621D01*
X132775050Y-74017500D01*
X125916655Y-74017500D01*
X125848534Y-73997498D01*
X125802041Y-73943842D01*
X125791937Y-73873568D01*
X125797062Y-73851833D01*
X125818137Y-73788293D01*
X125821005Y-73774914D01*
X125830672Y-73680562D01*
X125831000Y-73674146D01*
X125831000Y-73424115D01*
X125826525Y-73408876D01*
X125825135Y-73407671D01*
X125817452Y-73406000D01*
X124607500Y-73406000D01*
X124539379Y-73385998D01*
X124492886Y-73332342D01*
X124481500Y-73280000D01*
X124481500Y-73024000D01*
X124501502Y-72955879D01*
X124555158Y-72909386D01*
X124607500Y-72898000D01*
X125812884Y-72898000D01*
X125828123Y-72893525D01*
X125829328Y-72892135D01*
X125830999Y-72884452D01*
X125830999Y-72629905D01*
X125830662Y-72623386D01*
X125820743Y-72527794D01*
X125817851Y-72514400D01*
X125766412Y-72360216D01*
X125760239Y-72347038D01*
X125674937Y-72209193D01*
X125665901Y-72197792D01*
X125551171Y-72083261D01*
X125539760Y-72074249D01*
X125401757Y-71989184D01*
X125388576Y-71983037D01*
X125234290Y-71931862D01*
X125220914Y-71928995D01*
X125126558Y-71919327D01*
X125122258Y-71919108D01*
X125055245Y-71895662D01*
X125011546Y-71839707D01*
X125005036Y-71769009D01*
X125039583Y-71704177D01*
X127092355Y-69651405D01*
X127154667Y-69617379D01*
X127181450Y-69614500D01*
X133485500Y-69614500D01*
X133553621Y-69634502D01*
G37*
G04 #@! TD.AperFunction*
M02*
