G04 #@! TF.GenerationSoftware,KiCad,Pcbnew,6.0.6*
G04 #@! TF.CreationDate,2022-07-17T12:38:06-07:00*
G04 #@! TF.ProjectId,ultimate-uart-bridge,756c7469-6d61-4746-952d-756172742d62,rev?*
G04 #@! TF.SameCoordinates,Original*
G04 #@! TF.FileFunction,Paste,Top*
G04 #@! TF.FilePolarity,Positive*
%FSLAX46Y46*%
G04 Gerber Fmt 4.6, Leading zero omitted, Abs format (unit mm)*
G04 Created by KiCad (PCBNEW 6.0.6) date 2022-07-17 12:38:06*
%MOMM*%
%LPD*%
G01*
G04 APERTURE LIST*
G04 Aperture macros list*
%AMRoundRect*
0 Rectangle with rounded corners*
0 $1 Rounding radius*
0 $2 $3 $4 $5 $6 $7 $8 $9 X,Y pos of 4 corners*
0 Add a 4 corners polygon primitive as box body*
4,1,4,$2,$3,$4,$5,$6,$7,$8,$9,$2,$3,0*
0 Add four circle primitives for the rounded corners*
1,1,$1+$1,$2,$3*
1,1,$1+$1,$4,$5*
1,1,$1+$1,$6,$7*
1,1,$1+$1,$8,$9*
0 Add four rect primitives between the rounded corners*
20,1,$1+$1,$2,$3,$4,$5,0*
20,1,$1+$1,$4,$5,$6,$7,0*
20,1,$1+$1,$6,$7,$8,$9,0*
20,1,$1+$1,$8,$9,$2,$3,0*%
G04 Aperture macros list end*
%ADD10RoundRect,0.250000X-0.450000X0.350000X-0.450000X-0.350000X0.450000X-0.350000X0.450000X0.350000X0*%
%ADD11RoundRect,0.250000X-0.475000X0.337500X-0.475000X-0.337500X0.475000X-0.337500X0.475000X0.337500X0*%
%ADD12RoundRect,0.250000X0.325000X0.450000X-0.325000X0.450000X-0.325000X-0.450000X0.325000X-0.450000X0*%
%ADD13RoundRect,0.250000X-0.350000X-0.450000X0.350000X-0.450000X0.350000X0.450000X-0.350000X0.450000X0*%
%ADD14RoundRect,0.250000X-0.337500X-0.475000X0.337500X-0.475000X0.337500X0.475000X-0.337500X0.475000X0*%
%ADD15RoundRect,0.250000X0.337500X0.475000X-0.337500X0.475000X-0.337500X-0.475000X0.337500X-0.475000X0*%
%ADD16RoundRect,0.250000X0.450000X-0.325000X0.450000X0.325000X-0.450000X0.325000X-0.450000X-0.325000X0*%
%ADD17R,1.000000X3.150000*%
%ADD18R,0.650000X1.560000*%
%ADD19R,2.510000X1.000000*%
%ADD20RoundRect,0.250000X0.450000X-0.350000X0.450000X0.350000X-0.450000X0.350000X-0.450000X-0.350000X0*%
%ADD21R,1.200000X0.400000*%
G04 APERTURE END LIST*
D10*
X101854000Y-70374000D03*
X101854000Y-72374000D03*
D11*
X105156000Y-89365000D03*
X105156000Y-91440000D03*
X115570000Y-89386500D03*
X115570000Y-91461500D03*
D10*
X145288000Y-86376000D03*
X145288000Y-88376000D03*
D12*
X113039000Y-75946000D03*
X110989000Y-75946000D03*
D13*
X111014000Y-79502000D03*
X113014000Y-79502000D03*
D11*
X112014000Y-89386500D03*
X112014000Y-91461500D03*
D14*
X122660500Y-73152000D03*
X124735500Y-73152000D03*
D10*
X149352000Y-86376000D03*
X149352000Y-88376000D03*
D15*
X113051500Y-72136000D03*
X110976500Y-72136000D03*
D16*
X145288000Y-81797000D03*
X145288000Y-79747000D03*
D13*
X111014000Y-81534000D03*
X113014000Y-81534000D03*
D15*
X124735500Y-76708000D03*
X122660500Y-76708000D03*
D17*
X134620000Y-75931000D03*
X134620000Y-70881000D03*
X137160000Y-75931000D03*
X137160000Y-70881000D03*
X139700000Y-75931000D03*
X139700000Y-70881000D03*
D16*
X149352000Y-81797000D03*
X149352000Y-79747000D03*
D18*
X118552000Y-74596000D03*
X117602000Y-74596000D03*
X116652000Y-74596000D03*
X116652000Y-77296000D03*
X118552000Y-77296000D03*
D11*
X101600000Y-89365000D03*
X101600000Y-91440000D03*
D19*
X158119000Y-83312000D03*
X154809000Y-80772000D03*
X158119000Y-78232000D03*
D20*
X105156000Y-72374000D03*
X105156000Y-70374000D03*
D11*
X108458000Y-89365000D03*
X108458000Y-91440000D03*
D21*
X126298000Y-85915500D03*
X126298000Y-85280500D03*
X126298000Y-84645500D03*
X126298000Y-84010500D03*
X126298000Y-83375500D03*
X126298000Y-82740500D03*
X126298000Y-82105500D03*
X126298000Y-81470500D03*
X126298000Y-80835500D03*
X126298000Y-80200500D03*
X121098000Y-80200500D03*
X121098000Y-80835500D03*
X121098000Y-81470500D03*
X121098000Y-82105500D03*
X121098000Y-82740500D03*
X121098000Y-83375500D03*
X121098000Y-84010500D03*
X121098000Y-84645500D03*
X121098000Y-85280500D03*
X121098000Y-85915500D03*
M02*
