G04 #@! TF.GenerationSoftware,KiCad,Pcbnew,(5.1.10)-1*
G04 #@! TF.CreationDate,2021-12-17T22:33:09-07:00*
G04 #@! TF.ProjectId,ultimate-uart-bridge,756c7469-6d61-4746-952d-756172742d62,rev?*
G04 #@! TF.SameCoordinates,Original*
G04 #@! TF.FileFunction,Copper,L1,Top*
G04 #@! TF.FilePolarity,Positive*
%FSLAX46Y46*%
G04 Gerber Fmt 4.6, Leading zero omitted, Abs format (unit mm)*
G04 Created by KiCad (PCBNEW (5.1.10)-1) date 2021-12-17 22:33:09*
%MOMM*%
%LPD*%
G01*
G04 APERTURE LIST*
G04 #@! TA.AperFunction,ComponentPad*
%ADD10C,2.000000*%
G04 #@! TD*
G04 #@! TA.AperFunction,SMDPad,CuDef*
%ADD11R,1.200000X0.400000*%
G04 #@! TD*
G04 #@! TA.AperFunction,ComponentPad*
%ADD12O,1.700000X1.700000*%
G04 #@! TD*
G04 #@! TA.AperFunction,ComponentPad*
%ADD13R,1.700000X1.700000*%
G04 #@! TD*
G04 #@! TA.AperFunction,SMDPad,CuDef*
%ADD14R,1.900000X1.000000*%
G04 #@! TD*
G04 #@! TA.AperFunction,SMDPad,CuDef*
%ADD15R,1.900000X1.800000*%
G04 #@! TD*
G04 #@! TA.AperFunction,SMDPad,CuDef*
%ADD16R,1.300000X1.650000*%
G04 #@! TD*
G04 #@! TA.AperFunction,SMDPad,CuDef*
%ADD17R,1.550000X1.425000*%
G04 #@! TD*
G04 #@! TA.AperFunction,SMDPad,CuDef*
%ADD18R,1.380000X0.450000*%
G04 #@! TD*
G04 #@! TA.AperFunction,SMDPad,CuDef*
%ADD19R,0.508000X0.977900*%
G04 #@! TD*
G04 #@! TA.AperFunction,ViaPad*
%ADD20C,0.700000*%
G04 #@! TD*
G04 #@! TA.AperFunction,Conductor*
%ADD21C,0.300000*%
G04 #@! TD*
G04 #@! TA.AperFunction,Conductor*
%ADD22C,0.250000*%
G04 #@! TD*
G04 #@! TA.AperFunction,Conductor*
%ADD23C,0.200000*%
G04 #@! TD*
G04 #@! TA.AperFunction,Conductor*
%ADD24C,0.254000*%
G04 #@! TD*
G04 #@! TA.AperFunction,Conductor*
%ADD25C,0.100000*%
G04 #@! TD*
G04 APERTURE END LIST*
D10*
X109220000Y-82550000D03*
X104140000Y-82550000D03*
D11*
X121860000Y-95567500D03*
X121860000Y-94932500D03*
X121860000Y-94297500D03*
X121860000Y-93662500D03*
X121860000Y-93027500D03*
X121860000Y-92392500D03*
X121860000Y-91757500D03*
X121860000Y-91122500D03*
X121860000Y-90487500D03*
X121860000Y-89852500D03*
X127060000Y-89852500D03*
X127060000Y-90487500D03*
X127060000Y-91122500D03*
X127060000Y-91757500D03*
X127060000Y-92392500D03*
X127060000Y-93027500D03*
X127060000Y-93662500D03*
X127060000Y-94297500D03*
X127060000Y-94932500D03*
X127060000Y-95567500D03*
G04 #@! TA.AperFunction,SMDPad,CuDef*
G36*
G01*
X139249999Y-90570000D02*
X140150001Y-90570000D01*
G75*
G02*
X140400000Y-90819999I0J-249999D01*
G01*
X140400000Y-91520001D01*
G75*
G02*
X140150001Y-91770000I-249999J0D01*
G01*
X139249999Y-91770000D01*
G75*
G02*
X139000000Y-91520001I0J249999D01*
G01*
X139000000Y-90819999D01*
G75*
G02*
X139249999Y-90570000I249999J0D01*
G01*
G37*
G04 #@! TD.AperFunction*
G04 #@! TA.AperFunction,SMDPad,CuDef*
G36*
G01*
X139249999Y-88570000D02*
X140150001Y-88570000D01*
G75*
G02*
X140400000Y-88819999I0J-249999D01*
G01*
X140400000Y-89520001D01*
G75*
G02*
X140150001Y-89770000I-249999J0D01*
G01*
X139249999Y-89770000D01*
G75*
G02*
X139000000Y-89520001I0J249999D01*
G01*
X139000000Y-88819999D01*
G75*
G02*
X139249999Y-88570000I249999J0D01*
G01*
G37*
G04 #@! TD.AperFunction*
G04 #@! TA.AperFunction,SMDPad,CuDef*
G36*
G01*
X135439999Y-90300000D02*
X136340001Y-90300000D01*
G75*
G02*
X136590000Y-90549999I0J-249999D01*
G01*
X136590000Y-91250001D01*
G75*
G02*
X136340001Y-91500000I-249999J0D01*
G01*
X135439999Y-91500000D01*
G75*
G02*
X135190000Y-91250001I0J249999D01*
G01*
X135190000Y-90549999D01*
G75*
G02*
X135439999Y-90300000I249999J0D01*
G01*
G37*
G04 #@! TD.AperFunction*
G04 #@! TA.AperFunction,SMDPad,CuDef*
G36*
G01*
X135439999Y-88300000D02*
X136340001Y-88300000D01*
G75*
G02*
X136590000Y-88549999I0J-249999D01*
G01*
X136590000Y-89250001D01*
G75*
G02*
X136340001Y-89500000I-249999J0D01*
G01*
X135439999Y-89500000D01*
G75*
G02*
X135190000Y-89250001I0J249999D01*
G01*
X135190000Y-88549999D01*
G75*
G02*
X135439999Y-88300000I249999J0D01*
G01*
G37*
G04 #@! TD.AperFunction*
G04 #@! TA.AperFunction,SMDPad,CuDef*
G36*
G01*
X113430000Y-90620001D02*
X113430000Y-89719999D01*
G75*
G02*
X113679999Y-89470000I249999J0D01*
G01*
X114380001Y-89470000D01*
G75*
G02*
X114630000Y-89719999I0J-249999D01*
G01*
X114630000Y-90620001D01*
G75*
G02*
X114380001Y-90870000I-249999J0D01*
G01*
X113679999Y-90870000D01*
G75*
G02*
X113430000Y-90620001I0J249999D01*
G01*
G37*
G04 #@! TD.AperFunction*
G04 #@! TA.AperFunction,SMDPad,CuDef*
G36*
G01*
X111430000Y-90620001D02*
X111430000Y-89719999D01*
G75*
G02*
X111679999Y-89470000I249999J0D01*
G01*
X112380001Y-89470000D01*
G75*
G02*
X112630000Y-89719999I0J-249999D01*
G01*
X112630000Y-90620001D01*
G75*
G02*
X112380001Y-90870000I-249999J0D01*
G01*
X111679999Y-90870000D01*
G75*
G02*
X111430000Y-90620001I0J249999D01*
G01*
G37*
G04 #@! TD.AperFunction*
G04 #@! TA.AperFunction,SMDPad,CuDef*
G36*
G01*
X113430000Y-94430001D02*
X113430000Y-93529999D01*
G75*
G02*
X113679999Y-93280000I249999J0D01*
G01*
X114380001Y-93280000D01*
G75*
G02*
X114630000Y-93529999I0J-249999D01*
G01*
X114630000Y-94430001D01*
G75*
G02*
X114380001Y-94680000I-249999J0D01*
G01*
X113679999Y-94680000D01*
G75*
G02*
X113430000Y-94430001I0J249999D01*
G01*
G37*
G04 #@! TD.AperFunction*
G04 #@! TA.AperFunction,SMDPad,CuDef*
G36*
G01*
X111430000Y-94430001D02*
X111430000Y-93529999D01*
G75*
G02*
X111679999Y-93280000I249999J0D01*
G01*
X112380001Y-93280000D01*
G75*
G02*
X112630000Y-93529999I0J-249999D01*
G01*
X112630000Y-94430001D01*
G75*
G02*
X112380001Y-94680000I-249999J0D01*
G01*
X111679999Y-94680000D01*
G75*
G02*
X111430000Y-94430001I0J249999D01*
G01*
G37*
G04 #@! TD.AperFunction*
D12*
X143510000Y-97790000D03*
X143510000Y-95250000D03*
D13*
X143510000Y-92710000D03*
D12*
X132080000Y-91440000D03*
X132080000Y-88900000D03*
D13*
X132080000Y-86360000D03*
D14*
X104105000Y-94207500D03*
D15*
X104105000Y-91507500D03*
D16*
X104105000Y-96032500D03*
X104105000Y-89282500D03*
D17*
X106680000Y-95145000D03*
X106680000Y-90170000D03*
D18*
X106765000Y-93957500D03*
X106765000Y-93307500D03*
X106765000Y-92657500D03*
X106765000Y-92007500D03*
X106765000Y-91357500D03*
D19*
X124140001Y-85185250D03*
X122239999Y-85185250D03*
X122239999Y-82454750D03*
X123190000Y-82454750D03*
X124140001Y-82454750D03*
G04 #@! TA.AperFunction,SMDPad,CuDef*
G36*
G01*
X140150001Y-84395000D02*
X139249999Y-84395000D01*
G75*
G02*
X139000000Y-84145001I0J249999D01*
G01*
X139000000Y-83494999D01*
G75*
G02*
X139249999Y-83245000I249999J0D01*
G01*
X140150001Y-83245000D01*
G75*
G02*
X140400000Y-83494999I0J-249999D01*
G01*
X140400000Y-84145001D01*
G75*
G02*
X140150001Y-84395000I-249999J0D01*
G01*
G37*
G04 #@! TD.AperFunction*
G04 #@! TA.AperFunction,SMDPad,CuDef*
G36*
G01*
X140150001Y-86445000D02*
X139249999Y-86445000D01*
G75*
G02*
X139000000Y-86195001I0J249999D01*
G01*
X139000000Y-85544999D01*
G75*
G02*
X139249999Y-85295000I249999J0D01*
G01*
X140150001Y-85295000D01*
G75*
G02*
X140400000Y-85544999I0J-249999D01*
G01*
X140400000Y-86195001D01*
G75*
G02*
X140150001Y-86445000I-249999J0D01*
G01*
G37*
G04 #@! TD.AperFunction*
G04 #@! TA.AperFunction,SMDPad,CuDef*
G36*
G01*
X136340001Y-84395000D02*
X135439999Y-84395000D01*
G75*
G02*
X135190000Y-84145001I0J249999D01*
G01*
X135190000Y-83494999D01*
G75*
G02*
X135439999Y-83245000I249999J0D01*
G01*
X136340001Y-83245000D01*
G75*
G02*
X136590000Y-83494999I0J-249999D01*
G01*
X136590000Y-84145001D01*
G75*
G02*
X136340001Y-84395000I-249999J0D01*
G01*
G37*
G04 #@! TD.AperFunction*
G04 #@! TA.AperFunction,SMDPad,CuDef*
G36*
G01*
X136340001Y-86445000D02*
X135439999Y-86445000D01*
G75*
G02*
X135190000Y-86195001I0J249999D01*
G01*
X135190000Y-85544999D01*
G75*
G02*
X135439999Y-85295000I249999J0D01*
G01*
X136340001Y-85295000D01*
G75*
G02*
X136590000Y-85544999I0J-249999D01*
G01*
X136590000Y-86195001D01*
G75*
G02*
X136340001Y-86445000I-249999J0D01*
G01*
G37*
G04 #@! TD.AperFunction*
G04 #@! TA.AperFunction,SMDPad,CuDef*
G36*
G01*
X117660000Y-98585000D02*
X117660000Y-99535000D01*
G75*
G02*
X117410000Y-99785000I-250000J0D01*
G01*
X116735000Y-99785000D01*
G75*
G02*
X116485000Y-99535000I0J250000D01*
G01*
X116485000Y-98585000D01*
G75*
G02*
X116735000Y-98335000I250000J0D01*
G01*
X117410000Y-98335000D01*
G75*
G02*
X117660000Y-98585000I0J-250000D01*
G01*
G37*
G04 #@! TD.AperFunction*
G04 #@! TA.AperFunction,SMDPad,CuDef*
G36*
G01*
X119735000Y-98585000D02*
X119735000Y-99535000D01*
G75*
G02*
X119485000Y-99785000I-250000J0D01*
G01*
X118810000Y-99785000D01*
G75*
G02*
X118560000Y-99535000I0J250000D01*
G01*
X118560000Y-98585000D01*
G75*
G02*
X118810000Y-98335000I250000J0D01*
G01*
X119485000Y-98335000D01*
G75*
G02*
X119735000Y-98585000I0J-250000D01*
G01*
G37*
G04 #@! TD.AperFunction*
G04 #@! TA.AperFunction,SMDPad,CuDef*
G36*
G01*
X114750000Y-79215000D02*
X114750000Y-78265000D01*
G75*
G02*
X115000000Y-78015000I250000J0D01*
G01*
X115675000Y-78015000D01*
G75*
G02*
X115925000Y-78265000I0J-250000D01*
G01*
X115925000Y-79215000D01*
G75*
G02*
X115675000Y-79465000I-250000J0D01*
G01*
X115000000Y-79465000D01*
G75*
G02*
X114750000Y-79215000I0J250000D01*
G01*
G37*
G04 #@! TD.AperFunction*
G04 #@! TA.AperFunction,SMDPad,CuDef*
G36*
G01*
X112675000Y-79215000D02*
X112675000Y-78265000D01*
G75*
G02*
X112925000Y-78015000I250000J0D01*
G01*
X113600000Y-78015000D01*
G75*
G02*
X113850000Y-78265000I0J-250000D01*
G01*
X113850000Y-79215000D01*
G75*
G02*
X113600000Y-79465000I-250000J0D01*
G01*
X112925000Y-79465000D01*
G75*
G02*
X112675000Y-79215000I0J250000D01*
G01*
G37*
G04 #@! TD.AperFunction*
G04 #@! TA.AperFunction,SMDPad,CuDef*
G36*
G01*
X117660000Y-96045000D02*
X117660000Y-96995000D01*
G75*
G02*
X117410000Y-97245000I-250000J0D01*
G01*
X116735000Y-97245000D01*
G75*
G02*
X116485000Y-96995000I0J250000D01*
G01*
X116485000Y-96045000D01*
G75*
G02*
X116735000Y-95795000I250000J0D01*
G01*
X117410000Y-95795000D01*
G75*
G02*
X117660000Y-96045000I0J-250000D01*
G01*
G37*
G04 #@! TD.AperFunction*
G04 #@! TA.AperFunction,SMDPad,CuDef*
G36*
G01*
X119735000Y-96045000D02*
X119735000Y-96995000D01*
G75*
G02*
X119485000Y-97245000I-250000J0D01*
G01*
X118810000Y-97245000D01*
G75*
G02*
X118560000Y-96995000I0J250000D01*
G01*
X118560000Y-96045000D01*
G75*
G02*
X118810000Y-95795000I250000J0D01*
G01*
X119485000Y-95795000D01*
G75*
G02*
X119735000Y-96045000I0J-250000D01*
G01*
G37*
G04 #@! TD.AperFunction*
G04 #@! TA.AperFunction,SMDPad,CuDef*
G36*
G01*
X132555000Y-94800000D02*
X131605000Y-94800000D01*
G75*
G02*
X131355000Y-94550000I0J250000D01*
G01*
X131355000Y-93875000D01*
G75*
G02*
X131605000Y-93625000I250000J0D01*
G01*
X132555000Y-93625000D01*
G75*
G02*
X132805000Y-93875000I0J-250000D01*
G01*
X132805000Y-94550000D01*
G75*
G02*
X132555000Y-94800000I-250000J0D01*
G01*
G37*
G04 #@! TD.AperFunction*
G04 #@! TA.AperFunction,SMDPad,CuDef*
G36*
G01*
X132555000Y-96875000D02*
X131605000Y-96875000D01*
G75*
G02*
X131355000Y-96625000I0J250000D01*
G01*
X131355000Y-95950000D01*
G75*
G02*
X131605000Y-95700000I250000J0D01*
G01*
X132555000Y-95700000D01*
G75*
G02*
X132805000Y-95950000I0J-250000D01*
G01*
X132805000Y-96625000D01*
G75*
G02*
X132555000Y-96875000I-250000J0D01*
G01*
G37*
G04 #@! TD.AperFunction*
G04 #@! TA.AperFunction,SMDPad,CuDef*
G36*
G01*
X113480000Y-88105000D02*
X113480000Y-87155000D01*
G75*
G02*
X113730000Y-86905000I250000J0D01*
G01*
X114405000Y-86905000D01*
G75*
G02*
X114655000Y-87155000I0J-250000D01*
G01*
X114655000Y-88105000D01*
G75*
G02*
X114405000Y-88355000I-250000J0D01*
G01*
X113730000Y-88355000D01*
G75*
G02*
X113480000Y-88105000I0J250000D01*
G01*
G37*
G04 #@! TD.AperFunction*
G04 #@! TA.AperFunction,SMDPad,CuDef*
G36*
G01*
X111405000Y-88105000D02*
X111405000Y-87155000D01*
G75*
G02*
X111655000Y-86905000I250000J0D01*
G01*
X112330000Y-86905000D01*
G75*
G02*
X112580000Y-87155000I0J-250000D01*
G01*
X112580000Y-88105000D01*
G75*
G02*
X112330000Y-88355000I-250000J0D01*
G01*
X111655000Y-88355000D01*
G75*
G02*
X111405000Y-88105000I0J250000D01*
G01*
G37*
G04 #@! TD.AperFunction*
G04 #@! TA.AperFunction,SMDPad,CuDef*
G36*
G01*
X113480000Y-96995000D02*
X113480000Y-96045000D01*
G75*
G02*
X113730000Y-95795000I250000J0D01*
G01*
X114405000Y-95795000D01*
G75*
G02*
X114655000Y-96045000I0J-250000D01*
G01*
X114655000Y-96995000D01*
G75*
G02*
X114405000Y-97245000I-250000J0D01*
G01*
X113730000Y-97245000D01*
G75*
G02*
X113480000Y-96995000I0J250000D01*
G01*
G37*
G04 #@! TD.AperFunction*
G04 #@! TA.AperFunction,SMDPad,CuDef*
G36*
G01*
X111405000Y-96995000D02*
X111405000Y-96045000D01*
G75*
G02*
X111655000Y-95795000I250000J0D01*
G01*
X112330000Y-95795000D01*
G75*
G02*
X112580000Y-96045000I0J-250000D01*
G01*
X112580000Y-96995000D01*
G75*
G02*
X112330000Y-97245000I-250000J0D01*
G01*
X111655000Y-97245000D01*
G75*
G02*
X111405000Y-96995000I0J250000D01*
G01*
G37*
G04 #@! TD.AperFunction*
G04 #@! TA.AperFunction,SMDPad,CuDef*
G36*
G01*
X128745000Y-83602500D02*
X127795000Y-83602500D01*
G75*
G02*
X127545000Y-83352500I0J250000D01*
G01*
X127545000Y-82677500D01*
G75*
G02*
X127795000Y-82427500I250000J0D01*
G01*
X128745000Y-82427500D01*
G75*
G02*
X128995000Y-82677500I0J-250000D01*
G01*
X128995000Y-83352500D01*
G75*
G02*
X128745000Y-83602500I-250000J0D01*
G01*
G37*
G04 #@! TD.AperFunction*
G04 #@! TA.AperFunction,SMDPad,CuDef*
G36*
G01*
X128745000Y-85677500D02*
X127795000Y-85677500D01*
G75*
G02*
X127545000Y-85427500I0J250000D01*
G01*
X127545000Y-84752500D01*
G75*
G02*
X127795000Y-84502500I250000J0D01*
G01*
X128745000Y-84502500D01*
G75*
G02*
X128995000Y-84752500I0J-250000D01*
G01*
X128995000Y-85427500D01*
G75*
G02*
X128745000Y-85677500I-250000J0D01*
G01*
G37*
G04 #@! TD.AperFunction*
G04 #@! TA.AperFunction,SMDPad,CuDef*
G36*
G01*
X114750000Y-83025000D02*
X114750000Y-82075000D01*
G75*
G02*
X115000000Y-81825000I250000J0D01*
G01*
X115675000Y-81825000D01*
G75*
G02*
X115925000Y-82075000I0J-250000D01*
G01*
X115925000Y-83025000D01*
G75*
G02*
X115675000Y-83275000I-250000J0D01*
G01*
X115000000Y-83275000D01*
G75*
G02*
X114750000Y-83025000I0J250000D01*
G01*
G37*
G04 #@! TD.AperFunction*
G04 #@! TA.AperFunction,SMDPad,CuDef*
G36*
G01*
X112675000Y-83025000D02*
X112675000Y-82075000D01*
G75*
G02*
X112925000Y-81825000I250000J0D01*
G01*
X113600000Y-81825000D01*
G75*
G02*
X113850000Y-82075000I0J-250000D01*
G01*
X113850000Y-83025000D01*
G75*
G02*
X113600000Y-83275000I-250000J0D01*
G01*
X112925000Y-83275000D01*
G75*
G02*
X112675000Y-83025000I0J250000D01*
G01*
G37*
G04 #@! TD.AperFunction*
D20*
X128270000Y-90170000D03*
X104140000Y-76200000D03*
X109220000Y-76200000D03*
X121920000Y-76200000D03*
X127000000Y-76200000D03*
X114300000Y-76200000D03*
X146050000Y-76200000D03*
X143510000Y-76200000D03*
X130810000Y-76200000D03*
X125730000Y-87630000D03*
X128270000Y-87630000D03*
X132080000Y-82550000D03*
X124460000Y-81280000D03*
X119380000Y-78740000D03*
X118110000Y-81280000D03*
X116840000Y-82550000D03*
X120650000Y-81280000D03*
X109220000Y-80010000D03*
X106680000Y-82550000D03*
X110490000Y-85090000D03*
X118110000Y-92710000D03*
X124460000Y-87630000D03*
X135890000Y-95250000D03*
X138662500Y-96287500D03*
X142240000Y-88900000D03*
X144780000Y-85090000D03*
X142240000Y-81280000D03*
X135890000Y-76200000D03*
X129540000Y-87630000D03*
X129540000Y-100330000D03*
X123190000Y-100330000D03*
X109220000Y-100330000D03*
X119380000Y-90170000D03*
X119380000Y-93980000D03*
X124460000Y-91440000D03*
X135890000Y-97790000D03*
X137160000Y-91440000D03*
X123190000Y-93980000D03*
X134620000Y-92710000D03*
X125730000Y-92697497D03*
X125730000Y-93597500D03*
X135890000Y-93980000D03*
X135890000Y-93980000D03*
X115570000Y-90170000D03*
X118110000Y-90170000D03*
X116909716Y-87419666D03*
X119239975Y-87098273D03*
X116237964Y-88091418D03*
X119911727Y-87770025D03*
D21*
X117072500Y-96520000D02*
X114067500Y-96520000D01*
X142007500Y-96287500D02*
X143510000Y-97790000D01*
X132080000Y-96287500D02*
X138662500Y-96287500D01*
X117072500Y-99060000D02*
X117072500Y-96520000D01*
X128270000Y-91977502D02*
X128270000Y-90170000D01*
X127855002Y-92392500D02*
X128270000Y-91977502D01*
X127060000Y-92392500D02*
X127855002Y-92392500D01*
X121039620Y-93027500D02*
X120650000Y-93417120D01*
X121860000Y-93027500D02*
X121039620Y-93027500D01*
X118147510Y-100135010D02*
X117072500Y-99060000D01*
X119733536Y-100135010D02*
X118147510Y-100135010D01*
X120650000Y-99218546D02*
X119733536Y-100135010D01*
X120650000Y-93417120D02*
X120650000Y-99218546D01*
X138662500Y-96287500D02*
X142007500Y-96287500D01*
X106765000Y-95060000D02*
X106680000Y-95145000D01*
X106765000Y-93957500D02*
X106765000Y-95060000D01*
D22*
X113262500Y-78740000D02*
X113262500Y-82550000D01*
D21*
X109220000Y-82550000D02*
X113262500Y-82550000D01*
X113262500Y-82550000D02*
X113262500Y-84052500D01*
X113262500Y-84052500D02*
X114300000Y-85090000D01*
X114300000Y-85090000D02*
X115570000Y-85090000D01*
X115570000Y-85090000D02*
X119380000Y-88900000D01*
X119380000Y-88900000D02*
X119380000Y-90170000D01*
X120967500Y-92392500D02*
X121860000Y-92392500D01*
X119380000Y-93980000D02*
X120967500Y-92392500D01*
X119147500Y-94212500D02*
X119380000Y-93980000D01*
X119147500Y-96520000D02*
X119147500Y-94212500D01*
X122239999Y-83243700D02*
X122816299Y-83820000D01*
X122239999Y-82454750D02*
X122239999Y-83243700D01*
X124140001Y-83243700D02*
X124140001Y-82454750D01*
X123563701Y-83820000D02*
X124140001Y-83243700D01*
X122816299Y-83820000D02*
X123563701Y-83820000D01*
X119604749Y-85090000D02*
X122239999Y-82454750D01*
X115802500Y-85090000D02*
X119604749Y-85090000D01*
X113262500Y-82550000D02*
X115802500Y-85090000D01*
X119147500Y-96520000D02*
X119147500Y-99060000D01*
X128174750Y-85185250D02*
X128270000Y-85090000D01*
X124140001Y-85185250D02*
X128174750Y-85185250D01*
X130810000Y-85090000D02*
X132080000Y-86360000D01*
X128270000Y-85090000D02*
X130810000Y-85090000D01*
D23*
X110707500Y-92657500D02*
X112030000Y-93980000D01*
X106765000Y-92657500D02*
X110707500Y-92657500D01*
X112030000Y-96482500D02*
X111992500Y-96520000D01*
X112030000Y-93980000D02*
X112030000Y-96482500D01*
X110192500Y-92007500D02*
X112030000Y-90170000D01*
X106765000Y-92007500D02*
X110192500Y-92007500D01*
X112030000Y-87667500D02*
X111992500Y-87630000D01*
X112030000Y-90170000D02*
X112030000Y-87667500D01*
D21*
X124142500Y-91122500D02*
X124460000Y-91440000D01*
X121860000Y-91122500D02*
X124142500Y-91122500D01*
X132080000Y-91440000D02*
X132080000Y-94212500D01*
X125300000Y-94297500D02*
X127060000Y-94297500D01*
X122760000Y-91757500D02*
X125300000Y-94297500D01*
X121860000Y-91757500D02*
X122760000Y-91757500D01*
X127855002Y-94297500D02*
X127060000Y-94297500D01*
X129540000Y-92612502D02*
X127855002Y-94297500D01*
X129540000Y-91440000D02*
X129540000Y-92612502D01*
X132080000Y-88900000D02*
X129540000Y-91440000D01*
D23*
X133350000Y-86360000D02*
X135890000Y-83820000D01*
X133350000Y-87630000D02*
X133350000Y-86360000D01*
X132080000Y-88900000D02*
X133350000Y-87630000D01*
X135890000Y-83820000D02*
X139700000Y-83820000D01*
X135890000Y-85870000D02*
X135890000Y-88900000D01*
X139700000Y-85870000D02*
X139700000Y-89170000D01*
D21*
X106765000Y-91357500D02*
X108032500Y-91357500D01*
X108032500Y-91357500D02*
X109220000Y-90170000D01*
X109220000Y-90170000D02*
X109220000Y-87630000D01*
X109220000Y-87630000D02*
X107950000Y-86360000D01*
X107950000Y-86360000D02*
X105410000Y-86360000D01*
X104140000Y-85090000D02*
X104140000Y-82550000D01*
X105410000Y-86360000D02*
X104140000Y-85090000D01*
X124082500Y-97790000D02*
X135890000Y-97790000D01*
X121860000Y-95567500D02*
X124082500Y-97790000D01*
X146050000Y-95250000D02*
X143510000Y-92710000D01*
X146050000Y-99060000D02*
X146050000Y-95250000D01*
X144780000Y-100330000D02*
X146050000Y-99060000D01*
X142240000Y-100330000D02*
X144780000Y-100330000D01*
X140900001Y-98990001D02*
X142240000Y-100330000D01*
X137090001Y-98990001D02*
X140900001Y-98990001D01*
X135890000Y-97790000D02*
X137090001Y-98990001D01*
D23*
X136620000Y-90900000D02*
X137160000Y-91440000D01*
X135890000Y-90900000D02*
X136620000Y-90900000D01*
X122872500Y-93662500D02*
X121860000Y-93662500D01*
X123190000Y-93980000D02*
X122872500Y-93662500D01*
X138160000Y-92710000D02*
X134620000Y-92710000D01*
X139700000Y-91170000D02*
X138160000Y-92710000D01*
X126354998Y-89852500D02*
X127060000Y-89852500D01*
X125730000Y-90477498D02*
X126354998Y-89852500D01*
X125730000Y-92697497D02*
X125730000Y-90477498D01*
D21*
X125795000Y-93662500D02*
X125730000Y-93597500D01*
X127060000Y-93662500D02*
X125795000Y-93662500D01*
X135890000Y-93980000D02*
X139700000Y-93980000D01*
X140970000Y-95250000D02*
X143510000Y-95250000D01*
X139700000Y-93980000D02*
X140970000Y-95250000D01*
D23*
X121767500Y-90395000D02*
X121860000Y-90487500D01*
D21*
X114030000Y-90170000D02*
X115570000Y-90170000D01*
X118110000Y-90170000D02*
X118110000Y-88900000D01*
D23*
X118036497Y-88900000D02*
X116909716Y-87773219D01*
X118110000Y-88900000D02*
X118036497Y-88900000D01*
X116909716Y-87773219D02*
X116909716Y-87419666D01*
X121994999Y-90352501D02*
X121860000Y-90487500D01*
X119239975Y-87098273D02*
X120580902Y-87098273D01*
X122700001Y-89352499D02*
X122760001Y-89412499D01*
X122310000Y-88827371D02*
X122310000Y-89352499D01*
X120580902Y-87098273D02*
X122310000Y-88827371D01*
X122310000Y-89352499D02*
X122700001Y-89352499D01*
X122760001Y-89412499D02*
X122760001Y-90292501D01*
X122760001Y-90292501D02*
X122700001Y-90352501D01*
X122700001Y-90352501D02*
X121994999Y-90352501D01*
X121767500Y-89945000D02*
X121860000Y-89852500D01*
D21*
X114030000Y-93980000D02*
X114300000Y-93980000D01*
X114300000Y-93980000D02*
X116840000Y-91440000D01*
X116840000Y-91440000D02*
X116840000Y-88900000D01*
D23*
X116591517Y-88091418D02*
X116237964Y-88091418D01*
X116840000Y-88339901D02*
X116591517Y-88091418D01*
X116840000Y-88900000D02*
X116840000Y-88339901D01*
X120394502Y-87548273D02*
X121860000Y-89013771D01*
X119911727Y-87770025D02*
X120133479Y-87548273D01*
X121860000Y-89013771D02*
X121860000Y-89402500D01*
X121860000Y-89402500D02*
X121860000Y-89852500D01*
X120133479Y-87548273D02*
X120394502Y-87548273D01*
D24*
X146660000Y-94755885D02*
X146643460Y-94735731D01*
X146632345Y-94722187D01*
X146632342Y-94722184D01*
X146607764Y-94692236D01*
X146577816Y-94667658D01*
X144998072Y-93087915D01*
X144998072Y-91860000D01*
X144985812Y-91735518D01*
X144949502Y-91615820D01*
X144890537Y-91505506D01*
X144811185Y-91408815D01*
X144714494Y-91329463D01*
X144604180Y-91270498D01*
X144484482Y-91234188D01*
X144360000Y-91221928D01*
X142660000Y-91221928D01*
X142535518Y-91234188D01*
X142415820Y-91270498D01*
X142305506Y-91329463D01*
X142208815Y-91408815D01*
X142129463Y-91505506D01*
X142070498Y-91615820D01*
X142034188Y-91735518D01*
X142021928Y-91860000D01*
X142021928Y-93560000D01*
X142034188Y-93684482D01*
X142070498Y-93804180D01*
X142129463Y-93914494D01*
X142208815Y-94011185D01*
X142305506Y-94090537D01*
X142415820Y-94149502D01*
X142488380Y-94171513D01*
X142356525Y-94303368D01*
X142248526Y-94465000D01*
X141295158Y-94465000D01*
X140282345Y-93452188D01*
X140257764Y-93422236D01*
X140138233Y-93324138D01*
X140001860Y-93251246D01*
X139853887Y-93206359D01*
X139738561Y-93195000D01*
X139738553Y-93195000D01*
X139700000Y-93191203D01*
X139661447Y-93195000D01*
X138714446Y-93195000D01*
X139501375Y-92408072D01*
X140150001Y-92408072D01*
X140323255Y-92391008D01*
X140489851Y-92340472D01*
X140643387Y-92258405D01*
X140777962Y-92147962D01*
X140888405Y-92013387D01*
X140970472Y-91859851D01*
X141021008Y-91693255D01*
X141038072Y-91520001D01*
X141038072Y-90819999D01*
X141021008Y-90646745D01*
X140970472Y-90480149D01*
X140888405Y-90326613D01*
X140777962Y-90192038D01*
X140751109Y-90170000D01*
X140777962Y-90147962D01*
X140888405Y-90013387D01*
X140970472Y-89859851D01*
X141021008Y-89693255D01*
X141038072Y-89520001D01*
X141038072Y-88819999D01*
X141021008Y-88646745D01*
X140970472Y-88480149D01*
X140888405Y-88326613D01*
X140777962Y-88192038D01*
X140643387Y-88081595D01*
X140489851Y-87999528D01*
X140435000Y-87982889D01*
X140435000Y-87032111D01*
X140489851Y-87015472D01*
X140643387Y-86933405D01*
X140777962Y-86822962D01*
X140888405Y-86688387D01*
X140970472Y-86534851D01*
X141021008Y-86368255D01*
X141038072Y-86195001D01*
X141038072Y-85544999D01*
X141021008Y-85371745D01*
X140970472Y-85205149D01*
X140888405Y-85051613D01*
X140777962Y-84917038D01*
X140690184Y-84845000D01*
X140777962Y-84772962D01*
X140888405Y-84638387D01*
X140970472Y-84484851D01*
X141021008Y-84318255D01*
X141038072Y-84145001D01*
X141038072Y-83494999D01*
X141021008Y-83321745D01*
X140970472Y-83155149D01*
X140888405Y-83001613D01*
X140777962Y-82867038D01*
X140643387Y-82756595D01*
X140489851Y-82674528D01*
X140323255Y-82623992D01*
X140150001Y-82606928D01*
X139249999Y-82606928D01*
X139076745Y-82623992D01*
X138910149Y-82674528D01*
X138756613Y-82756595D01*
X138622038Y-82867038D01*
X138511595Y-83001613D01*
X138467024Y-83085000D01*
X137122976Y-83085000D01*
X137078405Y-83001613D01*
X136967962Y-82867038D01*
X136833387Y-82756595D01*
X136679851Y-82674528D01*
X136513255Y-82623992D01*
X136340001Y-82606928D01*
X135439999Y-82606928D01*
X135266745Y-82623992D01*
X135100149Y-82674528D01*
X134946613Y-82756595D01*
X134812038Y-82867038D01*
X134701595Y-83001613D01*
X134619528Y-83155149D01*
X134568992Y-83321745D01*
X134551928Y-83494999D01*
X134551928Y-84118625D01*
X133479525Y-85191029D01*
X133460537Y-85155506D01*
X133381185Y-85058815D01*
X133284494Y-84979463D01*
X133174180Y-84920498D01*
X133054482Y-84884188D01*
X132930000Y-84871928D01*
X131702085Y-84871928D01*
X131392345Y-84562188D01*
X131367764Y-84532236D01*
X131248233Y-84434138D01*
X131111860Y-84361246D01*
X130963887Y-84316359D01*
X130848561Y-84305000D01*
X130848553Y-84305000D01*
X130810000Y-84301203D01*
X130771447Y-84305000D01*
X129507932Y-84305000D01*
X129483405Y-84259114D01*
X129372962Y-84124538D01*
X129366406Y-84119158D01*
X129446185Y-84053685D01*
X129525537Y-83956994D01*
X129584502Y-83846680D01*
X129620812Y-83726982D01*
X129633072Y-83602500D01*
X129630000Y-83300750D01*
X129471250Y-83142000D01*
X128397000Y-83142000D01*
X128397000Y-83162000D01*
X128143000Y-83162000D01*
X128143000Y-83142000D01*
X127068750Y-83142000D01*
X126910000Y-83300750D01*
X126906928Y-83602500D01*
X126919188Y-83726982D01*
X126955498Y-83846680D01*
X127014463Y-83956994D01*
X127093815Y-84053685D01*
X127173594Y-84119158D01*
X127167038Y-84124538D01*
X127056595Y-84259114D01*
X126981156Y-84400250D01*
X124955777Y-84400250D01*
X124924538Y-84341806D01*
X124845186Y-84245115D01*
X124748495Y-84165763D01*
X124638181Y-84106798D01*
X124518483Y-84070488D01*
X124431898Y-84061960D01*
X124667817Y-83826042D01*
X124697765Y-83801464D01*
X124722347Y-83771512D01*
X124746451Y-83742141D01*
X124795863Y-83681933D01*
X124868755Y-83545560D01*
X124906858Y-83419950D01*
X124913642Y-83397588D01*
X124921112Y-83321745D01*
X124923281Y-83299726D01*
X124924538Y-83298194D01*
X124983503Y-83187880D01*
X125019813Y-83068182D01*
X125032073Y-82943700D01*
X125032073Y-82427500D01*
X126906928Y-82427500D01*
X126910000Y-82729250D01*
X127068750Y-82888000D01*
X128143000Y-82888000D01*
X128143000Y-81951250D01*
X128397000Y-81951250D01*
X128397000Y-82888000D01*
X129471250Y-82888000D01*
X129630000Y-82729250D01*
X129633072Y-82427500D01*
X129620812Y-82303018D01*
X129584502Y-82183320D01*
X129525537Y-82073006D01*
X129446185Y-81976315D01*
X129349494Y-81896963D01*
X129239180Y-81837998D01*
X129119482Y-81801688D01*
X128995000Y-81789428D01*
X128555750Y-81792500D01*
X128397000Y-81951250D01*
X128143000Y-81951250D01*
X127984250Y-81792500D01*
X127545000Y-81789428D01*
X127420518Y-81801688D01*
X127300820Y-81837998D01*
X127190506Y-81896963D01*
X127093815Y-81976315D01*
X127014463Y-82073006D01*
X126955498Y-82183320D01*
X126919188Y-82303018D01*
X126906928Y-82427500D01*
X125032073Y-82427500D01*
X125032073Y-81965800D01*
X125019813Y-81841318D01*
X124983503Y-81721620D01*
X124924538Y-81611306D01*
X124845186Y-81514615D01*
X124748495Y-81435263D01*
X124638181Y-81376298D01*
X124518483Y-81339988D01*
X124394001Y-81327728D01*
X123886001Y-81327728D01*
X123761519Y-81339988D01*
X123663943Y-81369587D01*
X123580774Y-81342560D01*
X123475750Y-81330800D01*
X123317000Y-81489550D01*
X123317000Y-81683266D01*
X123296499Y-81721620D01*
X123260189Y-81841318D01*
X123247929Y-81965800D01*
X123247929Y-82601750D01*
X123132071Y-82601750D01*
X123132071Y-81965800D01*
X123119811Y-81841318D01*
X123083501Y-81721620D01*
X123063000Y-81683266D01*
X123063000Y-81489550D01*
X122904250Y-81330800D01*
X122799226Y-81342560D01*
X122716057Y-81369587D01*
X122618481Y-81339988D01*
X122493999Y-81327728D01*
X121985999Y-81327728D01*
X121861517Y-81339988D01*
X121741819Y-81376298D01*
X121631505Y-81435263D01*
X121534814Y-81514615D01*
X121455462Y-81611306D01*
X121396497Y-81721620D01*
X121360187Y-81841318D01*
X121347927Y-81965800D01*
X121347927Y-82236664D01*
X119279592Y-84305000D01*
X116127658Y-84305000D01*
X115733783Y-83911125D01*
X115925000Y-83913072D01*
X116049482Y-83900812D01*
X116169180Y-83864502D01*
X116279494Y-83805537D01*
X116376185Y-83726185D01*
X116455537Y-83629494D01*
X116514502Y-83519180D01*
X116550812Y-83399482D01*
X116563072Y-83275000D01*
X116560000Y-82835750D01*
X116401250Y-82677000D01*
X115464500Y-82677000D01*
X115464500Y-82697000D01*
X115210500Y-82697000D01*
X115210500Y-82677000D01*
X115190500Y-82677000D01*
X115190500Y-82423000D01*
X115210500Y-82423000D01*
X115210500Y-81348750D01*
X115464500Y-81348750D01*
X115464500Y-82423000D01*
X116401250Y-82423000D01*
X116560000Y-82264250D01*
X116563072Y-81825000D01*
X116550812Y-81700518D01*
X116514502Y-81580820D01*
X116455537Y-81470506D01*
X116376185Y-81373815D01*
X116279494Y-81294463D01*
X116169180Y-81235498D01*
X116049482Y-81199188D01*
X115925000Y-81186928D01*
X115623250Y-81190000D01*
X115464500Y-81348750D01*
X115210500Y-81348750D01*
X115051750Y-81190000D01*
X114750000Y-81186928D01*
X114625518Y-81199188D01*
X114505820Y-81235498D01*
X114395506Y-81294463D01*
X114298815Y-81373815D01*
X114233342Y-81453594D01*
X114227962Y-81447038D01*
X114093386Y-81336595D01*
X114022500Y-81298706D01*
X114022500Y-79991294D01*
X114093386Y-79953405D01*
X114227962Y-79842962D01*
X114233342Y-79836406D01*
X114298815Y-79916185D01*
X114395506Y-79995537D01*
X114505820Y-80054502D01*
X114625518Y-80090812D01*
X114750000Y-80103072D01*
X115051750Y-80100000D01*
X115210500Y-79941250D01*
X115210500Y-78867000D01*
X115464500Y-78867000D01*
X115464500Y-79941250D01*
X115623250Y-80100000D01*
X115925000Y-80103072D01*
X116049482Y-80090812D01*
X116169180Y-80054502D01*
X116279494Y-79995537D01*
X116376185Y-79916185D01*
X116455537Y-79819494D01*
X116514502Y-79709180D01*
X116550812Y-79589482D01*
X116563072Y-79465000D01*
X116560000Y-79025750D01*
X116401250Y-78867000D01*
X115464500Y-78867000D01*
X115210500Y-78867000D01*
X115190500Y-78867000D01*
X115190500Y-78613000D01*
X115210500Y-78613000D01*
X115210500Y-77538750D01*
X115464500Y-77538750D01*
X115464500Y-78613000D01*
X116401250Y-78613000D01*
X116560000Y-78454250D01*
X116563072Y-78015000D01*
X116550812Y-77890518D01*
X116514502Y-77770820D01*
X116455537Y-77660506D01*
X116376185Y-77563815D01*
X116279494Y-77484463D01*
X116169180Y-77425498D01*
X116049482Y-77389188D01*
X115925000Y-77376928D01*
X115623250Y-77380000D01*
X115464500Y-77538750D01*
X115210500Y-77538750D01*
X115051750Y-77380000D01*
X114750000Y-77376928D01*
X114625518Y-77389188D01*
X114505820Y-77425498D01*
X114395506Y-77484463D01*
X114298815Y-77563815D01*
X114233342Y-77643594D01*
X114227962Y-77637038D01*
X114093386Y-77526595D01*
X113939850Y-77444528D01*
X113773254Y-77393992D01*
X113600000Y-77376928D01*
X112925000Y-77376928D01*
X112751746Y-77393992D01*
X112585150Y-77444528D01*
X112431614Y-77526595D01*
X112297038Y-77637038D01*
X112186595Y-77771614D01*
X112104528Y-77925150D01*
X112053992Y-78091746D01*
X112036928Y-78265000D01*
X112036928Y-79215000D01*
X112053992Y-79388254D01*
X112104528Y-79554850D01*
X112186595Y-79708386D01*
X112297038Y-79842962D01*
X112431614Y-79953405D01*
X112502500Y-79991295D01*
X112502501Y-81298705D01*
X112431614Y-81336595D01*
X112297038Y-81447038D01*
X112186595Y-81581614D01*
X112104528Y-81735150D01*
X112095473Y-81765000D01*
X110661877Y-81765000D01*
X110489987Y-81507748D01*
X110262252Y-81280013D01*
X109994463Y-81101082D01*
X109696912Y-80977832D01*
X109381033Y-80915000D01*
X109058967Y-80915000D01*
X108743088Y-80977832D01*
X108445537Y-81101082D01*
X108177748Y-81280013D01*
X107950013Y-81507748D01*
X107771082Y-81775537D01*
X107647832Y-82073088D01*
X107585000Y-82388967D01*
X107585000Y-82711033D01*
X107647832Y-83026912D01*
X107771082Y-83324463D01*
X107950013Y-83592252D01*
X108177748Y-83819987D01*
X108445537Y-83998918D01*
X108743088Y-84122168D01*
X109058967Y-84185000D01*
X109381033Y-84185000D01*
X109696912Y-84122168D01*
X109994463Y-83998918D01*
X110262252Y-83819987D01*
X110489987Y-83592252D01*
X110661877Y-83335000D01*
X112095473Y-83335000D01*
X112104528Y-83364850D01*
X112186595Y-83518386D01*
X112297038Y-83652962D01*
X112431614Y-83763405D01*
X112477501Y-83787932D01*
X112477501Y-84013938D01*
X112473703Y-84052500D01*
X112488859Y-84206386D01*
X112533746Y-84354359D01*
X112558275Y-84400250D01*
X112606639Y-84490733D01*
X112647190Y-84540144D01*
X112680155Y-84580312D01*
X112680159Y-84580316D01*
X112704737Y-84610264D01*
X112734685Y-84634842D01*
X113717653Y-85617810D01*
X113742236Y-85647764D01*
X113861767Y-85745862D01*
X113967237Y-85802236D01*
X113998140Y-85818754D01*
X114146113Y-85863642D01*
X114221026Y-85871020D01*
X114261439Y-85875000D01*
X114261444Y-85875000D01*
X114300000Y-85878797D01*
X114338556Y-85875000D01*
X115244843Y-85875000D01*
X116153113Y-86783270D01*
X116144617Y-86791765D01*
X116036820Y-86953094D01*
X115962569Y-87132352D01*
X115960592Y-87142294D01*
X115950650Y-87144271D01*
X115771392Y-87218522D01*
X115610063Y-87326319D01*
X115472865Y-87463517D01*
X115365068Y-87624846D01*
X115290817Y-87804104D01*
X115272158Y-87897908D01*
X115131250Y-87757000D01*
X114194500Y-87757000D01*
X114194500Y-87777000D01*
X113940500Y-87777000D01*
X113940500Y-87757000D01*
X113920500Y-87757000D01*
X113920500Y-87503000D01*
X113940500Y-87503000D01*
X113940500Y-86428750D01*
X114194500Y-86428750D01*
X114194500Y-87503000D01*
X115131250Y-87503000D01*
X115290000Y-87344250D01*
X115293072Y-86905000D01*
X115280812Y-86780518D01*
X115244502Y-86660820D01*
X115185537Y-86550506D01*
X115106185Y-86453815D01*
X115009494Y-86374463D01*
X114899180Y-86315498D01*
X114779482Y-86279188D01*
X114655000Y-86266928D01*
X114353250Y-86270000D01*
X114194500Y-86428750D01*
X113940500Y-86428750D01*
X113781750Y-86270000D01*
X113480000Y-86266928D01*
X113355518Y-86279188D01*
X113235820Y-86315498D01*
X113125506Y-86374463D01*
X113028815Y-86453815D01*
X112963342Y-86533594D01*
X112957962Y-86527038D01*
X112823386Y-86416595D01*
X112669850Y-86334528D01*
X112503254Y-86283992D01*
X112330000Y-86266928D01*
X111655000Y-86266928D01*
X111481746Y-86283992D01*
X111315150Y-86334528D01*
X111161614Y-86416595D01*
X111027038Y-86527038D01*
X110916595Y-86661614D01*
X110834528Y-86815150D01*
X110783992Y-86981746D01*
X110766928Y-87155000D01*
X110766928Y-88105000D01*
X110783992Y-88278254D01*
X110834528Y-88444850D01*
X110916595Y-88598386D01*
X111027038Y-88732962D01*
X111161614Y-88843405D01*
X111295001Y-88914702D01*
X111295000Y-88923660D01*
X111186613Y-88981595D01*
X111052038Y-89092038D01*
X110941595Y-89226613D01*
X110859528Y-89380149D01*
X110808992Y-89546745D01*
X110791928Y-89719999D01*
X110791928Y-90368625D01*
X109888054Y-91272500D01*
X109227657Y-91272500D01*
X109747811Y-90752346D01*
X109777764Y-90727764D01*
X109875862Y-90608233D01*
X109948754Y-90471860D01*
X109951747Y-90461994D01*
X109993642Y-90323887D01*
X110002693Y-90231982D01*
X110005000Y-90208561D01*
X110005000Y-90208556D01*
X110008797Y-90170000D01*
X110005000Y-90131444D01*
X110005000Y-87668552D01*
X110008797Y-87629999D01*
X110005000Y-87591446D01*
X110005000Y-87591439D01*
X109993641Y-87476113D01*
X109948754Y-87328140D01*
X109875862Y-87191767D01*
X109777764Y-87072236D01*
X109747815Y-87047658D01*
X108532347Y-85832190D01*
X108507764Y-85802236D01*
X108388233Y-85704138D01*
X108251860Y-85631246D01*
X108103887Y-85586359D01*
X107988561Y-85575000D01*
X107988553Y-85575000D01*
X107950000Y-85571203D01*
X107911447Y-85575000D01*
X105735158Y-85575000D01*
X104925000Y-84764843D01*
X104925000Y-83991877D01*
X105182252Y-83819987D01*
X105409987Y-83592252D01*
X105588918Y-83324463D01*
X105712168Y-83026912D01*
X105775000Y-82711033D01*
X105775000Y-82388967D01*
X105712168Y-82073088D01*
X105588918Y-81775537D01*
X105409987Y-81507748D01*
X105182252Y-81280013D01*
X104914463Y-81101082D01*
X104616912Y-80977832D01*
X104301033Y-80915000D01*
X103978967Y-80915000D01*
X103663088Y-80977832D01*
X103365537Y-81101082D01*
X103097748Y-81280013D01*
X102870013Y-81507748D01*
X102691082Y-81775537D01*
X102567832Y-82073088D01*
X102505000Y-82388967D01*
X102505000Y-82711033D01*
X102567832Y-83026912D01*
X102691082Y-83324463D01*
X102870013Y-83592252D01*
X103097748Y-83819987D01*
X103355000Y-83991878D01*
X103355000Y-85051447D01*
X103351203Y-85090000D01*
X103355000Y-85128553D01*
X103355000Y-85128560D01*
X103366359Y-85243886D01*
X103411246Y-85391859D01*
X103484138Y-85528232D01*
X103582236Y-85647764D01*
X103612188Y-85672345D01*
X104827658Y-86887815D01*
X104852236Y-86917764D01*
X104882184Y-86942342D01*
X104882187Y-86942345D01*
X104895285Y-86953094D01*
X104971767Y-87015862D01*
X105108140Y-87088754D01*
X105221672Y-87123194D01*
X105256112Y-87133641D01*
X105270490Y-87135057D01*
X105371439Y-87145000D01*
X105371446Y-87145000D01*
X105409999Y-87148797D01*
X105448552Y-87145000D01*
X107624843Y-87145000D01*
X108435001Y-87955159D01*
X108435000Y-89844843D01*
X107957047Y-90322797D01*
X107931250Y-90297000D01*
X106807000Y-90297000D01*
X106807000Y-90317000D01*
X106553000Y-90317000D01*
X106553000Y-90297000D01*
X106533000Y-90297000D01*
X106533000Y-90043000D01*
X106553000Y-90043000D01*
X106553000Y-88981250D01*
X106807000Y-88981250D01*
X106807000Y-90043000D01*
X107931250Y-90043000D01*
X108090000Y-89884250D01*
X108093072Y-89457500D01*
X108080812Y-89333018D01*
X108044502Y-89213320D01*
X107985537Y-89103006D01*
X107906185Y-89006315D01*
X107809494Y-88926963D01*
X107699180Y-88867998D01*
X107579482Y-88831688D01*
X107455000Y-88819428D01*
X106965750Y-88822500D01*
X106807000Y-88981250D01*
X106553000Y-88981250D01*
X106394250Y-88822500D01*
X105905000Y-88819428D01*
X105780518Y-88831688D01*
X105660820Y-88867998D01*
X105550506Y-88926963D01*
X105453815Y-89006315D01*
X105374463Y-89103006D01*
X105346405Y-89155498D01*
X105231252Y-89155498D01*
X105390000Y-88996750D01*
X105393072Y-88457500D01*
X105380812Y-88333018D01*
X105344502Y-88213320D01*
X105285537Y-88103006D01*
X105206185Y-88006315D01*
X105109494Y-87926963D01*
X104999180Y-87867998D01*
X104879482Y-87831688D01*
X104755000Y-87819428D01*
X104390750Y-87822500D01*
X104232000Y-87981250D01*
X104232000Y-89155500D01*
X104252000Y-89155500D01*
X104252000Y-89409500D01*
X104232000Y-89409500D01*
X104232000Y-91380500D01*
X104252000Y-91380500D01*
X104252000Y-91634500D01*
X104232000Y-91634500D01*
X104232000Y-92883750D01*
X104390750Y-93042500D01*
X105055000Y-93045572D01*
X105179482Y-93033312D01*
X105299180Y-92997002D01*
X105409494Y-92938037D01*
X105439937Y-92913053D01*
X105446777Y-92982500D01*
X105436928Y-93082500D01*
X105436928Y-93199477D01*
X105409494Y-93176963D01*
X105299180Y-93117998D01*
X105179482Y-93081688D01*
X105055000Y-93069428D01*
X104390750Y-93072500D01*
X104232000Y-93231250D01*
X104232000Y-94080500D01*
X104252000Y-94080500D01*
X104252000Y-94334500D01*
X104232000Y-94334500D01*
X104232000Y-95905500D01*
X104252000Y-95905500D01*
X104252000Y-96159500D01*
X104232000Y-96159500D01*
X104232000Y-97333750D01*
X104390750Y-97492500D01*
X104755000Y-97495572D01*
X104879482Y-97483312D01*
X104999180Y-97447002D01*
X105109494Y-97388037D01*
X105206185Y-97308685D01*
X105285537Y-97211994D01*
X105344502Y-97101680D01*
X105380812Y-96981982D01*
X105393072Y-96857500D01*
X105390000Y-96318250D01*
X105231252Y-96159502D01*
X105346405Y-96159502D01*
X105374463Y-96211994D01*
X105453815Y-96308685D01*
X105550506Y-96388037D01*
X105660820Y-96447002D01*
X105780518Y-96483312D01*
X105905000Y-96495572D01*
X106394250Y-96492500D01*
X106553000Y-96333750D01*
X106553000Y-95272000D01*
X106807000Y-95272000D01*
X106807000Y-96333750D01*
X106965750Y-96492500D01*
X107455000Y-96495572D01*
X107579482Y-96483312D01*
X107699180Y-96447002D01*
X107809494Y-96388037D01*
X107906185Y-96308685D01*
X107985537Y-96211994D01*
X108044502Y-96101680D01*
X108080812Y-95981982D01*
X108093072Y-95857500D01*
X108090000Y-95430750D01*
X107931250Y-95272000D01*
X106807000Y-95272000D01*
X106553000Y-95272000D01*
X106533000Y-95272000D01*
X106533000Y-95018000D01*
X106553000Y-95018000D01*
X106553000Y-94998000D01*
X106807000Y-94998000D01*
X106807000Y-95018000D01*
X107931250Y-95018000D01*
X108090000Y-94859250D01*
X108093072Y-94432500D01*
X108080812Y-94308018D01*
X108080022Y-94305414D01*
X108090000Y-94214250D01*
X108022032Y-94146282D01*
X107985537Y-94078006D01*
X107907158Y-93982500D01*
X107985537Y-93886994D01*
X108044502Y-93776680D01*
X108057753Y-93732997D01*
X108090000Y-93700750D01*
X108082895Y-93635834D01*
X108093072Y-93532500D01*
X108093072Y-93392500D01*
X110403054Y-93392500D01*
X110791928Y-93781374D01*
X110791928Y-94430001D01*
X110808992Y-94603255D01*
X110859528Y-94769851D01*
X110941595Y-94923387D01*
X111052038Y-95057962D01*
X111186613Y-95168405D01*
X111295000Y-95226340D01*
X111295001Y-95235298D01*
X111161614Y-95306595D01*
X111027038Y-95417038D01*
X110916595Y-95551614D01*
X110834528Y-95705150D01*
X110783992Y-95871746D01*
X110766928Y-96045000D01*
X110766928Y-96995000D01*
X110783992Y-97168254D01*
X110834528Y-97334850D01*
X110916595Y-97488386D01*
X111027038Y-97622962D01*
X111161614Y-97733405D01*
X111315150Y-97815472D01*
X111481746Y-97866008D01*
X111655000Y-97883072D01*
X112330000Y-97883072D01*
X112503254Y-97866008D01*
X112669850Y-97815472D01*
X112823386Y-97733405D01*
X112957962Y-97622962D01*
X112963342Y-97616406D01*
X113028815Y-97696185D01*
X113125506Y-97775537D01*
X113235820Y-97834502D01*
X113355518Y-97870812D01*
X113480000Y-97883072D01*
X113781750Y-97880000D01*
X113940500Y-97721250D01*
X113940500Y-96647000D01*
X114194500Y-96647000D01*
X114194500Y-97721250D01*
X114353250Y-97880000D01*
X114655000Y-97883072D01*
X114779482Y-97870812D01*
X114899180Y-97834502D01*
X115009494Y-97775537D01*
X115106185Y-97696185D01*
X115185537Y-97599494D01*
X115244502Y-97489180D01*
X115280812Y-97369482D01*
X115293072Y-97245000D01*
X115846928Y-97245000D01*
X115859188Y-97369482D01*
X115895498Y-97489180D01*
X115954463Y-97599494D01*
X116033815Y-97696185D01*
X116130506Y-97775537D01*
X116157564Y-97790000D01*
X116130506Y-97804463D01*
X116033815Y-97883815D01*
X115954463Y-97980506D01*
X115895498Y-98090820D01*
X115859188Y-98210518D01*
X115846928Y-98335000D01*
X115850000Y-98774250D01*
X116008750Y-98933000D01*
X116945500Y-98933000D01*
X116945500Y-97858750D01*
X116876750Y-97790000D01*
X116945500Y-97721250D01*
X116945500Y-96647000D01*
X116008750Y-96647000D01*
X115850000Y-96805750D01*
X115846928Y-97245000D01*
X115293072Y-97245000D01*
X115290000Y-96805750D01*
X115131250Y-96647000D01*
X114194500Y-96647000D01*
X113940500Y-96647000D01*
X113920500Y-96647000D01*
X113920500Y-96393000D01*
X113940500Y-96393000D01*
X113940500Y-96373000D01*
X114194500Y-96373000D01*
X114194500Y-96393000D01*
X115131250Y-96393000D01*
X115290000Y-96234250D01*
X115293072Y-95795000D01*
X115846928Y-95795000D01*
X115850000Y-96234250D01*
X116008750Y-96393000D01*
X116945500Y-96393000D01*
X116945500Y-95318750D01*
X116786750Y-95160000D01*
X116485000Y-95156928D01*
X116360518Y-95169188D01*
X116240820Y-95205498D01*
X116130506Y-95264463D01*
X116033815Y-95343815D01*
X115954463Y-95440506D01*
X115895498Y-95550820D01*
X115859188Y-95670518D01*
X115846928Y-95795000D01*
X115293072Y-95795000D01*
X115280812Y-95670518D01*
X115244502Y-95550820D01*
X115185537Y-95440506D01*
X115106185Y-95343815D01*
X115009494Y-95264463D01*
X114899180Y-95205498D01*
X114838454Y-95187077D01*
X114873387Y-95168405D01*
X115007962Y-95057962D01*
X115118405Y-94923387D01*
X115200472Y-94769851D01*
X115251008Y-94603255D01*
X115268072Y-94430001D01*
X115268072Y-94122085D01*
X117367817Y-92022341D01*
X117397764Y-91997764D01*
X117428288Y-91960572D01*
X117447637Y-91936994D01*
X117495862Y-91878233D01*
X117568754Y-91741860D01*
X117609512Y-91607500D01*
X117613641Y-91593888D01*
X117616906Y-91560733D01*
X117625000Y-91478561D01*
X117625000Y-91478554D01*
X117628797Y-91440001D01*
X117625000Y-91401448D01*
X117625000Y-91030583D01*
X117643428Y-91042896D01*
X117822686Y-91117147D01*
X118012986Y-91155000D01*
X118207014Y-91155000D01*
X118397314Y-91117147D01*
X118576572Y-91042896D01*
X118737901Y-90935099D01*
X118745000Y-90928000D01*
X118752099Y-90935099D01*
X118913428Y-91042896D01*
X119092686Y-91117147D01*
X119282986Y-91155000D01*
X119477014Y-91155000D01*
X119667314Y-91117147D01*
X119846572Y-91042896D01*
X120007901Y-90935099D01*
X120145099Y-90797901D01*
X120252896Y-90636572D01*
X120327147Y-90457314D01*
X120365000Y-90267014D01*
X120365000Y-90072986D01*
X120327147Y-89882686D01*
X120252896Y-89703428D01*
X120165000Y-89571883D01*
X120165000Y-88938556D01*
X120168797Y-88900000D01*
X120165000Y-88861440D01*
X120165000Y-88861439D01*
X120158792Y-88798412D01*
X120153642Y-88746113D01*
X120147946Y-88727335D01*
X120199041Y-88717172D01*
X120378299Y-88642921D01*
X120421103Y-88614320D01*
X120920650Y-89113868D01*
X120905506Y-89121963D01*
X120808815Y-89201315D01*
X120729463Y-89298006D01*
X120670498Y-89408320D01*
X120634188Y-89528018D01*
X120621928Y-89652500D01*
X120621928Y-90052500D01*
X120633500Y-90170000D01*
X120621928Y-90287500D01*
X120621928Y-90687500D01*
X120633500Y-90805000D01*
X120621928Y-90922500D01*
X120621928Y-91322500D01*
X120633500Y-91439999D01*
X120621928Y-91557500D01*
X120621928Y-91687110D01*
X120529267Y-91736638D01*
X120484126Y-91773685D01*
X120439687Y-91810155D01*
X120439684Y-91810158D01*
X120409736Y-91834736D01*
X120385158Y-91864684D01*
X119247855Y-93001988D01*
X119092686Y-93032853D01*
X118913428Y-93107104D01*
X118752099Y-93214901D01*
X118614901Y-93352099D01*
X118507104Y-93513428D01*
X118432853Y-93692686D01*
X118395000Y-93882986D01*
X118395000Y-93988921D01*
X118373859Y-94058614D01*
X118358703Y-94212500D01*
X118362501Y-94251061D01*
X118362501Y-95282068D01*
X118316614Y-95306595D01*
X118182038Y-95417038D01*
X118176658Y-95423594D01*
X118111185Y-95343815D01*
X118014494Y-95264463D01*
X117904180Y-95205498D01*
X117784482Y-95169188D01*
X117660000Y-95156928D01*
X117358250Y-95160000D01*
X117199500Y-95318750D01*
X117199500Y-96393000D01*
X117219500Y-96393000D01*
X117219500Y-96647000D01*
X117199500Y-96647000D01*
X117199500Y-97721250D01*
X117268250Y-97790000D01*
X117199500Y-97858750D01*
X117199500Y-98933000D01*
X117219500Y-98933000D01*
X117219500Y-99187000D01*
X117199500Y-99187000D01*
X117199500Y-100261250D01*
X117358250Y-100420000D01*
X117660000Y-100423072D01*
X117784482Y-100410812D01*
X117904180Y-100374502D01*
X118014494Y-100315537D01*
X118111185Y-100236185D01*
X118176658Y-100156406D01*
X118182038Y-100162962D01*
X118316614Y-100273405D01*
X118470150Y-100355472D01*
X118636746Y-100406008D01*
X118810000Y-100423072D01*
X119485000Y-100423072D01*
X119658254Y-100406008D01*
X119824850Y-100355472D01*
X119978386Y-100273405D01*
X120112962Y-100162962D01*
X120223405Y-100028386D01*
X120305472Y-99874850D01*
X120356008Y-99708254D01*
X120373072Y-99535000D01*
X120373072Y-98585000D01*
X120356008Y-98411746D01*
X120305472Y-98245150D01*
X120223405Y-98091614D01*
X120112962Y-97957038D01*
X119978386Y-97846595D01*
X119932500Y-97822068D01*
X119932500Y-97757932D01*
X119978386Y-97733405D01*
X120112962Y-97622962D01*
X120223405Y-97488386D01*
X120305472Y-97334850D01*
X120356008Y-97168254D01*
X120373072Y-96995000D01*
X120373072Y-96045000D01*
X120356008Y-95871746D01*
X120305472Y-95705150D01*
X120223405Y-95551614D01*
X120112962Y-95417038D01*
X119978386Y-95306595D01*
X119932500Y-95282068D01*
X119932500Y-94795481D01*
X120007901Y-94745099D01*
X120145099Y-94607901D01*
X120252896Y-94446572D01*
X120327147Y-94267314D01*
X120358012Y-94112145D01*
X120621928Y-93848229D01*
X120621928Y-93862500D01*
X120633500Y-93979999D01*
X120621928Y-94097500D01*
X120621928Y-94497500D01*
X120633500Y-94615000D01*
X120621928Y-94732500D01*
X120621928Y-95132500D01*
X120633500Y-95249999D01*
X120621928Y-95367500D01*
X120621928Y-95767500D01*
X120634188Y-95891982D01*
X120670498Y-96011680D01*
X120729463Y-96121994D01*
X120808815Y-96218685D01*
X120905506Y-96298037D01*
X121015820Y-96357002D01*
X121135518Y-96393312D01*
X121260000Y-96405572D01*
X121587915Y-96405572D01*
X123500153Y-98317810D01*
X123524736Y-98347764D01*
X123644267Y-98445862D01*
X123749737Y-98502236D01*
X123780640Y-98518754D01*
X123928613Y-98563642D01*
X124003526Y-98571020D01*
X124043939Y-98575000D01*
X124043944Y-98575000D01*
X124082500Y-98578797D01*
X124121056Y-98575000D01*
X135291883Y-98575000D01*
X135423428Y-98662896D01*
X135602686Y-98737147D01*
X135757855Y-98768012D01*
X136507654Y-99517811D01*
X136532237Y-99547765D01*
X136651768Y-99645863D01*
X136768495Y-99708254D01*
X136788141Y-99718755D01*
X136936114Y-99763643D01*
X137011027Y-99771021D01*
X137051440Y-99775001D01*
X137051445Y-99775001D01*
X137090001Y-99778798D01*
X137128557Y-99775001D01*
X140574844Y-99775001D01*
X141657653Y-100857810D01*
X141682236Y-100887764D01*
X141801767Y-100985862D01*
X141938140Y-101058754D01*
X142086113Y-101103642D01*
X142161026Y-101111020D01*
X142201439Y-101115000D01*
X142201444Y-101115000D01*
X142240000Y-101118797D01*
X142278556Y-101115000D01*
X144741447Y-101115000D01*
X144780000Y-101118797D01*
X144818553Y-101115000D01*
X144818561Y-101115000D01*
X144933887Y-101103641D01*
X145081860Y-101058754D01*
X145218233Y-100985862D01*
X145337764Y-100887764D01*
X145362347Y-100857810D01*
X146577817Y-99642341D01*
X146607764Y-99617764D01*
X146660000Y-99554115D01*
X146660000Y-102210000D01*
X102260000Y-102210000D01*
X102260000Y-99785000D01*
X115846928Y-99785000D01*
X115859188Y-99909482D01*
X115895498Y-100029180D01*
X115954463Y-100139494D01*
X116033815Y-100236185D01*
X116130506Y-100315537D01*
X116240820Y-100374502D01*
X116360518Y-100410812D01*
X116485000Y-100423072D01*
X116786750Y-100420000D01*
X116945500Y-100261250D01*
X116945500Y-99187000D01*
X116008750Y-99187000D01*
X115850000Y-99345750D01*
X115846928Y-99785000D01*
X102260000Y-99785000D01*
X102260000Y-96857500D01*
X102816928Y-96857500D01*
X102829188Y-96981982D01*
X102865498Y-97101680D01*
X102924463Y-97211994D01*
X103003815Y-97308685D01*
X103100506Y-97388037D01*
X103210820Y-97447002D01*
X103330518Y-97483312D01*
X103455000Y-97495572D01*
X103819250Y-97492500D01*
X103978000Y-97333750D01*
X103978000Y-96159500D01*
X102978750Y-96159500D01*
X102820000Y-96318250D01*
X102816928Y-96857500D01*
X102260000Y-96857500D01*
X102260000Y-94707500D01*
X102516928Y-94707500D01*
X102529188Y-94831982D01*
X102565498Y-94951680D01*
X102624463Y-95061994D01*
X102703815Y-95158685D01*
X102800506Y-95238037D01*
X102817153Y-95246935D01*
X102820000Y-95746750D01*
X102978750Y-95905500D01*
X103978000Y-95905500D01*
X103978000Y-94334500D01*
X102678750Y-94334500D01*
X102520000Y-94493250D01*
X102516928Y-94707500D01*
X102260000Y-94707500D01*
X102260000Y-93707500D01*
X102516928Y-93707500D01*
X102520000Y-93921750D01*
X102678750Y-94080500D01*
X103978000Y-94080500D01*
X103978000Y-93231250D01*
X103819250Y-93072500D01*
X103155000Y-93069428D01*
X103030518Y-93081688D01*
X102910820Y-93117998D01*
X102800506Y-93176963D01*
X102703815Y-93256315D01*
X102624463Y-93353006D01*
X102565498Y-93463320D01*
X102529188Y-93583018D01*
X102516928Y-93707500D01*
X102260000Y-93707500D01*
X102260000Y-92407500D01*
X102516928Y-92407500D01*
X102529188Y-92531982D01*
X102565498Y-92651680D01*
X102624463Y-92761994D01*
X102703815Y-92858685D01*
X102800506Y-92938037D01*
X102910820Y-92997002D01*
X103030518Y-93033312D01*
X103155000Y-93045572D01*
X103819250Y-93042500D01*
X103978000Y-92883750D01*
X103978000Y-91634500D01*
X102678750Y-91634500D01*
X102520000Y-91793250D01*
X102516928Y-92407500D01*
X102260000Y-92407500D01*
X102260000Y-90607500D01*
X102516928Y-90607500D01*
X102520000Y-91221750D01*
X102678750Y-91380500D01*
X103978000Y-91380500D01*
X103978000Y-89409500D01*
X102978750Y-89409500D01*
X102820000Y-89568250D01*
X102817153Y-90068065D01*
X102800506Y-90076963D01*
X102703815Y-90156315D01*
X102624463Y-90253006D01*
X102565498Y-90363320D01*
X102529188Y-90483018D01*
X102516928Y-90607500D01*
X102260000Y-90607500D01*
X102260000Y-88457500D01*
X102816928Y-88457500D01*
X102820000Y-88996750D01*
X102978750Y-89155500D01*
X103978000Y-89155500D01*
X103978000Y-87981250D01*
X103819250Y-87822500D01*
X103455000Y-87819428D01*
X103330518Y-87831688D01*
X103210820Y-87867998D01*
X103100506Y-87926963D01*
X103003815Y-88006315D01*
X102924463Y-88103006D01*
X102865498Y-88213320D01*
X102829188Y-88333018D01*
X102816928Y-88457500D01*
X102260000Y-88457500D01*
X102260000Y-74320000D01*
X146660001Y-74320000D01*
X146660000Y-94755885D01*
G04 #@! TA.AperFunction,Conductor*
D25*
G36*
X146660000Y-94755885D02*
G01*
X146643460Y-94735731D01*
X146632345Y-94722187D01*
X146632342Y-94722184D01*
X146607764Y-94692236D01*
X146577816Y-94667658D01*
X144998072Y-93087915D01*
X144998072Y-91860000D01*
X144985812Y-91735518D01*
X144949502Y-91615820D01*
X144890537Y-91505506D01*
X144811185Y-91408815D01*
X144714494Y-91329463D01*
X144604180Y-91270498D01*
X144484482Y-91234188D01*
X144360000Y-91221928D01*
X142660000Y-91221928D01*
X142535518Y-91234188D01*
X142415820Y-91270498D01*
X142305506Y-91329463D01*
X142208815Y-91408815D01*
X142129463Y-91505506D01*
X142070498Y-91615820D01*
X142034188Y-91735518D01*
X142021928Y-91860000D01*
X142021928Y-93560000D01*
X142034188Y-93684482D01*
X142070498Y-93804180D01*
X142129463Y-93914494D01*
X142208815Y-94011185D01*
X142305506Y-94090537D01*
X142415820Y-94149502D01*
X142488380Y-94171513D01*
X142356525Y-94303368D01*
X142248526Y-94465000D01*
X141295158Y-94465000D01*
X140282345Y-93452188D01*
X140257764Y-93422236D01*
X140138233Y-93324138D01*
X140001860Y-93251246D01*
X139853887Y-93206359D01*
X139738561Y-93195000D01*
X139738553Y-93195000D01*
X139700000Y-93191203D01*
X139661447Y-93195000D01*
X138714446Y-93195000D01*
X139501375Y-92408072D01*
X140150001Y-92408072D01*
X140323255Y-92391008D01*
X140489851Y-92340472D01*
X140643387Y-92258405D01*
X140777962Y-92147962D01*
X140888405Y-92013387D01*
X140970472Y-91859851D01*
X141021008Y-91693255D01*
X141038072Y-91520001D01*
X141038072Y-90819999D01*
X141021008Y-90646745D01*
X140970472Y-90480149D01*
X140888405Y-90326613D01*
X140777962Y-90192038D01*
X140751109Y-90170000D01*
X140777962Y-90147962D01*
X140888405Y-90013387D01*
X140970472Y-89859851D01*
X141021008Y-89693255D01*
X141038072Y-89520001D01*
X141038072Y-88819999D01*
X141021008Y-88646745D01*
X140970472Y-88480149D01*
X140888405Y-88326613D01*
X140777962Y-88192038D01*
X140643387Y-88081595D01*
X140489851Y-87999528D01*
X140435000Y-87982889D01*
X140435000Y-87032111D01*
X140489851Y-87015472D01*
X140643387Y-86933405D01*
X140777962Y-86822962D01*
X140888405Y-86688387D01*
X140970472Y-86534851D01*
X141021008Y-86368255D01*
X141038072Y-86195001D01*
X141038072Y-85544999D01*
X141021008Y-85371745D01*
X140970472Y-85205149D01*
X140888405Y-85051613D01*
X140777962Y-84917038D01*
X140690184Y-84845000D01*
X140777962Y-84772962D01*
X140888405Y-84638387D01*
X140970472Y-84484851D01*
X141021008Y-84318255D01*
X141038072Y-84145001D01*
X141038072Y-83494999D01*
X141021008Y-83321745D01*
X140970472Y-83155149D01*
X140888405Y-83001613D01*
X140777962Y-82867038D01*
X140643387Y-82756595D01*
X140489851Y-82674528D01*
X140323255Y-82623992D01*
X140150001Y-82606928D01*
X139249999Y-82606928D01*
X139076745Y-82623992D01*
X138910149Y-82674528D01*
X138756613Y-82756595D01*
X138622038Y-82867038D01*
X138511595Y-83001613D01*
X138467024Y-83085000D01*
X137122976Y-83085000D01*
X137078405Y-83001613D01*
X136967962Y-82867038D01*
X136833387Y-82756595D01*
X136679851Y-82674528D01*
X136513255Y-82623992D01*
X136340001Y-82606928D01*
X135439999Y-82606928D01*
X135266745Y-82623992D01*
X135100149Y-82674528D01*
X134946613Y-82756595D01*
X134812038Y-82867038D01*
X134701595Y-83001613D01*
X134619528Y-83155149D01*
X134568992Y-83321745D01*
X134551928Y-83494999D01*
X134551928Y-84118625D01*
X133479525Y-85191029D01*
X133460537Y-85155506D01*
X133381185Y-85058815D01*
X133284494Y-84979463D01*
X133174180Y-84920498D01*
X133054482Y-84884188D01*
X132930000Y-84871928D01*
X131702085Y-84871928D01*
X131392345Y-84562188D01*
X131367764Y-84532236D01*
X131248233Y-84434138D01*
X131111860Y-84361246D01*
X130963887Y-84316359D01*
X130848561Y-84305000D01*
X130848553Y-84305000D01*
X130810000Y-84301203D01*
X130771447Y-84305000D01*
X129507932Y-84305000D01*
X129483405Y-84259114D01*
X129372962Y-84124538D01*
X129366406Y-84119158D01*
X129446185Y-84053685D01*
X129525537Y-83956994D01*
X129584502Y-83846680D01*
X129620812Y-83726982D01*
X129633072Y-83602500D01*
X129630000Y-83300750D01*
X129471250Y-83142000D01*
X128397000Y-83142000D01*
X128397000Y-83162000D01*
X128143000Y-83162000D01*
X128143000Y-83142000D01*
X127068750Y-83142000D01*
X126910000Y-83300750D01*
X126906928Y-83602500D01*
X126919188Y-83726982D01*
X126955498Y-83846680D01*
X127014463Y-83956994D01*
X127093815Y-84053685D01*
X127173594Y-84119158D01*
X127167038Y-84124538D01*
X127056595Y-84259114D01*
X126981156Y-84400250D01*
X124955777Y-84400250D01*
X124924538Y-84341806D01*
X124845186Y-84245115D01*
X124748495Y-84165763D01*
X124638181Y-84106798D01*
X124518483Y-84070488D01*
X124431898Y-84061960D01*
X124667817Y-83826042D01*
X124697765Y-83801464D01*
X124722347Y-83771512D01*
X124746451Y-83742141D01*
X124795863Y-83681933D01*
X124868755Y-83545560D01*
X124906858Y-83419950D01*
X124913642Y-83397588D01*
X124921112Y-83321745D01*
X124923281Y-83299726D01*
X124924538Y-83298194D01*
X124983503Y-83187880D01*
X125019813Y-83068182D01*
X125032073Y-82943700D01*
X125032073Y-82427500D01*
X126906928Y-82427500D01*
X126910000Y-82729250D01*
X127068750Y-82888000D01*
X128143000Y-82888000D01*
X128143000Y-81951250D01*
X128397000Y-81951250D01*
X128397000Y-82888000D01*
X129471250Y-82888000D01*
X129630000Y-82729250D01*
X129633072Y-82427500D01*
X129620812Y-82303018D01*
X129584502Y-82183320D01*
X129525537Y-82073006D01*
X129446185Y-81976315D01*
X129349494Y-81896963D01*
X129239180Y-81837998D01*
X129119482Y-81801688D01*
X128995000Y-81789428D01*
X128555750Y-81792500D01*
X128397000Y-81951250D01*
X128143000Y-81951250D01*
X127984250Y-81792500D01*
X127545000Y-81789428D01*
X127420518Y-81801688D01*
X127300820Y-81837998D01*
X127190506Y-81896963D01*
X127093815Y-81976315D01*
X127014463Y-82073006D01*
X126955498Y-82183320D01*
X126919188Y-82303018D01*
X126906928Y-82427500D01*
X125032073Y-82427500D01*
X125032073Y-81965800D01*
X125019813Y-81841318D01*
X124983503Y-81721620D01*
X124924538Y-81611306D01*
X124845186Y-81514615D01*
X124748495Y-81435263D01*
X124638181Y-81376298D01*
X124518483Y-81339988D01*
X124394001Y-81327728D01*
X123886001Y-81327728D01*
X123761519Y-81339988D01*
X123663943Y-81369587D01*
X123580774Y-81342560D01*
X123475750Y-81330800D01*
X123317000Y-81489550D01*
X123317000Y-81683266D01*
X123296499Y-81721620D01*
X123260189Y-81841318D01*
X123247929Y-81965800D01*
X123247929Y-82601750D01*
X123132071Y-82601750D01*
X123132071Y-81965800D01*
X123119811Y-81841318D01*
X123083501Y-81721620D01*
X123063000Y-81683266D01*
X123063000Y-81489550D01*
X122904250Y-81330800D01*
X122799226Y-81342560D01*
X122716057Y-81369587D01*
X122618481Y-81339988D01*
X122493999Y-81327728D01*
X121985999Y-81327728D01*
X121861517Y-81339988D01*
X121741819Y-81376298D01*
X121631505Y-81435263D01*
X121534814Y-81514615D01*
X121455462Y-81611306D01*
X121396497Y-81721620D01*
X121360187Y-81841318D01*
X121347927Y-81965800D01*
X121347927Y-82236664D01*
X119279592Y-84305000D01*
X116127658Y-84305000D01*
X115733783Y-83911125D01*
X115925000Y-83913072D01*
X116049482Y-83900812D01*
X116169180Y-83864502D01*
X116279494Y-83805537D01*
X116376185Y-83726185D01*
X116455537Y-83629494D01*
X116514502Y-83519180D01*
X116550812Y-83399482D01*
X116563072Y-83275000D01*
X116560000Y-82835750D01*
X116401250Y-82677000D01*
X115464500Y-82677000D01*
X115464500Y-82697000D01*
X115210500Y-82697000D01*
X115210500Y-82677000D01*
X115190500Y-82677000D01*
X115190500Y-82423000D01*
X115210500Y-82423000D01*
X115210500Y-81348750D01*
X115464500Y-81348750D01*
X115464500Y-82423000D01*
X116401250Y-82423000D01*
X116560000Y-82264250D01*
X116563072Y-81825000D01*
X116550812Y-81700518D01*
X116514502Y-81580820D01*
X116455537Y-81470506D01*
X116376185Y-81373815D01*
X116279494Y-81294463D01*
X116169180Y-81235498D01*
X116049482Y-81199188D01*
X115925000Y-81186928D01*
X115623250Y-81190000D01*
X115464500Y-81348750D01*
X115210500Y-81348750D01*
X115051750Y-81190000D01*
X114750000Y-81186928D01*
X114625518Y-81199188D01*
X114505820Y-81235498D01*
X114395506Y-81294463D01*
X114298815Y-81373815D01*
X114233342Y-81453594D01*
X114227962Y-81447038D01*
X114093386Y-81336595D01*
X114022500Y-81298706D01*
X114022500Y-79991294D01*
X114093386Y-79953405D01*
X114227962Y-79842962D01*
X114233342Y-79836406D01*
X114298815Y-79916185D01*
X114395506Y-79995537D01*
X114505820Y-80054502D01*
X114625518Y-80090812D01*
X114750000Y-80103072D01*
X115051750Y-80100000D01*
X115210500Y-79941250D01*
X115210500Y-78867000D01*
X115464500Y-78867000D01*
X115464500Y-79941250D01*
X115623250Y-80100000D01*
X115925000Y-80103072D01*
X116049482Y-80090812D01*
X116169180Y-80054502D01*
X116279494Y-79995537D01*
X116376185Y-79916185D01*
X116455537Y-79819494D01*
X116514502Y-79709180D01*
X116550812Y-79589482D01*
X116563072Y-79465000D01*
X116560000Y-79025750D01*
X116401250Y-78867000D01*
X115464500Y-78867000D01*
X115210500Y-78867000D01*
X115190500Y-78867000D01*
X115190500Y-78613000D01*
X115210500Y-78613000D01*
X115210500Y-77538750D01*
X115464500Y-77538750D01*
X115464500Y-78613000D01*
X116401250Y-78613000D01*
X116560000Y-78454250D01*
X116563072Y-78015000D01*
X116550812Y-77890518D01*
X116514502Y-77770820D01*
X116455537Y-77660506D01*
X116376185Y-77563815D01*
X116279494Y-77484463D01*
X116169180Y-77425498D01*
X116049482Y-77389188D01*
X115925000Y-77376928D01*
X115623250Y-77380000D01*
X115464500Y-77538750D01*
X115210500Y-77538750D01*
X115051750Y-77380000D01*
X114750000Y-77376928D01*
X114625518Y-77389188D01*
X114505820Y-77425498D01*
X114395506Y-77484463D01*
X114298815Y-77563815D01*
X114233342Y-77643594D01*
X114227962Y-77637038D01*
X114093386Y-77526595D01*
X113939850Y-77444528D01*
X113773254Y-77393992D01*
X113600000Y-77376928D01*
X112925000Y-77376928D01*
X112751746Y-77393992D01*
X112585150Y-77444528D01*
X112431614Y-77526595D01*
X112297038Y-77637038D01*
X112186595Y-77771614D01*
X112104528Y-77925150D01*
X112053992Y-78091746D01*
X112036928Y-78265000D01*
X112036928Y-79215000D01*
X112053992Y-79388254D01*
X112104528Y-79554850D01*
X112186595Y-79708386D01*
X112297038Y-79842962D01*
X112431614Y-79953405D01*
X112502500Y-79991295D01*
X112502501Y-81298705D01*
X112431614Y-81336595D01*
X112297038Y-81447038D01*
X112186595Y-81581614D01*
X112104528Y-81735150D01*
X112095473Y-81765000D01*
X110661877Y-81765000D01*
X110489987Y-81507748D01*
X110262252Y-81280013D01*
X109994463Y-81101082D01*
X109696912Y-80977832D01*
X109381033Y-80915000D01*
X109058967Y-80915000D01*
X108743088Y-80977832D01*
X108445537Y-81101082D01*
X108177748Y-81280013D01*
X107950013Y-81507748D01*
X107771082Y-81775537D01*
X107647832Y-82073088D01*
X107585000Y-82388967D01*
X107585000Y-82711033D01*
X107647832Y-83026912D01*
X107771082Y-83324463D01*
X107950013Y-83592252D01*
X108177748Y-83819987D01*
X108445537Y-83998918D01*
X108743088Y-84122168D01*
X109058967Y-84185000D01*
X109381033Y-84185000D01*
X109696912Y-84122168D01*
X109994463Y-83998918D01*
X110262252Y-83819987D01*
X110489987Y-83592252D01*
X110661877Y-83335000D01*
X112095473Y-83335000D01*
X112104528Y-83364850D01*
X112186595Y-83518386D01*
X112297038Y-83652962D01*
X112431614Y-83763405D01*
X112477501Y-83787932D01*
X112477501Y-84013938D01*
X112473703Y-84052500D01*
X112488859Y-84206386D01*
X112533746Y-84354359D01*
X112558275Y-84400250D01*
X112606639Y-84490733D01*
X112647190Y-84540144D01*
X112680155Y-84580312D01*
X112680159Y-84580316D01*
X112704737Y-84610264D01*
X112734685Y-84634842D01*
X113717653Y-85617810D01*
X113742236Y-85647764D01*
X113861767Y-85745862D01*
X113967237Y-85802236D01*
X113998140Y-85818754D01*
X114146113Y-85863642D01*
X114221026Y-85871020D01*
X114261439Y-85875000D01*
X114261444Y-85875000D01*
X114300000Y-85878797D01*
X114338556Y-85875000D01*
X115244843Y-85875000D01*
X116153113Y-86783270D01*
X116144617Y-86791765D01*
X116036820Y-86953094D01*
X115962569Y-87132352D01*
X115960592Y-87142294D01*
X115950650Y-87144271D01*
X115771392Y-87218522D01*
X115610063Y-87326319D01*
X115472865Y-87463517D01*
X115365068Y-87624846D01*
X115290817Y-87804104D01*
X115272158Y-87897908D01*
X115131250Y-87757000D01*
X114194500Y-87757000D01*
X114194500Y-87777000D01*
X113940500Y-87777000D01*
X113940500Y-87757000D01*
X113920500Y-87757000D01*
X113920500Y-87503000D01*
X113940500Y-87503000D01*
X113940500Y-86428750D01*
X114194500Y-86428750D01*
X114194500Y-87503000D01*
X115131250Y-87503000D01*
X115290000Y-87344250D01*
X115293072Y-86905000D01*
X115280812Y-86780518D01*
X115244502Y-86660820D01*
X115185537Y-86550506D01*
X115106185Y-86453815D01*
X115009494Y-86374463D01*
X114899180Y-86315498D01*
X114779482Y-86279188D01*
X114655000Y-86266928D01*
X114353250Y-86270000D01*
X114194500Y-86428750D01*
X113940500Y-86428750D01*
X113781750Y-86270000D01*
X113480000Y-86266928D01*
X113355518Y-86279188D01*
X113235820Y-86315498D01*
X113125506Y-86374463D01*
X113028815Y-86453815D01*
X112963342Y-86533594D01*
X112957962Y-86527038D01*
X112823386Y-86416595D01*
X112669850Y-86334528D01*
X112503254Y-86283992D01*
X112330000Y-86266928D01*
X111655000Y-86266928D01*
X111481746Y-86283992D01*
X111315150Y-86334528D01*
X111161614Y-86416595D01*
X111027038Y-86527038D01*
X110916595Y-86661614D01*
X110834528Y-86815150D01*
X110783992Y-86981746D01*
X110766928Y-87155000D01*
X110766928Y-88105000D01*
X110783992Y-88278254D01*
X110834528Y-88444850D01*
X110916595Y-88598386D01*
X111027038Y-88732962D01*
X111161614Y-88843405D01*
X111295001Y-88914702D01*
X111295000Y-88923660D01*
X111186613Y-88981595D01*
X111052038Y-89092038D01*
X110941595Y-89226613D01*
X110859528Y-89380149D01*
X110808992Y-89546745D01*
X110791928Y-89719999D01*
X110791928Y-90368625D01*
X109888054Y-91272500D01*
X109227657Y-91272500D01*
X109747811Y-90752346D01*
X109777764Y-90727764D01*
X109875862Y-90608233D01*
X109948754Y-90471860D01*
X109951747Y-90461994D01*
X109993642Y-90323887D01*
X110002693Y-90231982D01*
X110005000Y-90208561D01*
X110005000Y-90208556D01*
X110008797Y-90170000D01*
X110005000Y-90131444D01*
X110005000Y-87668552D01*
X110008797Y-87629999D01*
X110005000Y-87591446D01*
X110005000Y-87591439D01*
X109993641Y-87476113D01*
X109948754Y-87328140D01*
X109875862Y-87191767D01*
X109777764Y-87072236D01*
X109747815Y-87047658D01*
X108532347Y-85832190D01*
X108507764Y-85802236D01*
X108388233Y-85704138D01*
X108251860Y-85631246D01*
X108103887Y-85586359D01*
X107988561Y-85575000D01*
X107988553Y-85575000D01*
X107950000Y-85571203D01*
X107911447Y-85575000D01*
X105735158Y-85575000D01*
X104925000Y-84764843D01*
X104925000Y-83991877D01*
X105182252Y-83819987D01*
X105409987Y-83592252D01*
X105588918Y-83324463D01*
X105712168Y-83026912D01*
X105775000Y-82711033D01*
X105775000Y-82388967D01*
X105712168Y-82073088D01*
X105588918Y-81775537D01*
X105409987Y-81507748D01*
X105182252Y-81280013D01*
X104914463Y-81101082D01*
X104616912Y-80977832D01*
X104301033Y-80915000D01*
X103978967Y-80915000D01*
X103663088Y-80977832D01*
X103365537Y-81101082D01*
X103097748Y-81280013D01*
X102870013Y-81507748D01*
X102691082Y-81775537D01*
X102567832Y-82073088D01*
X102505000Y-82388967D01*
X102505000Y-82711033D01*
X102567832Y-83026912D01*
X102691082Y-83324463D01*
X102870013Y-83592252D01*
X103097748Y-83819987D01*
X103355000Y-83991878D01*
X103355000Y-85051447D01*
X103351203Y-85090000D01*
X103355000Y-85128553D01*
X103355000Y-85128560D01*
X103366359Y-85243886D01*
X103411246Y-85391859D01*
X103484138Y-85528232D01*
X103582236Y-85647764D01*
X103612188Y-85672345D01*
X104827658Y-86887815D01*
X104852236Y-86917764D01*
X104882184Y-86942342D01*
X104882187Y-86942345D01*
X104895285Y-86953094D01*
X104971767Y-87015862D01*
X105108140Y-87088754D01*
X105221672Y-87123194D01*
X105256112Y-87133641D01*
X105270490Y-87135057D01*
X105371439Y-87145000D01*
X105371446Y-87145000D01*
X105409999Y-87148797D01*
X105448552Y-87145000D01*
X107624843Y-87145000D01*
X108435001Y-87955159D01*
X108435000Y-89844843D01*
X107957047Y-90322797D01*
X107931250Y-90297000D01*
X106807000Y-90297000D01*
X106807000Y-90317000D01*
X106553000Y-90317000D01*
X106553000Y-90297000D01*
X106533000Y-90297000D01*
X106533000Y-90043000D01*
X106553000Y-90043000D01*
X106553000Y-88981250D01*
X106807000Y-88981250D01*
X106807000Y-90043000D01*
X107931250Y-90043000D01*
X108090000Y-89884250D01*
X108093072Y-89457500D01*
X108080812Y-89333018D01*
X108044502Y-89213320D01*
X107985537Y-89103006D01*
X107906185Y-89006315D01*
X107809494Y-88926963D01*
X107699180Y-88867998D01*
X107579482Y-88831688D01*
X107455000Y-88819428D01*
X106965750Y-88822500D01*
X106807000Y-88981250D01*
X106553000Y-88981250D01*
X106394250Y-88822500D01*
X105905000Y-88819428D01*
X105780518Y-88831688D01*
X105660820Y-88867998D01*
X105550506Y-88926963D01*
X105453815Y-89006315D01*
X105374463Y-89103006D01*
X105346405Y-89155498D01*
X105231252Y-89155498D01*
X105390000Y-88996750D01*
X105393072Y-88457500D01*
X105380812Y-88333018D01*
X105344502Y-88213320D01*
X105285537Y-88103006D01*
X105206185Y-88006315D01*
X105109494Y-87926963D01*
X104999180Y-87867998D01*
X104879482Y-87831688D01*
X104755000Y-87819428D01*
X104390750Y-87822500D01*
X104232000Y-87981250D01*
X104232000Y-89155500D01*
X104252000Y-89155500D01*
X104252000Y-89409500D01*
X104232000Y-89409500D01*
X104232000Y-91380500D01*
X104252000Y-91380500D01*
X104252000Y-91634500D01*
X104232000Y-91634500D01*
X104232000Y-92883750D01*
X104390750Y-93042500D01*
X105055000Y-93045572D01*
X105179482Y-93033312D01*
X105299180Y-92997002D01*
X105409494Y-92938037D01*
X105439937Y-92913053D01*
X105446777Y-92982500D01*
X105436928Y-93082500D01*
X105436928Y-93199477D01*
X105409494Y-93176963D01*
X105299180Y-93117998D01*
X105179482Y-93081688D01*
X105055000Y-93069428D01*
X104390750Y-93072500D01*
X104232000Y-93231250D01*
X104232000Y-94080500D01*
X104252000Y-94080500D01*
X104252000Y-94334500D01*
X104232000Y-94334500D01*
X104232000Y-95905500D01*
X104252000Y-95905500D01*
X104252000Y-96159500D01*
X104232000Y-96159500D01*
X104232000Y-97333750D01*
X104390750Y-97492500D01*
X104755000Y-97495572D01*
X104879482Y-97483312D01*
X104999180Y-97447002D01*
X105109494Y-97388037D01*
X105206185Y-97308685D01*
X105285537Y-97211994D01*
X105344502Y-97101680D01*
X105380812Y-96981982D01*
X105393072Y-96857500D01*
X105390000Y-96318250D01*
X105231252Y-96159502D01*
X105346405Y-96159502D01*
X105374463Y-96211994D01*
X105453815Y-96308685D01*
X105550506Y-96388037D01*
X105660820Y-96447002D01*
X105780518Y-96483312D01*
X105905000Y-96495572D01*
X106394250Y-96492500D01*
X106553000Y-96333750D01*
X106553000Y-95272000D01*
X106807000Y-95272000D01*
X106807000Y-96333750D01*
X106965750Y-96492500D01*
X107455000Y-96495572D01*
X107579482Y-96483312D01*
X107699180Y-96447002D01*
X107809494Y-96388037D01*
X107906185Y-96308685D01*
X107985537Y-96211994D01*
X108044502Y-96101680D01*
X108080812Y-95981982D01*
X108093072Y-95857500D01*
X108090000Y-95430750D01*
X107931250Y-95272000D01*
X106807000Y-95272000D01*
X106553000Y-95272000D01*
X106533000Y-95272000D01*
X106533000Y-95018000D01*
X106553000Y-95018000D01*
X106553000Y-94998000D01*
X106807000Y-94998000D01*
X106807000Y-95018000D01*
X107931250Y-95018000D01*
X108090000Y-94859250D01*
X108093072Y-94432500D01*
X108080812Y-94308018D01*
X108080022Y-94305414D01*
X108090000Y-94214250D01*
X108022032Y-94146282D01*
X107985537Y-94078006D01*
X107907158Y-93982500D01*
X107985537Y-93886994D01*
X108044502Y-93776680D01*
X108057753Y-93732997D01*
X108090000Y-93700750D01*
X108082895Y-93635834D01*
X108093072Y-93532500D01*
X108093072Y-93392500D01*
X110403054Y-93392500D01*
X110791928Y-93781374D01*
X110791928Y-94430001D01*
X110808992Y-94603255D01*
X110859528Y-94769851D01*
X110941595Y-94923387D01*
X111052038Y-95057962D01*
X111186613Y-95168405D01*
X111295000Y-95226340D01*
X111295001Y-95235298D01*
X111161614Y-95306595D01*
X111027038Y-95417038D01*
X110916595Y-95551614D01*
X110834528Y-95705150D01*
X110783992Y-95871746D01*
X110766928Y-96045000D01*
X110766928Y-96995000D01*
X110783992Y-97168254D01*
X110834528Y-97334850D01*
X110916595Y-97488386D01*
X111027038Y-97622962D01*
X111161614Y-97733405D01*
X111315150Y-97815472D01*
X111481746Y-97866008D01*
X111655000Y-97883072D01*
X112330000Y-97883072D01*
X112503254Y-97866008D01*
X112669850Y-97815472D01*
X112823386Y-97733405D01*
X112957962Y-97622962D01*
X112963342Y-97616406D01*
X113028815Y-97696185D01*
X113125506Y-97775537D01*
X113235820Y-97834502D01*
X113355518Y-97870812D01*
X113480000Y-97883072D01*
X113781750Y-97880000D01*
X113940500Y-97721250D01*
X113940500Y-96647000D01*
X114194500Y-96647000D01*
X114194500Y-97721250D01*
X114353250Y-97880000D01*
X114655000Y-97883072D01*
X114779482Y-97870812D01*
X114899180Y-97834502D01*
X115009494Y-97775537D01*
X115106185Y-97696185D01*
X115185537Y-97599494D01*
X115244502Y-97489180D01*
X115280812Y-97369482D01*
X115293072Y-97245000D01*
X115846928Y-97245000D01*
X115859188Y-97369482D01*
X115895498Y-97489180D01*
X115954463Y-97599494D01*
X116033815Y-97696185D01*
X116130506Y-97775537D01*
X116157564Y-97790000D01*
X116130506Y-97804463D01*
X116033815Y-97883815D01*
X115954463Y-97980506D01*
X115895498Y-98090820D01*
X115859188Y-98210518D01*
X115846928Y-98335000D01*
X115850000Y-98774250D01*
X116008750Y-98933000D01*
X116945500Y-98933000D01*
X116945500Y-97858750D01*
X116876750Y-97790000D01*
X116945500Y-97721250D01*
X116945500Y-96647000D01*
X116008750Y-96647000D01*
X115850000Y-96805750D01*
X115846928Y-97245000D01*
X115293072Y-97245000D01*
X115290000Y-96805750D01*
X115131250Y-96647000D01*
X114194500Y-96647000D01*
X113940500Y-96647000D01*
X113920500Y-96647000D01*
X113920500Y-96393000D01*
X113940500Y-96393000D01*
X113940500Y-96373000D01*
X114194500Y-96373000D01*
X114194500Y-96393000D01*
X115131250Y-96393000D01*
X115290000Y-96234250D01*
X115293072Y-95795000D01*
X115846928Y-95795000D01*
X115850000Y-96234250D01*
X116008750Y-96393000D01*
X116945500Y-96393000D01*
X116945500Y-95318750D01*
X116786750Y-95160000D01*
X116485000Y-95156928D01*
X116360518Y-95169188D01*
X116240820Y-95205498D01*
X116130506Y-95264463D01*
X116033815Y-95343815D01*
X115954463Y-95440506D01*
X115895498Y-95550820D01*
X115859188Y-95670518D01*
X115846928Y-95795000D01*
X115293072Y-95795000D01*
X115280812Y-95670518D01*
X115244502Y-95550820D01*
X115185537Y-95440506D01*
X115106185Y-95343815D01*
X115009494Y-95264463D01*
X114899180Y-95205498D01*
X114838454Y-95187077D01*
X114873387Y-95168405D01*
X115007962Y-95057962D01*
X115118405Y-94923387D01*
X115200472Y-94769851D01*
X115251008Y-94603255D01*
X115268072Y-94430001D01*
X115268072Y-94122085D01*
X117367817Y-92022341D01*
X117397764Y-91997764D01*
X117428288Y-91960572D01*
X117447637Y-91936994D01*
X117495862Y-91878233D01*
X117568754Y-91741860D01*
X117609512Y-91607500D01*
X117613641Y-91593888D01*
X117616906Y-91560733D01*
X117625000Y-91478561D01*
X117625000Y-91478554D01*
X117628797Y-91440001D01*
X117625000Y-91401448D01*
X117625000Y-91030583D01*
X117643428Y-91042896D01*
X117822686Y-91117147D01*
X118012986Y-91155000D01*
X118207014Y-91155000D01*
X118397314Y-91117147D01*
X118576572Y-91042896D01*
X118737901Y-90935099D01*
X118745000Y-90928000D01*
X118752099Y-90935099D01*
X118913428Y-91042896D01*
X119092686Y-91117147D01*
X119282986Y-91155000D01*
X119477014Y-91155000D01*
X119667314Y-91117147D01*
X119846572Y-91042896D01*
X120007901Y-90935099D01*
X120145099Y-90797901D01*
X120252896Y-90636572D01*
X120327147Y-90457314D01*
X120365000Y-90267014D01*
X120365000Y-90072986D01*
X120327147Y-89882686D01*
X120252896Y-89703428D01*
X120165000Y-89571883D01*
X120165000Y-88938556D01*
X120168797Y-88900000D01*
X120165000Y-88861440D01*
X120165000Y-88861439D01*
X120158792Y-88798412D01*
X120153642Y-88746113D01*
X120147946Y-88727335D01*
X120199041Y-88717172D01*
X120378299Y-88642921D01*
X120421103Y-88614320D01*
X120920650Y-89113868D01*
X120905506Y-89121963D01*
X120808815Y-89201315D01*
X120729463Y-89298006D01*
X120670498Y-89408320D01*
X120634188Y-89528018D01*
X120621928Y-89652500D01*
X120621928Y-90052500D01*
X120633500Y-90170000D01*
X120621928Y-90287500D01*
X120621928Y-90687500D01*
X120633500Y-90805000D01*
X120621928Y-90922500D01*
X120621928Y-91322500D01*
X120633500Y-91439999D01*
X120621928Y-91557500D01*
X120621928Y-91687110D01*
X120529267Y-91736638D01*
X120484126Y-91773685D01*
X120439687Y-91810155D01*
X120439684Y-91810158D01*
X120409736Y-91834736D01*
X120385158Y-91864684D01*
X119247855Y-93001988D01*
X119092686Y-93032853D01*
X118913428Y-93107104D01*
X118752099Y-93214901D01*
X118614901Y-93352099D01*
X118507104Y-93513428D01*
X118432853Y-93692686D01*
X118395000Y-93882986D01*
X118395000Y-93988921D01*
X118373859Y-94058614D01*
X118358703Y-94212500D01*
X118362501Y-94251061D01*
X118362501Y-95282068D01*
X118316614Y-95306595D01*
X118182038Y-95417038D01*
X118176658Y-95423594D01*
X118111185Y-95343815D01*
X118014494Y-95264463D01*
X117904180Y-95205498D01*
X117784482Y-95169188D01*
X117660000Y-95156928D01*
X117358250Y-95160000D01*
X117199500Y-95318750D01*
X117199500Y-96393000D01*
X117219500Y-96393000D01*
X117219500Y-96647000D01*
X117199500Y-96647000D01*
X117199500Y-97721250D01*
X117268250Y-97790000D01*
X117199500Y-97858750D01*
X117199500Y-98933000D01*
X117219500Y-98933000D01*
X117219500Y-99187000D01*
X117199500Y-99187000D01*
X117199500Y-100261250D01*
X117358250Y-100420000D01*
X117660000Y-100423072D01*
X117784482Y-100410812D01*
X117904180Y-100374502D01*
X118014494Y-100315537D01*
X118111185Y-100236185D01*
X118176658Y-100156406D01*
X118182038Y-100162962D01*
X118316614Y-100273405D01*
X118470150Y-100355472D01*
X118636746Y-100406008D01*
X118810000Y-100423072D01*
X119485000Y-100423072D01*
X119658254Y-100406008D01*
X119824850Y-100355472D01*
X119978386Y-100273405D01*
X120112962Y-100162962D01*
X120223405Y-100028386D01*
X120305472Y-99874850D01*
X120356008Y-99708254D01*
X120373072Y-99535000D01*
X120373072Y-98585000D01*
X120356008Y-98411746D01*
X120305472Y-98245150D01*
X120223405Y-98091614D01*
X120112962Y-97957038D01*
X119978386Y-97846595D01*
X119932500Y-97822068D01*
X119932500Y-97757932D01*
X119978386Y-97733405D01*
X120112962Y-97622962D01*
X120223405Y-97488386D01*
X120305472Y-97334850D01*
X120356008Y-97168254D01*
X120373072Y-96995000D01*
X120373072Y-96045000D01*
X120356008Y-95871746D01*
X120305472Y-95705150D01*
X120223405Y-95551614D01*
X120112962Y-95417038D01*
X119978386Y-95306595D01*
X119932500Y-95282068D01*
X119932500Y-94795481D01*
X120007901Y-94745099D01*
X120145099Y-94607901D01*
X120252896Y-94446572D01*
X120327147Y-94267314D01*
X120358012Y-94112145D01*
X120621928Y-93848229D01*
X120621928Y-93862500D01*
X120633500Y-93979999D01*
X120621928Y-94097500D01*
X120621928Y-94497500D01*
X120633500Y-94615000D01*
X120621928Y-94732500D01*
X120621928Y-95132500D01*
X120633500Y-95249999D01*
X120621928Y-95367500D01*
X120621928Y-95767500D01*
X120634188Y-95891982D01*
X120670498Y-96011680D01*
X120729463Y-96121994D01*
X120808815Y-96218685D01*
X120905506Y-96298037D01*
X121015820Y-96357002D01*
X121135518Y-96393312D01*
X121260000Y-96405572D01*
X121587915Y-96405572D01*
X123500153Y-98317810D01*
X123524736Y-98347764D01*
X123644267Y-98445862D01*
X123749737Y-98502236D01*
X123780640Y-98518754D01*
X123928613Y-98563642D01*
X124003526Y-98571020D01*
X124043939Y-98575000D01*
X124043944Y-98575000D01*
X124082500Y-98578797D01*
X124121056Y-98575000D01*
X135291883Y-98575000D01*
X135423428Y-98662896D01*
X135602686Y-98737147D01*
X135757855Y-98768012D01*
X136507654Y-99517811D01*
X136532237Y-99547765D01*
X136651768Y-99645863D01*
X136768495Y-99708254D01*
X136788141Y-99718755D01*
X136936114Y-99763643D01*
X137011027Y-99771021D01*
X137051440Y-99775001D01*
X137051445Y-99775001D01*
X137090001Y-99778798D01*
X137128557Y-99775001D01*
X140574844Y-99775001D01*
X141657653Y-100857810D01*
X141682236Y-100887764D01*
X141801767Y-100985862D01*
X141938140Y-101058754D01*
X142086113Y-101103642D01*
X142161026Y-101111020D01*
X142201439Y-101115000D01*
X142201444Y-101115000D01*
X142240000Y-101118797D01*
X142278556Y-101115000D01*
X144741447Y-101115000D01*
X144780000Y-101118797D01*
X144818553Y-101115000D01*
X144818561Y-101115000D01*
X144933887Y-101103641D01*
X145081860Y-101058754D01*
X145218233Y-100985862D01*
X145337764Y-100887764D01*
X145362347Y-100857810D01*
X146577817Y-99642341D01*
X146607764Y-99617764D01*
X146660000Y-99554115D01*
X146660000Y-102210000D01*
X102260000Y-102210000D01*
X102260000Y-99785000D01*
X115846928Y-99785000D01*
X115859188Y-99909482D01*
X115895498Y-100029180D01*
X115954463Y-100139494D01*
X116033815Y-100236185D01*
X116130506Y-100315537D01*
X116240820Y-100374502D01*
X116360518Y-100410812D01*
X116485000Y-100423072D01*
X116786750Y-100420000D01*
X116945500Y-100261250D01*
X116945500Y-99187000D01*
X116008750Y-99187000D01*
X115850000Y-99345750D01*
X115846928Y-99785000D01*
X102260000Y-99785000D01*
X102260000Y-96857500D01*
X102816928Y-96857500D01*
X102829188Y-96981982D01*
X102865498Y-97101680D01*
X102924463Y-97211994D01*
X103003815Y-97308685D01*
X103100506Y-97388037D01*
X103210820Y-97447002D01*
X103330518Y-97483312D01*
X103455000Y-97495572D01*
X103819250Y-97492500D01*
X103978000Y-97333750D01*
X103978000Y-96159500D01*
X102978750Y-96159500D01*
X102820000Y-96318250D01*
X102816928Y-96857500D01*
X102260000Y-96857500D01*
X102260000Y-94707500D01*
X102516928Y-94707500D01*
X102529188Y-94831982D01*
X102565498Y-94951680D01*
X102624463Y-95061994D01*
X102703815Y-95158685D01*
X102800506Y-95238037D01*
X102817153Y-95246935D01*
X102820000Y-95746750D01*
X102978750Y-95905500D01*
X103978000Y-95905500D01*
X103978000Y-94334500D01*
X102678750Y-94334500D01*
X102520000Y-94493250D01*
X102516928Y-94707500D01*
X102260000Y-94707500D01*
X102260000Y-93707500D01*
X102516928Y-93707500D01*
X102520000Y-93921750D01*
X102678750Y-94080500D01*
X103978000Y-94080500D01*
X103978000Y-93231250D01*
X103819250Y-93072500D01*
X103155000Y-93069428D01*
X103030518Y-93081688D01*
X102910820Y-93117998D01*
X102800506Y-93176963D01*
X102703815Y-93256315D01*
X102624463Y-93353006D01*
X102565498Y-93463320D01*
X102529188Y-93583018D01*
X102516928Y-93707500D01*
X102260000Y-93707500D01*
X102260000Y-92407500D01*
X102516928Y-92407500D01*
X102529188Y-92531982D01*
X102565498Y-92651680D01*
X102624463Y-92761994D01*
X102703815Y-92858685D01*
X102800506Y-92938037D01*
X102910820Y-92997002D01*
X103030518Y-93033312D01*
X103155000Y-93045572D01*
X103819250Y-93042500D01*
X103978000Y-92883750D01*
X103978000Y-91634500D01*
X102678750Y-91634500D01*
X102520000Y-91793250D01*
X102516928Y-92407500D01*
X102260000Y-92407500D01*
X102260000Y-90607500D01*
X102516928Y-90607500D01*
X102520000Y-91221750D01*
X102678750Y-91380500D01*
X103978000Y-91380500D01*
X103978000Y-89409500D01*
X102978750Y-89409500D01*
X102820000Y-89568250D01*
X102817153Y-90068065D01*
X102800506Y-90076963D01*
X102703815Y-90156315D01*
X102624463Y-90253006D01*
X102565498Y-90363320D01*
X102529188Y-90483018D01*
X102516928Y-90607500D01*
X102260000Y-90607500D01*
X102260000Y-88457500D01*
X102816928Y-88457500D01*
X102820000Y-88996750D01*
X102978750Y-89155500D01*
X103978000Y-89155500D01*
X103978000Y-87981250D01*
X103819250Y-87822500D01*
X103455000Y-87819428D01*
X103330518Y-87831688D01*
X103210820Y-87867998D01*
X103100506Y-87926963D01*
X103003815Y-88006315D01*
X102924463Y-88103006D01*
X102865498Y-88213320D01*
X102829188Y-88333018D01*
X102816928Y-88457500D01*
X102260000Y-88457500D01*
X102260000Y-74320000D01*
X146660001Y-74320000D01*
X146660000Y-94755885D01*
G37*
G04 #@! TD.AperFunction*
D24*
X134568992Y-86368255D02*
X134619528Y-86534851D01*
X134701595Y-86688387D01*
X134812038Y-86822962D01*
X134946613Y-86933405D01*
X135100149Y-87015472D01*
X135155000Y-87032111D01*
X135155001Y-87712889D01*
X135100149Y-87729528D01*
X134946613Y-87811595D01*
X134812038Y-87922038D01*
X134701595Y-88056613D01*
X134619528Y-88210149D01*
X134568992Y-88376745D01*
X134551928Y-88549999D01*
X134551928Y-89250001D01*
X134568992Y-89423255D01*
X134619528Y-89589851D01*
X134701595Y-89743387D01*
X134812038Y-89877962D01*
X134838891Y-89900000D01*
X134812038Y-89922038D01*
X134701595Y-90056613D01*
X134619528Y-90210149D01*
X134568992Y-90376745D01*
X134551928Y-90549999D01*
X134551928Y-91250001D01*
X134568992Y-91423255D01*
X134619528Y-91589851D01*
X134691767Y-91725000D01*
X134522986Y-91725000D01*
X134332686Y-91762853D01*
X134153428Y-91837104D01*
X133992099Y-91944901D01*
X133854901Y-92082099D01*
X133747104Y-92243428D01*
X133672853Y-92422686D01*
X133635000Y-92612986D01*
X133635000Y-92807014D01*
X133672853Y-92997314D01*
X133747104Y-93176572D01*
X133854901Y-93337901D01*
X133992099Y-93475099D01*
X134153428Y-93582896D01*
X134332686Y-93657147D01*
X134522986Y-93695000D01*
X134717014Y-93695000D01*
X134907314Y-93657147D01*
X134967983Y-93632017D01*
X134942853Y-93692686D01*
X134905000Y-93882986D01*
X134905000Y-94077014D01*
X134942853Y-94267314D01*
X135017104Y-94446572D01*
X135124901Y-94607901D01*
X135262099Y-94745099D01*
X135423428Y-94852896D01*
X135602686Y-94927147D01*
X135792986Y-94965000D01*
X135987014Y-94965000D01*
X136177314Y-94927147D01*
X136356572Y-94852896D01*
X136488117Y-94765000D01*
X139374843Y-94765000D01*
X140387658Y-95777815D01*
X140412236Y-95807764D01*
X140442184Y-95832342D01*
X140442187Y-95832345D01*
X140471559Y-95856450D01*
X140531767Y-95905862D01*
X140668140Y-95978754D01*
X140757075Y-96005732D01*
X140816112Y-96023641D01*
X140830490Y-96025057D01*
X140931439Y-96035000D01*
X140931446Y-96035000D01*
X140969999Y-96038797D01*
X141008552Y-96035000D01*
X142248526Y-96035000D01*
X142356525Y-96196632D01*
X142563368Y-96403475D01*
X142745534Y-96525195D01*
X142628645Y-96594822D01*
X142412412Y-96789731D01*
X142238359Y-97023080D01*
X142113175Y-97285901D01*
X142068524Y-97433110D01*
X142189845Y-97663000D01*
X143383000Y-97663000D01*
X143383000Y-97643000D01*
X143637000Y-97643000D01*
X143637000Y-97663000D01*
X144830155Y-97663000D01*
X144951476Y-97433110D01*
X144906825Y-97285901D01*
X144781641Y-97023080D01*
X144607588Y-96789731D01*
X144391355Y-96594822D01*
X144274466Y-96525195D01*
X144456632Y-96403475D01*
X144663475Y-96196632D01*
X144825990Y-95953411D01*
X144937932Y-95683158D01*
X144995000Y-95396260D01*
X144995000Y-95305158D01*
X145265001Y-95575159D01*
X145265000Y-98734842D01*
X144454843Y-99545000D01*
X142565157Y-99545000D01*
X141482346Y-98462189D01*
X141457765Y-98432237D01*
X141338234Y-98334139D01*
X141201861Y-98261247D01*
X141053888Y-98216360D01*
X140938562Y-98205001D01*
X140938554Y-98205001D01*
X140900001Y-98201204D01*
X140861448Y-98205001D01*
X137415158Y-98205001D01*
X137357047Y-98146890D01*
X142068524Y-98146890D01*
X142113175Y-98294099D01*
X142238359Y-98556920D01*
X142412412Y-98790269D01*
X142628645Y-98985178D01*
X142878748Y-99134157D01*
X143153109Y-99231481D01*
X143383000Y-99110814D01*
X143383000Y-97917000D01*
X143637000Y-97917000D01*
X143637000Y-99110814D01*
X143866891Y-99231481D01*
X144141252Y-99134157D01*
X144391355Y-98985178D01*
X144607588Y-98790269D01*
X144781641Y-98556920D01*
X144906825Y-98294099D01*
X144951476Y-98146890D01*
X144830155Y-97917000D01*
X143637000Y-97917000D01*
X143383000Y-97917000D01*
X142189845Y-97917000D01*
X142068524Y-98146890D01*
X137357047Y-98146890D01*
X136868012Y-97657855D01*
X136837147Y-97502686D01*
X136762896Y-97323428D01*
X136655099Y-97162099D01*
X136517901Y-97024901D01*
X136356572Y-96917104D01*
X136177314Y-96842853D01*
X135987014Y-96805000D01*
X135792986Y-96805000D01*
X135602686Y-96842853D01*
X135423428Y-96917104D01*
X135291883Y-97005000D01*
X133429138Y-97005000D01*
X133430812Y-96999482D01*
X133443072Y-96875000D01*
X133440000Y-96573250D01*
X133281250Y-96414500D01*
X132207000Y-96414500D01*
X132207000Y-96434500D01*
X131953000Y-96434500D01*
X131953000Y-96414500D01*
X130878750Y-96414500D01*
X130720000Y-96573250D01*
X130716928Y-96875000D01*
X130729188Y-96999482D01*
X130730862Y-97005000D01*
X124407657Y-97005000D01*
X123098072Y-95695415D01*
X123098072Y-95367500D01*
X123086500Y-95249999D01*
X123098072Y-95132500D01*
X123098072Y-94965000D01*
X123287014Y-94965000D01*
X123477314Y-94927147D01*
X123656572Y-94852896D01*
X123817901Y-94745099D01*
X123955099Y-94607901D01*
X124062896Y-94446572D01*
X124137147Y-94267314D01*
X124140882Y-94248539D01*
X124717658Y-94825316D01*
X124742236Y-94855264D01*
X124772184Y-94879842D01*
X124772187Y-94879845D01*
X124801559Y-94903950D01*
X124861767Y-94953362D01*
X124998140Y-95026254D01*
X125102668Y-95057962D01*
X125146112Y-95071141D01*
X125160490Y-95072557D01*
X125261439Y-95082500D01*
X125261446Y-95082500D01*
X125299999Y-95086297D01*
X125338552Y-95082500D01*
X125821928Y-95082500D01*
X125821928Y-95132500D01*
X125833500Y-95249999D01*
X125821928Y-95367500D01*
X125821928Y-95767500D01*
X125834188Y-95891982D01*
X125870498Y-96011680D01*
X125929463Y-96121994D01*
X126008815Y-96218685D01*
X126105506Y-96298037D01*
X126215820Y-96357002D01*
X126335518Y-96393312D01*
X126460000Y-96405572D01*
X127660000Y-96405572D01*
X127784482Y-96393312D01*
X127904180Y-96357002D01*
X128014494Y-96298037D01*
X128111185Y-96218685D01*
X128190537Y-96121994D01*
X128249502Y-96011680D01*
X128285812Y-95891982D01*
X128298072Y-95767500D01*
X128298072Y-95367500D01*
X128286500Y-95249999D01*
X128298072Y-95132500D01*
X128298072Y-94949392D01*
X128412766Y-94855264D01*
X128437349Y-94825310D01*
X130067816Y-93194844D01*
X130097764Y-93170266D01*
X130122388Y-93140263D01*
X130157482Y-93097500D01*
X130195862Y-93050735D01*
X130268754Y-92914362D01*
X130313641Y-92766389D01*
X130325000Y-92651063D01*
X130325000Y-92651056D01*
X130328797Y-92612503D01*
X130325000Y-92573950D01*
X130325000Y-91765157D01*
X130595000Y-91495157D01*
X130595000Y-91586260D01*
X130652068Y-91873158D01*
X130764010Y-92143411D01*
X130926525Y-92386632D01*
X131133368Y-92593475D01*
X131295000Y-92701474D01*
X131295001Y-93045473D01*
X131265150Y-93054528D01*
X131111614Y-93136595D01*
X130977038Y-93247038D01*
X130866595Y-93381614D01*
X130784528Y-93535150D01*
X130733992Y-93701746D01*
X130716928Y-93875000D01*
X130716928Y-94550000D01*
X130733992Y-94723254D01*
X130784528Y-94889850D01*
X130866595Y-95043386D01*
X130977038Y-95177962D01*
X130983594Y-95183342D01*
X130903815Y-95248815D01*
X130824463Y-95345506D01*
X130765498Y-95455820D01*
X130729188Y-95575518D01*
X130716928Y-95700000D01*
X130720000Y-96001750D01*
X130878750Y-96160500D01*
X131953000Y-96160500D01*
X131953000Y-96140500D01*
X132207000Y-96140500D01*
X132207000Y-96160500D01*
X133281250Y-96160500D01*
X133440000Y-96001750D01*
X133443072Y-95700000D01*
X133430812Y-95575518D01*
X133394502Y-95455820D01*
X133335537Y-95345506D01*
X133256185Y-95248815D01*
X133176406Y-95183342D01*
X133182962Y-95177962D01*
X133293405Y-95043386D01*
X133375472Y-94889850D01*
X133426008Y-94723254D01*
X133443072Y-94550000D01*
X133443072Y-93875000D01*
X133426008Y-93701746D01*
X133375472Y-93535150D01*
X133293405Y-93381614D01*
X133182962Y-93247038D01*
X133048386Y-93136595D01*
X132894850Y-93054528D01*
X132865000Y-93045473D01*
X132865000Y-92701474D01*
X133026632Y-92593475D01*
X133233475Y-92386632D01*
X133395990Y-92143411D01*
X133507932Y-91873158D01*
X133565000Y-91586260D01*
X133565000Y-91293740D01*
X133507932Y-91006842D01*
X133395990Y-90736589D01*
X133233475Y-90493368D01*
X133026632Y-90286525D01*
X132852240Y-90170000D01*
X133026632Y-90053475D01*
X133233475Y-89846632D01*
X133395990Y-89603411D01*
X133507932Y-89333158D01*
X133565000Y-89046260D01*
X133565000Y-88753740D01*
X133515344Y-88504103D01*
X133844197Y-88175250D01*
X133872237Y-88152238D01*
X133895250Y-88124197D01*
X133895253Y-88124194D01*
X133964086Y-88040321D01*
X133964087Y-88040320D01*
X134032337Y-87912633D01*
X134074365Y-87774085D01*
X134085000Y-87666105D01*
X134085000Y-87666096D01*
X134088555Y-87630001D01*
X134085000Y-87593906D01*
X134085000Y-86664446D01*
X134552154Y-86197293D01*
X134568992Y-86368255D01*
G04 #@! TA.AperFunction,Conductor*
D25*
G36*
X134568992Y-86368255D02*
G01*
X134619528Y-86534851D01*
X134701595Y-86688387D01*
X134812038Y-86822962D01*
X134946613Y-86933405D01*
X135100149Y-87015472D01*
X135155000Y-87032111D01*
X135155001Y-87712889D01*
X135100149Y-87729528D01*
X134946613Y-87811595D01*
X134812038Y-87922038D01*
X134701595Y-88056613D01*
X134619528Y-88210149D01*
X134568992Y-88376745D01*
X134551928Y-88549999D01*
X134551928Y-89250001D01*
X134568992Y-89423255D01*
X134619528Y-89589851D01*
X134701595Y-89743387D01*
X134812038Y-89877962D01*
X134838891Y-89900000D01*
X134812038Y-89922038D01*
X134701595Y-90056613D01*
X134619528Y-90210149D01*
X134568992Y-90376745D01*
X134551928Y-90549999D01*
X134551928Y-91250001D01*
X134568992Y-91423255D01*
X134619528Y-91589851D01*
X134691767Y-91725000D01*
X134522986Y-91725000D01*
X134332686Y-91762853D01*
X134153428Y-91837104D01*
X133992099Y-91944901D01*
X133854901Y-92082099D01*
X133747104Y-92243428D01*
X133672853Y-92422686D01*
X133635000Y-92612986D01*
X133635000Y-92807014D01*
X133672853Y-92997314D01*
X133747104Y-93176572D01*
X133854901Y-93337901D01*
X133992099Y-93475099D01*
X134153428Y-93582896D01*
X134332686Y-93657147D01*
X134522986Y-93695000D01*
X134717014Y-93695000D01*
X134907314Y-93657147D01*
X134967983Y-93632017D01*
X134942853Y-93692686D01*
X134905000Y-93882986D01*
X134905000Y-94077014D01*
X134942853Y-94267314D01*
X135017104Y-94446572D01*
X135124901Y-94607901D01*
X135262099Y-94745099D01*
X135423428Y-94852896D01*
X135602686Y-94927147D01*
X135792986Y-94965000D01*
X135987014Y-94965000D01*
X136177314Y-94927147D01*
X136356572Y-94852896D01*
X136488117Y-94765000D01*
X139374843Y-94765000D01*
X140387658Y-95777815D01*
X140412236Y-95807764D01*
X140442184Y-95832342D01*
X140442187Y-95832345D01*
X140471559Y-95856450D01*
X140531767Y-95905862D01*
X140668140Y-95978754D01*
X140757075Y-96005732D01*
X140816112Y-96023641D01*
X140830490Y-96025057D01*
X140931439Y-96035000D01*
X140931446Y-96035000D01*
X140969999Y-96038797D01*
X141008552Y-96035000D01*
X142248526Y-96035000D01*
X142356525Y-96196632D01*
X142563368Y-96403475D01*
X142745534Y-96525195D01*
X142628645Y-96594822D01*
X142412412Y-96789731D01*
X142238359Y-97023080D01*
X142113175Y-97285901D01*
X142068524Y-97433110D01*
X142189845Y-97663000D01*
X143383000Y-97663000D01*
X143383000Y-97643000D01*
X143637000Y-97643000D01*
X143637000Y-97663000D01*
X144830155Y-97663000D01*
X144951476Y-97433110D01*
X144906825Y-97285901D01*
X144781641Y-97023080D01*
X144607588Y-96789731D01*
X144391355Y-96594822D01*
X144274466Y-96525195D01*
X144456632Y-96403475D01*
X144663475Y-96196632D01*
X144825990Y-95953411D01*
X144937932Y-95683158D01*
X144995000Y-95396260D01*
X144995000Y-95305158D01*
X145265001Y-95575159D01*
X145265000Y-98734842D01*
X144454843Y-99545000D01*
X142565157Y-99545000D01*
X141482346Y-98462189D01*
X141457765Y-98432237D01*
X141338234Y-98334139D01*
X141201861Y-98261247D01*
X141053888Y-98216360D01*
X140938562Y-98205001D01*
X140938554Y-98205001D01*
X140900001Y-98201204D01*
X140861448Y-98205001D01*
X137415158Y-98205001D01*
X137357047Y-98146890D01*
X142068524Y-98146890D01*
X142113175Y-98294099D01*
X142238359Y-98556920D01*
X142412412Y-98790269D01*
X142628645Y-98985178D01*
X142878748Y-99134157D01*
X143153109Y-99231481D01*
X143383000Y-99110814D01*
X143383000Y-97917000D01*
X143637000Y-97917000D01*
X143637000Y-99110814D01*
X143866891Y-99231481D01*
X144141252Y-99134157D01*
X144391355Y-98985178D01*
X144607588Y-98790269D01*
X144781641Y-98556920D01*
X144906825Y-98294099D01*
X144951476Y-98146890D01*
X144830155Y-97917000D01*
X143637000Y-97917000D01*
X143383000Y-97917000D01*
X142189845Y-97917000D01*
X142068524Y-98146890D01*
X137357047Y-98146890D01*
X136868012Y-97657855D01*
X136837147Y-97502686D01*
X136762896Y-97323428D01*
X136655099Y-97162099D01*
X136517901Y-97024901D01*
X136356572Y-96917104D01*
X136177314Y-96842853D01*
X135987014Y-96805000D01*
X135792986Y-96805000D01*
X135602686Y-96842853D01*
X135423428Y-96917104D01*
X135291883Y-97005000D01*
X133429138Y-97005000D01*
X133430812Y-96999482D01*
X133443072Y-96875000D01*
X133440000Y-96573250D01*
X133281250Y-96414500D01*
X132207000Y-96414500D01*
X132207000Y-96434500D01*
X131953000Y-96434500D01*
X131953000Y-96414500D01*
X130878750Y-96414500D01*
X130720000Y-96573250D01*
X130716928Y-96875000D01*
X130729188Y-96999482D01*
X130730862Y-97005000D01*
X124407657Y-97005000D01*
X123098072Y-95695415D01*
X123098072Y-95367500D01*
X123086500Y-95249999D01*
X123098072Y-95132500D01*
X123098072Y-94965000D01*
X123287014Y-94965000D01*
X123477314Y-94927147D01*
X123656572Y-94852896D01*
X123817901Y-94745099D01*
X123955099Y-94607901D01*
X124062896Y-94446572D01*
X124137147Y-94267314D01*
X124140882Y-94248539D01*
X124717658Y-94825316D01*
X124742236Y-94855264D01*
X124772184Y-94879842D01*
X124772187Y-94879845D01*
X124801559Y-94903950D01*
X124861767Y-94953362D01*
X124998140Y-95026254D01*
X125102668Y-95057962D01*
X125146112Y-95071141D01*
X125160490Y-95072557D01*
X125261439Y-95082500D01*
X125261446Y-95082500D01*
X125299999Y-95086297D01*
X125338552Y-95082500D01*
X125821928Y-95082500D01*
X125821928Y-95132500D01*
X125833500Y-95249999D01*
X125821928Y-95367500D01*
X125821928Y-95767500D01*
X125834188Y-95891982D01*
X125870498Y-96011680D01*
X125929463Y-96121994D01*
X126008815Y-96218685D01*
X126105506Y-96298037D01*
X126215820Y-96357002D01*
X126335518Y-96393312D01*
X126460000Y-96405572D01*
X127660000Y-96405572D01*
X127784482Y-96393312D01*
X127904180Y-96357002D01*
X128014494Y-96298037D01*
X128111185Y-96218685D01*
X128190537Y-96121994D01*
X128249502Y-96011680D01*
X128285812Y-95891982D01*
X128298072Y-95767500D01*
X128298072Y-95367500D01*
X128286500Y-95249999D01*
X128298072Y-95132500D01*
X128298072Y-94949392D01*
X128412766Y-94855264D01*
X128437349Y-94825310D01*
X130067816Y-93194844D01*
X130097764Y-93170266D01*
X130122388Y-93140263D01*
X130157482Y-93097500D01*
X130195862Y-93050735D01*
X130268754Y-92914362D01*
X130313641Y-92766389D01*
X130325000Y-92651063D01*
X130325000Y-92651056D01*
X130328797Y-92612503D01*
X130325000Y-92573950D01*
X130325000Y-91765157D01*
X130595000Y-91495157D01*
X130595000Y-91586260D01*
X130652068Y-91873158D01*
X130764010Y-92143411D01*
X130926525Y-92386632D01*
X131133368Y-92593475D01*
X131295000Y-92701474D01*
X131295001Y-93045473D01*
X131265150Y-93054528D01*
X131111614Y-93136595D01*
X130977038Y-93247038D01*
X130866595Y-93381614D01*
X130784528Y-93535150D01*
X130733992Y-93701746D01*
X130716928Y-93875000D01*
X130716928Y-94550000D01*
X130733992Y-94723254D01*
X130784528Y-94889850D01*
X130866595Y-95043386D01*
X130977038Y-95177962D01*
X130983594Y-95183342D01*
X130903815Y-95248815D01*
X130824463Y-95345506D01*
X130765498Y-95455820D01*
X130729188Y-95575518D01*
X130716928Y-95700000D01*
X130720000Y-96001750D01*
X130878750Y-96160500D01*
X131953000Y-96160500D01*
X131953000Y-96140500D01*
X132207000Y-96140500D01*
X132207000Y-96160500D01*
X133281250Y-96160500D01*
X133440000Y-96001750D01*
X133443072Y-95700000D01*
X133430812Y-95575518D01*
X133394502Y-95455820D01*
X133335537Y-95345506D01*
X133256185Y-95248815D01*
X133176406Y-95183342D01*
X133182962Y-95177962D01*
X133293405Y-95043386D01*
X133375472Y-94889850D01*
X133426008Y-94723254D01*
X133443072Y-94550000D01*
X133443072Y-93875000D01*
X133426008Y-93701746D01*
X133375472Y-93535150D01*
X133293405Y-93381614D01*
X133182962Y-93247038D01*
X133048386Y-93136595D01*
X132894850Y-93054528D01*
X132865000Y-93045473D01*
X132865000Y-92701474D01*
X133026632Y-92593475D01*
X133233475Y-92386632D01*
X133395990Y-92143411D01*
X133507932Y-91873158D01*
X133565000Y-91586260D01*
X133565000Y-91293740D01*
X133507932Y-91006842D01*
X133395990Y-90736589D01*
X133233475Y-90493368D01*
X133026632Y-90286525D01*
X132852240Y-90170000D01*
X133026632Y-90053475D01*
X133233475Y-89846632D01*
X133395990Y-89603411D01*
X133507932Y-89333158D01*
X133565000Y-89046260D01*
X133565000Y-88753740D01*
X133515344Y-88504103D01*
X133844197Y-88175250D01*
X133872237Y-88152238D01*
X133895250Y-88124197D01*
X133895253Y-88124194D01*
X133964086Y-88040321D01*
X133964087Y-88040320D01*
X134032337Y-87912633D01*
X134074365Y-87774085D01*
X134085000Y-87666105D01*
X134085000Y-87666096D01*
X134088555Y-87630001D01*
X134085000Y-87593906D01*
X134085000Y-86664446D01*
X134552154Y-86197293D01*
X134568992Y-86368255D01*
G37*
G04 #@! TD.AperFunction*
D24*
X121396497Y-84452120D02*
X121360187Y-84571818D01*
X121347927Y-84696300D01*
X121347927Y-85674200D01*
X121360187Y-85798682D01*
X121396497Y-85918380D01*
X121455462Y-86028694D01*
X121534814Y-86125385D01*
X121631505Y-86204737D01*
X121741819Y-86263702D01*
X121861517Y-86300012D01*
X121985999Y-86312272D01*
X122493999Y-86312272D01*
X122618481Y-86300012D01*
X122738179Y-86263702D01*
X122848493Y-86204737D01*
X122945184Y-86125385D01*
X123024536Y-86028694D01*
X123083501Y-85918380D01*
X123119811Y-85798682D01*
X123132071Y-85674200D01*
X123132071Y-84696300D01*
X123123079Y-84605000D01*
X123256921Y-84605000D01*
X123247929Y-84696300D01*
X123247929Y-85674200D01*
X123260189Y-85798682D01*
X123296499Y-85918380D01*
X123355464Y-86028694D01*
X123434816Y-86125385D01*
X123531507Y-86204737D01*
X123641821Y-86263702D01*
X123761519Y-86300012D01*
X123886001Y-86312272D01*
X124394001Y-86312272D01*
X124518483Y-86300012D01*
X124638181Y-86263702D01*
X124748495Y-86204737D01*
X124845186Y-86125385D01*
X124924538Y-86028694D01*
X124955777Y-85970250D01*
X127097107Y-85970250D01*
X127167038Y-86055462D01*
X127301614Y-86165905D01*
X127455150Y-86247972D01*
X127621746Y-86298508D01*
X127795000Y-86315572D01*
X128745000Y-86315572D01*
X128918254Y-86298508D01*
X129084850Y-86247972D01*
X129238386Y-86165905D01*
X129372962Y-86055462D01*
X129483405Y-85920886D01*
X129507932Y-85875000D01*
X130484843Y-85875000D01*
X130591928Y-85982085D01*
X130591928Y-87210000D01*
X130604188Y-87334482D01*
X130640498Y-87454180D01*
X130699463Y-87564494D01*
X130778815Y-87661185D01*
X130875506Y-87740537D01*
X130985820Y-87799502D01*
X131058380Y-87821513D01*
X130926525Y-87953368D01*
X130764010Y-88196589D01*
X130652068Y-88466842D01*
X130595000Y-88753740D01*
X130595000Y-89046260D01*
X130632924Y-89236918D01*
X129012190Y-90857653D01*
X128982236Y-90882236D01*
X128884138Y-91001768D01*
X128811246Y-91138141D01*
X128766359Y-91286114D01*
X128755000Y-91401440D01*
X128755000Y-91401447D01*
X128751203Y-91440000D01*
X128755000Y-91478553D01*
X128755001Y-92287343D01*
X128290610Y-92751734D01*
X128286042Y-92705354D01*
X128295000Y-92624250D01*
X128244256Y-92573506D01*
X128190537Y-92473006D01*
X128124468Y-92392500D01*
X128190537Y-92311994D01*
X128244256Y-92211494D01*
X128295000Y-92160750D01*
X128286042Y-92079646D01*
X128298072Y-91957500D01*
X128298072Y-91557500D01*
X128286500Y-91439999D01*
X128298072Y-91322500D01*
X128298072Y-90922500D01*
X128286500Y-90805000D01*
X128298072Y-90687500D01*
X128298072Y-90287500D01*
X128286500Y-90170000D01*
X128298072Y-90052500D01*
X128298072Y-89652500D01*
X128285812Y-89528018D01*
X128249502Y-89408320D01*
X128190537Y-89298006D01*
X128111185Y-89201315D01*
X128014494Y-89121963D01*
X127904180Y-89062998D01*
X127784482Y-89026688D01*
X127660000Y-89014428D01*
X126460000Y-89014428D01*
X126335518Y-89026688D01*
X126215820Y-89062998D01*
X126105506Y-89121963D01*
X126008815Y-89201315D01*
X126004698Y-89206331D01*
X125973789Y-89222853D01*
X125944678Y-89238413D01*
X125832760Y-89330262D01*
X125809744Y-89358307D01*
X125235808Y-89932244D01*
X125207763Y-89955260D01*
X125115914Y-90067178D01*
X125065528Y-90161444D01*
X125047664Y-90194865D01*
X125005635Y-90333413D01*
X124991444Y-90477498D01*
X124995001Y-90513613D01*
X124995001Y-90612827D01*
X124926572Y-90567104D01*
X124747314Y-90492853D01*
X124560113Y-90455616D01*
X124444360Y-90393746D01*
X124296387Y-90348859D01*
X124181061Y-90337500D01*
X124181053Y-90337500D01*
X124142500Y-90333703D01*
X124103947Y-90337500D01*
X123494125Y-90337500D01*
X123495001Y-90328606D01*
X123498557Y-90292501D01*
X123495001Y-90256396D01*
X123495001Y-89448604D01*
X123498557Y-89412499D01*
X123492363Y-89349609D01*
X123484366Y-89268414D01*
X123442338Y-89129866D01*
X123374088Y-89002179D01*
X123282238Y-88890261D01*
X123254193Y-88867245D01*
X123245260Y-88858312D01*
X123222239Y-88830261D01*
X123110321Y-88738412D01*
X123035875Y-88698620D01*
X123034365Y-88683286D01*
X123015936Y-88622534D01*
X122992337Y-88544738D01*
X122924087Y-88417051D01*
X122876242Y-88358753D01*
X122855253Y-88333177D01*
X122855250Y-88333174D01*
X122832237Y-88305133D01*
X122804197Y-88282121D01*
X121126160Y-86604085D01*
X121103140Y-86576035D01*
X120991222Y-86484186D01*
X120863535Y-86415936D01*
X120724987Y-86373908D01*
X120617007Y-86363273D01*
X120580902Y-86359717D01*
X120544797Y-86363273D01*
X119897975Y-86363273D01*
X119867876Y-86333174D01*
X119706547Y-86225377D01*
X119527289Y-86151126D01*
X119336989Y-86113273D01*
X119142961Y-86113273D01*
X118952661Y-86151126D01*
X118773403Y-86225377D01*
X118612074Y-86333174D01*
X118474876Y-86470372D01*
X118367079Y-86631701D01*
X118324545Y-86734388D01*
X117465157Y-85875000D01*
X119566196Y-85875000D01*
X119604749Y-85878797D01*
X119643302Y-85875000D01*
X119643310Y-85875000D01*
X119758636Y-85863641D01*
X119906609Y-85818754D01*
X120042982Y-85745862D01*
X120162513Y-85647764D01*
X120187096Y-85617810D01*
X121446691Y-84358216D01*
X121396497Y-84452120D01*
G04 #@! TA.AperFunction,Conductor*
D25*
G36*
X121396497Y-84452120D02*
G01*
X121360187Y-84571818D01*
X121347927Y-84696300D01*
X121347927Y-85674200D01*
X121360187Y-85798682D01*
X121396497Y-85918380D01*
X121455462Y-86028694D01*
X121534814Y-86125385D01*
X121631505Y-86204737D01*
X121741819Y-86263702D01*
X121861517Y-86300012D01*
X121985999Y-86312272D01*
X122493999Y-86312272D01*
X122618481Y-86300012D01*
X122738179Y-86263702D01*
X122848493Y-86204737D01*
X122945184Y-86125385D01*
X123024536Y-86028694D01*
X123083501Y-85918380D01*
X123119811Y-85798682D01*
X123132071Y-85674200D01*
X123132071Y-84696300D01*
X123123079Y-84605000D01*
X123256921Y-84605000D01*
X123247929Y-84696300D01*
X123247929Y-85674200D01*
X123260189Y-85798682D01*
X123296499Y-85918380D01*
X123355464Y-86028694D01*
X123434816Y-86125385D01*
X123531507Y-86204737D01*
X123641821Y-86263702D01*
X123761519Y-86300012D01*
X123886001Y-86312272D01*
X124394001Y-86312272D01*
X124518483Y-86300012D01*
X124638181Y-86263702D01*
X124748495Y-86204737D01*
X124845186Y-86125385D01*
X124924538Y-86028694D01*
X124955777Y-85970250D01*
X127097107Y-85970250D01*
X127167038Y-86055462D01*
X127301614Y-86165905D01*
X127455150Y-86247972D01*
X127621746Y-86298508D01*
X127795000Y-86315572D01*
X128745000Y-86315572D01*
X128918254Y-86298508D01*
X129084850Y-86247972D01*
X129238386Y-86165905D01*
X129372962Y-86055462D01*
X129483405Y-85920886D01*
X129507932Y-85875000D01*
X130484843Y-85875000D01*
X130591928Y-85982085D01*
X130591928Y-87210000D01*
X130604188Y-87334482D01*
X130640498Y-87454180D01*
X130699463Y-87564494D01*
X130778815Y-87661185D01*
X130875506Y-87740537D01*
X130985820Y-87799502D01*
X131058380Y-87821513D01*
X130926525Y-87953368D01*
X130764010Y-88196589D01*
X130652068Y-88466842D01*
X130595000Y-88753740D01*
X130595000Y-89046260D01*
X130632924Y-89236918D01*
X129012190Y-90857653D01*
X128982236Y-90882236D01*
X128884138Y-91001768D01*
X128811246Y-91138141D01*
X128766359Y-91286114D01*
X128755000Y-91401440D01*
X128755000Y-91401447D01*
X128751203Y-91440000D01*
X128755000Y-91478553D01*
X128755001Y-92287343D01*
X128290610Y-92751734D01*
X128286042Y-92705354D01*
X128295000Y-92624250D01*
X128244256Y-92573506D01*
X128190537Y-92473006D01*
X128124468Y-92392500D01*
X128190537Y-92311994D01*
X128244256Y-92211494D01*
X128295000Y-92160750D01*
X128286042Y-92079646D01*
X128298072Y-91957500D01*
X128298072Y-91557500D01*
X128286500Y-91439999D01*
X128298072Y-91322500D01*
X128298072Y-90922500D01*
X128286500Y-90805000D01*
X128298072Y-90687500D01*
X128298072Y-90287500D01*
X128286500Y-90170000D01*
X128298072Y-90052500D01*
X128298072Y-89652500D01*
X128285812Y-89528018D01*
X128249502Y-89408320D01*
X128190537Y-89298006D01*
X128111185Y-89201315D01*
X128014494Y-89121963D01*
X127904180Y-89062998D01*
X127784482Y-89026688D01*
X127660000Y-89014428D01*
X126460000Y-89014428D01*
X126335518Y-89026688D01*
X126215820Y-89062998D01*
X126105506Y-89121963D01*
X126008815Y-89201315D01*
X126004698Y-89206331D01*
X125973789Y-89222853D01*
X125944678Y-89238413D01*
X125832760Y-89330262D01*
X125809744Y-89358307D01*
X125235808Y-89932244D01*
X125207763Y-89955260D01*
X125115914Y-90067178D01*
X125065528Y-90161444D01*
X125047664Y-90194865D01*
X125005635Y-90333413D01*
X124991444Y-90477498D01*
X124995001Y-90513613D01*
X124995001Y-90612827D01*
X124926572Y-90567104D01*
X124747314Y-90492853D01*
X124560113Y-90455616D01*
X124444360Y-90393746D01*
X124296387Y-90348859D01*
X124181061Y-90337500D01*
X124181053Y-90337500D01*
X124142500Y-90333703D01*
X124103947Y-90337500D01*
X123494125Y-90337500D01*
X123495001Y-90328606D01*
X123498557Y-90292501D01*
X123495001Y-90256396D01*
X123495001Y-89448604D01*
X123498557Y-89412499D01*
X123492363Y-89349609D01*
X123484366Y-89268414D01*
X123442338Y-89129866D01*
X123374088Y-89002179D01*
X123282238Y-88890261D01*
X123254193Y-88867245D01*
X123245260Y-88858312D01*
X123222239Y-88830261D01*
X123110321Y-88738412D01*
X123035875Y-88698620D01*
X123034365Y-88683286D01*
X123015936Y-88622534D01*
X122992337Y-88544738D01*
X122924087Y-88417051D01*
X122876242Y-88358753D01*
X122855253Y-88333177D01*
X122855250Y-88333174D01*
X122832237Y-88305133D01*
X122804197Y-88282121D01*
X121126160Y-86604085D01*
X121103140Y-86576035D01*
X120991222Y-86484186D01*
X120863535Y-86415936D01*
X120724987Y-86373908D01*
X120617007Y-86363273D01*
X120580902Y-86359717D01*
X120544797Y-86363273D01*
X119897975Y-86363273D01*
X119867876Y-86333174D01*
X119706547Y-86225377D01*
X119527289Y-86151126D01*
X119336989Y-86113273D01*
X119142961Y-86113273D01*
X118952661Y-86151126D01*
X118773403Y-86225377D01*
X118612074Y-86333174D01*
X118474876Y-86470372D01*
X118367079Y-86631701D01*
X118324545Y-86734388D01*
X117465157Y-85875000D01*
X119566196Y-85875000D01*
X119604749Y-85878797D01*
X119643302Y-85875000D01*
X119643310Y-85875000D01*
X119758636Y-85863641D01*
X119906609Y-85818754D01*
X120042982Y-85745862D01*
X120162513Y-85647764D01*
X120187096Y-85617810D01*
X121446691Y-84358216D01*
X121396497Y-84452120D01*
G37*
G04 #@! TD.AperFunction*
M02*
